<svg width="25" height="25" viewBox="0 0 25 25" fill="none" xmlns="http://www.w3.org/2000/svg">
<path d="M19.5316 23.4379C19.3405 23.4384 19.1559 23.3689 19.0126 23.2426L12.5004 17.452L5.98816 23.2426C5.87547 23.3427 5.73619 23.4082 5.58714 23.4309C5.43808 23.4537 5.28562 23.4329 5.14815 23.3709C5.01068 23.309 4.89407 23.2086 4.8124 23.0818C4.73073 22.9551 4.68748 22.8074 4.68787 22.6566V4.68787C4.68877 3.85934 5.0183 3.06501 5.60416 2.47916C6.19001 1.8933 6.98435 1.56377 7.81287 1.56287H17.1879C18.0164 1.56377 18.8107 1.8933 19.3966 2.47916C19.9824 3.06501 20.312 3.85934 20.3129 4.68787V22.6566C20.3129 22.8638 20.2306 23.0625 20.084 23.209C19.9375 23.3556 19.7388 23.4379 19.5316 23.4379Z" fill="white"/>
</svg>
