<svg width="25" height="25" viewBox="0 0 25 25" fill="none" xmlns="http://www.w3.org/2000/svg">
<path d="M12.5007 15.6255C14.2268 15.6255 15.6261 14.2262 15.6261 12.5001C15.6261 10.7739 14.2268 9.37463 12.5007 9.37463C10.7746 9.37463 9.37524 10.7739 9.37524 12.5001C9.37524 14.2262 10.7746 15.6255 12.5007 15.6255Z" fill="white"/>
<path d="M23.9676 11.6499C22.6756 9.65186 20.9994 7.95459 19.1205 6.74121C17.0418 5.39746 14.7469 4.68701 12.4842 4.68701C10.408 4.68701 8.36654 5.28027 6.41635 6.4502C4.42758 7.64307 2.62582 9.38574 1.06088 11.6294C0.884212 11.883 0.786914 12.1833 0.78135 12.4923C0.775786 12.8013 0.862206 13.105 1.02963 13.3647C2.31918 15.3828 3.97885 17.0825 5.82846 18.2793C7.91098 19.6284 10.1522 20.312 12.4842 20.312C14.765 20.312 17.0648 19.6074 19.1346 18.2749C21.0125 17.0654 22.6854 15.3618 23.9725 13.3472C24.1342 13.0934 24.2196 12.7987 24.2188 12.4978C24.2179 12.197 24.1307 11.9027 23.9676 11.6499V11.6499ZM12.5008 17.187C11.5737 17.187 10.6674 16.9121 9.89659 16.397C9.12573 15.882 8.52492 15.1499 8.17014 14.2933C7.81535 13.4368 7.72252 12.4943 7.90339 11.585C8.08426 10.6757 8.5307 9.84051 9.18626 9.18495C9.84182 8.52939 10.6771 8.08295 11.5863 7.90208C12.4956 7.72121 13.4381 7.81404 14.2947 8.16883C15.1512 8.52361 15.8833 9.12442 16.3983 9.89528C16.9134 10.6661 17.1883 11.5724 17.1883 12.4995C17.1869 13.7423 16.6926 14.9337 15.8138 15.8125C14.935 16.6913 13.7436 17.1856 12.5008 17.187V17.187Z" fill="white"/>
</svg>
