<svg width="25" height="25" viewBox="0 0 25 25" fill="none" xmlns="http://www.w3.org/2000/svg">
<path d="M6.16002 15.3885C6.15964 15.8433 6.02444 16.2877 5.77153 16.6656C5.51862 17.0435 5.15934 17.3379 4.73912 17.5116C4.3189 17.6854 3.8566 17.7306 3.41066 17.6417C2.96472 17.5527 2.55517 17.3336 2.23377 17.0119C1.91237 16.6902 1.69355 16.2805 1.60498 15.8345C1.51641 15.3885 1.56206 14.9262 1.73617 14.5061C1.91027 14.0861 2.20501 13.727 2.58312 13.4744C2.96124 13.2219 3.40576 13.087 3.86048 13.087H6.16002V15.3885Z" fill="#666666"/>
<path d="M7.31546 15.3867C7.31546 14.7772 7.55759 14.1926 7.98858 13.7616C8.41957 13.3306 9.00412 13.0885 9.61364 13.0885C10.2232 13.0885 10.8077 13.3306 11.2387 13.7616C11.6697 14.1926 11.9118 14.7772 11.9118 15.3867V21.1414C11.9118 21.7509 11.6697 22.3355 11.2387 22.7665C10.8077 23.1975 10.2232 23.4396 9.61364 23.4396C9.00412 23.4396 8.41957 23.1975 7.98858 22.7665C7.55759 22.3355 7.31546 21.7509 7.31546 21.1414V15.3867Z" fill="#666666"/>
<path d="M9.61533 6.16317C9.16061 6.16279 8.71621 6.02759 8.33831 5.77468C7.96041 5.52177 7.66598 5.16249 7.49223 4.74227C7.31848 4.32205 7.27322 3.85975 7.36217 3.41381C7.45112 2.96788 7.67028 2.55832 7.99196 2.23692C8.31363 1.91552 8.72338 1.6967 9.16939 1.60813C9.6154 1.51956 10.0777 1.56521 10.4977 1.73932C10.9178 1.91342 11.2768 2.20816 11.5294 2.58628C11.782 2.96439 11.9168 3.40891 11.9168 3.86363V6.16317H9.61533Z" fill="#666666"/>
<path d="M9.61384 7.31665C10.2234 7.31665 10.8079 7.55878 11.2389 7.98977C11.6699 8.42076 11.912 9.00531 11.912 9.61483C11.912 10.2243 11.6699 10.8089 11.2389 11.2399C10.8079 11.6709 10.2234 11.913 9.61384 11.913H3.85912C3.2496 11.913 2.66505 11.6709 2.23406 11.2399C1.80306 10.8089 1.56094 10.2243 1.56094 9.61483C1.56094 9.00531 1.80306 8.42076 2.23406 7.98977C2.66505 7.55878 3.2496 7.31665 3.85912 7.31665H9.61384Z" fill="#666666"/>
<path d="M18.8409 9.61631C18.8413 9.16159 18.9765 8.71719 19.2294 8.33929C19.4823 7.96139 19.8416 7.66696 20.2618 7.49321C20.682 7.31946 21.1443 7.2742 21.5903 7.36315C22.0362 7.4521 22.4457 7.67126 22.7672 7.99294C23.0886 8.31461 23.3074 8.72436 23.3959 9.17037C23.4845 9.61638 23.4389 10.0786 23.2648 10.4987C23.0906 10.9188 22.7959 11.2778 22.4178 11.5304C22.0397 11.783 21.5952 11.9178 21.1404 11.9178H18.8409V9.61631Z" fill="#666666"/>
<path d="M17.6837 9.61699C17.6837 10.2265 17.4416 10.8111 17.0106 11.2421C16.5796 11.673 15.995 11.9152 15.3855 11.9152C14.776 11.9152 14.1914 11.673 13.7604 11.2421C13.3295 10.8111 13.0873 10.2265 13.0873 9.61699V3.86227C13.0873 3.25275 13.3295 2.6682 13.7604 2.23721C14.1914 1.80622 14.776 1.56409 15.3855 1.56409C15.995 1.56409 16.5796 1.80622 17.0106 2.23721C17.4416 2.6682 17.6837 3.25275 17.6837 3.86227V9.61699Z" fill="#666666"/>
<path d="M15.3865 18.8424C15.8413 18.8428 16.2857 18.978 16.6636 19.2309C17.0415 19.4838 17.3359 19.8431 17.5096 20.2633C17.6834 20.6835 17.7286 21.1458 17.6397 21.5918C17.5508 22.0377 17.3316 22.4473 17.0099 22.7687C16.6882 23.0901 16.2785 23.3089 15.8325 23.3974C15.3865 23.486 14.9242 23.4404 14.5041 23.2663C14.0841 23.0922 13.725 22.7974 13.4724 22.4193C13.2199 22.0412 13.085 21.5967 13.085 21.1419V18.8424H15.3865Z" fill="#666666"/>
<path d="M15.3855 17.6849C14.776 17.6849 14.1914 17.4427 13.7604 17.0117C13.3295 16.5807 13.0873 15.9962 13.0873 15.3867C13.0873 14.7772 13.3295 14.1926 13.7604 13.7616C14.1914 13.3306 14.776 13.0885 15.3855 13.0885H21.1402C21.7497 13.0885 22.3343 13.3306 22.7653 13.7616C23.1963 14.1926 23.4384 14.7772 23.4384 15.3867C23.4384 15.9962 23.1963 16.5807 22.7653 17.0117C22.3343 17.4427 21.7497 17.6849 21.1402 17.6849H15.3855Z" fill="#666666"/>
</svg>
