<svg width="25" height="25" viewBox="0 0 25 25" fill="none" xmlns="http://www.w3.org/2000/svg">
<path d="M23.0512 16.3083L16.0121 16.009C15.787 15.9914 14.8451 15.9499 14.8451 14.7458C14.8451 13.5832 15.7807 13.509 16.0238 13.4821L23.0512 13.1833C23.6698 13.1896 24.2201 13.8879 24.2201 14.7458C24.2201 15.6037 23.6698 16.3019 23.0512 16.3083ZM16.1444 9.87909L21.3564 9.47235C21.974 9.47235 22.6576 10.2868 22.6576 11.1266V11.1428C22.6576 11.9396 22.1137 12.5891 21.4428 12.5974L16.1474 12.5129C14.8451 12.3532 14.8451 11.5637 14.8451 11.2243C14.8451 10.1071 15.9096 9.89862 16.1444 9.87909ZM20.5995 23.4372L16.2357 23.0012C15.0404 22.9558 14.8451 22.1589 14.8451 21.6594C14.8451 20.7619 15.4999 20.4582 16.1474 20.4582L20.5907 20.3117C21.3007 20.3229 21.8759 21.0197 21.8759 21.8742C21.8759 22.7287 21.3061 23.4206 20.5995 23.4372ZM22.2772 19.946L16.1054 19.6428C15.6469 19.612 14.8451 19.4963 14.8451 18.3552C14.8451 17.7692 15.0575 17.1047 16.0658 17.0109L22.2763 16.8215C22.9189 16.8283 23.4389 17.4802 23.4389 18.3547C23.4389 19.2292 22.9189 19.9382 22.2772 19.9455V19.946Z" fill="#666666"/>
<path d="M6.81223 11.3712L6.86248 11.2707C6.78977 11.4246 6.67085 11.5519 6.52229 11.635C6.63881 11.5717 6.73829 11.4812 6.81223 11.3712V11.3712Z" fill="#666666"/>
<path d="M15.4327 2.56946C14.9722 1.92004 14.209 1.56262 13.2813 1.56262C13.1362 1.56261 12.994 1.60298 12.8706 1.67922C12.7472 1.75545 12.6475 1.86454 12.5826 1.99426C12.4361 2.29065 11.8379 3.16614 11.2061 4.08948C10.3272 5.37512 9.23589 6.97376 8.50932 8.2301L8.50298 8.24133C7.50298 9.97424 7.02104 10.9235 6.85161 11.2687L6.80278 11.3663C6.73047 11.4728 6.63348 11.5603 6.52007 11.6212V11.6212C6.40756 11.6839 6.28117 11.7175 6.15239 11.7189H4.91655C3.81981 11.7189 2.76799 12.1545 1.99248 12.9301C1.21697 13.7056 0.781296 14.7574 0.781296 15.8541V17.7394C0.781232 18.2825 0.888146 18.8203 1.09593 19.322C1.30372 19.8238 1.60831 20.2797 1.99231 20.6638C2.37631 21.0478 2.8322 21.3525 3.33394 21.5603C3.83569 21.7681 4.37346 21.8751 4.91655 21.8751H7.29887C7.46519 21.8758 7.62772 21.9248 7.76665 22.0162C8.88677 22.7477 11.003 23.4376 13.2813 23.4376C13.6451 23.4376 13.9742 23.4308 14.271 23.4191C14.3418 23.4166 14.4105 23.3949 14.4698 23.3563C14.5292 23.3178 14.577 23.2639 14.6081 23.2003C14.6392 23.1367 14.6524 23.0659 14.6463 22.9954C14.6403 22.9248 14.6152 22.8573 14.5738 22.7999L14.5689 22.7931C14.1504 22.1881 14.0625 21.5333 14.0625 21.0939C14.0618 20.6775 14.1481 20.2655 14.316 19.8844C14.3638 19.7764 14.3885 19.6595 14.3885 19.5414C14.3885 19.4232 14.3638 19.3064 14.316 19.1984C14.1489 18.8097 14.0628 18.3911 14.0628 17.9681C14.0628 17.5451 14.1489 17.1266 14.316 16.7379C14.3635 16.6302 14.3881 16.5138 14.3881 16.3961C14.3881 16.2784 14.3635 16.162 14.316 16.0543C14.1498 15.6723 14.064 15.2602 14.064 14.8436C14.064 14.427 14.1498 14.0149 14.316 13.6329C14.3659 13.5201 14.3918 13.398 14.3918 13.2745C14.3918 13.1511 14.3659 13.029 14.316 12.9161C14.1418 12.5242 14.0553 12.0989 14.0625 11.67C14.0625 11.2697 14.1602 10.63 14.4532 10.1471C14.5124 10.0476 14.5481 9.9359 14.5578 9.8205C14.5674 9.70511 14.5507 9.58904 14.5088 9.48108C14.4903 9.43225 14.4717 9.38001 14.4537 9.32629C14.3952 9.14378 14.3808 8.95001 14.4117 8.76086C14.5582 7.81653 14.8838 6.98889 15.2291 6.11633C15.3794 5.73645 15.5352 5.34387 15.6792 4.93176C15.9791 4.07385 15.8892 3.21301 15.4327 2.56946Z" fill="#666666"/>
</svg>
