<svg width="150" height="150" viewBox="0 0 150 150" fill="none" xmlns="http://www.w3.org/2000/svg">
<g clip-path="url(#clip0_307_3555)">
<g filter="url(#filter0_i_307_3555)">
<path d="M9.2728 48.2634C3.05725 68.7563 21.112 92.0024 30.9163 101.064C30.5463 86.2519 30.2503 54.7459 32.0262 47.2179C39.7956 34.1485 17.0422 22.6474 9.2728 48.2634Z" fill="#D9D6B7"/>
<path d="M140.727 48.2634C146.943 68.7563 128.888 92.0024 119.084 101.064C119.454 86.2519 119.75 54.7459 117.974 47.2179C110.204 34.1485 132.958 22.6474 140.727 48.2634Z" fill="#D9D6B7"/>
</g>
<g filter="url(#filter1_i_307_3555)">
<path d="M25.0159 83.1948C25.0159 98.7661 29.8016 118.085 75 118.085C120.198 118.085 124.984 98.7661 124.984 83.1948C124.984 67.6235 124.984 22.5658 75 29.4294C25.0159 22.5658 25.0159 67.6235 25.0159 83.1948Z" fill="#D9D6B7"/>
</g>
<g filter="url(#filter2_i_307_3555)">
<path d="M35.6508 21.5253C35.6508 38.3583 39.9048 40.4255 75 40.4255C110.095 40.4255 114.349 38.3583 114.349 21.5253C114.349 9.45012 96.732 0 75 0C53.268 0 35.6508 9.45012 35.6508 21.5253Z" fill="#D9D6B7"/>
</g>
<ellipse rx="7.93092" ry="6.91489" transform="matrix(1 0 0.000477008 -1 40.3945 84.5746)" fill="#FF9D9D"/>
<ellipse rx="7.93092" ry="6.91489" transform="matrix(1 0 0.000508018 -1 109.605 84.5746)" fill="#FF9D9D"/>
<g filter="url(#filter3_i_307_3555)">
<path d="M48.4127 90.8865C48.4127 86.5177 54.9239 83.4397 59.8072 82.9432L69.0314 82.4468V93.3688C64.148 93.3688 60.8924 97.3404 54.3813 97.3404C52.1441 97.3404 48.4127 96.3475 48.4127 90.8865Z" fill="#ADD57F"/>
</g>
<path fill-rule="evenodd" clip-rule="evenodd" d="M71.5016 87.1997C71.9547 87.2038 72.3973 87.2079 72.8296 87.2079C73.2162 87.2079 73.5296 87.5213 73.5296 87.9079C73.5296 88.2945 73.2162 88.6079 72.8296 88.6079C72.3921 88.6079 71.9476 88.604 71.4957 88.6001C66.8799 88.5602 61.4844 88.5136 54.7362 92.4828C54.4029 92.6789 53.9739 92.5676 53.7779 92.2344C53.5819 91.9011 53.6931 91.4721 54.0264 91.2761C61.1178 87.105 66.8606 87.1574 71.5016 87.1997Z" fill="#443E3E"/>
<g filter="url(#filter4_i_307_3555)">
<path d="M101.587 90.8865C101.587 86.5177 95.0761 83.4397 90.1927 82.9432L80.9686 82.4468V93.3688C85.8519 93.3688 89.1075 97.3404 95.6187 97.3404C97.8559 97.3404 101.587 96.3475 101.587 90.8865Z" fill="#ADD57F"/>
</g>
<path fill-rule="evenodd" clip-rule="evenodd" d="M78.4984 87.1997C78.0453 87.2038 77.6027 87.2079 77.1704 87.2079C76.7838 87.2079 76.4704 87.5213 76.4704 87.9079C76.4704 88.2945 76.7838 88.6079 77.1704 88.6079C77.6079 88.6079 78.0524 88.604 78.5043 88.6001C83.1201 88.5602 88.5155 88.5136 95.2638 92.4828C95.597 92.6789 96.0261 92.5676 96.2221 92.2344C96.4181 91.9011 96.3068 91.4721 95.9736 91.2761C88.8822 87.105 83.1394 87.1574 78.4984 87.1997Z" fill="#443E3E"/>
<ellipse cx="52.1349" cy="74.4681" rx="2.65873" ry="3.19149" fill="url(#paint0_linear_307_3555)"/>
<ellipse cx="97.8651" cy="74.4681" rx="2.65873" ry="3.19149" fill="url(#paint1_linear_307_3555)"/>
<g filter="url(#filter5_d_307_3555)">
<path d="M57.9841 82.5942C57.9841 89.0724 63.1405 97.1702 75 97.1702C86.8595 97.1702 92.0159 89.0724 92.0159 82.5942C92.0159 76.1159 88.9221 61 75 61C61.0779 61 57.9841 76.1159 57.9841 82.5942Z" fill="#D9D6B7"/>
</g>
<g style="mix-blend-mode:multiply" opacity="0.3" filter="url(#filter6_i_307_3555)">
<path d="M57.9841 82.5942C57.9841 89.0724 63.1405 97.1702 75 97.1702C86.8595 97.1702 92.0159 89.0724 92.0159 82.5942C92.0159 76.1159 88.9221 61 75 61C61.0779 61 57.9841 76.1159 57.9841 82.5942Z" fill="#FAFAFA"/>
</g>
<g style="mix-blend-mode:lighten" opacity="0.4">
<path d="M57.9841 82.5942C57.9841 89.0724 63.1405 97.1702 75 97.1702C86.8595 97.1702 92.0159 89.0724 92.0159 82.5942C92.0159 76.1159 88.9221 61 75 61C61.0779 61 57.9841 76.1159 57.9841 82.5942Z" fill="url(#paint2_radial_307_3555)" fill-opacity="0.8" style="mix-blend-mode:screen"/>
</g>
<path d="M119.667 141.199C119.667 143.584 105.067 150 75 150C44.9325 150 30.3333 143.584 30.3333 141.199C30.3333 135.783 31.6095 126.306 30.9714 120.213H119.029C118.39 126.306 119.667 135.783 119.667 141.199Z" fill="#D9D6B7"/>
<path style="mix-blend-mode:multiply" opacity="0.3" d="M119.667 141.199C119.667 143.584 105.067 150 75 150C44.9325 150 30.3333 143.584 30.3333 141.199C30.3333 135.783 31.6095 126.306 30.9714 120.213H119.029C118.39 126.306 119.667 135.783 119.667 141.199Z" fill="url(#paint3_linear_307_3555)"/>
<path style="mix-blend-mode:multiply" opacity="0.3" d="M30.3333 141.199C30.3333 143.584 44.9325 150 75 150C105.067 150 119.667 143.584 119.667 141.199C119.667 135.783 118.39 126.306 119.029 120.213H30.9714C31.6095 126.306 30.3333 135.783 30.3333 141.199Z" fill="url(#paint4_linear_307_3555)"/>
<path d="M17.629 119.828C18.5202 117.112 24.6844 111.151 27.655 108.51L75 113.65L122.345 108.51C125.316 111.151 131.48 117.112 132.371 119.828C133.485 123.223 118.586 135.106 75 135.106C31.4141 135.106 16.515 123.223 17.629 119.828Z" fill="#E77373"/>
<mask id="mask0_307_3555" style="mask-type:alpha" maskUnits="userSpaceOnUse" x="17" y="108" width="116" height="28">
<path d="M17.629 119.828C18.5202 117.112 24.6844 111.151 27.655 108.51L75 113.65L122.345 108.51C125.316 111.151 131.48 117.112 132.371 119.828C133.485 123.223 118.586 135.106 75 135.106C31.4141 135.106 16.515 123.223 17.629 119.828Z" fill="#8AC44B"/>
</mask>
<g mask="url(#mask0_307_3555)">
<path d="M46.3058 113.83L55.0947 114.893L47.4094 136.17L38.5804 134.042L46.3058 113.83Z" fill="#F09A9B"/>
<path d="M38.5804 111.702L45.2022 113.83L37.4768 132.979L28.6478 130.851L38.5804 111.702Z" fill="#F09A9B"/>
<path d="M33.0623 109.574L37.4768 111.702L28.6478 128.723L22.0261 126.595L33.0623 109.574Z" fill="#F09A9B"/>
<path d="M29.7514 106.383L33.0623 108.51L22.0261 125.532L14.381 121.276L29.7514 106.383Z" fill="#F09A9B"/>
<path d="M56.2384 113.83L63.9638 114.893L60.6529 137.234L49.6167 136.17L56.2384 113.83Z" fill="#F09A9B"/>
<path d="M66.171 112.766L73.8964 113.989V137.234L62.8601 136.011L66.171 112.766Z" fill="#F09A9B"/>
<path d="M103.694 113.83L94.9054 114.893L102.591 136.17L111.42 134.042L103.694 113.83Z" fill="#F09A9B"/>
<path d="M111.42 111.702L104.798 113.83L112.523 132.979L121.352 130.851L111.42 111.702Z" fill="#F09A9B"/>
<path d="M116.938 109.574L112.523 111.702L121.352 128.723L127.974 126.595L116.938 109.574Z" fill="#F09A9B"/>
<path d="M120.249 106.383L116.938 108.51L127.974 125.532L135.619 121.276L120.249 106.383Z" fill="#F09A9B"/>
<path d="M93.7616 113.83L86.0363 114.893L89.3471 137.234L100.383 136.17L93.7616 113.83Z" fill="#F09A9B"/>
<path d="M83.829 112.766L76.1037 113.989V137.234L87.1399 136.011L83.829 112.766Z" fill="#F09A9B"/>
</g>
<path d="M122.857 107.629C122.857 106.681 122.269 101.064 121.157 101.064C121.157 101.492 120.347 102.119 120.044 102.35C119.742 102.581 117.704 103.597 116.706 103.983C114.72 104.752 111.707 105.508 107.811 106.169C100.054 107.485 89.2363 107.705 77.2244 107.705H72.7756C60.7637 107.705 49.9464 107.485 42.1888 106.169C38.2927 105.508 35.2797 104.752 33.2942 103.983C32.2964 103.597 30.2584 102.581 29.9555 102.35C29.6527 102.119 28.8433 101.492 28.8433 101.064C27.7311 101.064 27.1429 106.681 27.1429 107.629C27.1429 108.712 27.3281 109.561 28.1507 110.205C28.9727 110.849 30.072 111.396 31.2973 111.871C33.7579 112.824 37.1787 113.653 41.2328 114.341C49.3756 115.722 60.5243 115.957 72.7756 115.957H77.2244C89.4757 115.957 100.624 115.722 108.767 114.341C112.821 113.653 116.242 112.824 118.703 111.871C119.928 111.396 121.027 110.849 121.849 110.205C122.672 109.561 122.857 108.712 122.857 107.629Z" fill="#E77373"/>
<path opacity="0.2" d="M27.1429 107.629C27.1429 106.681 27.7311 101.064 28.8433 101.064C28.8433 101.492 29.6527 102.119 29.9555 102.35C30.2584 102.581 32.2964 103.597 33.2942 103.983C35.2797 104.752 38.2927 105.508 42.1888 106.169C49.9464 107.485 60.7637 107.705 72.7756 107.705H77.2244C89.2363 107.705 100.054 107.485 107.811 106.169C111.707 105.508 114.72 104.752 116.706 103.983C117.704 103.597 119.742 102.581 120.044 102.35C120.347 102.119 121.157 101.492 121.157 101.064C122.269 101.064 122.857 106.681 122.857 107.629C122.857 108.712 122.672 109.561 121.849 110.205C121.027 110.849 119.928 111.396 118.703 111.871C116.242 112.824 112.821 113.653 108.767 114.341C100.624 115.722 89.4757 115.957 77.2244 115.957H72.7756C60.5243 115.957 49.3756 115.722 41.2328 114.341C37.1787 113.653 33.7579 112.824 31.2973 111.871C30.072 111.396 28.9727 110.849 28.1507 110.205C27.3281 109.561 27.1429 108.712 27.1429 107.629Z" fill="url(#paint5_linear_307_3555)"/>
<path opacity="0.2" d="M122.857 107.629C122.857 106.681 122.269 101.064 121.157 101.064C121.157 101.492 120.347 102.119 120.044 102.35C119.742 102.581 117.704 103.597 116.706 103.983C114.72 104.752 111.707 105.508 107.811 106.169C100.054 107.485 89.2363 107.705 77.2244 107.705H72.7756C60.7637 107.705 49.9464 107.485 42.1888 106.169C38.2927 105.508 35.2797 104.752 33.2942 103.983C32.2964 103.597 30.2584 102.581 29.9555 102.35C29.6527 102.119 28.8433 101.492 28.8433 101.064C27.7311 101.064 27.1429 106.681 27.1429 107.629C27.1429 108.712 27.3281 109.561 28.1507 110.205C28.9727 110.849 30.072 111.396 31.2973 111.871C33.7579 112.824 37.1787 113.653 41.2328 114.341C49.3756 115.722 60.5243 115.957 72.7756 115.957H77.2244C89.4757 115.957 100.624 115.722 108.767 114.341C112.821 113.653 116.242 112.824 118.703 111.871C119.928 111.396 121.027 110.849 121.849 110.205C122.672 109.561 122.857 108.712 122.857 107.629Z" fill="url(#paint6_linear_307_3555)"/>
<path d="M113.546 37.1382C113.546 36.8015 113.073 36.2668 112.177 36.2668C112.177 36.4192 111.525 36.6419 111.281 36.7241C111.037 36.8062 109.395 37.1673 108.592 37.3047C106.993 37.578 104.566 37.8466 101.428 38.0815C95.1794 38.5493 86.4666 38.8577 76.7917 38.8577H73.2084C63.5334 38.8577 54.8207 38.5493 48.5723 38.0815C45.4342 37.8466 43.0074 37.578 41.4082 37.3047C40.6045 37.1673 38.963 36.8062 38.7191 36.7241C38.4752 36.6419 37.8233 36.4192 37.8233 36.2668C36.9274 36.2668 36.4536 36.8015 36.4536 37.1382C36.4536 37.5231 36.6029 37.825 37.2654 38.054C37.9275 38.2828 38.8129 38.4773 39.7998 38.646C41.7817 38.9847 44.537 39.2797 47.8023 39.5241C54.3609 40.0151 63.3406 40.3287 73.2084 40.3287H76.7917C86.6594 40.3287 95.6391 40.0151 102.198 39.5241C105.463 39.2797 108.218 38.9847 110.2 38.646C111.187 38.4773 112.073 38.2828 112.735 38.054C113.397 37.825 113.546 37.5231 113.546 37.1382Z" fill="#F09A9B"/>
<path fill-rule="evenodd" clip-rule="evenodd" d="M110.599 35.1064H112.177C113.287 35.1064 114.128 35.4498 114.644 35.843C115.121 36.2067 115.413 36.679 115.413 37.1383C115.413 37.4125 115.364 37.7867 115.064 38.166C114.747 38.5676 114.242 38.8607 113.641 39.0685C112.786 39.3641 111.733 39.5877 110.695 39.7652C108.581 40.1264 105.72 40.4295 102.421 40.6765C95.7704 41.1743 86.7136 41.4894 76.7916 41.4894H73.2083C63.2863 41.4894 54.2296 41.1743 47.5792 40.6765C44.2797 40.4295 41.4186 40.1264 39.3052 39.7652C38.2667 39.5877 37.214 39.3641 36.3587 39.0685C35.7575 38.8607 35.2526 38.5676 34.9356 38.166C34.6363 37.7867 34.5873 37.4125 34.5873 37.1383C34.5873 36.679 34.8791 36.2067 35.356 35.843C35.8716 35.4498 36.7133 35.1064 37.8232 35.1064H39.4036L39.6896 35.7207C39.7181 35.7277 39.7526 35.736 39.7935 35.7457C39.9739 35.7884 40.2102 35.8419 40.4698 35.8983C40.9997 36.0135 41.5632 36.1277 41.9027 36.1858C43.3705 36.4366 45.6913 36.6971 48.7954 36.9294C54.952 37.3903 63.5876 37.6973 73.2083 37.6973H76.7916C86.4123 37.6973 95.048 37.3903 101.205 36.9294C104.309 36.6971 106.629 36.4366 108.097 36.1858L108.592 37.3048C106.993 37.5781 104.566 37.8467 101.428 38.0817C95.1793 38.5494 86.4666 38.8578 76.7916 38.8578H73.2083C63.5334 38.8578 54.8206 38.5494 48.5723 38.0817C45.4342 37.8467 43.0074 37.5781 41.4081 37.3048C40.6045 37.1675 38.963 36.8063 38.7191 36.7242C38.4751 36.6421 37.8232 36.4194 37.8232 36.267C36.9559 36.267 36.4841 36.7682 36.455 37.1056C36.4541 37.1167 36.4536 37.1276 36.4536 37.1383C36.4536 37.5233 36.6028 37.8251 37.2654 38.0541C37.9275 38.2829 38.8128 38.4775 39.7998 38.6462C41.7817 38.9849 44.5369 39.2798 47.8023 39.5242C54.3609 40.0152 63.3406 40.3289 73.2083 40.3289H76.7916C86.6594 40.3289 95.6391 40.0152 102.198 39.5242C105.463 39.2798 108.218 38.9849 110.2 38.6462C111.187 38.4775 112.072 38.2829 112.735 38.0541C113.397 37.8251 113.546 37.5233 113.546 37.1383C113.546 37.1276 113.546 37.1167 113.545 37.1056C113.516 36.7682 113.044 36.267 112.177 36.267C112.177 36.4194 111.525 36.6421 111.281 36.7242C111.037 36.8063 109.395 37.1675 108.592 37.3048L108.097 36.1858C108.437 36.1277 109 36.0135 109.53 35.8983C109.79 35.8419 110.026 35.7884 110.206 35.7457C110.247 35.736 110.282 35.7277 110.31 35.7207L110.599 35.1064Z" fill="#F09A9B"/>
</g>
<defs>
<filter id="filter0_i_307_3555" x="8" y="32.9788" width="134" height="72.0852" filterUnits="userSpaceOnUse" color-interpolation-filters="sRGB">
<feFlood flood-opacity="0" result="BackgroundImageFix"/>
<feBlend mode="normal" in="SourceGraphic" in2="BackgroundImageFix" result="shape"/>
<feColorMatrix in="SourceAlpha" type="matrix" values="0 0 0 0 0 0 0 0 0 0 0 0 0 0 0 0 0 0 127 0" result="hardAlpha"/>
<feOffset dy="4"/>
<feGaussianBlur stdDeviation="8"/>
<feComposite in2="hardAlpha" operator="arithmetic" k2="-1" k3="1"/>
<feColorMatrix type="matrix" values="0 0 0 0 0.475 0 0 0 0 0.0855 0 0 0 0 0 0 0 0 0.3 0"/>
<feBlend mode="multiply" in2="shape" result="effect1_innerShadow_307_3555"/>
</filter>
<filter id="filter1_i_307_3555" x="25.0159" y="28.7234" width="99.9683" height="93.3616" filterUnits="userSpaceOnUse" color-interpolation-filters="sRGB">
<feFlood flood-opacity="0" result="BackgroundImageFix"/>
<feBlend mode="normal" in="SourceGraphic" in2="BackgroundImageFix" result="shape"/>
<feColorMatrix in="SourceAlpha" type="matrix" values="0 0 0 0 0 0 0 0 0 0 0 0 0 0 0 0 0 0 127 0" result="hardAlpha"/>
<feOffset dy="4"/>
<feGaussianBlur stdDeviation="8"/>
<feComposite in2="hardAlpha" operator="arithmetic" k2="-1" k3="1"/>
<feColorMatrix type="matrix" values="0 0 0 0 0.475 0 0 0 0 0.0855 0 0 0 0 0 0 0 0 0.3 0"/>
<feBlend mode="multiply" in2="shape" result="effect1_innerShadow_307_3555"/>
</filter>
<filter id="filter2_i_307_3555" x="35.6508" y="0" width="78.6984" height="44.4255" filterUnits="userSpaceOnUse" color-interpolation-filters="sRGB">
<feFlood flood-opacity="0" result="BackgroundImageFix"/>
<feBlend mode="normal" in="SourceGraphic" in2="BackgroundImageFix" result="shape"/>
<feColorMatrix in="SourceAlpha" type="matrix" values="0 0 0 0 0 0 0 0 0 0 0 0 0 0 0 0 0 0 127 0" result="hardAlpha"/>
<feOffset dy="4"/>
<feGaussianBlur stdDeviation="8"/>
<feComposite in2="hardAlpha" operator="arithmetic" k2="-1" k3="1"/>
<feColorMatrix type="matrix" values="0 0 0 0 0.475 0 0 0 0 0.0855 0 0 0 0 0 0 0 0 0.3 0"/>
<feBlend mode="multiply" in2="shape" result="effect1_innerShadow_307_3555"/>
</filter>
<filter id="filter3_i_307_3555" x="48.4127" y="82.4468" width="20.6187" height="18.8936" filterUnits="userSpaceOnUse" color-interpolation-filters="sRGB">
<feFlood flood-opacity="0" result="BackgroundImageFix"/>
<feBlend mode="normal" in="SourceGraphic" in2="BackgroundImageFix" result="shape"/>
<feColorMatrix in="SourceAlpha" type="matrix" values="0 0 0 0 0 0 0 0 0 0 0 0 0 0 0 0 0 0 127 0" result="hardAlpha"/>
<feOffset dy="4"/>
<feGaussianBlur stdDeviation="7"/>
<feComposite in2="hardAlpha" operator="arithmetic" k2="-1" k3="1"/>
<feColorMatrix type="matrix" values="0 0 0 0 0 0 0 0 0 0.3895 0 0 0 0 0.475 0 0 0 0.3 0"/>
<feBlend mode="multiply" in2="shape" result="effect1_innerShadow_307_3555"/>
</filter>
<filter id="filter4_i_307_3555" x="80.9686" y="82.4468" width="20.6187" height="18.8936" filterUnits="userSpaceOnUse" color-interpolation-filters="sRGB">
<feFlood flood-opacity="0" result="BackgroundImageFix"/>
<feBlend mode="normal" in="SourceGraphic" in2="BackgroundImageFix" result="shape"/>
<feColorMatrix in="SourceAlpha" type="matrix" values="0 0 0 0 0 0 0 0 0 0 0 0 0 0 0 0 0 0 127 0" result="hardAlpha"/>
<feOffset dy="4"/>
<feGaussianBlur stdDeviation="7"/>
<feComposite in2="hardAlpha" operator="arithmetic" k2="-1" k3="1"/>
<feColorMatrix type="matrix" values="0 0 0 0 0 0 0 0 0 0.3895 0 0 0 0 0.475 0 0 0 0.3 0"/>
<feBlend mode="multiply" in2="shape" result="effect1_innerShadow_307_3555"/>
</filter>
<filter id="filter5_d_307_3555" x="53.9841" y="61" width="42.0317" height="44.1702" filterUnits="userSpaceOnUse" color-interpolation-filters="sRGB">
<feFlood flood-opacity="0" result="BackgroundImageFix"/>
<feColorMatrix in="SourceAlpha" type="matrix" values="0 0 0 0 0 0 0 0 0 0 0 0 0 0 0 0 0 0 127 0" result="hardAlpha"/>
<feOffset dy="4"/>
<feGaussianBlur stdDeviation="2"/>
<feComposite in2="hardAlpha" operator="out"/>
<feColorMatrix type="matrix" values="0 0 0 0 0 0 0 0 0 0 0 0 0 0 0 0 0 0 0.1 0"/>
<feBlend mode="multiply" in2="BackgroundImageFix" result="effect1_dropShadow_307_3555"/>
<feBlend mode="normal" in="SourceGraphic" in2="effect1_dropShadow_307_3555" result="shape"/>
</filter>
<filter id="filter6_i_307_3555" x="57.9841" y="61" width="34.0317" height="40.1702" filterUnits="userSpaceOnUse" color-interpolation-filters="sRGB">
<feFlood flood-opacity="0" result="BackgroundImageFix"/>
<feBlend mode="normal" in="SourceGraphic" in2="BackgroundImageFix" result="shape"/>
<feColorMatrix in="SourceAlpha" type="matrix" values="0 0 0 0 0 0 0 0 0 0 0 0 0 0 0 0 0 0 127 0" result="hardAlpha"/>
<feOffset dy="4"/>
<feGaussianBlur stdDeviation="8"/>
<feComposite in2="hardAlpha" operator="arithmetic" k2="-1" k3="1"/>
<feColorMatrix type="matrix" values="0 0 0 0 0.475 0 0 0 0 0.0855 0 0 0 0 0 0 0 0 0.3 0"/>
<feBlend mode="multiply" in2="shape" result="effect1_innerShadow_307_3555"/>
</filter>
<linearGradient id="paint0_linear_307_3555" x1="52.1668" y1="77.7118" x2="52.1849" y2="71.0682" gradientUnits="userSpaceOnUse">
<stop stop-color="#242020"/>
<stop offset="1" stop-color="#7C5D5D"/>
</linearGradient>
<linearGradient id="paint1_linear_307_3555" x1="97.897" y1="77.7118" x2="97.9151" y2="71.0682" gradientUnits="userSpaceOnUse">
<stop stop-color="#242020"/>
<stop offset="1" stop-color="#7C5D5D"/>
</linearGradient>
<radialGradient id="paint2_radial_307_3555" cx="0" cy="0" r="1" gradientUnits="userSpaceOnUse" gradientTransform="translate(79.5 77) rotate(49.9697) scale(16.3248 15.3597)">
<stop stop-color="#FFFBF2"/>
<stop offset="1" stop-color="#FAFAFA" stop-opacity="0"/>
</radialGradient>
<linearGradient id="paint3_linear_307_3555" x1="30.3333" y1="135.107" x2="75" y2="135.107" gradientUnits="userSpaceOnUse">
<stop stop-color="#791600"/>
<stop offset="0.0001" stop-color="#791600" stop-opacity="0.7"/>
<stop offset="0.723958" stop-color="#791600" stop-opacity="0"/>
</linearGradient>
<linearGradient id="paint4_linear_307_3555" x1="119.667" y1="135.107" x2="75" y2="135.107" gradientUnits="userSpaceOnUse">
<stop stop-color="#791600"/>
<stop offset="0.0001" stop-color="#791600" stop-opacity="0.7"/>
<stop offset="0.723958" stop-color="#791600" stop-opacity="0"/>
</linearGradient>
<linearGradient id="paint5_linear_307_3555" x1="122.857" y1="108.511" x2="75" y2="108.511" gradientUnits="userSpaceOnUse">
<stop stop-color="#D62D30"/>
<stop offset="0.0001" stop-color="#CD080E"/>
<stop offset="0.723958" stop-color="#F04438" stop-opacity="0"/>
</linearGradient>
<linearGradient id="paint6_linear_307_3555" x1="27.1429" y1="108.511" x2="75" y2="108.511" gradientUnits="userSpaceOnUse">
<stop stop-color="#D62D30"/>
<stop offset="0.0001" stop-color="#CD080E"/>
<stop offset="0.723958" stop-color="#F04438" stop-opacity="0"/>
</linearGradient>
<clipPath id="clip0_307_3555">
<rect width="150" height="150" fill="white"/>
</clipPath>
</defs>
</svg>
