<svg width="150" height="150" viewBox="0 0 150 150" fill="none" xmlns="http://www.w3.org/2000/svg">
<path d="M24 132C33.75 150 33.75 150 75 150C116.25 150 116.25 150 126 132H24Z" fill="#FCD44F"/>
<g style="mix-blend-mode:multiply" opacity="0.4">
<path d="M24 132C33.75 150 33.75 150 75 150C116.25 150 116.25 150 126 132H24Z" fill="url(#paint0_linear_110_1863)"/>
</g>
<g style="mix-blend-mode:multiply" opacity="0.4">
<path d="M126 132C116.25 150 116.25 150 75 150C33.75 150 33.75 150 24 132H126Z" fill="url(#paint1_linear_110_1863)"/>
</g>
<g filter="url(#filter0_i_110_1863)">
<path d="M133.473 66.6477C133.473 80.2318 134.198 77.3156 120.959 78.083C112.281 78.5861 115.061 89.7748 117.097 96.6869C122.994 96.6869 129.593 97.6592 137.736 95.98C142.05 95.0906 148.023 92.5756 148.678 85.5062C149.268 79.1436 148.554 74.8062 147.761 67.7021C147.217 62.8203 147.3 60.8154 140.926 60.8154C134.551 60.8154 133.473 63.2893 133.473 66.6477Z" fill="#FBDC6F"/>
</g>
<path fill-rule="evenodd" clip-rule="evenodd" d="M147.602 66.2561C145.916 66.5824 143.852 66.8243 141.338 66.9635C137.928 67.1523 135.376 67.0587 133.473 66.7499C133.473 66.7159 133.473 66.6819 133.473 66.6477C133.473 63.2893 134.551 60.8154 140.926 60.8154C146.63 60.8154 147.163 62.4207 147.602 66.2561Z" fill="#F3F2E3"/>
<g filter="url(#filter1_i_110_1863)">
<path d="M16.5272 107.608C16.5272 94.0236 15.8017 96.9397 29.0407 96.1723C37.7191 95.6693 34.9386 84.4806 32.9026 77.5685C27.0057 77.5685 20.4073 76.5962 12.2635 78.2754C7.95021 79.1648 1.97732 81.6797 1.32211 88.7492C0.732426 95.1117 1.44619 99.4492 2.2388 106.553C2.78347 111.435 2.69968 113.44 9.07412 113.44C15.4486 113.44 16.5272 110.966 16.5272 107.608Z" fill="#FBDC6F"/>
</g>
<path fill-rule="evenodd" clip-rule="evenodd" d="M2.39807 107.999C4.08444 107.673 6.14817 107.431 8.66198 107.292C12.072 107.103 14.6238 107.197 16.5272 107.505C16.5272 107.539 16.5272 107.573 16.5272 107.608C16.5272 110.966 15.4486 113.44 9.07412 113.44C3.3702 113.44 2.8373 111.835 2.39807 107.999Z" fill="#F3F2E3"/>
<g filter="url(#filter2_i_110_1863)">
<path d="M15 129.145C21.5625 141.035 57.2201 140.506 75 140.506C92.7799 140.506 128.438 141.035 135 129.145V116.719C129.531 115.42 118.875 109.605 120 96.7401C122.342 69.9536 135 21.1126 75 21.1125C15 21.1126 27.6575 69.9536 30 96.7401C31.125 109.605 20.4688 115.42 15 116.719V129.145Z" fill="#FBDC6F"/>
</g>
<path d="M49.121 18.9205C49.7832 13.7091 66.2352 13.1558 75 13.1558C83.7648 13.1558 100.217 13.7091 100.879 18.9205C101.191 21.3722 100.505 25.9568 99.192 27.0687C96.7916 29.1018 80.3471 29.7117 75 29.7117C69.6529 29.7117 53.2084 29.1018 50.808 27.0687C49.4953 25.9568 48.8095 21.3722 49.121 18.9205Z" fill="#E1E0CE"/>
<path fill-rule="evenodd" clip-rule="evenodd" d="M49.076 19.3787C48.8932 21.9044 49.5732 26.0227 50.808 27.0687C53.2084 29.1018 69.6529 29.7116 75 29.7116C80.3471 29.7116 96.7916 29.1018 99.192 27.0687C100.427 26.0227 101.107 21.9044 100.924 19.3787C94.9805 21.7952 82.4999 22.1124 75 22.1124C67.5001 22.1124 55.0195 21.7952 49.076 19.3787Z" fill="#F3F2E3"/>
<path d="M88.8338 13.2328C88.8338 16.8296 82.6402 16.7454 75 16.7454C67.3598 16.7454 61.1662 16.8296 61.1662 13.2328C61.1662 9.63593 65.793 4.28662 75 4.28662C84.207 4.28662 88.8338 9.63593 88.8338 13.2328Z" fill="#C894C4"/>
<path d="M90.6241 57.9031C87.7252 58.2939 86.4085 60.9994 85.8856 63.0544C85.6046 64.1591 85.4883 65.2888 85.4986 66.2561C85.5037 66.7407 85.5408 67.2072 85.6137 67.6254C85.6822 68.0186 85.7994 68.4721 86.0211 68.8643C86.4722 69.6619 87.1269 70.2037 87.9411 70.4415C88.6913 70.6605 89.4283 70.5765 90.0056 70.4506C90.5472 70.3326 91.0955 70.1413 91.539 69.9867C91.5692 69.9762 91.5989 69.9658 91.6281 69.9557C92.1331 69.78 92.5016 69.6581 92.812 69.6017C93.1403 69.542 93.5464 69.518 94.0784 69.4943C94.1181 69.4926 94.1587 69.4908 94.1999 69.489C94.6673 69.4687 95.2238 69.4444 95.7493 69.3717C96.3154 69.2933 96.9972 69.1415 97.6068 68.7717C98.2715 68.3685 98.794 67.738 99.0126 66.8625C99.2152 66.0506 99.046 65.039 98.7883 64.1782C98.5089 63.2448 98.0389 62.2038 97.3782 61.2409C96.0704 59.3349 93.8005 57.4748 90.6241 57.9031Z" fill="url(#paint2_linear_110_1863)" stroke="#F3F2E3" stroke-width="3"/>
<path d="M59.3759 57.9031C62.2748 58.2939 63.5915 60.9994 64.1144 63.0544C64.3954 64.1591 64.5117 65.2888 64.5014 66.2561C64.4963 66.7407 64.4592 67.2072 64.3863 67.6254C64.3178 68.0186 64.2006 68.4721 63.9789 68.8643C63.5278 69.6619 62.8731 70.2037 62.0589 70.4415C61.3087 70.6605 60.5717 70.5765 59.9944 70.4506C59.4528 70.3326 58.9045 70.1413 58.461 69.9867C58.4308 69.9762 58.4011 69.9658 58.3719 69.9557C57.8669 69.78 57.4984 69.6581 57.188 69.6017C56.8597 69.542 56.4536 69.518 55.9216 69.4943C55.8819 69.4926 55.8413 69.4908 55.8001 69.489C55.3327 69.4687 54.7762 69.4444 54.2507 69.3717C53.6846 69.2933 53.0028 69.1415 52.3932 68.7717C51.7285 68.3685 51.206 67.738 50.9874 66.8625C50.7848 66.0506 50.954 65.039 51.2117 64.1782C51.4911 63.2448 51.9611 62.2038 52.6218 61.2409C53.9296 59.3349 56.1995 57.4748 59.3759 57.9031Z" fill="url(#paint3_linear_110_1863)" stroke="#F3F2E3" stroke-width="3"/>
<g filter="url(#filter3_d_110_1863)">
<path d="M71.8012 85.4023C73.0079 86.2336 73.2 85.0897 75.7327 85.0897C78.2653 85.0897 78.4574 86.2336 79.6641 85.4023C80.8708 84.571 82.4278 73.6712 75.7327 73.5789C69.0375 73.6712 70.5945 84.571 71.8012 85.4023Z" fill="url(#paint4_linear_110_1863)"/>
<path d="M75.7533 72.079L75.7327 72.0787L75.712 72.079C73.5606 72.1087 71.9685 73.0394 70.9191 74.4551C69.9207 75.802 69.4749 77.4971 69.3119 79.0576C69.1468 80.6368 69.2558 82.2253 69.49 83.4902C69.6069 84.122 69.7618 84.71 69.9486 85.1968C70.0417 85.4393 70.1538 85.686 70.29 85.9108C70.4126 86.1131 70.6215 86.4111 70.9502 86.6375C71.4033 86.9497 71.9111 87.1776 72.5047 87.2028C73.05 87.226 73.5108 87.0634 73.7693 86.9721C73.8143 86.9562 73.8591 86.9401 73.904 86.9239C74.3619 86.7591 74.8324 86.5897 75.7327 86.5897C76.6329 86.5897 77.1034 86.7591 77.5613 86.9239C77.6062 86.9401 77.651 86.9562 77.696 86.9721C77.9545 87.0634 78.4153 87.226 78.9606 87.2028C79.5542 87.1776 80.062 86.9497 80.5151 86.6375C80.8438 86.4111 81.0527 86.1131 81.1753 85.9108C81.3115 85.686 81.4236 85.4393 81.5167 85.1968C81.7035 84.71 81.8584 84.122 81.9753 83.4902C82.2095 82.2253 82.3185 80.6368 82.1535 79.0576C81.9904 77.4971 81.5446 75.802 80.5462 74.4551C79.4968 73.0394 77.9047 72.1087 75.7533 72.079Z" stroke="#FBDC6F" stroke-width="3"/>
</g>
<ellipse rx="7" ry="7" transform="matrix(1 0 0.000442936 -1 49.0465 78.8911)" fill="#FF9D9D"/>
<ellipse rx="7" ry="7" transform="matrix(1 0 0.000442936 -1 100.953 78.8911)" fill="#FF9D9D"/>
<g filter="url(#filter4_i_110_1863)">
<path fill-rule="evenodd" clip-rule="evenodd" d="M15.0001 116.719C20.9355 127.472 50.67 127.249 69.4532 127.108C71.4381 127.093 73.3007 127.079 75 127.079C76.6993 127.079 78.5619 127.093 80.5468 127.108C99.33 127.249 129.065 127.472 135 116.719C135 116.719 135 116.719 135 116.719V129.145C128.696 140.565 95.5487 140.528 77.1855 140.507C76.4311 140.506 75.7016 140.506 75 140.506C74.2984 140.506 73.569 140.506 72.8146 140.507C54.4513 140.528 21.3035 140.565 15 129.145V116.719C15 116.719 15 116.719 15.0001 116.719Z" fill="#F3F2E3"/>
</g>
<mask id="mask0_110_1863" style="mask-type:alpha" maskUnits="userSpaceOnUse" x="15" y="116" width="120" height="25">
<path fill-rule="evenodd" clip-rule="evenodd" d="M15.0001 116.719C20.9355 127.472 50.67 127.249 69.4532 127.108C71.4381 127.093 73.3007 127.079 75 127.079C76.6993 127.079 78.5619 127.093 80.5468 127.108C99.33 127.249 129.065 127.472 135 116.719C135 116.719 135 116.719 135 116.719V129.145C128.696 140.565 95.5487 140.528 77.1855 140.507C76.4311 140.506 75.7016 140.506 75 140.506C74.2984 140.506 73.569 140.506 72.8146 140.507C54.4513 140.528 21.3035 140.565 15 129.145V116.719C15 116.719 15 116.719 15.0001 116.719Z" fill="#FBDC6F"/>
</mask>
<g mask="url(#mask0_110_1863)">
<path d="M63.0672 128.103L75 139.961L86.9328 128.103L97.7731 138.854L107.857 126.917L116.513 136.404L123.487 124.704L129.286 133.716L131.891 121.779L135 129.21V115.775H15V129.21L18.1093 121.779L20.7143 133.716L26.5126 124.704L33.4874 136.404L42.1429 126.917L52.2269 138.854L63.0672 128.103Z" fill="#C894C4"/>
</g>
<defs>
<filter id="filter0_i_110_1863" x="115" y="60.8154" width="33.8951" height="40.1514" filterUnits="userSpaceOnUse" color-interpolation-filters="sRGB">
<feFlood flood-opacity="0" result="BackgroundImageFix"/>
<feBlend mode="normal" in="SourceGraphic" in2="BackgroundImageFix" result="shape"/>
<feColorMatrix in="SourceAlpha" type="matrix" values="0 0 0 0 0 0 0 0 0 0 0 0 0 0 0 0 0 0 127 0" result="hardAlpha"/>
<feOffset dy="4"/>
<feGaussianBlur stdDeviation="7"/>
<feComposite in2="hardAlpha" operator="arithmetic" k2="-1" k3="1"/>
<feColorMatrix type="matrix" values="0 0 0 0 0.47451 0 0 0 0 0.0862745 0 0 0 0 0 0 0 0 0.15 0"/>
<feBlend mode="multiply" in2="shape" result="effect1_innerShadow_110_1863"/>
</filter>
<filter id="filter1_i_110_1863" x="1.10495" y="77.2886" width="33.8951" height="40.1514" filterUnits="userSpaceOnUse" color-interpolation-filters="sRGB">
<feFlood flood-opacity="0" result="BackgroundImageFix"/>
<feBlend mode="normal" in="SourceGraphic" in2="BackgroundImageFix" result="shape"/>
<feColorMatrix in="SourceAlpha" type="matrix" values="0 0 0 0 0 0 0 0 0 0 0 0 0 0 0 0 0 0 127 0" result="hardAlpha"/>
<feOffset dy="4"/>
<feGaussianBlur stdDeviation="7"/>
<feComposite in2="hardAlpha" operator="arithmetic" k2="-1" k3="1"/>
<feColorMatrix type="matrix" values="0 0 0 0 0.47451 0 0 0 0 0.0862745 0 0 0 0 0 0 0 0 0.15 0"/>
<feBlend mode="multiply" in2="shape" result="effect1_innerShadow_110_1863"/>
</filter>
<filter id="filter2_i_110_1863" x="15" y="21.1125" width="120" height="123.397" filterUnits="userSpaceOnUse" color-interpolation-filters="sRGB">
<feFlood flood-opacity="0" result="BackgroundImageFix"/>
<feBlend mode="normal" in="SourceGraphic" in2="BackgroundImageFix" result="shape"/>
<feColorMatrix in="SourceAlpha" type="matrix" values="0 0 0 0 0 0 0 0 0 0 0 0 0 0 0 0 0 0 127 0" result="hardAlpha"/>
<feOffset dy="4"/>
<feGaussianBlur stdDeviation="7"/>
<feComposite in2="hardAlpha" operator="arithmetic" k2="-1" k3="1"/>
<feColorMatrix type="matrix" values="0 0 0 0 0.47451 0 0 0 0 0.0862745 0 0 0 0 0 0 0 0 0.15 0"/>
<feBlend mode="multiply" in2="shape" result="effect1_innerShadow_110_1863"/>
</filter>
<filter id="filter3_d_110_1863" x="59.7327" y="68.5786" width="32" height="34.1265" filterUnits="userSpaceOnUse" color-interpolation-filters="sRGB">
<feFlood flood-opacity="0" result="BackgroundImageFix"/>
<feColorMatrix in="SourceAlpha" type="matrix" values="0 0 0 0 0 0 0 0 0 0 0 0 0 0 0 0 0 0 127 0" result="hardAlpha"/>
<feOffset dy="6"/>
<feGaussianBlur stdDeviation="4"/>
<feComposite in2="hardAlpha" operator="out"/>
<feColorMatrix type="matrix" values="0 0 0 0 0.47451 0 0 0 0 0.0862745 0 0 0 0 0 0 0 0 0.15 0"/>
<feBlend mode="multiply" in2="BackgroundImageFix" result="effect1_dropShadow_110_1863"/>
<feBlend mode="normal" in="SourceGraphic" in2="effect1_dropShadow_110_1863" result="shape"/>
</filter>
<filter id="filter4_i_110_1863" x="15" y="116.719" width="120" height="27.7903" filterUnits="userSpaceOnUse" color-interpolation-filters="sRGB">
<feFlood flood-opacity="0" result="BackgroundImageFix"/>
<feBlend mode="normal" in="SourceGraphic" in2="BackgroundImageFix" result="shape"/>
<feColorMatrix in="SourceAlpha" type="matrix" values="0 0 0 0 0 0 0 0 0 0 0 0 0 0 0 0 0 0 127 0" result="hardAlpha"/>
<feOffset dy="4"/>
<feGaussianBlur stdDeviation="7"/>
<feComposite in2="hardAlpha" operator="arithmetic" k2="-1" k3="1"/>
<feColorMatrix type="matrix" values="0 0 0 0 0.47451 0 0 0 0 0.0862745 0 0 0 0 0 0 0 0 0.15 0"/>
<feBlend mode="multiply" in2="shape" result="effect1_innerShadow_110_1863"/>
</filter>
<linearGradient id="paint0_linear_110_1863" x1="24" y1="141" x2="75" y2="141" gradientUnits="userSpaceOnUse">
<stop stop-color="#CAC170"/>
<stop offset="0.723958" stop-color="#C8C293" stop-opacity="0"/>
</linearGradient>
<linearGradient id="paint1_linear_110_1863" x1="126" y1="141" x2="75" y2="141" gradientUnits="userSpaceOnUse">
<stop stop-color="#CAC170"/>
<stop offset="0.723958" stop-color="#C8C293" stop-opacity="0"/>
</linearGradient>
<linearGradient id="paint2_linear_110_1863" x1="92.3639" y1="69.1565" x2="92.385" y2="59.0241" gradientUnits="userSpaceOnUse">
<stop stop-color="#242020"/>
<stop offset="1" stop-color="#7C5D5D"/>
</linearGradient>
<linearGradient id="paint3_linear_110_1863" x1="57.6361" y1="69.1565" x2="57.615" y2="59.0241" gradientUnits="userSpaceOnUse">
<stop stop-color="#242020"/>
<stop offset="1" stop-color="#7C5D5D"/>
</linearGradient>
<linearGradient id="paint4_linear_110_1863" x1="75.7927" y1="85.8043" x2="75.8274" y2="73.1829" gradientUnits="userSpaceOnUse">
<stop stop-color="#242020"/>
<stop offset="1" stop-color="#7C5D5D"/>
</linearGradient>
</defs>
</svg>
