<svg width="150" height="150" viewBox="0 0 150 150" fill="none" xmlns="http://www.w3.org/2000/svg">
<path d="M36.0138 138C43.4697 150 43.4697 150 75.0138 150C106.558 150 106.558 150 114.014 138H36.0138Z" fill="#A4827D"/>
<path style="mix-blend-mode:multiply" opacity="0.4" d="M114.014 138C106.558 150 106.558 150 75.0138 150C43.4697 150 43.4697 150 36.0138 138H114.014Z" fill="url(#paint0_linear_9_1223)"/>
<path style="mix-blend-mode:multiply" opacity="0.4" d="M36.0138 138C43.4697 150 43.4697 150 75.0138 150C106.558 150 106.558 150 114.014 138H36.0138Z" fill="url(#paint1_linear_9_1223)"/>
<g filter="url(#filter0_i_9_1223)">
<path d="M128.815 96.6805C115.923 97.7709 113.445 87.8825 113.723 82.1152C106.318 88.9166 96.3478 106.264 115.705 121.24C112.854 114.866 126.783 113.617 131.625 112.213C136.467 110.809 137.465 110.065 136.261 103.408C135.057 96.7519 135.369 96.1262 128.815 96.6805Z" fill="#C1ABA8"/>
<path fill-rule="evenodd" clip-rule="evenodd" d="M126.735 96.7809C127.381 96.7875 128.059 96.7633 128.767 96.7057C134.905 96.2068 134.999 96.7301 136.008 102.342C136.072 102.699 136.14 103.077 136.214 103.476C137.441 110.151 136.449 110.892 131.63 112.281C131.074 112.441 130.398 112.598 129.641 112.762C129.528 107.2 128.094 101.142 126.735 96.7809Z" fill="#69A042"/>
<path d="M21.9613 96.6805C34.8533 97.7709 37.3314 87.8825 37.0536 82.1151C44.4584 88.9166 54.4287 106.264 35.0711 121.24C37.9229 114.866 23.9932 113.617 19.1512 112.213C14.3091 110.809 13.3112 110.065 14.5155 103.408C15.7198 96.7519 15.4074 96.1262 21.9613 96.6805Z" fill="#C1ABA8"/>
<path fill-rule="evenodd" clip-rule="evenodd" d="M24.0418 96.7809C23.3949 96.7875 22.7179 96.7633 22.0094 96.7057C15.8713 96.2068 15.7772 96.7301 14.7681 102.342C14.7039 102.699 14.6361 103.077 14.5627 103.476C13.3357 110.151 14.3271 110.892 19.1464 112.281C19.7023 112.441 20.3786 112.598 21.1359 112.762C21.2483 107.2 22.6824 101.142 24.0418 96.7809Z" fill="#69A042"/>
</g>
<g filter="url(#filter1_i_9_1223)">
<path d="M76.2905 0.239339C65.9369 2.99986 68.2248 28.4471 70.1006 39.25H78.5415C77.9787 33.8485 77.7536 29.7674 81.3551 20.6449C85.8569 9.2418 86.4196 5.04066 83.606 2.03983C81.8265 0.141948 78.5415 -0.360806 76.2905 0.239339Z" fill="#69A042"/>
</g>
<g filter="url(#filter2_i_9_1223)">
<path d="M118.049 12.5133C107.104 9.25799 96.4985 33.4216 92.8317 44.181L100.63 48.8599C102.809 43.6881 104.641 39.8914 112.528 33.68C122.387 25.9157 125.006 22.4478 123.907 18.1883C123.212 15.4943 120.428 13.2211 118.049 12.5133Z" fill="#ADD57F"/>
</g>
<g filter="url(#filter3_i_9_1223)">
<path d="M30.925 12.5133C41.8696 9.25799 52.4754 33.4216 56.1422 44.181L48.3444 48.8599C46.1644 43.6881 44.3325 39.8914 36.4457 33.68C26.5872 25.9157 23.9675 22.4478 25.0668 18.1883C25.7621 15.4943 28.5456 13.2211 30.925 12.5133Z" fill="#ADD57F"/>
</g>
<g filter="url(#filter4_i_9_1223)">
<path d="M144.924 43.3029C136.921 35.1183 115.853 49.9664 107.398 57.1055L111.95 64.9043C116.381 61.6814 119.836 59.4311 129.773 58.1936C142.194 56.6466 146.18 55.0642 147.292 50.9629C147.995 48.369 146.664 45.0823 144.924 43.3029Z" fill="#69A042"/>
</g>
<g filter="url(#filter5_i_9_1223)">
<path d="M5.08947 43.3031C13.0925 35.1183 34.1593 49.9674 42.6149 57.1069L38.0626 64.906C33.6325 61.6828 30.1774 59.4324 20.2406 58.1946C7.81952 56.6473 3.83435 55.0648 2.72201 50.9633C2.0185 48.3693 3.34959 45.0825 5.08947 43.3031Z" fill="#69A042"/>
</g>
<g filter="url(#filter6_i_9_1223)">
<path d="M28.7019 133.437C25.0676 142.905 57.8525 145.271 74.6992 145.271C91.5459 145.271 124.331 142.905 120.696 133.437C116.154 121.603 114.45 122.167 116.154 117.658C117.857 113.15 126.899 73.8874 116.154 55.6698C107.819 41.5393 94.0067 33.1286 74.6992 33.1286C55.3917 33.1286 41.5793 41.5393 33.2449 55.6698C22.4998 73.8874 31.5413 113.15 33.2449 117.658C34.9485 122.167 33.2449 121.603 28.7019 133.437Z" fill="#C1ABA8"/>
</g>
<path d="M31.4358 124.637C31.4358 123.646 32.4295 122.843 33.4231 122.843C33.4231 123.291 34.1462 123.947 34.4168 124.189C34.6874 124.43 36.5082 125.493 37.3996 125.898C39.1735 126.702 41.8653 127.493 45.3461 128.184C52.2769 129.561 61.9412 130.469 72.6727 130.469H74.6601V134.057H72.6727C61.7273 134.057 51.7669 133.134 44.492 131.689C40.8701 130.969 37.8139 130.101 35.6156 129.104C34.5208 128.608 33.5388 128.035 32.8044 127.362C32.0695 126.688 31.4358 125.77 31.4358 124.637Z" fill="#A4827D"/>
<path d="M117.884 124.637C117.884 123.646 116.891 122.843 115.897 122.843C115.897 123.291 115.174 123.947 114.903 124.189C114.633 124.43 112.812 125.493 111.921 125.898C110.147 126.702 107.455 127.493 103.974 128.184C97.0433 129.561 87.3789 130.469 76.6474 130.469H74.6601V134.057H76.6474C87.5928 134.057 97.5532 133.134 104.828 131.689C108.45 130.969 111.506 130.101 113.705 129.104C114.799 128.608 115.781 128.035 116.516 127.362C117.251 126.688 117.884 125.77 117.884 124.637Z" fill="#A4827D"/>
<g style="mix-blend-mode:multiply">
<ellipse rx="5.05155" ry="5.60732" transform="matrix(0.984839 -0.173472 0.173824 0.984777 53.9542 78.3982)" fill="url(#paint2_linear_9_1223)"/>
</g>
<g style="mix-blend-mode:multiply">
<ellipse rx="5.05155" ry="5.60732" transform="matrix(-0.984842 -0.173456 -0.17384 0.984774 95.4954 78.3983)" fill="url(#paint3_linear_9_1223)"/>
</g>
<g style="mix-blend-mode:multiply">
<path d="M79.7112 87.9304C79.7112 90.7175 77.7008 92.9768 75.2208 92.9768C72.7408 92.9768 70.7304 90.7175 70.7304 87.9304C70.7304 85.1433 72.7408 82.884 75.2208 82.884C77.7008 82.884 79.7112 85.1433 79.7112 87.9304Z" fill="url(#paint4_linear_9_1223)"/>
</g>
<path fill-rule="evenodd" clip-rule="evenodd" d="M81.9577 87.9304C81.9577 91.7005 79.1831 95.2197 75.2214 95.2197C71.2598 95.2197 68.4852 91.7005 68.4852 87.9304C68.4852 84.1603 71.2598 80.6411 75.2214 80.6411C79.1831 80.6411 81.9577 84.1603 81.9577 87.9304ZM75.2214 92.9768C77.7017 92.9768 79.7123 90.7175 79.7123 87.9304C79.7123 85.1433 77.7017 82.884 75.2214 82.884C72.7412 82.884 70.7306 85.1433 70.7306 87.9304C70.7306 90.7175 72.7412 92.9768 75.2214 92.9768Z" fill="#A4827D"/>
<g opacity="0.7">
<ellipse rx="4.5" ry="3.5" transform="matrix(1 0 0.000389799 -1 103.515 86.5)" fill="#FFCDCD"/>
<ellipse rx="4.5" ry="3.5" transform="matrix(1 0 0.000389799 -1 45.5152 86.5)" fill="#FFCDCD"/>
</g>
<defs>
<filter id="filter0_i_9_1223" x="14.0508" y="82.1151" width="122.675" height="43.1248" filterUnits="userSpaceOnUse" color-interpolation-filters="sRGB">
<feFlood flood-opacity="0" result="BackgroundImageFix"/>
<feBlend mode="normal" in="SourceGraphic" in2="BackgroundImageFix" result="shape"/>
<feColorMatrix in="SourceAlpha" type="matrix" values="0 0 0 0 0 0 0 0 0 0 0 0 0 0 0 0 0 0 127 0" result="hardAlpha"/>
<feOffset dy="4"/>
<feGaussianBlur stdDeviation="8"/>
<feComposite in2="hardAlpha" operator="arithmetic" k2="-1" k3="1"/>
<feColorMatrix type="matrix" values="0 0 0 0 0.475 0 0 0 0 0.0855 0 0 0 0 0 0 0 0 0.3 0"/>
<feBlend mode="multiply" in2="shape" result="effect1_innerShadow_9_1223"/>
</filter>
<filter id="filter1_i_9_1223" x="68.4852" y="0" width="16.8406" height="43.25" filterUnits="userSpaceOnUse" color-interpolation-filters="sRGB">
<feFlood flood-opacity="0" result="BackgroundImageFix"/>
<feBlend mode="normal" in="SourceGraphic" in2="BackgroundImageFix" result="shape"/>
<feColorMatrix in="SourceAlpha" type="matrix" values="0 0 0 0 0 0 0 0 0 0 0 0 0 0 0 0 0 0 127 0" result="hardAlpha"/>
<feOffset dy="4"/>
<feGaussianBlur stdDeviation="8"/>
<feComposite in2="hardAlpha" operator="arithmetic" k2="-1" k3="1"/>
<feColorMatrix type="matrix" values="0 0 0 0 0.475 0 0 0 0 0.0855 0 0 0 0 0 0 0 0 0.3 0"/>
<feBlend mode="multiply" in2="shape" result="effect1_innerShadow_9_1223"/>
</filter>
<filter id="filter2_i_9_1223" x="92.8317" y="12.2143" width="31.3088" height="40.6456" filterUnits="userSpaceOnUse" color-interpolation-filters="sRGB">
<feFlood flood-opacity="0" result="BackgroundImageFix"/>
<feBlend mode="normal" in="SourceGraphic" in2="BackgroundImageFix" result="shape"/>
<feColorMatrix in="SourceAlpha" type="matrix" values="0 0 0 0 0 0 0 0 0 0 0 0 0 0 0 0 0 0 127 0" result="hardAlpha"/>
<feOffset dy="4"/>
<feGaussianBlur stdDeviation="8"/>
<feComposite in2="hardAlpha" operator="arithmetic" k2="-1" k3="1"/>
<feColorMatrix type="matrix" values="0 0 0 0 0.475 0 0 0 0 0.0855 0 0 0 0 0 0 0 0 0.3 0"/>
<feBlend mode="multiply" in2="shape" result="effect1_innerShadow_9_1223"/>
</filter>
<filter id="filter3_i_9_1223" x="24.8334" y="12.2143" width="31.3088" height="40.6456" filterUnits="userSpaceOnUse" color-interpolation-filters="sRGB">
<feFlood flood-opacity="0" result="BackgroundImageFix"/>
<feBlend mode="normal" in="SourceGraphic" in2="BackgroundImageFix" result="shape"/>
<feColorMatrix in="SourceAlpha" type="matrix" values="0 0 0 0 0 0 0 0 0 0 0 0 0 0 0 0 0 0 127 0" result="hardAlpha"/>
<feOffset dy="4"/>
<feGaussianBlur stdDeviation="8"/>
<feComposite in2="hardAlpha" operator="arithmetic" k2="-1" k3="1"/>
<feColorMatrix type="matrix" values="0 0 0 0 0.475 0 0 0 0 0.0855 0 0 0 0 0 0 0 0 0.3 0"/>
<feBlend mode="multiply" in2="shape" result="effect1_innerShadow_9_1223"/>
</filter>
<filter id="filter4_i_9_1223" x="107.398" y="40.9083" width="40.086" height="27.996" filterUnits="userSpaceOnUse" color-interpolation-filters="sRGB">
<feFlood flood-opacity="0" result="BackgroundImageFix"/>
<feBlend mode="normal" in="SourceGraphic" in2="BackgroundImageFix" result="shape"/>
<feColorMatrix in="SourceAlpha" type="matrix" values="0 0 0 0 0 0 0 0 0 0 0 0 0 0 0 0 0 0 127 0" result="hardAlpha"/>
<feOffset dy="4"/>
<feGaussianBlur stdDeviation="8"/>
<feComposite in2="hardAlpha" operator="arithmetic" k2="-1" k3="1"/>
<feColorMatrix type="matrix" values="0 0 0 0 0.475 0 0 0 0 0.0855 0 0 0 0 0 0 0 0 0.3 0"/>
<feBlend mode="multiply" in2="shape" result="effect1_innerShadow_9_1223"/>
</filter>
<filter id="filter5_i_9_1223" x="2.53015" y="40.9085" width="40.0847" height="27.9974" filterUnits="userSpaceOnUse" color-interpolation-filters="sRGB">
<feFlood flood-opacity="0" result="BackgroundImageFix"/>
<feBlend mode="normal" in="SourceGraphic" in2="BackgroundImageFix" result="shape"/>
<feColorMatrix in="SourceAlpha" type="matrix" values="0 0 0 0 0 0 0 0 0 0 0 0 0 0 0 0 0 0 127 0" result="hardAlpha"/>
<feOffset dy="4"/>
<feGaussianBlur stdDeviation="8"/>
<feComposite in2="hardAlpha" operator="arithmetic" k2="-1" k3="1"/>
<feColorMatrix type="matrix" values="0 0 0 0 0.475 0 0 0 0 0.0855 0 0 0 0 0 0 0 0 0.3 0"/>
<feBlend mode="multiply" in2="shape" result="effect1_innerShadow_9_1223"/>
</filter>
<filter id="filter6_i_9_1223" x="28.0677" y="33.1286" width="93.263" height="116.143" filterUnits="userSpaceOnUse" color-interpolation-filters="sRGB">
<feFlood flood-opacity="0" result="BackgroundImageFix"/>
<feBlend mode="normal" in="SourceGraphic" in2="BackgroundImageFix" result="shape"/>
<feColorMatrix in="SourceAlpha" type="matrix" values="0 0 0 0 0 0 0 0 0 0 0 0 0 0 0 0 0 0 127 0" result="hardAlpha"/>
<feOffset dy="4"/>
<feGaussianBlur stdDeviation="8"/>
<feComposite in2="hardAlpha" operator="arithmetic" k2="-1" k3="1"/>
<feColorMatrix type="matrix" values="0 0 0 0 0.475 0 0 0 0 0.0855 0 0 0 0 0 0 0 0 0.3 0"/>
<feBlend mode="multiply" in2="shape" result="effect1_innerShadow_9_1223"/>
</filter>
<linearGradient id="paint0_linear_9_1223" x1="114.014" y1="144" x2="75.0138" y2="144" gradientUnits="userSpaceOnUse">
<stop stop-color="#393E40" stop-opacity="0.7"/>
<stop offset="0.0001" stop-color="#393E40" stop-opacity="0.6"/>
<stop offset="0.723958" stop-color="#393E40" stop-opacity="0"/>
</linearGradient>
<linearGradient id="paint1_linear_9_1223" x1="36.0138" y1="144" x2="75.0138" y2="144" gradientUnits="userSpaceOnUse">
<stop stop-color="#393E40" stop-opacity="0.7"/>
<stop offset="0.0001" stop-color="#393E40" stop-opacity="0.6"/>
<stop offset="0.723958" stop-color="#393E40" stop-opacity="0"/>
</linearGradient>
<linearGradient id="paint2_linear_9_1223" x1="5.11219" y1="11.3063" x2="5.14162" y2="-0.366242" gradientUnits="userSpaceOnUse">
<stop stop-color="#242020"/>
<stop offset="1" stop-color="#7C5D5D"/>
</linearGradient>
<linearGradient id="paint3_linear_9_1223" x1="5.11219" y1="11.3063" x2="5.14162" y2="-0.366242" gradientUnits="userSpaceOnUse">
<stop stop-color="#242020"/>
<stop offset="1" stop-color="#7C5D5D"/>
</linearGradient>
<linearGradient id="paint4_linear_9_1223" x1="75.2747" y1="93.0594" x2="75.3015" y2="82.5544" gradientUnits="userSpaceOnUse">
<stop stop-color="#242020"/>
<stop offset="1" stop-color="#7C5D5D"/>
</linearGradient>
</defs>
</svg>
