<svg width="150" height="151" viewBox="0 0 150 151" fill="none" xmlns="http://www.w3.org/2000/svg">
<path fill-rule="evenodd" clip-rule="evenodd" d="M55.9518 3.11489C60.773 1.92471 66.2601 1.15787 72.4719 1.02177L73.3067 3.6537L74.0821 1.00082C74.2119 1.00027 74.3421 1 74.4725 1C78.3854 1 82.04 1.24659 85.4454 1.6916L84.9687 10.7058L87.5888 2.00271C99.2352 3.86433 107.8 8.07033 113.678 12.5031L108.536 19.7159L115.205 13.7083C119.21 17.0157 121.754 20.3426 123 22.8235L97.4318 48.667H52.5682L27 22.8235C27.6015 21.6256 28.4771 20.2304 29.6546 18.7355L33.415 21.4847L30.8372 17.3195C34.41 13.2756 40.1022 8.75625 48.4061 5.50067L55.8667 20.7908L52.5605 4.05266C53.0366 3.90636 53.52 3.76422 54.0107 3.62651L55.7473 6.57638L55.9518 3.11489Z" fill="#8AC44B"/>
<mask id="mask0_37_4205" style="mask-type:alpha" maskUnits="userSpaceOnUse" x="27" y="1" width="96" height="48">
<path d="M27 22.8235L52.5682 48.667H97.4318L123 22.8235C119.347 15.549 104.528 1 74.4725 1C44.4168 1 30.6526 15.549 27 22.8235Z" fill="#AC6BAD"/>
</mask>
<g mask="url(#mask0_37_4205)">
<path d="M59.4516 2.02478L61.6141 16.1884L58.5245 2.19533L59.4516 2.02478Z" fill="#ADD57F"/>
<path d="M39.7001 8.54324L46.1805 21.3419L38.872 8.991L39.7001 8.54324Z" fill="#ADD57F"/>
<path d="M63.4716 0.966167L65.7 23.9508L61.3612 1.26545L63.4716 0.966167Z" fill="#ADD57F"/>
<path d="M98.9461 2.85162L91.0641 24.5754L96.9095 2.22603L98.9461 2.85162Z" fill="#ADD57F"/>
<path d="M109.127 8.33195L105.066 14.1989L107.932 7.67305L109.127 8.33195Z" fill="#ADD57F"/>
<path d="M78.2504 -0.0780315L76.5637 11.5305L76.7162 -0.197269L78.2504 -0.0780315Z" fill="#ADD57F"/>
</g>
<path d="M75.1874 38.1877L82.01 4.1745L78.1428 38.6427L75.1874 38.1877Z" fill="#69A042"/>
<path d="M95.7865 43.9695L120.873 19.8414L97.9572 46.0125L95.7865 43.9695Z" fill="#69A042"/>
<path d="M86.8143 43.7213L99.4145 11.3758L89.6473 44.6733L86.8143 43.7213Z" fill="#69A042"/>
<path d="M88.8082 48.3392L100.038 27.0701L90.1808 49L88.8082 48.3392Z" fill="#69A042"/>
<path d="M83.1381 39.2347L88.5377 19.2511L84.8205 39.6097L83.1381 39.2347Z" fill="#69A042"/>
<path d="M54.0828 43.521L36.661 13.4631L56.6086 41.9306L54.0828 43.521Z" fill="#69A042"/>
<path d="M53.5096 47.6636L42.109 31.6462L55.8141 45.7706L53.5096 47.6636Z" fill="#69A042"/>
<path d="M70.8545 41.5252L69.9114 15.9297L72.9371 41.3654L70.8545 41.5252Z" fill="#69A042"/>
<path d="M62.0315 38.9839L54.4114 8.85956L64.8939 38.1235L62.0315 38.9839Z" fill="#69A042"/>
<g filter="url(#filter0_i_37_4205)">
<path d="M126.99 83.4582C126.99 94.3174 117.074 89.8781 114.399 89.8781C107.55 89.8781 109.049 100.453 110.654 104.858C111.189 105.393 122.424 104.323 128.844 103.253C139.009 100.043 136.869 89.3431 136.869 85.0632C136.869 81.5293 135.264 80.2483 132.054 80.2483C128.844 80.2483 126.99 81.3183 126.99 83.4582Z" fill="#48B8AC"/>
<path d="M125.285 96.8335C125.285 91.811 125.972 87.7382 122.786 87.7382C117.476 87.7382 117.216 87.6845 117.216 90.3596C117.858 90.4131 117.788 91.811 117.788 96.8335C117.788 101.856 117.85 104.715 116.788 104.715C116.788 106.014 117.476 105.927 122.786 105.927C125.972 105.927 125.285 101.856 125.285 96.8335Z" fill="#8AC44B"/>
<path d="M23.0666 111.278C23.0666 100.418 32.9824 104.858 35.6574 104.858C42.5065 104.858 41.0073 94.2824 39.4023 89.8781C38.8673 89.3431 27.6326 90.4131 21.2127 91.483C11.0479 94.693 13.1879 105.393 13.1879 109.673C13.1879 113.207 14.7928 114.488 18.0028 114.488C21.2127 114.488 23.0666 113.418 23.0666 111.278Z" fill="#48B8AC"/>
<path d="M24.7713 97.9023C24.7713 102.925 24.0848 106.998 27.2706 106.998C32.5803 106.998 32.8409 107.051 32.8409 104.376C32.1989 104.323 32.2692 102.925 32.2692 97.9023C32.2692 92.8797 32.207 90.0207 33.2689 90.0207C33.2689 88.7215 32.5803 88.8093 27.2706 88.8093C24.0848 88.8093 24.7713 92.8797 24.7713 97.9023Z" fill="#8AC44B"/>
</g>
<path d="M113 143.166C113 145.088 100.58 150.257 75 150.257C49.4202 150.257 37 145.088 37 143.166C37 138.803 38.0857 131.166 37.5429 126.257H112.457C111.914 131.166 113 138.803 113 143.166Z" fill="#0B7A6A"/>
<path style="mix-blend-mode:multiply" d="M113 143.166C113 145.088 100.58 150.257 75 150.257C49.4202 150.257 37 145.088 37 143.166C37 138.803 38.0857 131.166 37.5429 126.257H112.457C111.914 131.166 113 138.803 113 143.166Z" fill="url(#paint0_linear_37_4205)" fill-opacity="0.4"/>
<path style="mix-blend-mode:multiply" d="M37 143.166C37 145.088 49.4202 150.257 75 150.257C100.58 150.257 113 145.088 113 143.166C113 138.803 111.914 131.166 112.457 126.257H37.5429C38.0857 131.166 37 138.803 37 143.166Z" fill="url(#paint1_linear_37_4205)" fill-opacity="0.4"/>
<g filter="url(#filter1_i_37_4205)">
<path d="M32.08 127.249C30.2805 137.98 59.2688 139.097 74.7991 139.097C90.3294 139.097 119.318 137.98 117.518 127.249C115.42 114.738 111.792 115.834 114.354 86.0203C117.518 49.1873 94.5751 37.4492 74.7991 37.4492C55.0231 37.4492 32.08 49.1873 35.2444 86.0203C37.8057 115.834 34.1781 114.738 32.08 127.249Z" fill="#48B8AC"/>
</g>
<path d="M33.3296 119.752C33.3296 118.617 34.2889 115.558 35.2482 115.558C35.2482 116.071 35.9463 116.822 36.2075 117.098C36.4687 117.375 38.2265 118.592 39.0871 119.055C40.7996 119.976 43.3983 120.881 46.7587 121.673C53.4497 123.249 62.7798 124.289 73.1401 124.289H75.0587V130.537H73.1401C62.5733 130.537 52.9574 129.48 45.9342 127.826C42.4375 127.002 39.4871 126.008 37.3648 124.867C36.3079 124.298 35.3598 123.642 34.6508 122.871C33.9413 122.1 33.3296 121.049 33.3296 119.752Z" fill="#14988B"/>
<path d="M116.788 119.752C116.788 118.617 115.829 115.558 114.869 115.558C114.869 116.071 114.171 116.822 113.91 117.098C113.649 117.375 111.891 118.592 111.03 119.055C109.318 119.976 106.719 120.881 103.359 121.673C96.6677 123.249 87.3377 124.289 76.9773 124.289H75.0587V130.537H76.9773C87.5441 130.537 97.16 129.48 104.183 127.826C107.68 127.002 110.63 126.008 112.753 124.867C113.81 124.298 114.758 123.642 115.467 122.871C116.176 122.1 116.788 121.049 116.788 119.752Z" fill="#14988B"/>
<g style="mix-blend-mode:multiply">
<path d="M33.3296 119.752C33.3296 118.617 34.2889 115.558 35.2482 115.558C35.2482 116.071 35.9463 116.822 36.2075 117.098C36.4687 117.375 38.2265 118.592 39.0871 119.055C40.7996 119.976 43.3983 120.881 46.7587 121.673C53.4497 123.249 62.7798 124.289 73.1401 124.289H75.0587V130.537H73.1401C62.5733 130.537 52.9574 129.48 45.9342 127.826C42.4375 127.002 39.4871 126.008 37.3648 124.867C36.3079 124.298 35.3598 123.642 34.6508 122.871C33.9413 122.1 33.3296 121.049 33.3296 119.752Z" fill="url(#paint2_linear_37_4205)" fill-opacity="0.4" style="mix-blend-mode:multiply"/>
<path d="M116.788 119.752C116.788 118.617 115.829 115.558 114.869 115.558C114.869 116.071 114.171 116.822 113.91 117.098C113.649 117.375 111.891 118.592 111.03 119.055C109.318 119.976 106.719 120.881 103.359 121.673C96.6677 123.249 87.3377 124.289 76.9773 124.289H75.0587V130.537H76.9773C87.5441 130.537 97.16 129.48 104.183 127.826C107.68 127.002 110.63 126.008 112.753 124.867C113.81 124.298 114.758 123.642 115.467 122.871C116.176 122.1 116.788 121.049 116.788 119.752Z" fill="url(#paint3_linear_37_4205)" fill-opacity="0.4" style="mix-blend-mode:multiply"/>
</g>
<g style="mix-blend-mode:multiply">
<path d="M116.788 119.752C116.788 118.617 115.829 115.558 114.869 115.558C114.869 116.071 114.171 116.822 113.91 117.098C113.649 117.375 111.891 118.592 111.03 119.055C109.318 119.976 106.719 120.881 103.359 121.673C96.6677 123.249 87.3377 124.289 76.9773 124.289H75.0587V130.537H76.9773C87.5441 130.537 97.16 129.48 104.183 127.826C107.68 127.002 110.63 126.008 112.753 124.867C113.81 124.298 114.758 123.642 115.467 122.871C116.176 122.1 116.788 121.049 116.788 119.752Z" fill="url(#paint4_linear_37_4205)" fill-opacity="0.4" style="mix-blend-mode:multiply"/>
<path d="M33.3296 119.752C33.3296 118.617 34.2889 115.558 35.2482 115.558C35.2482 116.071 35.9463 116.822 36.2075 117.098C36.4687 117.375 38.2265 118.592 39.0871 119.055C40.7996 119.976 43.3983 120.881 46.7587 121.673C53.4497 123.249 62.7798 124.289 73.1401 124.289H75.0587V130.537H73.1401C62.5733 130.537 52.9574 129.48 45.9342 127.826C42.4375 127.002 39.4871 126.008 37.3648 124.867C36.3079 124.298 35.3598 123.642 34.6508 122.871C33.9413 122.1 33.3296 121.049 33.3296 119.752Z" fill="url(#paint5_linear_37_4205)" fill-opacity="0.4" style="mix-blend-mode:multiply"/>
</g>
<g style="mix-blend-mode:multiply">
<path d="M66.4537 72.4899C66.6375 75.5219 64.9956 77.9799 62.7865 77.9799C60.5773 77.9799 58.6375 75.5219 58.4537 72.4899C58.27 69.4579 59.9119 67 62.121 67C64.3301 67 66.27 69.4579 66.4537 72.4899Z" fill="url(#paint6_linear_37_4205)"/>
</g>
<path fill-rule="evenodd" clip-rule="evenodd" d="M67.2061 77.5461C66.2923 78.9141 64.8096 79.9762 62.9075 79.9762C61.0054 79.9762 59.3939 78.9141 58.3143 77.5461C57.2331 76.1761 56.5684 74.382 56.4537 72.4899C56.3391 70.5978 56.7863 68.8037 57.7014 67.4338C58.6152 66.0658 60.0979 65.0037 62 65.0037C63.9021 65.0037 65.5135 66.0658 66.5932 67.4338C67.6744 68.8037 68.3391 70.5978 68.4537 72.4899C68.5684 74.382 68.1212 76.1761 67.2061 77.5461ZM62.7865 77.9798C64.9956 77.9798 66.6375 75.5219 66.4537 72.4899C66.27 69.4579 64.3301 67 62.121 67C59.9119 67 58.27 69.4579 58.4537 72.4899C58.6375 75.5219 60.5773 77.9798 62.7865 77.9798Z" fill="#BEDEF5"/>
<g style="mix-blend-mode:multiply">
<path d="M83.3612 72.4899C83.1774 75.5219 84.8193 77.9799 87.0285 77.9799C89.2376 77.9799 91.1774 75.5219 91.3612 72.4899C91.545 69.4579 89.9031 67 87.6939 67C85.4848 67 83.545 69.4579 83.3612 72.4899Z" fill="url(#paint7_linear_37_4205)"/>
</g>
<path fill-rule="evenodd" clip-rule="evenodd" d="M82.6089 77.5461C83.5227 78.9141 85.0054 79.9762 86.9075 79.9762C88.8096 79.9762 90.421 78.9141 91.5007 77.5461C92.5819 76.1761 93.2465 74.382 93.3612 72.4899C93.4759 70.5978 93.0287 68.8037 92.1136 67.4338C91.1997 66.0658 89.717 65.0037 87.8149 65.0037C85.9129 65.0037 84.3014 66.0658 83.2218 67.4338C82.1406 68.8037 81.4759 70.5978 81.3612 72.4899C81.2465 74.382 81.6937 76.1761 82.6089 77.5461ZM87.0285 77.9798C84.8193 77.9798 83.1774 75.5219 83.3612 72.4899C83.545 69.4579 85.4848 67 87.6939 67C89.9031 67 91.545 69.4579 91.3612 72.4899C91.1774 75.5219 89.2376 77.9798 87.0285 77.9798Z" fill="#BEDEF5"/>
<g style="mix-blend-mode:multiply">
<path d="M79 84C79 86.2091 77.2091 88 75 88C72.7909 88 71 86.2091 71 84C71 81.7909 72.7909 80 75 80C77.2091 80 79 81.7909 79 84Z" fill="url(#paint8_linear_37_4205)"/>
</g>
<g opacity="0.7">
<ellipse rx="4.5" ry="3.5" transform="matrix(1 0 0.000389799 -1 92.5041 83.5)" fill="#F96F6F"/>
<ellipse rx="4.5" ry="3.5" transform="matrix(1 0 0.000389799 -1 57.5014 83.5)" fill="#F96F6F"/>
</g>
<defs>
<filter id="filter0_i_37_4205" x="13" y="80.2483" width="124.057" height="38.2393" filterUnits="userSpaceOnUse" color-interpolation-filters="sRGB">
<feFlood flood-opacity="0" result="BackgroundImageFix"/>
<feBlend mode="normal" in="SourceGraphic" in2="BackgroundImageFix" result="shape"/>
<feColorMatrix in="SourceAlpha" type="matrix" values="0 0 0 0 0 0 0 0 0 0 0 0 0 0 0 0 0 0 127 0" result="hardAlpha"/>
<feOffset dy="4"/>
<feGaussianBlur stdDeviation="7"/>
<feComposite in2="hardAlpha" operator="arithmetic" k2="-1" k3="1"/>
<feColorMatrix type="matrix" values="0 0 0 0 0 0 0 0 0 0.3895 0 0 0 0 0.475 0 0 0 0.3 0"/>
<feBlend mode="multiply" in2="shape" result="effect1_innerShadow_37_4205"/>
</filter>
<filter id="filter1_i_37_4205" x="32" y="37.4492" width="85.5982" height="105.648" filterUnits="userSpaceOnUse" color-interpolation-filters="sRGB">
<feFlood flood-opacity="0" result="BackgroundImageFix"/>
<feBlend mode="normal" in="SourceGraphic" in2="BackgroundImageFix" result="shape"/>
<feColorMatrix in="SourceAlpha" type="matrix" values="0 0 0 0 0 0 0 0 0 0 0 0 0 0 0 0 0 0 127 0" result="hardAlpha"/>
<feOffset dy="4"/>
<feGaussianBlur stdDeviation="7"/>
<feComposite in2="hardAlpha" operator="arithmetic" k2="-1" k3="1"/>
<feColorMatrix type="matrix" values="0 0 0 0 0 0 0 0 0 0.3895 0 0 0 0 0.475 0 0 0 0.3 0"/>
<feBlend mode="multiply" in2="shape" result="effect1_innerShadow_37_4205"/>
</filter>
<linearGradient id="paint0_linear_37_4205" x1="37" y1="138.257" x2="75" y2="138.257" gradientUnits="userSpaceOnUse">
<stop stop-color="#006379"/>
<stop offset="0.0001" stop-color="#006379" stop-opacity="0.7"/>
<stop offset="0.723958" stop-color="#006379" stop-opacity="0"/>
</linearGradient>
<linearGradient id="paint1_linear_37_4205" x1="113" y1="138.257" x2="75" y2="138.257" gradientUnits="userSpaceOnUse">
<stop stop-color="#006379"/>
<stop offset="0.0001" stop-color="#006379" stop-opacity="0.7"/>
<stop offset="0.723958" stop-color="#006379" stop-opacity="0"/>
</linearGradient>
<linearGradient id="paint2_linear_37_4205" x1="33.3296" y1="123.047" x2="75.0587" y2="123.047" gradientUnits="userSpaceOnUse">
<stop stop-color="#006379"/>
<stop offset="0.0001" stop-color="#006379" stop-opacity="0.7"/>
<stop offset="0.723958" stop-color="#006379" stop-opacity="0"/>
</linearGradient>
<linearGradient id="paint3_linear_37_4205" x1="33.3296" y1="123.047" x2="75.0587" y2="123.047" gradientUnits="userSpaceOnUse">
<stop stop-color="#006379"/>
<stop offset="0.0001" stop-color="#006379" stop-opacity="0.7"/>
<stop offset="0.723958" stop-color="#006379" stop-opacity="0"/>
</linearGradient>
<linearGradient id="paint4_linear_37_4205" x1="116.788" y1="123.047" x2="75.0587" y2="123.047" gradientUnits="userSpaceOnUse">
<stop stop-color="#006379"/>
<stop offset="0.0001" stop-color="#006379" stop-opacity="0.7"/>
<stop offset="0.723958" stop-color="#006379" stop-opacity="0"/>
</linearGradient>
<linearGradient id="paint5_linear_37_4205" x1="116.788" y1="123.047" x2="75.0587" y2="123.047" gradientUnits="userSpaceOnUse">
<stop stop-color="#006379"/>
<stop offset="0.0001" stop-color="#006379" stop-opacity="0.7"/>
<stop offset="0.723958" stop-color="#006379" stop-opacity="0"/>
</linearGradient>
<linearGradient id="paint6_linear_37_4205" x1="62.8399" y1="78.0696" x2="62.8755" y2="66.6436" gradientUnits="userSpaceOnUse">
<stop stop-color="#242020"/>
<stop offset="1" stop-color="#7C5D5D"/>
</linearGradient>
<linearGradient id="paint7_linear_37_4205" x1="86.975" y1="78.0696" x2="86.9394" y2="66.6436" gradientUnits="userSpaceOnUse">
<stop stop-color="#242020"/>
<stop offset="1" stop-color="#7C5D5D"/>
</linearGradient>
<linearGradient id="paint8_linear_37_4205" x1="75.048" y1="88.0654" x2="75.0669" y2="79.7387" gradientUnits="userSpaceOnUse">
<stop stop-color="#242020"/>
<stop offset="1" stop-color="#7C5D5D"/>
</linearGradient>
</defs>
</svg>
