<svg width="150" height="150" viewBox="0 0 150 150" fill="none" xmlns="http://www.w3.org/2000/svg">
<path d="M35.9965 138.013C43.4531 150 43.4531 150 75.0001 150C106.547 150 106.547 150 114.004 138.013H35.9965Z" fill="#FBDC6F"/>
<path style="mix-blend-mode:multiply" opacity="0.3" d="M114.004 138.013C106.547 150 106.547 150 75.0001 150C43.4531 150 43.4531 150 35.9965 138.013H114.004Z" fill="url(#paint0_linear_9_1225)"/>
<path style="mix-blend-mode:multiply" opacity="0.3" d="M35.9965 138.013C43.4531 150 43.4531 150 75.0001 150C106.547 150 106.547 150 114.004 138.013H35.9965Z" fill="url(#paint1_linear_9_1225)"/>
<g filter="url(#filter0_i_9_1225)">
<path d="M128.813 96.5793C115.92 97.6686 113.442 87.7906 113.72 82.0293C106.314 88.8236 96.3431 106.153 115.702 121.113C112.85 114.746 126.781 113.498 131.624 112.095C136.466 110.693 137.464 109.95 136.26 103.3C135.055 96.6506 135.368 96.0256 128.813 96.5793Z" fill="#FCEDA0"/>
<path fill-rule="evenodd" clip-rule="evenodd" d="M126.733 96.6796C127.38 96.6862 128.057 96.662 128.765 96.6045C134.904 96.1061 134.998 96.6289 136.007 102.235C136.071 102.592 136.139 102.969 136.213 103.367C137.44 110.035 136.448 110.776 131.629 112.163C131.073 112.323 130.396 112.481 129.639 112.644C129.526 107.088 128.092 101.037 126.733 96.6796Z" fill="#F6A9C4"/>
</g>
<g filter="url(#filter1_i_9_1225)">
<path d="M21.9496 96.5794C34.8428 97.6686 37.3211 87.7906 37.0433 82.0292C44.4488 88.8236 54.42 106.152 35.0606 121.113C37.9127 114.746 23.9817 113.498 19.1392 112.095C14.2967 110.693 13.2987 109.95 14.5031 103.3C15.7075 96.6506 15.3951 96.0256 21.9496 96.5794Z" fill="#FCEDA0"/>
<path fill-rule="evenodd" clip-rule="evenodd" d="M24.0303 96.6796C23.3834 96.6862 22.7062 96.662 21.9977 96.6045C15.859 96.1061 15.7649 96.6289 14.7557 102.235C14.6916 102.592 14.6237 102.969 14.5503 103.367C13.3232 110.035 14.3147 110.776 19.1344 112.163C19.6903 112.323 20.3668 112.481 21.1241 112.644C21.2366 107.088 22.6708 101.037 24.0303 96.6796Z" fill="#F6A9C4"/>
</g>
<g filter="url(#filter2_i_9_1225)">
<path d="M76.2839 0.239089C65.9293 2.99672 68.2174 28.4173 70.0933 39.2089H78.535C77.9722 33.8131 77.7471 29.7362 81.3489 20.6233C85.8511 9.23213 86.4139 5.03538 83.6 2.0377C81.8204 0.141799 78.535 -0.360428 76.2839 0.239089Z" fill="#F6A9C4"/>
</g>
<g filter="url(#filter3_i_9_1225)">
<path d="M118.044 12.5036C107.102 9.24788 96.5052 33.3929 92.8418 44.1442L100.638 48.8217C102.816 43.6539 104.647 39.8603 112.53 33.6548C122.384 25.8981 125.002 22.4331 123.902 18.1761C123.206 15.4838 120.423 13.2114 118.044 12.5036Z" fill="#96C8ED"/>
</g>
<g filter="url(#filter4_i_9_1225)">
<path d="M30.916 12.5036C41.8579 9.24788 52.4551 33.3929 56.1184 44.1442L48.322 48.8217C46.1438 43.6539 44.3133 39.8603 36.4303 33.6548C26.5766 25.8981 23.9585 22.4331 25.0584 18.1761C25.7541 15.4838 28.5372 13.2114 30.916 12.5036Z" fill="#ADD57F"/>
</g>
<g filter="url(#filter5_i_9_1225)">
<path d="M144.921 43.2596C136.921 35.0821 115.857 49.9253 107.402 57.0616L111.952 64.8544C116.381 61.6326 119.836 59.383 129.77 58.144C142.189 56.5953 146.173 55.013 147.286 50.9141C147.99 48.3218 146.66 45.0374 144.921 43.2596Z" fill="#FDB14E"/>
</g>
<g filter="url(#filter6_i_9_1225)">
<path d="M5.07886 43.26C13.0772 35.0822 34.1408 49.9273 42.5954 57.0645L38.0465 64.8576C33.6171 61.6354 30.1625 59.3855 20.2287 58.146C7.81134 56.5967 3.82709 55.0141 2.71409 50.9149C2.01017 48.3224 3.33999 45.0379 5.07886 43.26Z" fill="#C894C4"/>
</g>
<g filter="url(#filter7_i_9_1225)">
<path d="M28.6908 133.298C25.0562 142.755 57.8441 145.119 74.6924 145.119C91.5407 145.119 124.329 142.755 120.694 133.298C116.151 121.476 114.447 122.039 116.151 117.535C117.854 113.032 126.897 73.81 116.151 55.6116C107.815 41.4958 94.0017 33.0939 74.6924 33.0939C55.3831 33.0939 41.5694 41.4958 33.2342 55.6116C22.4882 73.81 31.5304 113.032 33.2342 117.535C34.938 122.039 33.2342 121.476 28.6908 133.298Z" fill="#FCEDA0"/>
</g>
<path d="M31.425 124.664C31.425 123.674 32.4187 122.871 33.4125 122.871C33.4125 123.319 34.1357 123.974 34.4063 124.216C34.6768 124.457 36.4978 125.519 37.3893 125.923C39.1634 126.726 41.8555 127.516 45.3366 128.207C52.268 129.582 61.9332 130.489 72.6658 130.489H74.6533V134.074H72.6658C61.7193 134.074 51.7579 133.152 44.4824 131.708C40.8601 130.989 37.8037 130.122 35.6051 129.126C34.5103 128.63 33.5281 128.058 32.7937 127.385C32.0587 126.712 31.425 125.796 31.425 124.664Z" fill="#FBDC6F"/>
<path d="M117.882 124.664C117.882 123.674 116.888 122.871 115.894 122.871C115.894 123.319 115.171 123.974 114.9 124.216C114.63 124.457 112.809 125.519 111.917 125.923C110.143 126.726 107.451 127.516 103.97 128.207C97.0386 129.582 87.3733 130.489 76.6408 130.489H74.6533V134.074H76.6408C87.5872 134.074 97.5486 133.152 104.824 131.708C108.446 130.989 111.503 130.122 113.701 129.126C114.796 128.63 115.778 128.058 116.513 127.385C117.248 126.712 117.882 125.796 117.882 124.664Z" fill="#FBDC6F"/>
<g opacity="0.3">
<path d="M31.425 124.507C31.425 123.517 32.4187 122.714 33.4125 122.714C33.4125 123.162 34.1357 123.817 34.4063 124.059C34.6768 124.3 36.4978 125.362 37.3893 125.766C39.1634 126.569 41.8555 127.359 45.3366 128.05C52.268 129.425 61.9332 130.332 72.6658 130.332H74.6533V133.917H72.6658C61.7193 133.917 51.7579 132.995 44.4824 131.551C40.8601 130.832 37.8037 129.965 35.6051 128.969C34.5103 128.473 33.5281 127.901 32.7937 127.228C32.0587 126.555 31.425 125.639 31.425 124.507Z" fill="url(#paint2_linear_9_1225)" style="mix-blend-mode:multiply"/>
<path d="M117.882 124.507C117.882 123.517 116.888 122.714 115.894 122.714C115.894 123.162 115.171 123.817 114.9 124.059C114.63 124.3 112.809 125.362 111.917 125.766C110.143 126.569 107.451 127.359 103.97 128.05C97.0386 129.425 87.3733 130.332 76.6408 130.332H74.6533V133.917H76.6408C87.5872 133.917 97.5486 132.995 104.824 131.551C108.446 130.832 111.503 129.965 113.701 128.969C114.796 128.473 115.778 127.901 116.513 127.228C117.248 126.555 117.882 125.639 117.882 124.507Z" fill="url(#paint3_linear_9_1225)" style="mix-blend-mode:multiply"/>
</g>
<g opacity="0.3">
<path d="M117.882 124.507C117.882 123.517 116.888 122.714 115.894 122.714C115.894 123.162 115.171 123.817 114.9 124.059C114.63 124.3 112.809 125.362 111.917 125.766C110.143 126.569 107.451 127.359 103.97 128.05C97.0386 129.425 87.3733 130.332 76.6408 130.332H74.6533V133.917H76.6408C87.5872 133.917 97.5486 132.995 104.824 131.551C108.446 130.832 111.503 129.965 113.701 128.969C114.796 128.473 115.778 127.901 116.513 127.228C117.248 126.555 117.882 125.639 117.882 124.507Z" fill="url(#paint4_linear_9_1225)" style="mix-blend-mode:multiply"/>
<path d="M31.425 124.507C31.425 123.517 32.4188 122.714 33.4125 122.714C33.4125 123.162 34.1357 123.817 34.4063 124.059C34.6768 124.3 36.4978 125.362 37.3893 125.766C39.1634 126.569 41.8555 127.359 45.3366 128.05C52.268 129.425 61.9332 130.332 72.6658 130.332H74.6533V133.917H72.6658C61.7193 133.917 51.7579 132.995 44.4824 131.551C40.8601 130.832 37.8037 129.965 35.6051 128.969C34.5103 128.473 33.5282 127.901 32.7937 127.228C32.0587 126.555 31.425 125.639 31.425 124.507Z" fill="url(#paint5_linear_9_1225)" style="mix-blend-mode:multiply"/>
</g>
<g style="mix-blend-mode:multiply">
<ellipse rx="5.05139" ry="5.60163" transform="matrix(0.98487 -0.173296 0.174001 0.984746 53.9449 78.3162)" fill="url(#paint6_linear_9_1225)"/>
</g>
<g style="mix-blend-mode:multiply">
<ellipse rx="5.05139" ry="5.60163" transform="matrix(-0.984875 -0.173265 -0.174033 0.98474 95.491 78.3163)" fill="url(#paint7_linear_9_1225)"/>
</g>
<g style="mix-blend-mode:multiply">
<path d="M79.7038 87.8384C79.7038 90.6225 77.6934 92.8795 75.2134 92.8795C72.7334 92.8795 70.723 90.6225 70.723 87.8384C70.723 85.0542 72.7334 82.7972 75.2134 82.7972C77.6934 82.7972 79.7038 85.0542 79.7038 87.8384Z" fill="url(#paint8_linear_9_1225)"/>
</g>
<path fill-rule="evenodd" clip-rule="evenodd" d="M81.9515 87.8384C81.9515 91.6046 79.1767 95.12 75.2147 95.12C71.2527 95.12 68.4778 91.6046 68.4778 87.8384C68.4778 84.0722 71.2527 80.5567 75.2147 80.5567C79.1767 80.5567 81.9515 84.0722 81.9515 87.8384ZM75.2147 92.8795C77.6951 92.8795 79.7059 90.6225 79.7059 87.8384C79.7059 85.0542 77.6951 82.7972 75.2147 82.7972C72.7342 82.7972 70.7234 85.0542 70.7234 87.8384C70.7234 90.6225 72.7342 92.8795 75.2147 92.8795Z" fill="#FCD44F"/>
<g opacity="0.7">
<ellipse rx="4.5" ry="3.49634" transform="matrix(1 0 0.000390244 -1 103.504 86.4095)" fill="#FF9D9D"/>
<ellipse rx="4.5" ry="3.49634" transform="matrix(1 0 0.000390208 -1 45.4983 86.4095)" fill="#FF9D9D"/>
</g>
<defs>
<filter id="filter0_i_9_1225" x="104.462" y="82.0293" width="32.2622" height="43.0839" filterUnits="userSpaceOnUse" color-interpolation-filters="sRGB">
<feFlood flood-opacity="0" result="BackgroundImageFix"/>
<feBlend mode="normal" in="SourceGraphic" in2="BackgroundImageFix" result="shape"/>
<feColorMatrix in="SourceAlpha" type="matrix" values="0 0 0 0 0 0 0 0 0 0 0 0 0 0 0 0 0 0 127 0" result="hardAlpha"/>
<feOffset dy="4"/>
<feGaussianBlur stdDeviation="8"/>
<feComposite in2="hardAlpha" operator="arithmetic" k2="-1" k3="1"/>
<feColorMatrix type="matrix" values="0 0 0 0 0.475 0 0 0 0 0.0855 0 0 0 0 0 0 0 0 0.3 0"/>
<feBlend mode="multiply" in2="shape" result="effect1_innerShadow_9_1225"/>
</filter>
<filter id="filter1_i_9_1225" x="14.0384" y="82.0292" width="32.2622" height="43.0839" filterUnits="userSpaceOnUse" color-interpolation-filters="sRGB">
<feFlood flood-opacity="0" result="BackgroundImageFix"/>
<feBlend mode="normal" in="SourceGraphic" in2="BackgroundImageFix" result="shape"/>
<feColorMatrix in="SourceAlpha" type="matrix" values="0 0 0 0 0 0 0 0 0 0 0 0 0 0 0 0 0 0 127 0" result="hardAlpha"/>
<feOffset dy="4"/>
<feGaussianBlur stdDeviation="8"/>
<feComposite in2="hardAlpha" operator="arithmetic" k2="-1" k3="1"/>
<feColorMatrix type="matrix" values="0 0 0 0 0.475 0 0 0 0 0.0855 0 0 0 0 0 0 0 0 0.3 0"/>
<feBlend mode="multiply" in2="shape" result="effect1_innerShadow_9_1225"/>
</filter>
<filter id="filter2_i_9_1225" x="68.4778" y="0" width="16.8422" height="43.2089" filterUnits="userSpaceOnUse" color-interpolation-filters="sRGB">
<feFlood flood-opacity="0" result="BackgroundImageFix"/>
<feBlend mode="normal" in="SourceGraphic" in2="BackgroundImageFix" result="shape"/>
<feColorMatrix in="SourceAlpha" type="matrix" values="0 0 0 0 0 0 0 0 0 0 0 0 0 0 0 0 0 0 127 0" result="hardAlpha"/>
<feOffset dy="4"/>
<feGaussianBlur stdDeviation="8"/>
<feComposite in2="hardAlpha" operator="arithmetic" k2="-1" k3="1"/>
<feColorMatrix type="matrix" values="0 0 0 0 0.475 0 0 0 0 0.0855 0 0 0 0 0 0 0 0 0.3 0"/>
<feBlend mode="multiply" in2="shape" result="effect1_innerShadow_9_1225"/>
</filter>
<filter id="filter3_i_9_1225" x="92.8418" y="12.2043" width="31.2937" height="40.6174" filterUnits="userSpaceOnUse" color-interpolation-filters="sRGB">
<feFlood flood-opacity="0" result="BackgroundImageFix"/>
<feBlend mode="normal" in="SourceGraphic" in2="BackgroundImageFix" result="shape"/>
<feColorMatrix in="SourceAlpha" type="matrix" values="0 0 0 0 0 0 0 0 0 0 0 0 0 0 0 0 0 0 127 0" result="hardAlpha"/>
<feOffset dy="4"/>
<feGaussianBlur stdDeviation="7"/>
<feComposite in2="hardAlpha" operator="arithmetic" k2="-1" k3="1"/>
<feColorMatrix type="matrix" values="0 0 0 0 0 0 0 0 0 0.3895 0 0 0 0 0.475 0 0 0 0.3 0"/>
<feBlend mode="multiply" in2="shape" result="effect1_innerShadow_9_1225"/>
</filter>
<filter id="filter4_i_9_1225" x="24.8247" y="12.2043" width="31.2937" height="40.6174" filterUnits="userSpaceOnUse" color-interpolation-filters="sRGB">
<feFlood flood-opacity="0" result="BackgroundImageFix"/>
<feBlend mode="normal" in="SourceGraphic" in2="BackgroundImageFix" result="shape"/>
<feColorMatrix in="SourceAlpha" type="matrix" values="0 0 0 0 0 0 0 0 0 0 0 0 0 0 0 0 0 0 127 0" result="hardAlpha"/>
<feOffset dy="4"/>
<feGaussianBlur stdDeviation="7"/>
<feComposite in2="hardAlpha" operator="arithmetic" k2="-1" k3="1"/>
<feColorMatrix type="matrix" values="0 0 0 0 0 0 0 0 0 0.3895 0 0 0 0 0.475 0 0 0 0.3 0"/>
<feBlend mode="multiply" in2="shape" result="effect1_innerShadow_9_1225"/>
</filter>
<filter id="filter5_i_9_1225" x="107.402" y="40.868" width="40.0759" height="27.9864" filterUnits="userSpaceOnUse" color-interpolation-filters="sRGB">
<feFlood flood-opacity="0" result="BackgroundImageFix"/>
<feBlend mode="normal" in="SourceGraphic" in2="BackgroundImageFix" result="shape"/>
<feColorMatrix in="SourceAlpha" type="matrix" values="0 0 0 0 0 0 0 0 0 0 0 0 0 0 0 0 0 0 127 0" result="hardAlpha"/>
<feOffset dy="4"/>
<feGaussianBlur stdDeviation="8"/>
<feComposite in2="hardAlpha" operator="arithmetic" k2="-1" k3="1"/>
<feColorMatrix type="matrix" values="0 0 0 0 0.475 0 0 0 0 0.0855 0 0 0 0 0 0 0 0 0.3 0"/>
<feBlend mode="multiply" in2="shape" result="effect1_innerShadow_9_1225"/>
</filter>
<filter id="filter6_i_9_1225" x="2.52192" y="40.8685" width="40.0735" height="27.9891" filterUnits="userSpaceOnUse" color-interpolation-filters="sRGB">
<feFlood flood-opacity="0" result="BackgroundImageFix"/>
<feBlend mode="normal" in="SourceGraphic" in2="BackgroundImageFix" result="shape"/>
<feColorMatrix in="SourceAlpha" type="matrix" values="0 0 0 0 0 0 0 0 0 0 0 0 0 0 0 0 0 0 127 0" result="hardAlpha"/>
<feOffset dy="4"/>
<feGaussianBlur stdDeviation="8"/>
<feComposite in2="hardAlpha" operator="arithmetic" k2="-1" k3="1"/>
<feColorMatrix type="matrix" values="0 0 0 0 0.475 0 0 0 0 0.0855 0 0 0 0 0 0 0 0 0.3 0"/>
<feBlend mode="multiply" in2="shape" result="effect1_innerShadow_9_1225"/>
</filter>
<filter id="filter7_i_9_1225" x="28.0565" y="33.0939" width="93.2717" height="116.025" filterUnits="userSpaceOnUse" color-interpolation-filters="sRGB">
<feFlood flood-opacity="0" result="BackgroundImageFix"/>
<feBlend mode="normal" in="SourceGraphic" in2="BackgroundImageFix" result="shape"/>
<feColorMatrix in="SourceAlpha" type="matrix" values="0 0 0 0 0 0 0 0 0 0 0 0 0 0 0 0 0 0 127 0" result="hardAlpha"/>
<feOffset dy="4"/>
<feGaussianBlur stdDeviation="8"/>
<feComposite in2="hardAlpha" operator="arithmetic" k2="-1" k3="1"/>
<feColorMatrix type="matrix" values="0 0 0 0 0.475 0 0 0 0 0.0855 0 0 0 0 0 0 0 0 0.3 0"/>
<feBlend mode="multiply" in2="shape" result="effect1_innerShadow_9_1225"/>
</filter>
<linearGradient id="paint0_linear_9_1225" x1="114.004" y1="144.006" x2="75.0001" y2="144.006" gradientUnits="userSpaceOnUse">
<stop stop-color="#791600"/>
<stop offset="0.0001" stop-color="#791600" stop-opacity="0.7"/>
<stop offset="0.723958" stop-color="#791600" stop-opacity="0"/>
</linearGradient>
<linearGradient id="paint1_linear_9_1225" x1="35.9965" y1="144.006" x2="75.0001" y2="144.006" gradientUnits="userSpaceOnUse">
<stop stop-color="#791600"/>
<stop offset="0.0001" stop-color="#791600" stop-opacity="0.7"/>
<stop offset="0.723958" stop-color="#791600" stop-opacity="0"/>
</linearGradient>
<linearGradient id="paint2_linear_9_1225" x1="31.425" y1="128.316" x2="74.6533" y2="128.316" gradientUnits="userSpaceOnUse">
<stop stop-color="#791600"/>
<stop offset="0.0001" stop-color="#791600" stop-opacity="0.7"/>
<stop offset="0.723958" stop-color="#791600" stop-opacity="0"/>
</linearGradient>
<linearGradient id="paint3_linear_9_1225" x1="31.425" y1="128.316" x2="74.6533" y2="128.316" gradientUnits="userSpaceOnUse">
<stop stop-color="#791600"/>
<stop offset="0.0001" stop-color="#791600" stop-opacity="0.7"/>
<stop offset="0.723958" stop-color="#791600" stop-opacity="0"/>
</linearGradient>
<linearGradient id="paint4_linear_9_1225" x1="117.882" y1="128.316" x2="74.6533" y2="128.316" gradientUnits="userSpaceOnUse">
<stop stop-color="#791600"/>
<stop offset="0.0001" stop-color="#791600" stop-opacity="0.7"/>
<stop offset="0.723958" stop-color="#791600" stop-opacity="0"/>
</linearGradient>
<linearGradient id="paint5_linear_9_1225" x1="117.882" y1="128.316" x2="74.6533" y2="128.316" gradientUnits="userSpaceOnUse">
<stop stop-color="#791600"/>
<stop offset="0.0001" stop-color="#791600" stop-opacity="0.7"/>
<stop offset="0.723958" stop-color="#791600" stop-opacity="0"/>
</linearGradient>
<linearGradient id="paint6_linear_9_1225" x1="5.11203" y1="11.2949" x2="5.1414" y2="-0.365871" gradientUnits="userSpaceOnUse">
<stop stop-color="#242020"/>
<stop offset="1" stop-color="#7C5D5D"/>
</linearGradient>
<linearGradient id="paint7_linear_9_1225" x1="5.11203" y1="11.2949" x2="5.1414" y2="-0.365871" gradientUnits="userSpaceOnUse">
<stop stop-color="#242020"/>
<stop offset="1" stop-color="#7C5D5D"/>
</linearGradient>
<linearGradient id="paint8_linear_9_1225" x1="75.2673" y1="92.962" x2="75.2941" y2="82.468" gradientUnits="userSpaceOnUse">
<stop stop-color="#242020"/>
<stop offset="1" stop-color="#7C5D5D"/>
</linearGradient>
</defs>
</svg>
