<svg width="150" height="150" viewBox="0 0 150 150" fill="none" xmlns="http://www.w3.org/2000/svg">
<g filter="url(#filter0_i_104_1361)">
<path d="M16.6646 82.9052C23.234 75.7833 29.1669 74.9704 33.6248 75.7391L36.7301 90.6614C24.6507 91.5261 24.3032 97.0698 25.2771 99.7703C26.2511 102.471 30.9637 108.549 25.2771 110.94C14.3826 115.519 6.59757 93.8188 16.6646 82.9052Z" fill="#FCD44F"/>
<path fill-rule="evenodd" clip-rule="evenodd" d="M26.1478 101.642C26.1495 101.645 26.1513 101.649 26.1531 101.652C27.6788 104.672 29.8704 109.009 25.2771 110.94C20.7626 112.837 16.782 110.222 14.3844 105.732C17.4034 105.435 22.2616 104.359 26.1478 101.642Z" fill="#FCF3C6"/>
</g>
<g filter="url(#filter1_i_104_1361)">
<path d="M133.335 82.9052C126.766 75.7833 120.833 74.9704 116.375 75.7391L113.27 90.6614C125.349 91.5261 125.697 97.0698 124.723 99.7703C123.749 102.471 119.036 108.549 124.723 110.94C135.617 115.519 143.402 93.8188 133.335 82.9052Z" fill="#FCD44F"/>
<path fill-rule="evenodd" clip-rule="evenodd" d="M123.852 101.642C123.85 101.645 123.849 101.649 123.847 101.652C122.321 104.672 120.13 109.009 124.723 110.94C129.237 112.837 133.218 110.222 135.616 105.732C132.597 105.435 127.738 104.359 123.852 101.642Z" fill="#FCF3C6"/>
</g>
<path d="M37.6823 128.042C44.8165 144 44.8165 144 75 144C105.183 144 105.183 144 112.318 128.042H37.6823Z" fill="#86544E"/>
<g style="mix-blend-mode:multiply">
<path d="M37.6823 128.042C44.8165 144 44.8165 144 75 144C105.183 144 105.183 144 112.318 128.042H37.6823Z" fill="url(#paint0_linear_104_1361)"/>
</g>
<g style="mix-blend-mode:multiply">
<path d="M112.318 128.042C105.183 144 105.183 144 75 144C44.8165 144 44.8165 144 37.6823 128.042H112.318Z" fill="url(#paint1_linear_104_1361)"/>
</g>
<g filter="url(#filter2_i_104_1361)">
<path d="M31.5749 126.776C29.5314 133.361 59.6735 135.351 75 135.522C90.3265 135.351 120.469 133.361 118.425 126.776C115.871 118.544 112.294 112.37 112.805 107.225C113.316 102.08 128.132 84.0723 124.045 64.0069C120.775 47.9546 112.465 29.1926 108.718 21.8181H41.2817C37.5352 29.1926 29.2249 47.9546 25.9552 64.0069C21.8681 84.0723 36.6838 102.08 37.1946 107.225C37.7055 112.37 34.1293 118.544 31.5749 126.776Z" fill="#FCD44F"/>
</g>
<path d="M114.148 110.81C114.148 109.914 113.667 108.49 112.757 108.49C112.757 108.896 112.095 109.489 111.847 109.707C111.599 109.926 109.932 110.887 109.116 111.253C107.492 111.981 105.027 112.696 101.84 113.321C95.4942 114.566 86.6455 115.387 76.8196 115.387H73.1804C63.3544 115.387 54.5058 114.566 48.1599 113.321C44.9729 112.696 42.5082 111.981 40.884 111.253C40.0678 110.887 38.4006 109.926 38.1529 109.707C37.9052 109.489 37.2431 108.896 37.2431 108.49C36.3333 108.49 35.8521 109.914 35.8521 110.81C35.8521 111.835 36.0037 112.638 36.6766 113.248C37.349 113.857 38.2482 114.375 39.2505 114.824C41.2633 115.726 44.0616 116.511 47.3779 117.162C54.0388 118.469 63.1587 119.304 73.1804 119.304H76.8196C86.8413 119.304 95.9612 118.469 102.622 117.162C105.938 116.511 108.737 115.726 110.749 114.824C111.752 114.375 112.651 113.857 113.323 113.248C113.996 112.638 114.148 111.835 114.148 110.81Z" fill="#86544E"/>
<g style="mix-blend-mode:multiply">
<path d="M90.9222 60.5411C90.9222 62.7445 89.3628 64.5307 87.4392 64.5307C85.5156 64.5307 83.9562 62.7445 83.9562 60.5411C83.9562 58.3377 85.5156 56.5515 87.4392 56.5515C89.3628 56.5515 90.9222 58.3377 90.9222 60.5411Z" fill="url(#paint2_linear_104_1361)"/>
</g>
<g style="mix-blend-mode:multiply">
<path d="M66.0438 60.5411C66.0438 62.7445 64.4844 64.5307 62.5608 64.5307C60.6372 64.5307 59.0778 62.7445 59.0778 60.5411C59.0778 58.3377 60.6372 56.5515 62.5608 56.5515C64.4844 56.5515 66.0438 58.3377 66.0438 60.5411Z" fill="url(#paint3_linear_104_1361)"/>
</g>
<g opacity="0.7">
<ellipse rx="4.47813" ry="3.49091" transform="matrix(1 0 0.000388914 -1 103.859 68.0217)" fill="#F96F6F"/>
<ellipse rx="4.47813" ry="3.49091" transform="matrix(1 0 0.000390814 -1 46.141 68.0217)" fill="#F96F6F"/>
</g>
<g filter="url(#filter3_d_104_1361)">
<path fill-rule="evenodd" clip-rule="evenodd" d="M81.966 93.4555C81.966 97.0665 79.0968 100.437 75 100.437C70.9032 100.437 68.034 97.0665 68.034 93.4555C68.034 89.8444 70.9032 86.4736 75 86.4736C79.0968 86.4736 81.966 89.8444 81.966 93.4555Z" fill="#FCD44F"/>
<g style="mix-blend-mode:multiply">
<path d="M78.483 93.4555C78.483 95.3835 76.9236 96.9464 75 96.9464C73.0764 96.9464 71.517 95.3835 71.517 93.4555C71.517 91.5275 73.0764 89.9646 75 89.9646C76.9236 89.9646 78.483 91.5275 78.483 93.4555Z" fill="url(#paint4_linear_104_1361)"/>
</g>
</g>
<path d="M94.9028 80.5271C94.9028 89.3616 85.992 94.4529 75 94.4529C64.008 94.4529 55.0972 89.3616 55.0972 80.5271C55.0972 71.6925 64.008 64.5308 75 64.5308C85.992 64.5308 94.9028 71.6925 94.9028 80.5271Z" fill="#FCF3C6"/>
<g style="mix-blend-mode:multiply" opacity="0.35">
<path d="M72.5122 79.4918C72.5122 75.5256 71.3983 73.5074 70.0243 73.5074C68.6503 73.5074 67.5365 75.5256 67.5365 79.4918C67.5365 83.458 68.6503 85.4762 70.0243 85.4762C71.3983 85.4762 72.5122 83.458 72.5122 79.4918Z" fill="url(#paint5_linear_104_1361)"/>
</g>
<g style="mix-blend-mode:multiply" opacity="0.35">
<path d="M82.4635 79.4918C82.4635 75.5256 81.3497 73.5074 79.9757 73.5074C78.6017 73.5074 77.4879 75.5256 77.4879 79.4918C77.4879 83.458 78.6017 85.4762 79.9757 85.4762C81.3497 85.4762 82.4635 83.458 82.4635 79.4918Z" fill="url(#paint6_linear_104_1361)"/>
</g>
<path d="M75 6C35.8658 6.2216 34.3733 24.3744 38.5189 33.4231H75H111.481C115.627 24.3744 114.134 6.2216 75 6Z" fill="#A4827D"/>
<path d="M116.106 31.4298C116.106 30.8511 115.601 29.9321 114.646 29.9321C114.646 30.1941 113.951 30.5769 113.691 30.718C113.43 30.8591 111.68 31.4799 110.823 31.716C109.117 32.1858 106.529 32.6475 103.183 33.0513C96.5196 33.8553 87.2282 34.3854 76.9107 34.3854H73.0894C62.7719 34.3854 53.4805 33.8553 46.8172 33.0513C43.4707 32.6475 40.8827 32.1858 39.1772 31.716C38.3202 31.4799 36.5696 30.8591 36.3095 30.718C36.0494 30.5769 35.3542 30.1941 35.3542 29.9321C34.3989 29.9321 33.8936 30.8511 33.8936 31.4298C33.8936 32.0915 34.0527 32.6103 34.7593 33.0039C35.4654 33.3972 36.4095 33.7317 37.462 34.0216C39.5756 34.6038 42.5138 35.1107 45.996 35.5309C52.9902 36.3748 62.5663 36.914 73.0894 36.914H76.9107C87.4338 36.914 97.0099 36.3748 104.004 35.5309C107.486 35.1107 110.424 34.6038 112.538 34.0216C113.591 33.7317 114.535 33.3972 115.241 33.0039C115.947 32.6103 116.106 32.0915 116.106 31.4298Z" fill="#86544E"/>
<g style="mix-blend-mode:multiply" opacity="0.3">
<path d="M76.8931 29.7564C76.8931 28.0695 76.0455 27.2111 75 27.2111C73.9545 27.2111 73.1069 28.0695 73.1069 29.7564C73.1069 31.4433 73.9545 34.2699 75 34.2699C76.0455 34.2699 76.8931 31.4433 76.8931 29.7564Z" fill="#A4827D"/>
<path d="M85.5834 29.4226C85.5834 27.7357 84.7573 26.8773 83.7382 26.8773C82.7192 26.8773 81.8931 27.7357 81.8931 29.4226C81.8931 31.1096 82.7192 33.9362 83.7382 33.9362C84.7573 33.9362 85.5834 31.1096 85.5834 29.4226Z" fill="#A4827D"/>
<path d="M94.3116 28.3377C94.1857 26.6547 93.3296 25.848 92.3525 25.9094C91.3754 25.9707 90.6474 26.8768 90.7733 28.5598C90.8991 30.2428 91.9021 33.013 92.8792 32.9517C93.8562 32.8904 94.4374 30.0206 94.3116 28.3377Z" fill="#A4827D"/>
<path d="M102.869 27.0763C102.564 25.4127 101.791 24.6612 101.029 24.7784C100.266 24.8957 99.8034 25.8373 100.108 27.5009C100.413 29.1646 101.542 31.8571 102.304 31.7398C103.066 31.6226 103.174 28.74 102.869 27.0763Z" fill="#A4827D"/>
<path d="M109.644 26.0054C109.228 24.3671 108.545 23.6453 107.963 23.7833C107.382 23.9213 107.122 24.8668 107.537 26.5052C107.953 28.1435 109.121 30.7768 109.702 30.6388C110.284 30.5008 110.059 27.6437 109.644 26.0054Z" fill="#A4827D"/>
<path d="M64.4167 29.4226C64.4167 27.7357 65.2428 26.8773 66.2618 26.8773C67.2809 26.8773 68.107 27.7357 68.107 29.4226C68.107 31.1096 67.2809 33.9362 66.2618 33.9362C65.2428 33.9362 64.4167 31.1096 64.4167 29.4226Z" fill="#A4827D"/>
<path d="M55.6885 28.3377C55.8143 26.6547 56.6705 25.848 57.6475 25.9094C58.6246 25.9707 59.3526 26.8768 59.2268 28.5598C59.1009 30.2428 58.098 33.013 57.1209 32.9517C56.1438 32.8904 55.5626 30.0206 55.6885 28.3377Z" fill="#A4827D"/>
<path d="M47.1313 27.0763C47.4362 25.4127 48.2092 24.6612 48.9715 24.7784C49.7338 24.8957 50.1966 25.8373 49.8918 27.5009C49.5869 29.1646 48.4582 31.8571 47.6959 31.7398C46.9336 31.6226 46.8265 28.74 47.1313 27.0763Z" fill="#A4827D"/>
<path d="M40.3565 26.0054C40.7722 24.3671 41.4551 23.6453 42.0367 23.7833C42.6183 23.9213 42.8783 24.8668 42.4627 26.5052C42.047 28.1435 40.8792 30.7768 40.2976 30.6388C39.716 30.5008 39.9409 27.6437 40.3565 26.0054Z" fill="#A4827D"/>
</g>
<path fill-rule="evenodd" clip-rule="evenodd" d="M112.963 27.9374H114.646C115.829 27.9374 116.727 28.5275 117.277 29.2035C117.785 29.8286 118.097 30.6404 118.097 31.4298C118.097 31.9011 118.044 32.5444 117.725 33.1963C117.387 33.8866 116.849 34.3904 116.208 34.7476C115.295 35.2557 114.173 35.6401 113.065 35.9451C110.812 36.5659 107.761 37.0869 104.242 37.5114C97.1499 38.3672 87.4916 38.9088 76.9106 38.9088H73.0894C62.5084 38.9088 52.8501 38.3672 45.7581 37.5114C42.2395 37.0869 39.1883 36.5659 36.9346 35.9451C35.8271 35.6401 34.7045 35.2557 33.7924 34.7476C33.1512 34.3904 32.6128 33.8866 32.2748 33.1963C31.9556 32.5444 31.9033 31.9011 31.9033 31.4298C31.9033 30.6404 32.2145 29.8286 32.7231 29.2035C33.273 28.5275 34.1706 27.9374 35.3542 27.9374H37.0395L37.3445 28.9932C37.3749 29.0053 37.4116 29.0195 37.4553 29.0362C37.6477 29.1096 37.8997 29.2014 38.1765 29.2985C38.7416 29.4965 39.3426 29.6928 39.7046 29.7926C41.2698 30.2237 43.7448 30.6714 47.055 31.0708C53.6205 31.863 62.8297 32.3907 73.0894 32.3907H76.9106C87.1703 32.3907 96.3795 31.863 102.945 31.0708C106.255 30.6714 108.73 30.2237 110.295 29.7926L110.823 31.716C109.117 32.1858 106.529 32.6476 103.183 33.0513C96.5195 33.8554 87.2282 34.3855 76.9106 34.3855H73.0894C62.7718 34.3855 53.4805 33.8554 46.8171 33.0513C43.4706 32.6476 40.8827 32.1858 39.1772 31.716C38.3202 31.48 36.5696 30.8592 36.3095 30.7181C36.0494 30.5769 35.3542 30.1941 35.3542 29.9322C34.4292 29.9322 33.9262 30.7937 33.8951 31.3737C33.8941 31.3927 33.8936 31.4114 33.8936 31.4298C33.8936 32.0916 34.0527 32.6104 34.7593 33.004C35.4654 33.3973 36.4095 33.7317 37.462 34.0216C39.5755 34.6038 42.5138 35.1108 45.996 35.5309C52.9902 36.3749 62.5663 36.914 73.0894 36.914H76.9106C87.4337 36.914 97.0098 36.3749 104.004 35.5309C107.486 35.1108 110.424 34.6038 112.538 34.0216C113.59 33.7317 114.535 33.3973 115.241 33.004C115.947 32.6104 116.106 32.0916 116.106 31.4298C116.106 31.4114 116.106 31.3927 116.105 31.3737C116.074 30.7937 115.571 29.9322 114.646 29.9322C114.646 30.1941 113.951 30.5769 113.691 30.7181C113.43 30.8592 111.68 31.48 110.823 31.716L110.295 29.7926C110.657 29.6928 111.258 29.4965 111.823 29.2985C112.1 29.2014 112.352 29.1096 112.545 29.0362C112.588 29.0195 112.625 29.0053 112.656 28.9932L112.963 27.9374Z" fill="#86544E"/>
<defs>
<filter id="filter0_i_104_1361" x="12" y="75.5046" width="24.7301" height="40.0605" filterUnits="userSpaceOnUse" color-interpolation-filters="sRGB">
<feFlood flood-opacity="0" result="BackgroundImageFix"/>
<feBlend mode="normal" in="SourceGraphic" in2="BackgroundImageFix" result="shape"/>
<feColorMatrix in="SourceAlpha" type="matrix" values="0 0 0 0 0 0 0 0 0 0 0 0 0 0 0 0 0 0 127 0" result="hardAlpha"/>
<feOffset dy="4"/>
<feGaussianBlur stdDeviation="8"/>
<feComposite in2="hardAlpha" operator="arithmetic" k2="-1" k3="1"/>
<feColorMatrix type="matrix" values="0 0 0 0 0.475 0 0 0 0 0.0855 0 0 0 0 0 0 0 0 0.3 0"/>
<feBlend mode="multiply" in2="shape" result="effect1_innerShadow_104_1361"/>
</filter>
<filter id="filter1_i_104_1361" x="113.27" y="75.5046" width="24.7301" height="40.0605" filterUnits="userSpaceOnUse" color-interpolation-filters="sRGB">
<feFlood flood-opacity="0" result="BackgroundImageFix"/>
<feBlend mode="normal" in="SourceGraphic" in2="BackgroundImageFix" result="shape"/>
<feColorMatrix in="SourceAlpha" type="matrix" values="0 0 0 0 0 0 0 0 0 0 0 0 0 0 0 0 0 0 127 0" result="hardAlpha"/>
<feOffset dy="4"/>
<feGaussianBlur stdDeviation="8"/>
<feComposite in2="hardAlpha" operator="arithmetic" k2="-1" k3="1"/>
<feColorMatrix type="matrix" values="0 0 0 0 0.475 0 0 0 0 0.0855 0 0 0 0 0 0 0 0 0.3 0"/>
<feBlend mode="multiply" in2="shape" result="effect1_innerShadow_104_1361"/>
</filter>
<filter id="filter2_i_104_1361" x="25.243" y="21.8181" width="99.5139" height="117.704" filterUnits="userSpaceOnUse" color-interpolation-filters="sRGB">
<feFlood flood-opacity="0" result="BackgroundImageFix"/>
<feBlend mode="normal" in="SourceGraphic" in2="BackgroundImageFix" result="shape"/>
<feColorMatrix in="SourceAlpha" type="matrix" values="0 0 0 0 0 0 0 0 0 0 0 0 0 0 0 0 0 0 127 0" result="hardAlpha"/>
<feOffset dy="4"/>
<feGaussianBlur stdDeviation="8"/>
<feComposite in2="hardAlpha" operator="arithmetic" k2="-1" k3="1"/>
<feColorMatrix type="matrix" values="0 0 0 0 0.475 0 0 0 0 0.0855 0 0 0 0 0 0 0 0 0.3 0"/>
<feBlend mode="multiply" in2="shape" result="effect1_innerShadow_104_1361"/>
</filter>
<filter id="filter3_d_104_1361" x="44.034" y="67.4736" width="61.9319" height="61.9636" filterUnits="userSpaceOnUse" color-interpolation-filters="sRGB">
<feFlood flood-opacity="0" result="BackgroundImageFix"/>
<feColorMatrix in="SourceAlpha" type="matrix" values="0 0 0 0 0 0 0 0 0 0 0 0 0 0 0 0 0 0 127 0" result="hardAlpha"/>
<feOffset dy="5"/>
<feGaussianBlur stdDeviation="12"/>
<feComposite in2="hardAlpha" operator="out"/>
<feColorMatrix type="matrix" values="0 0 0 0 0.47451 0 0 0 0 0.0862745 0 0 0 0 0 0 0 0 0.55 0"/>
<feBlend mode="multiply" in2="BackgroundImageFix" result="effect1_dropShadow_104_1361"/>
<feBlend mode="normal" in="SourceGraphic" in2="effect1_dropShadow_104_1361" result="shape"/>
</filter>
<linearGradient id="paint0_linear_104_1361" x1="37.6823" y1="136.021" x2="75" y2="136.021" gradientUnits="userSpaceOnUse">
<stop stop-color="#998A8A"/>
<stop offset="0.723958" stop-color="#86544E" stop-opacity="0"/>
</linearGradient>
<linearGradient id="paint1_linear_104_1361" x1="112.318" y1="136.021" x2="75" y2="136.021" gradientUnits="userSpaceOnUse">
<stop stop-color="#998A8A"/>
<stop offset="0.723958" stop-color="#86544E" stop-opacity="0"/>
</linearGradient>
<linearGradient id="paint2_linear_104_1361" x1="87.481" y1="64.596" x2="87.5026" y2="56.2909" gradientUnits="userSpaceOnUse">
<stop stop-color="#242020"/>
<stop offset="1" stop-color="#7C5D5D"/>
</linearGradient>
<linearGradient id="paint3_linear_104_1361" x1="62.6026" y1="64.596" x2="62.6242" y2="56.2909" gradientUnits="userSpaceOnUse">
<stop stop-color="#242020"/>
<stop offset="1" stop-color="#7C5D5D"/>
</linearGradient>
<linearGradient id="paint4_linear_104_1361" x1="75.0418" y1="97.0035" x2="75.0584" y2="89.7366" gradientUnits="userSpaceOnUse">
<stop stop-color="#242020"/>
<stop offset="1" stop-color="#7C5D5D"/>
</linearGradient>
<linearGradient id="paint5_linear_104_1361" x1="70.0542" y1="73.4095" x2="70.1222" y2="85.8668" gradientUnits="userSpaceOnUse">
<stop stop-color="#242020"/>
<stop offset="1" stop-color="#7C5D5D"/>
</linearGradient>
<linearGradient id="paint6_linear_104_1361" x1="80.0056" y1="73.4095" x2="80.0736" y2="85.8668" gradientUnits="userSpaceOnUse">
<stop stop-color="#242020"/>
<stop offset="1" stop-color="#7C5D5D"/>
</linearGradient>
</defs>
</svg>
