<svg width="150" height="150" viewBox="0 0 150 150" fill="none" xmlns="http://www.w3.org/2000/svg">
<g clip-path="url(#clip0_109_1251)">
<g filter="url(#filter0_i_109_1251)">
<path d="M34.6414 18.4402C36.4934 23.2758 63.7934 24.1534 75 23.9855V9.68601C71.8998 9.68601 71.6353 9.97108 70.8186 9.68601C69.8907 9.36215 71.0104 1.87843 68.9584 0.712032C66.3011 -0.798459 53.1576 0.450607 52.8373 1.19525C52.2615 2.5335 53.1514 11.2796 52.8373 11.6408C52.4286 12.1106 48.2253 11.7847 47.6112 11.6408C46.997 11.4969 47.8342 3.19316 46.5925 2.88892C40.4007 1.37179 36.1763 4.33403 35.2988 5.0658C33.8431 6.27981 34.0115 13.715 34.6414 18.4402Z" fill="#F57C1F"/>
<path d="M115.359 18.4402C113.507 23.2758 86.2066 24.1534 75 23.9855V9.68601C78.1002 9.68601 78.3647 9.97108 79.1814 9.68601C80.1093 9.36215 78.9896 1.87843 81.0416 0.712032C83.6989 -0.798459 96.8424 0.450607 97.1627 1.19525C97.7385 2.5335 96.8486 11.2796 97.1627 11.6408C97.5714 12.1106 101.775 11.7847 102.389 11.6408C103.003 11.4969 102.166 3.19316 103.407 2.88892C109.599 1.37179 113.824 4.33403 114.701 5.0658C116.157 6.27981 115.988 13.715 115.359 18.4402Z" fill="#F57C1F"/>
</g>
<g filter="url(#filter1_i_109_1251)">
<path d="M29.8213 50.1121C23.8573 47.4605 13.0735 49.0428 6.22663 48.9328L8.20319 66.7624C9.54952 66.1087 14.1484 64.8786 21.7756 65.6683C29.4027 66.4581 43.4392 77.236 49.1381 80.4451L45.2653 58.4282C42.6024 56.761 35.7854 52.7636 29.8213 50.1121Z" fill="#F57C1F"/>
<ellipse rx="4.49814" ry="9.01661" transform="matrix(0.996104 -0.0873606 0.0869513 0.996285 6.8088 57.918)" fill="#FEC881"/>
<path fill-rule="evenodd" clip-rule="evenodd" d="M25.0122 48.8566C25.2662 47.9581 27.0783 47.3647 27.9745 47.6193C28.8474 47.8672 29.5592 48.5002 30.0173 49.0696C30.5381 49.717 30.9294 50.6393 31.3346 51.5404C32.1303 53.31 32.4847 55.2169 32.0392 57.4722C31.3543 60.9395 30.2255 63.7718 28.703 65.3534C27.1906 66.9245 25.7865 67.1596 24.8046 67.3332C23.8227 67.5068 21.5672 67.0828 21.5826 65.6494C21.9238 65.6874 22.2253 65.728 22.4859 65.7132C24.5289 65.1062 25.3258 64.3467 26.3918 63.2393C27.3772 61.9079 28.1663 59.67 28.7302 56.8154C28.9917 55.4912 29.1286 53.8311 28.5006 52.4346C28.1939 51.7525 27.9565 51.0159 27.1622 50.1772C26.368 49.3384 26.2062 49.2553 25.6735 48.9922C25.5148 48.9138 25.2383 48.9216 25.0122 48.8566Z" fill="#FFE0B1"/>
</g>
<g filter="url(#filter2_i_109_1251)">
<path d="M120.179 50.1121C126.143 47.4605 136.927 49.0428 143.773 48.9328L141.797 66.7624C140.451 66.1087 135.852 64.8786 128.224 65.6683C120.597 66.4581 106.561 77.236 100.862 80.4451L104.735 58.4282C107.398 56.761 114.215 52.7636 120.179 50.1121Z" fill="#F57C1F"/>
<ellipse rx="4.49814" ry="9.01661" transform="matrix(-0.996104 -0.0873606 -0.0869513 0.996285 143.191 57.918)" fill="#FEC881"/>
<path fill-rule="evenodd" clip-rule="evenodd" d="M124.988 48.8566C124.734 47.9581 122.922 47.3647 122.025 47.6193C121.153 47.8672 120.441 48.5002 119.983 49.0696C119.462 49.717 119.071 50.6393 118.665 51.5404C117.87 53.31 117.515 55.2169 117.961 57.4722C118.646 60.9395 119.774 63.7718 121.297 65.3534C122.809 66.9245 124.213 67.1597 125.195 67.3332C126.177 67.5068 128.433 67.0828 128.417 65.6494C128.076 65.6874 127.775 65.728 127.514 65.7132C125.471 65.1062 124.674 64.3467 123.608 63.2393C122.623 61.9079 121.834 59.67 121.27 56.8154C121.008 55.4912 120.871 53.8311 121.499 52.4346C121.806 51.7525 122.043 51.0159 122.838 50.1772C123.632 49.3384 123.794 49.2553 124.326 48.9922C124.485 48.9138 124.762 48.9216 124.988 48.8566Z" fill="#FFE0B1"/>
</g>
<path d="M44.0781 135.347C49.9896 150 49.9896 150 75 150C100.01 150 100.01 150 105.922 135.347H44.0781Z" fill="#5E3939"/>
<g style="mix-blend-mode:multiply">
<path d="M44.0781 135.347C49.9896 150 49.9896 150 75 150C100.01 150 100.01 150 105.922 135.347H44.0781Z" fill="url(#paint0_linear_109_1251)"/>
</g>
<g style="mix-blend-mode:multiply">
<path d="M105.922 135.347C100.01 150 100.01 150 75 150C49.9896 150 49.9896 150 44.0781 135.347H105.922Z" fill="url(#paint1_linear_109_1251)"/>
</g>
<g filter="url(#filter3_i_109_1251)">
<path d="M37.3223 25.3223L75 27.799L112.678 25.3223C110.67 55.7134 106.038 117.363 103.567 120.83C106.038 124.287 110.701 131.665 109.589 133.523C108.2 135.845 101.405 140.179 75 139.87C48.5947 140.179 41.8004 135.845 40.4107 133.523C39.2989 131.665 43.9623 124.287 46.4329 120.83C43.9622 117.363 39.3298 55.7134 37.3223 25.3223Z" fill="#F8981D"/>
</g>
<g style="mix-blend-mode:multiply">
<path d="M65.9192 63.1024C65.8868 63.7214 63.3469 64.0912 60.2461 63.9282C57.1454 63.7653 54.6579 63.1315 54.6903 62.5125C54.7226 61.8935 57.4887 61.0219 60.5895 61.1848C63.6903 61.3477 65.9516 62.4834 65.9192 63.1024Z" fill="url(#paint2_linear_109_1251)"/>
</g>
<g style="mix-blend-mode:multiply">
<path d="M84.0808 63.1024C84.1132 63.7214 86.6531 64.0912 89.7539 63.9282C92.8547 63.7653 95.3421 63.1315 95.3098 62.5125C95.2774 61.8935 92.5113 61.0219 89.4105 61.1848C86.3097 61.3477 84.0485 62.4834 84.0808 63.1024Z" fill="url(#paint3_linear_109_1251)"/>
</g>
<path d="M71.6146 69.1663C71.0003 69.1663 70.5022 68.6682 70.5022 68.0539L70.5022 59.0068C70.5022 58.3925 71.0003 57.8945 71.6146 57.8945L78.3853 57.8945C78.9997 57.8945 79.4977 58.3925 79.4977 59.0068L79.4977 68.0539C79.4977 68.6682 78.9997 69.1663 78.3853 69.1663L71.6146 69.1663Z" fill="#FEC881"/>
<path style="mix-blend-mode:multiply" opacity="0.6" d="M71.6146 69.1663C71.0003 69.1663 70.5022 68.6682 70.5022 68.0539L70.5022 61.9918C70.5022 61.3775 71.0003 60.8795 71.6146 60.8795L78.3853 60.8795C78.9997 60.8795 79.4977 61.3775 79.4977 61.9918L79.4977 68.0539C79.4977 68.6682 78.9997 69.1663 78.3853 69.1663L71.6146 69.1663Z" fill="url(#paint4_linear_109_1251)"/>
<g style="mix-blend-mode:multiply">
<path d="M69.3778 73.5558C69.3778 72.622 70.1348 71.865 71.0686 71.865H78.9313C79.8651 71.865 80.6221 72.622 80.6221 73.5558C80.6221 73.867 80.3698 74.1193 80.0585 74.1193H69.9414C69.6301 74.1193 69.3778 73.867 69.3778 73.5558Z" fill="url(#paint5_linear_109_1251)"/>
</g>
<g opacity="0.7">
<ellipse rx="5.23817" ry="3.94513" transform="matrix(1 0 0.000402546 -1 97.871 69.7299)" fill="#FFCDCD"/>
<ellipse rx="5.23817" ry="3.94513" transform="matrix(1 0 0.000410757 -1 52.1289 69.7299)" fill="#FFCDCD"/>
</g>
<g filter="url(#filter4_i_109_1251)">
<path d="M40.4107 133.523C39.2989 131.665 43.9622 124.287 46.4329 120.83C46.6553 122.983 52.68 127.318 75 127.427C97.3199 127.537 103.345 123.075 103.567 120.83C106.038 124.287 110.701 131.665 109.589 133.523C108.2 135.845 101.405 140.179 75 139.869C48.5947 140.179 41.8004 135.845 40.4107 133.523Z" fill="#F57C1F"/>
</g>
<path d="M105.181 122.24C105.181 121.538 104.81 119.294 104.108 119.294C104.108 119.612 103.598 120.076 103.407 120.247C103.216 120.419 101.931 121.172 101.301 121.458C100.049 122.028 98.1492 122.589 95.6922 123.078C90.7999 124.054 83.978 124.697 76.4028 124.697H73.5971C66.0219 124.697 59.2001 124.054 54.3078 123.078C51.8507 122.589 49.9506 122.028 48.6984 121.458C48.0692 121.172 46.7839 120.419 46.5929 120.247C46.4019 120.076 45.8915 119.612 45.8915 119.294C45.1901 119.294 44.8191 121.538 44.8191 122.24C44.8191 123.043 44.936 123.673 45.4547 124.15C45.9731 124.628 46.6664 125.033 47.4391 125.385C48.9909 126.092 51.1482 126.707 53.7049 127.217C58.8401 128.241 65.871 128.895 73.5971 128.895H76.4028C84.1289 128.895 91.1599 128.241 96.295 127.217C98.8517 126.707 101.009 126.092 102.561 125.385C103.334 125.033 104.027 124.628 104.545 124.15C105.064 123.673 105.181 123.043 105.181 122.24Z" fill="#FFE0B1"/>
<g filter="url(#filter5_i_109_1251)">
<path fill-rule="evenodd" clip-rule="evenodd" d="M43.7137 104.014C43.1198 98.5786 42.5037 92.1662 41.8922 85.2783C48.2834 88.1456 60.4742 90.8838 74.5797 86.0149C81.4642 88.2833 97.5415 91.211 108.108 85.3402C107.491 92.283 106.87 98.7408 106.271 104.2C101.243 106.952 89.615 110.04 74.5797 104.632C70.1791 107.253 57.9923 110.671 43.7137 104.014Z" fill="#F57C1F"/>
</g>
<g filter="url(#filter6_i_109_1251)">
<path fill-rule="evenodd" clip-rule="evenodd" d="M77.8489 27.6119L75.0027 27.799L71.8849 27.594C57.6231 30.8239 45.2003 29.2326 37.4387 27.0337C37.7834 32.1991 38.1962 38.16 38.656 44.5227C55.382 50.0535 69.5051 46.9409 74.7104 44.536C91.222 49.143 104.37 47.2436 111.321 44.9181C111.781 38.5606 112.195 32.594 112.542 27.4081C101.287 30.9192 86.5068 29.3829 77.8489 27.6119Z" fill="#F57C1F"/>
</g>
<path d="M42.4852 102.595C42.6328 102.218 43.0645 101.921 43.4531 101.995C43.9622 102.092 44.8761 102.578 45.4345 102.917C45.4924 102.952 45.5502 102.988 45.6082 103.023L45.6084 103.023L45.6096 103.024C46.1418 103.349 46.6938 103.685 47.4883 104.032C49.2365 104.795 52.3038 105.66 58.4679 105.882C64.6249 106.104 67.8259 105.491 69.8015 104.881C70.534 104.655 71.0839 104.437 71.6289 104.22C71.8546 104.131 72.0794 104.042 72.316 103.952C73.0945 103.658 73.9452 103.39 75 103.39C76.0548 103.39 76.9055 103.658 77.6839 103.952C77.9206 104.042 78.1454 104.131 78.3711 104.22C78.9161 104.437 79.466 104.655 80.1985 104.881C82.1741 105.491 85.3751 106.104 91.5321 105.882C97.6961 105.66 100.763 104.795 102.512 104.032C103.306 103.685 103.858 103.349 104.39 103.024L104.392 103.023L104.392 103.023C104.45 102.987 104.508 102.952 104.565 102.917C105.124 102.578 106.038 102.092 106.547 101.995C106.936 101.921 107.367 102.218 107.515 102.595C107.714 103.103 107.606 104.092 107.333 104.547C107.059 105.001 106.889 105.155 106.309 105.507C106.254 105.54 106.198 105.575 106.139 105.611L106.139 105.611C105.602 105.939 104.874 106.384 103.864 106.825C101.606 107.81 98.0839 108.722 91.6548 108.954C85.2187 109.185 81.621 108.553 79.1972 107.804C78.3291 107.536 77.5915 107.243 77.0169 107.015C76.8212 106.938 76.6444 106.867 76.4877 106.808C75.8417 106.564 75.4433 106.464 75 106.464C74.5566 106.464 74.1583 106.564 73.5122 106.808C73.3556 106.867 73.1788 106.938 72.9831 107.015L72.983 107.015C72.4084 107.243 71.6708 107.536 70.8027 107.804C68.3789 108.553 64.7813 109.185 58.3452 108.954C51.9161 108.722 48.3939 107.81 46.1362 106.825C45.1261 106.384 44.3978 105.939 43.8612 105.611C43.8023 105.575 43.7455 105.54 43.6911 105.507C43.1108 105.155 42.9407 105.001 42.6674 104.547C42.3941 104.092 42.2859 103.103 42.4852 102.595Z" fill="#FFE0B1"/>
<path d="M40.3513 83.7484C40.5086 83.372 40.9686 83.0743 41.3828 83.1483C41.9253 83.2452 42.8991 83.7319 43.4942 84.0708C43.5558 84.1059 43.6174 84.1412 43.6793 84.1766L43.6795 84.1767L43.6808 84.1775C44.2479 84.5021 44.8361 84.8389 45.6827 85.1856C47.5457 85.9487 50.8143 86.8137 57.3829 87.0357C63.944 87.2575 67.355 86.6449 69.4603 86.0348C70.2409 85.8086 70.8269 85.5903 71.4076 85.374C71.6481 85.2844 71.8877 85.1951 72.1399 85.1058C72.9694 84.8118 73.876 84.544 75 84.544C76.124 84.544 77.0305 84.8118 77.86 85.1058C78.1122 85.1951 78.3518 85.2844 78.5923 85.374C79.1731 85.5903 79.759 85.8086 80.5397 86.0348C82.6449 86.6449 86.056 87.2575 92.617 87.0357C99.1856 86.8137 102.454 85.9487 104.317 85.1856C105.164 84.8389 105.752 84.5021 106.319 84.1775L106.32 84.1767C106.382 84.1413 106.444 84.106 106.506 84.0708C107.101 83.7319 108.075 83.2452 108.617 83.1483C109.031 83.0743 109.491 83.372 109.649 83.7484C109.861 84.2566 109.746 85.2459 109.454 85.7001C109.163 86.1542 108.982 86.3084 108.364 86.6606C108.306 86.6936 108.245 86.7283 108.182 86.7643C107.611 87.0922 106.834 87.5374 105.758 87.9783C103.352 88.9637 99.5988 89.8755 92.7478 90.1071C85.8893 90.3389 82.0555 89.7062 79.4727 88.9577C78.5476 88.6896 77.7616 88.3968 77.1493 88.1688L77.1493 88.1688L77.1492 88.1687C76.9406 88.0911 76.7522 88.0209 76.5854 87.9618C75.8969 87.7178 75.4724 87.6176 75 87.6176C74.5275 87.6176 74.103 87.7178 73.4146 87.9618C73.2477 88.0209 73.0593 88.0911 72.8507 88.1687L72.8507 88.1688C72.2383 88.3968 71.4523 88.6896 70.5273 88.9577C67.9444 89.7062 64.1107 90.3389 57.2521 90.1071C50.4011 89.8755 46.6478 88.9637 44.242 87.9783C43.1655 87.5374 42.3894 87.0922 41.8176 86.7643C41.7548 86.7283 41.6944 86.6936 41.6364 86.6606C41.018 86.3084 40.8367 86.1542 40.5454 85.7001C40.2542 85.2459 40.1389 84.2566 40.3513 83.7484Z" fill="#FFE0B1"/>
<path d="M37.4406 42.4698C37.6111 42.0935 38.1097 41.7958 38.5587 41.8698C39.1468 41.9667 40.2024 42.4534 40.8475 42.7923C40.9143 42.8274 40.9811 42.8627 41.0482 42.8981L41.0484 42.8982L41.0498 42.8989C41.6645 43.2235 42.3022 43.5603 43.2199 43.907C45.2394 44.6701 48.7825 45.5351 55.903 45.7571C63.0152 45.9789 66.7128 45.3664 68.9949 44.7562C69.8411 44.53 70.4763 44.3117 71.1058 44.0954C71.3665 44.0058 71.6263 43.9165 71.8996 43.8272C72.7988 43.5333 73.7815 43.2655 75 43.2655C76.2184 43.2655 77.2011 43.5333 78.1003 43.8272C78.3736 43.9165 78.6334 44.0058 78.8941 44.0954C79.5236 44.3117 80.1588 44.53 81.005 44.7562C83.2871 45.3664 86.9847 45.9789 94.097 45.7571C101.217 45.5351 104.761 44.6701 106.78 43.907C107.698 43.5603 108.335 43.2235 108.95 42.8989L108.951 42.8982C109.019 42.8627 109.085 42.8274 109.152 42.7923C109.797 42.4534 110.853 41.9667 111.441 41.8698C111.89 41.7958 112.389 42.0935 112.559 42.4698C112.79 42.978 112.665 43.9674 112.349 44.4215C112.033 44.8756 111.837 45.0298 111.166 45.382C111.103 45.415 111.038 45.4497 110.97 45.4857C110.35 45.8137 109.509 46.2588 108.342 46.6997C105.734 47.6851 101.665 48.5969 94.2387 48.8285C86.804 49.0604 82.6482 48.4276 79.8484 47.6791C78.8456 47.411 77.9936 47.1183 77.3298 46.8902L77.3296 46.8902C77.1036 46.8125 76.8994 46.7424 76.7185 46.6832C75.9722 46.4393 75.5121 46.3391 75 46.3391C74.4878 46.3391 74.0277 46.4393 73.2814 46.6832C73.1005 46.7424 72.8963 46.8125 72.6703 46.8902L72.6701 46.8902C72.0063 47.1183 71.1543 47.411 70.1515 47.6791C67.3517 48.4276 63.1959 49.0604 55.7612 48.8285C48.3347 48.5969 44.266 47.6851 41.6581 46.6997C40.4912 46.2588 39.6499 45.8137 39.0301 45.4857C38.962 45.4497 38.8965 45.415 38.8336 45.382C38.1632 45.0298 37.9667 44.8756 37.651 44.4215C37.3353 43.9674 37.2104 42.978 37.4406 42.4698Z" fill="#FFE0B1"/>
<path d="M34.9766 23.5097C36.7865 29.213 64.0482 30.2427 75 30.0447C88.4046 30.2427 113.213 29.213 115.023 23.5097C115.639 17.9367 116.463 5.34399 115.023 6.02669C112.508 7.21928 111.857 7.46237 105.806 9.25172C104.719 9.57305 106.406 17.6723 105.806 17.8421C105.206 18.0118 99.7452 18.9446 99.3458 18.3905C99.0388 17.9645 100.085 9.93067 99.3458 9.59119C98.6071 9.25172 82.0388 9.25172 80.4624 9.59119C79.413 9.81719 81.0942 19.3672 80.1875 19.7491C79.3894 20.0853 77.6009 20.0385 75 20.1658C72.3991 20.0385 70.6106 20.0853 69.8125 19.7491C68.9057 19.3672 70.587 9.81719 69.5375 9.59119C67.9612 9.25172 51.3929 9.25172 50.6541 9.59119C49.9154 9.93067 50.9612 17.9645 50.6541 18.3905C50.2548 18.9446 44.7944 18.0118 44.1942 17.8421C43.594 17.6723 45.2809 9.57305 44.1942 9.25172C38.1431 7.46237 37.4918 7.21928 34.9766 6.02669C33.5368 5.34399 34.361 17.9367 34.9766 23.5097Z" fill="#F8981D"/>
<path d="M116.724 23.9365C116.724 23.1421 116.211 20.6028 115.241 20.6028C115.241 20.9624 114.536 21.4879 114.271 21.6816C114.007 21.8754 112.231 22.7276 111.361 23.0517C109.63 23.6966 107.003 24.3305 103.606 24.8848C96.8427 25.9886 87.4117 26.7163 76.9393 26.7163H73.0606C62.5882 26.7163 53.1573 25.9886 46.3939 24.8848C42.9971 24.3305 40.3703 23.6966 38.6392 23.0517C37.7693 22.7276 35.9925 21.8754 35.7285 21.6816C35.4644 21.4879 34.7588 20.9624 34.7588 20.6028C33.7891 20.6028 33.2763 23.1421 33.2763 23.9365C33.2763 24.845 33.4378 25.5572 34.155 26.0975C34.8716 26.6375 35.83 27.0966 36.8983 27.4946C39.0436 28.2938 42.0259 28.9898 45.5604 29.5666C52.6596 30.7251 62.3795 31.4653 73.0606 31.4653H76.9393C87.6204 31.4653 97.3403 30.7251 104.439 29.5666C107.974 28.9898 110.956 28.2938 113.102 27.4946C114.17 27.0966 115.128 26.6375 115.845 26.0975C116.562 25.5572 116.724 24.845 116.724 23.9365Z" fill="#FFE0B1"/>
</g>
<defs>
<filter id="filter0_i_109_1251" x="34.177" y="0" width="81.6459" height="28.0044" filterUnits="userSpaceOnUse" color-interpolation-filters="sRGB">
<feFlood flood-opacity="0" result="BackgroundImageFix"/>
<feBlend mode="normal" in="SourceGraphic" in2="BackgroundImageFix" result="shape"/>
<feColorMatrix in="SourceAlpha" type="matrix" values="0 0 0 0 0 0 0 0 0 0 0 0 0 0 0 0 0 0 127 0" result="hardAlpha"/>
<feOffset dy="4"/>
<feGaussianBlur stdDeviation="8"/>
<feComposite in2="hardAlpha" operator="arithmetic" k2="-1" k3="1"/>
<feColorMatrix type="matrix" values="0 0 0 0 0.475 0 0 0 0 0.0855 0 0 0 0 0 0 0 0 0.3 0"/>
<feBlend mode="multiply" in2="shape" result="effect1_innerShadow_109_1251"/>
</filter>
<filter id="filter1_i_109_1251" x="2.25935" y="47.5601" width="46.8787" height="37.3345" filterUnits="userSpaceOnUse" color-interpolation-filters="sRGB">
<feFlood flood-opacity="0" result="BackgroundImageFix"/>
<feBlend mode="normal" in="SourceGraphic" in2="BackgroundImageFix" result="shape"/>
<feColorMatrix in="SourceAlpha" type="matrix" values="0 0 0 0 0 0 0 0 0 0 0 0 0 0 0 0 0 0 127 0" result="hardAlpha"/>
<feOffset dy="4.44948"/>
<feGaussianBlur stdDeviation="8.89895"/>
<feComposite in2="hardAlpha" operator="arithmetic" k2="-1" k3="1"/>
<feColorMatrix type="matrix" values="0 0 0 0 0.475 0 0 0 0 0.0855 0 0 0 0 0 0 0 0 0.3 0"/>
<feBlend mode="multiply" in2="shape" result="effect1_innerShadow_109_1251"/>
</filter>
<filter id="filter2_i_109_1251" x="100.862" y="47.5601" width="46.8786" height="37.3345" filterUnits="userSpaceOnUse" color-interpolation-filters="sRGB">
<feFlood flood-opacity="0" result="BackgroundImageFix"/>
<feBlend mode="normal" in="SourceGraphic" in2="BackgroundImageFix" result="shape"/>
<feColorMatrix in="SourceAlpha" type="matrix" values="0 0 0 0 0 0 0 0 0 0 0 0 0 0 0 0 0 0 127 0" result="hardAlpha"/>
<feOffset dy="4.44948"/>
<feGaussianBlur stdDeviation="8.89895"/>
<feComposite in2="hardAlpha" operator="arithmetic" k2="-1" k3="1"/>
<feColorMatrix type="matrix" values="0 0 0 0 0.475 0 0 0 0 0.0855 0 0 0 0 0 0 0 0 0.3 0"/>
<feBlend mode="multiply" in2="shape" result="effect1_innerShadow_109_1251"/>
</filter>
<filter id="filter3_i_109_1251" x="37.3223" y="25.3223" width="75.3553" height="119.012" filterUnits="userSpaceOnUse" color-interpolation-filters="sRGB">
<feFlood flood-opacity="0" result="BackgroundImageFix"/>
<feBlend mode="normal" in="SourceGraphic" in2="BackgroundImageFix" result="shape"/>
<feColorMatrix in="SourceAlpha" type="matrix" values="0 0 0 0 0 0 0 0 0 0 0 0 0 0 0 0 0 0 127 0" result="hardAlpha"/>
<feOffset dy="4.44948"/>
<feGaussianBlur stdDeviation="8.89895"/>
<feComposite in2="hardAlpha" operator="arithmetic" k2="-1" k3="1"/>
<feColorMatrix type="matrix" values="0 0 0 0 0.475 0 0 0 0 0.0855 0 0 0 0 0 0 0 0 0.3 0"/>
<feBlend mode="multiply" in2="shape" result="effect1_innerShadow_109_1251"/>
</filter>
<filter id="filter4_i_109_1251" x="40.2422" y="120.83" width="69.5155" height="23.5049" filterUnits="userSpaceOnUse" color-interpolation-filters="sRGB">
<feFlood flood-opacity="0" result="BackgroundImageFix"/>
<feBlend mode="normal" in="SourceGraphic" in2="BackgroundImageFix" result="shape"/>
<feColorMatrix in="SourceAlpha" type="matrix" values="0 0 0 0 0 0 0 0 0 0 0 0 0 0 0 0 0 0 127 0" result="hardAlpha"/>
<feOffset dy="4.44948"/>
<feGaussianBlur stdDeviation="8.89895"/>
<feComposite in2="hardAlpha" operator="arithmetic" k2="-1" k3="1"/>
<feColorMatrix type="matrix" values="0 0 0 0 0.475 0 0 0 0 0.0855 0 0 0 0 0 0 0 0 0.3 0"/>
<feBlend mode="multiply" in2="shape" result="effect1_innerShadow_109_1251"/>
</filter>
<filter id="filter5_i_109_1251" x="41.8922" y="85.2783" width="66.2155" height="27.0484" filterUnits="userSpaceOnUse" color-interpolation-filters="sRGB">
<feFlood flood-opacity="0" result="BackgroundImageFix"/>
<feBlend mode="normal" in="SourceGraphic" in2="BackgroundImageFix" result="shape"/>
<feColorMatrix in="SourceAlpha" type="matrix" values="0 0 0 0 0 0 0 0 0 0 0 0 0 0 0 0 0 0 127 0" result="hardAlpha"/>
<feOffset dy="4.44948"/>
<feGaussianBlur stdDeviation="8.89895"/>
<feComposite in2="hardAlpha" operator="arithmetic" k2="-1" k3="1"/>
<feColorMatrix type="matrix" values="0 0 0 0 0.475 0 0 0 0 0.0855 0 0 0 0 0 0 0 0 0.3 0"/>
<feBlend mode="multiply" in2="shape" result="effect1_innerShadow_109_1251"/>
</filter>
<filter id="filter6_i_109_1251" x="37.4387" y="27.0337" width="75.103" height="25.0271" filterUnits="userSpaceOnUse" color-interpolation-filters="sRGB">
<feFlood flood-opacity="0" result="BackgroundImageFix"/>
<feBlend mode="normal" in="SourceGraphic" in2="BackgroundImageFix" result="shape"/>
<feColorMatrix in="SourceAlpha" type="matrix" values="0 0 0 0 0 0 0 0 0 0 0 0 0 0 0 0 0 0 127 0" result="hardAlpha"/>
<feOffset dy="4.44948"/>
<feGaussianBlur stdDeviation="8.89895"/>
<feComposite in2="hardAlpha" operator="arithmetic" k2="-1" k3="1"/>
<feColorMatrix type="matrix" values="0 0 0 0 0.475 0 0 0 0 0.0855 0 0 0 0 0 0 0 0 0.3 0"/>
<feBlend mode="multiply" in2="shape" result="effect1_innerShadow_109_1251"/>
</filter>
<linearGradient id="paint0_linear_109_1251" x1="44.0781" y1="142.673" x2="75" y2="142.673" gradientUnits="userSpaceOnUse">
<stop stop-color="#998A8A"/>
<stop offset="0.723958" stop-color="#86544E" stop-opacity="0"/>
</linearGradient>
<linearGradient id="paint1_linear_109_1251" x1="105.922" y1="142.673" x2="75" y2="142.673" gradientUnits="userSpaceOnUse">
<stop stop-color="#998A8A"/>
<stop offset="0.723958" stop-color="#86544E" stop-opacity="0"/>
</linearGradient>
<linearGradient id="paint2_linear_109_1251" x1="60.3124" y1="63.9543" x2="60.4645" y2="61.0881" gradientUnits="userSpaceOnUse">
<stop stop-color="#242020"/>
<stop offset="1" stop-color="#7C5D5D"/>
</linearGradient>
<linearGradient id="paint3_linear_109_1251" x1="89.6877" y1="63.9543" x2="89.5355" y2="61.0881" gradientUnits="userSpaceOnUse">
<stop stop-color="#242020"/>
<stop offset="1" stop-color="#7C5D5D"/>
</linearGradient>
<linearGradient id="paint4_linear_109_1251" x1="75" y1="69.1663" x2="75" y2="65.0229" gradientUnits="userSpaceOnUse">
<stop stop-color="#791600"/>
<stop offset="0.0001" stop-color="#791600" stop-opacity="0.7"/>
<stop offset="0.723958" stop-color="#791600" stop-opacity="0"/>
</linearGradient>
<linearGradient id="paint5_linear_109_1251" x1="75.0674" y1="74.1378" x2="75.0685" y2="71.7914" gradientUnits="userSpaceOnUse">
<stop stop-color="#242020"/>
<stop offset="1" stop-color="#7C5D5D"/>
</linearGradient>
<clipPath id="clip0_109_1251">
<rect width="150" height="150" fill="white"/>
</clipPath>
</defs>
</svg>
