<svg width="150" height="150" viewBox="0 0 150 150" fill="none" xmlns="http://www.w3.org/2000/svg">
<g clip-path="url(#clip0_307_2647)">
<g filter="url(#filter0_i_307_2647)">
<path d="M31.0401 135.121C31.7869 136.985 41.5167 140.597 74.5074 140.597C107.498 140.597 117.228 136.985 117.975 135.121C120.041 129.964 120.374 123.23 121.074 118.101L74.5074 115.522L27.9403 118.101C28.6404 123.23 28.9735 129.964 31.0401 135.121Z" fill="#48B8AC"/>
</g>
<path d="M100.913 108.731C100.913 113.263 98.0452 117.436 93.2626 120.5C88.4857 123.561 81.856 125.47 74.5074 125.47C67.1587 125.47 60.5291 123.561 55.7521 120.5C50.9696 117.436 48.1019 113.263 48.1019 108.731C48.1019 104.199 50.9696 100.027 55.7521 96.9626C60.5291 93.9019 67.1587 91.9924 74.5074 91.9924C81.856 91.9924 88.4857 93.9019 93.2626 96.9626C98.0452 100.027 100.913 104.199 100.913 108.731Z" fill="#FAFAFA" stroke="#EEEEEE"/>
<g filter="url(#filter1_i_307_2647)">
<ellipse cx="74.5074" cy="108.731" rx="22.7661" ry="14.1045" fill="#F16393"/>
</g>
<path d="M36.2189 137.463C43.5387 150 43.5387 150 74.5074 150C105.476 150 105.476 150 112.796 137.463H36.2189Z" fill="#14988B"/>
<g style="mix-blend-mode:multiply">
<path d="M36.2189 137.463C43.5387 150 43.5387 150 74.5074 150C105.476 150 105.476 150 112.796 137.463H36.2189Z" fill="url(#paint0_linear_307_2647)"/>
</g>
<g style="mix-blend-mode:multiply">
<path d="M112.796 137.463C105.476 150 105.476 150 74.5074 150C43.5387 150 43.5387 150 36.2189 137.463H112.796Z" fill="url(#paint1_linear_307_2647)"/>
</g>
<g filter="url(#filter2_i_307_2647)">
<path d="M15.2593 113.655C15.2593 102.985 16.2941 101.94 24.0553 102.463C31.2095 102.944 28.838 90.8942 27.1597 84.179C22.2988 84.179 19.3853 84.6372 12.6722 86.2686C9.11667 87.1326 0.794405 90.8931 0.254305 97.7611C-0.231785 103.942 0.0181808 106.753 0.671549 113.655C1.12053 118.397 3.86102 119.321 9.11558 119.321C14.3701 119.321 15.2593 116.917 15.2593 113.655Z" fill="#ADD57F"/>
</g>
<path fill-rule="evenodd" clip-rule="evenodd" d="M15.3479 109.484C15.2825 110.677 15.2593 112.058 15.2593 113.655C15.2593 116.917 14.3702 119.321 9.1156 119.321C3.86104 119.321 1.12054 118.397 0.671567 113.655C0.525799 112.115 0.400109 110.779 0.298194 109.563C0.480108 109.604 0.711885 109.687 1.00405 109.791C2.19283 110.216 4.38136 110.998 8.27863 110.744C11.4735 110.535 13.5122 109.981 14.8124 109.627C15.007 109.574 15.185 109.526 15.3479 109.484Z" fill="#48B8AC"/>
<g filter="url(#filter3_i_307_2647)">
<path d="M134.741 113.655C134.741 102.985 133.706 101.94 125.945 102.463C118.79 102.944 121.162 90.8942 122.84 84.179C127.701 84.179 130.615 84.6372 137.328 86.2686C140.883 87.1326 149.206 90.8931 149.746 97.7611C150.232 103.942 149.982 106.753 149.328 113.655C148.879 118.397 146.139 119.321 140.884 119.321C135.63 119.321 134.741 116.917 134.741 113.655Z" fill="#ADD57F"/>
</g>
<path fill-rule="evenodd" clip-rule="evenodd" d="M134.652 109.484C134.718 110.677 134.741 112.058 134.741 113.655C134.741 116.917 135.63 119.321 140.884 119.321C146.139 119.321 148.879 118.397 149.328 113.655C149.474 112.115 149.6 110.779 149.702 109.563C149.52 109.604 149.288 109.687 148.996 109.791C147.807 110.216 145.619 110.998 141.721 110.744C138.526 110.535 136.488 109.981 135.188 109.627C134.993 109.574 134.815 109.526 134.652 109.484Z" fill="#48B8AC"/>
<g filter="url(#filter4_i_307_2647)">
<path d="M74.5074 28.8062C42.7801 28.8062 18.6268 57.3033 18.6268 89.2164C18.6268 102.592 18.6268 122.836 34.2943 122.836C60.9289 122.836 55.7064 112.33 74.5074 112.33C93.3083 112.33 88.0858 122.836 114.72 122.836C130.388 122.836 130.388 102.592 130.388 89.2164C130.388 57.3033 106.235 28.8062 74.5074 28.8062Z" fill="#ADD57F"/>
<path fill-rule="evenodd" clip-rule="evenodd" d="M114.561 47.5022C103.332 50.9467 89.6287 52.9703 74.8368 52.9703C59.6835 52.9703 45.6722 50.8467 34.2943 47.2473C44.3108 36.0174 58.3543 28.8062 74.3145 28.8062C90.3952 28.8062 104.53 36.1267 114.561 47.5022Z" fill="#48B8AC"/>
</g>
<g filter="url(#filter5_i_307_2647)">
<ellipse cx="74.5074" cy="21.4925" rx="11.3831" ry="11.4925" fill="#ADD57F"/>
</g>
<ellipse rx="6.48001" ry="4.65972" transform="matrix(1 0 0.000606891 -1 44.7714 112.869)" fill="#F96F6F"/>
<ellipse rx="6.48001" ry="4.65972" transform="matrix(1 0 0.000615965 -1 104.023 112.869)" fill="#F96F6F"/>
<path d="M102.448 103.508C102.448 109.066 99.2045 112.388 95.2039 112.388C91.2032 112.388 87.9601 109.066 87.9601 103.508C87.9601 97.949 91.2032 94.627 95.2039 94.627C99.2045 94.627 102.448 97.949 102.448 103.508Z" fill="#FAFAFA"/>
<path d="M99.3431 103.507C99.3431 107.104 97.2583 109.254 94.6864 109.254C92.1146 109.254 90.0297 107.104 90.0297 103.507C90.0297 99.9108 92.1146 97.7612 94.6864 97.7612C97.2583 97.7612 99.3431 99.9108 99.3431 103.507Z" fill="url(#paint2_linear_307_2647)"/>
<path d="M46.5671 103.508C46.5671 109.066 49.8103 112.388 53.8109 112.388C57.8115 112.388 61.0547 109.066 61.0547 103.508C61.0547 97.949 57.8115 94.627 53.8109 94.627C49.8103 94.627 46.5671 97.949 46.5671 103.508Z" fill="#FAFAFA"/>
<path d="M49.6716 103.507C49.6716 107.104 51.7565 109.254 54.3283 109.254C56.9001 109.254 58.985 107.104 58.985 103.507C58.985 99.9108 56.9001 97.7612 54.3283 97.7612C51.7565 97.7612 49.6716 99.9108 49.6716 103.507Z" fill="url(#paint3_linear_307_2647)"/>
<g style="mix-blend-mode:color">
<path d="M99.3431 103.507C99.3431 107.104 97.2583 109.254 94.6864 109.254C92.1146 109.254 90.0297 107.104 90.0297 103.507C90.0297 99.9108 92.1146 97.7612 94.6864 97.7612C97.2583 97.7612 99.3431 99.9108 99.3431 103.507Z" fill="#4C2E88"/>
<path d="M49.6716 103.507C49.6716 107.104 51.7564 109.254 54.3283 109.254C56.9001 109.254 58.985 107.104 58.985 103.507C58.985 99.9108 56.9001 97.7612 54.3283 97.7612C51.7564 97.7612 49.6716 99.9108 49.6716 103.507Z" fill="#4C2E88"/>
</g>
<path d="M68.6949 104.275C68.4876 103.054 69.4283 101.94 70.6666 101.94H78.3481C79.5865 101.94 80.5272 103.054 80.3199 104.275L79.7573 107.588C79.594 108.55 78.7609 109.254 77.7855 109.254H71.2293C70.2539 109.254 69.4208 108.55 69.2575 107.588L68.6949 104.275Z" fill="#1C6031"/>
<path d="M68.6949 104.275C68.4876 103.054 69.4283 101.94 70.6666 101.94H78.3481C79.5865 101.94 80.5272 103.054 80.3199 104.275L79.7573 107.588C79.594 108.55 78.7609 109.254 77.7855 109.254H71.2293C70.2539 109.254 69.4208 108.55 69.2575 107.588L68.6949 104.275Z" fill="url(#paint4_linear_307_2647)" fill-opacity="0.2" style="mix-blend-mode:multiply"/>
</g>
<defs>
<filter id="filter0_i_307_2647" x="27.9403" y="115.522" width="93.1342" height="29.0747" filterUnits="userSpaceOnUse" color-interpolation-filters="sRGB">
<feFlood flood-opacity="0" result="BackgroundImageFix"/>
<feBlend mode="normal" in="SourceGraphic" in2="BackgroundImageFix" result="shape"/>
<feColorMatrix in="SourceAlpha" type="matrix" values="0 0 0 0 0 0 0 0 0 0 0 0 0 0 0 0 0 0 127 0" result="hardAlpha"/>
<feOffset dy="4"/>
<feGaussianBlur stdDeviation="7"/>
<feComposite in2="hardAlpha" operator="arithmetic" k2="-1" k3="1"/>
<feColorMatrix type="matrix" values="0 0 0 0 0 0 0 0 0 0.3895 0 0 0 0 0.475 0 0 0 0.3 0"/>
<feBlend mode="multiply" in2="shape" result="effect1_innerShadow_307_2647"/>
</filter>
<filter id="filter1_i_307_2647" x="51.7412" y="94.627" width="45.5323" height="32.209" filterUnits="userSpaceOnUse" color-interpolation-filters="sRGB">
<feFlood flood-opacity="0" result="BackgroundImageFix"/>
<feBlend mode="normal" in="SourceGraphic" in2="BackgroundImageFix" result="shape"/>
<feColorMatrix in="SourceAlpha" type="matrix" values="0 0 0 0 0 0 0 0 0 0 0 0 0 0 0 0 0 0 127 0" result="hardAlpha"/>
<feOffset dy="4"/>
<feGaussianBlur stdDeviation="8"/>
<feComposite in2="hardAlpha" operator="arithmetic" k2="-1" k3="1"/>
<feColorMatrix type="matrix" values="0 0 0 0 0.475 0 0 0 0 0.0855 0 0 0 0 0 0 0 0 0.3 0"/>
<feBlend mode="multiply" in2="shape" result="effect1_innerShadow_307_2647"/>
</filter>
<filter id="filter2_i_307_2647" x="0" y="84.179" width="28.9255" height="39.1418" filterUnits="userSpaceOnUse" color-interpolation-filters="sRGB">
<feFlood flood-opacity="0" result="BackgroundImageFix"/>
<feBlend mode="normal" in="SourceGraphic" in2="BackgroundImageFix" result="shape"/>
<feColorMatrix in="SourceAlpha" type="matrix" values="0 0 0 0 0 0 0 0 0 0 0 0 0 0 0 0 0 0 127 0" result="hardAlpha"/>
<feOffset dy="4"/>
<feGaussianBlur stdDeviation="7"/>
<feComposite in2="hardAlpha" operator="arithmetic" k2="-1" k3="1"/>
<feColorMatrix type="matrix" values="0 0 0 0 0 0 0 0 0 0.3895 0 0 0 0 0.475 0 0 0 0.3 0"/>
<feBlend mode="multiply" in2="shape" result="effect1_innerShadow_307_2647"/>
</filter>
<filter id="filter3_i_307_2647" x="121.074" y="84.179" width="28.9255" height="39.1418" filterUnits="userSpaceOnUse" color-interpolation-filters="sRGB">
<feFlood flood-opacity="0" result="BackgroundImageFix"/>
<feBlend mode="normal" in="SourceGraphic" in2="BackgroundImageFix" result="shape"/>
<feColorMatrix in="SourceAlpha" type="matrix" values="0 0 0 0 0 0 0 0 0 0 0 0 0 0 0 0 0 0 127 0" result="hardAlpha"/>
<feOffset dy="4"/>
<feGaussianBlur stdDeviation="7"/>
<feComposite in2="hardAlpha" operator="arithmetic" k2="-1" k3="1"/>
<feColorMatrix type="matrix" values="0 0 0 0 0 0 0 0 0 0.3895 0 0 0 0 0.475 0 0 0 0.3 0"/>
<feBlend mode="multiply" in2="shape" result="effect1_innerShadow_307_2647"/>
</filter>
<filter id="filter4_i_307_2647" x="18.6268" y="28.8062" width="111.761" height="98.0298" filterUnits="userSpaceOnUse" color-interpolation-filters="sRGB">
<feFlood flood-opacity="0" result="BackgroundImageFix"/>
<feBlend mode="normal" in="SourceGraphic" in2="BackgroundImageFix" result="shape"/>
<feColorMatrix in="SourceAlpha" type="matrix" values="0 0 0 0 0 0 0 0 0 0 0 0 0 0 0 0 0 0 127 0" result="hardAlpha"/>
<feOffset dy="4"/>
<feGaussianBlur stdDeviation="7"/>
<feComposite in2="hardAlpha" operator="arithmetic" k2="-1" k3="1"/>
<feColorMatrix type="matrix" values="0 0 0 0 0 0 0 0 0 0.3895 0 0 0 0 0.475 0 0 0 0.3 0"/>
<feBlend mode="multiply" in2="shape" result="effect1_innerShadow_307_2647"/>
</filter>
<filter id="filter5_i_307_2647" x="63.1243" y="10" width="22.7661" height="26.9851" filterUnits="userSpaceOnUse" color-interpolation-filters="sRGB">
<feFlood flood-opacity="0" result="BackgroundImageFix"/>
<feBlend mode="normal" in="SourceGraphic" in2="BackgroundImageFix" result="shape"/>
<feColorMatrix in="SourceAlpha" type="matrix" values="0 0 0 0 0 0 0 0 0 0 0 0 0 0 0 0 0 0 127 0" result="hardAlpha"/>
<feOffset dy="4"/>
<feGaussianBlur stdDeviation="7"/>
<feComposite in2="hardAlpha" operator="arithmetic" k2="-1" k3="1"/>
<feColorMatrix type="matrix" values="0 0 0 0 0 0 0 0 0 0.3895 0 0 0 0 0.475 0 0 0 0.3 0"/>
<feBlend mode="multiply" in2="shape" result="effect1_innerShadow_307_2647"/>
</filter>
<linearGradient id="paint0_linear_307_2647" x1="36.2189" y1="143.731" x2="74.5074" y2="143.731" gradientUnits="userSpaceOnUse">
<stop stop-color="#0B7A6A"/>
<stop offset="0.723958" stop-color="#14988B" stop-opacity="0"/>
</linearGradient>
<linearGradient id="paint1_linear_307_2647" x1="112.796" y1="143.731" x2="74.5074" y2="143.731" gradientUnits="userSpaceOnUse">
<stop stop-color="#0B7A6A"/>
<stop offset="0.723958" stop-color="#14988B" stop-opacity="0"/>
</linearGradient>
<linearGradient id="paint2_linear_307_2647" x1="94.7423" y1="109.348" x2="94.7759" y2="97.3859" gradientUnits="userSpaceOnUse">
<stop stop-color="#242020"/>
<stop offset="1" stop-color="#7C5D5D"/>
</linearGradient>
<linearGradient id="paint3_linear_307_2647" x1="54.2724" y1="109.348" x2="54.2389" y2="97.3859" gradientUnits="userSpaceOnUse">
<stop stop-color="#242020"/>
<stop offset="1" stop-color="#7C5D5D"/>
</linearGradient>
<linearGradient id="paint4_linear_307_2647" x1="76.0596" y1="109.254" x2="76.0596" y2="101.94" gradientUnits="userSpaceOnUse">
<stop/>
<stop offset="1" stop-opacity="0"/>
</linearGradient>
<clipPath id="clip0_307_2647">
<rect width="150" height="150" fill="white"/>
</clipPath>
</defs>
</svg>
