<svg width="150" height="150" viewBox="0 0 150 150" fill="none" xmlns="http://www.w3.org/2000/svg">
<path d="M38 131C45.0735 150 45.0735 150 75 150C104.926 150 104.926 150 112 131H38Z" fill="#EEEEEE"/>
<path style="mix-blend-mode:multiply" opacity="0.3" d="M112 131C104.926 150 104.926 150 75 150C45.0735 150 45.0735 150 38 131H112Z" fill="url(#paint0_linear_24_1319)"/>
<path style="mix-blend-mode:multiply" opacity="0.3" d="M38 131C45.0735 150 45.0735 150 75 150C104.926 150 104.926 150 112 131H38Z" fill="url(#paint1_linear_24_1319)"/>
<g filter="url(#filter0_i_24_1319)">
<path d="M116.646 64.0135C116.646 74.4565 117.038 72.0645 104.836 72.6544C96.8381 73.0412 99.4008 81.6427 101.277 86.9565C106.712 86.9565 112.793 87.7039 120.299 86.413C124.274 85.7293 128.934 83.1521 129.538 77.7174C130.082 72.8261 129.843 70.1633 129.538 64.6739C129.302 60.4169 126.991 59.3796 123.238 59.3796C119.486 59.3796 116.646 61.4317 116.646 64.0135Z" fill="#EEEEEE"/>
<path fill-rule="evenodd" clip-rule="evenodd" d="M115.935 71.4946C116.713 70.4444 116.646 68.3206 116.646 64.0135C116.646 61.4317 119.486 59.3796 123.238 59.3796C126.991 59.3796 129.302 60.4169 129.538 64.6739C129.567 65.1942 129.595 65.6891 129.622 66.1629C129.742 68.2609 129.839 69.9453 129.859 71.59C128.117 72.0339 125.878 72.2826 123.016 72.2826C119.956 72.2826 117.656 71.9981 115.935 71.4946Z" fill="#ADD57F"/>
</g>
<g filter="url(#filter1_i_24_1319)">
<path d="M34.216 64.0135C34.216 74.4565 33.8242 72.0645 46.0258 72.6544C54.0242 73.0412 51.4615 81.6427 49.5851 86.9565C44.1503 86.9565 38.069 87.7039 30.5634 86.413C26.5881 85.7293 21.9281 83.1521 21.3242 77.7174C20.7808 72.8261 21.0193 70.1633 21.3242 64.6739C21.5607 60.4169 23.8711 59.3796 27.6239 59.3796C31.3767 59.3796 34.216 61.4317 34.216 64.0135Z" fill="#EEEEEE"/>
<path fill-rule="evenodd" clip-rule="evenodd" d="M34.9271 71.4946C34.1494 70.4444 34.216 68.3206 34.216 64.0135C34.216 61.4317 31.3767 59.3796 27.6239 59.3796C23.8711 59.3796 21.5607 60.4169 21.3242 64.6739C21.2953 65.1942 21.267 65.6891 21.2399 66.1629C21.1199 68.2609 21.0236 69.9453 21.0037 71.59C22.7451 72.0339 24.9846 72.2826 27.846 72.2826C30.9064 72.2826 33.2065 71.9981 34.9271 71.4946Z" fill="#ADD57F"/>
</g>
<g filter="url(#filter2_i_24_1319)">
<path d="M43.9691 51.087C46.1331 46.7391 53.6087 40.2174 75.3478 40.2174C97.0869 40.2174 104.562 46.7391 106.727 51.087C109.432 56.5218 119.17 76.6305 104.021 105.435C91.9028 128.478 84.0435 113.587 75.3478 113.587C66.6522 113.587 58.7928 128.478 46.6741 105.435C31.5258 76.6305 41.264 56.5218 43.9691 51.087Z" fill="#EEEEEE"/>
</g>
<g style="mix-blend-mode:multiply">
<path d="M62.3043 68.528C62.3043 63.2418 68.9085 61.6559 69.5089 64.299C70.1093 66.9421 66.507 66.9421 66.507 69.5852C66.507 72.2283 71.31 73.2856 69.5089 75.4001C67.7077 77.5146 62.3043 74.6141 62.3043 68.528Z" fill="url(#paint2_linear_24_1319)"/>
</g>
<g style="mix-blend-mode:multiply">
<path d="M88.3913 68.528C88.3913 63.2418 81.7871 61.6559 81.1867 64.299C80.5864 66.9421 84.1886 66.9421 84.1886 69.5852C84.1886 72.2283 79.3856 73.2856 81.1867 75.4001C82.9879 77.5146 88.3913 74.6141 88.3913 68.528Z" fill="url(#paint3_linear_24_1319)"/>
</g>
<g style="mix-blend-mode:multiply">
<path d="M79.5658 88.0881C79.8877 89.9136 79.0916 91.5799 77.7876 91.8098C76.4836 92.0398 75.1656 90.7462 74.8437 88.9207C74.5218 87.0951 75.3179 85.4288 76.6219 85.1989C77.9259 84.969 79.2439 86.2625 79.5658 88.0881Z" fill="url(#paint4_linear_24_1319)"/>
</g>
<path d="M80.8027 79.0337C81.1675 81.1028 79.1179 82.09 76.4575 82.5591C73.7972 83.0282 71.5335 82.8016 71.1687 80.7324C70.8038 78.6632 72.6647 76.6056 75.3251 76.1365C77.9854 75.6674 80.4378 76.9645 80.8027 79.0337Z" fill="#8AC44B"/>
<path fill-rule="evenodd" clip-rule="evenodd" d="M35.8497 136.361C38.6115 137.841 42.2604 139.137 47.1164 140.144L48.5968 134.739L48.2296 140.365C54.8796 141.636 63.6737 142.391 75.3478 142.391C75.7746 142.391 76.1974 142.39 76.6165 142.388L77.5217 136.957L78.4245 142.373C82.6248 142.323 86.4268 142.169 89.8695 141.923L90.3427 139.19L91.0619 141.834C97.2872 141.34 102.295 140.539 106.334 139.51L105.971 135.004L107.639 139.161C110.949 138.229 113.556 137.134 115.62 135.928L114.111 129.88L116.635 135.299C117 135.058 117.345 134.813 117.673 134.565C118.215 129.331 115.323 122.4 112.697 116.109C110.557 110.979 108.593 106.274 108.814 103.261C100.612 105.124 83.2223 106.615 75.3478 106.615C67.4734 106.615 50.084 105.124 41.8814 103.261C42.1025 106.274 40.1391 110.979 37.9982 116.109C35.3728 122.4 32.4805 129.331 33.0227 134.565C33.6219 135.019 34.282 135.461 35.01 135.89L36.7281 130.305L35.8497 136.361Z" fill="#D9D6B7"/>
<path d="M48.6758 109.595L39.727 128.011L47.0234 108.88L48.6758 109.595Z" fill="#C8C293"/>
<path d="M101.654 108.696L106.629 131.607L99.2608 109.35L101.654 108.696Z" fill="#C8C293"/>
<path d="M88.4515 113.043L88.7434 123.45L86.2174 113.351L88.4515 113.043Z" fill="#C8C293"/>
<path d="M106.3 107.756L109.917 117.518L104.282 108.764L106.3 107.756Z" fill="#C8C293"/>
<path d="M72.6606 113.171L71.1284 134.943L70.7436 113.121L72.6606 113.171Z" fill="#C8C293"/>
<path d="M53.3259 111.522L48.634 123.153L51.1671 110.87L53.3259 111.522Z" fill="#C8C293"/>
<path d="M60.7434 109.003L57.7072 121.171L58.5152 108.656L60.7434 109.003Z" fill="#C8C293"/>
<path d="M41.6522 103.174C41.6522 102.021 42.4268 97.826 43.2014 97.826C43.2014 98.3478 43.7651 99.1102 43.976 99.3913C44.1869 99.6723 45.6063 100.909 46.3012 101.379C47.6841 102.315 49.7825 103.234 52.496 104.038C57.8989 105.64 65.4327 106.696 73.7986 106.696H75.3478V114.13H73.7986C65.2661 114.13 57.5013 113.057 51.8302 111.376C49.0067 110.539 46.6242 109.529 44.9105 108.37C44.0571 107.792 43.2915 107.126 42.719 106.343C42.1461 105.559 41.6522 104.492 41.6522 103.174Z" fill="#7FCCC6"/>
<path d="M109.043 103.174C109.043 102.021 108.269 97.826 107.494 97.826C107.494 98.3478 106.931 99.1102 106.72 99.3913C106.509 99.6723 105.089 100.909 104.394 101.379C103.012 102.315 100.913 103.234 98.1996 104.038C92.7967 105.64 85.2629 106.696 76.897 106.696H75.3478V114.13H76.897C85.4296 114.13 93.1943 113.057 98.8654 111.376C101.689 110.539 104.071 109.529 105.785 108.37C106.639 107.792 107.404 107.126 107.977 106.343C108.55 105.559 109.043 104.492 109.043 103.174Z" fill="#7FCCC6"/>
<path d="M41.6522 48.2877C44.1298 53.246 57.0119 54.3479 75.3478 54.3479C93.6837 54.3479 106.566 53.246 109.043 48.2877C108.548 24.0471 89.2225 18.5379 81.7896 14.1305C80.7986 14.3141 77.3299 14.674 75.3478 14.674C73.3657 14.674 69.897 14.3141 68.906 14.1305C61.4731 18.5379 42.1477 24.0471 41.6522 48.2877Z" fill="#D9D6B7"/>
<path d="M74.9979 15.3626L72.7036 29.3121L73.0152 15.1439L74.9979 15.3626Z" fill="#C8C293"/>
<path d="M71.6476 15.7933L63.0265 36.3596L70.3844 15.2173L71.6476 15.7933Z" fill="#C8C293"/>
<path d="M79.5482 15.2174L83.3964 24.7875L78.3369 15.9136L79.5482 15.2174Z" fill="#C8C293"/>
<path d="M70.3857 15.4296L61.7361 19.9211L69.7105 14.1304L70.3857 15.4296Z" fill="#C8C293"/>
<path d="M81.1223 14.1305L95.4424 26.1387L80.3297 15.3482L81.1223 14.1305Z" fill="#C8C293"/>
<path d="M61.2174 2.17395L70.1143 14.174C71.7891 15.0087 74.3011 15.2174 75.3478 15.2174C76.3945 15.2174 78.9066 15.0087 80.5813 14.174L89.4783 2.17395H75.3478H61.2174Z" fill="#D9D6B7"/>
<path d="M75.8017 14.9559L77.9007 8.75337L77.7592 15.3633L75.8017 14.9559Z" fill="#C8C293"/>
<path d="M71.7509 14.8514L70.2134 5.70414L73.4386 14.3127L71.7509 14.8514Z" fill="#C8C293"/>
<path fill-rule="evenodd" clip-rule="evenodd" d="M68.9124 13.6445C69.1137 13.1076 69.6034 12.89 70.0061 13.1584C71.4335 14.11 72.8591 14.1306 75.3478 14.1306C77.8366 14.1306 79.2622 14.11 80.6896 13.1584C81.0923 12.89 81.582 13.1076 81.7833 13.6445C81.9847 14.1814 81.8215 14.8342 81.4188 15.1027C79.6154 16.3049 77.8102 16.3046 75.4649 16.3043C75.4261 16.3043 75.387 16.3043 75.3478 16.3043C75.3087 16.3043 75.2696 16.3043 75.2308 16.3043C72.8855 16.3046 71.0803 16.3049 69.2769 15.1027C68.8742 14.8342 68.711 14.1814 68.9124 13.6445Z" fill="#8AC44B"/>
<path d="M77.6799 54.4391L78.0731 32.6078L79.8216 54.3598L77.6799 54.4391Z" fill="#C8C293"/>
<path d="M99.8908 53.1534L96.3602 38.2279L101.919 52.3993L99.8908 53.1534Z" fill="#C8C293"/>
<path d="M56.9795 52.3153L59.1169 41.427L58.5598 52.5456L56.9795 52.3153Z" fill="#C8C293"/>
<path d="M44.6396 48.8644L47.8901 36.8673L46.1963 49.2402L44.6396 48.8644Z" fill="#C8C293"/>
<path fill-rule="evenodd" clip-rule="evenodd" d="M66.6928 0.468935L68.8511 1.35302L67.9993 0.325759C69.9639 0.135638 72.2539 0.0194756 74.7093 0.00223683L75.374 1.57608L75.3092 8.12857e-06L75.3478 0C77.8654 0 80.2273 0.103946 82.2663 0.285801L81.4823 1.85618L84.1589 0.488506C87.2947 0.887139 89.297 1.49408 89.297 2.17391C89.297 3.37453 83.0517 4.34783 75.3478 4.34783C67.6438 4.34783 61.3985 3.37453 61.3985 2.17391C61.3985 1.48286 63.4675 0.86712 66.6928 0.468935Z" fill="#C8C293"/>
<path d="M39.4783 50.0136C39.4783 49.1003 40.8339 45.6522 41.6585 45.6522C41.6585 46.0657 42.2586 46.6698 42.4831 46.8925C42.7076 47.1152 44.2186 48.095 44.9583 48.4676C46.4304 49.209 48.1332 50.0615 51.0217 50.6988C56.7732 51.9677 64.7931 52.8043 73.6987 52.8043H75.3478V58.6957H73.6987C64.6156 58.6957 56.35 57.8448 50.313 56.5129C47.3073 55.8498 44.7711 55.0497 42.9468 54.1308C42.0384 53.6733 41.2234 53.1455 40.614 52.5247C40.0041 51.9036 39.4783 51.058 39.4783 50.0136Z" fill="#7FCCC6"/>
<path d="M111.217 50.0136C111.217 49.1003 109.862 45.6522 109.037 45.6522C109.037 46.0657 108.437 46.6698 108.213 46.8925C107.988 47.1152 106.477 48.095 105.737 48.4676C104.265 49.209 102.562 50.0615 99.674 50.6988C93.9225 51.9677 85.9026 52.8043 76.997 52.8043H75.3478V58.6957H76.997C86.08 58.6957 94.3457 57.8448 100.383 56.5129C103.388 55.8498 105.925 55.0497 107.749 54.1308C108.657 53.6733 109.472 53.1455 110.082 52.5247C110.692 51.9036 111.217 51.058 111.217 50.0136Z" fill="#7FCCC6"/>
<g opacity="0.7">
<ellipse rx="4.5" ry="3.5" transform="matrix(1 0 0.000389799 -1 89.5041 78.5)" fill="#FF9D9D"/>
<ellipse rx="4.5" ry="3.5" transform="matrix(1 0 0.000389799 -1 60.5014 78.5)" fill="#FF9D9D"/>
</g>
<defs>
<filter id="filter0_i_24_1319" x="99.3442" y="59.3796" width="30.5181" height="31.7921" filterUnits="userSpaceOnUse" color-interpolation-filters="sRGB">
<feFlood flood-opacity="0" result="BackgroundImageFix"/>
<feBlend mode="normal" in="SourceGraphic" in2="BackgroundImageFix" result="shape"/>
<feColorMatrix in="SourceAlpha" type="matrix" values="0 0 0 0 0 0 0 0 0 0 0 0 0 0 0 0 0 0 127 0" result="hardAlpha"/>
<feOffset dy="4"/>
<feGaussianBlur stdDeviation="7"/>
<feComposite in2="hardAlpha" operator="arithmetic" k2="-1" k3="1"/>
<feColorMatrix type="matrix" values="0 0 0 0 0.223529 0 0 0 0 0.243137 0 0 0 0 0.25098 0 0 0 0.3 0"/>
<feBlend mode="multiply" in2="shape" result="effect1_innerShadow_24_1319"/>
</filter>
<filter id="filter1_i_24_1319" x="21" y="59.3796" width="30.5181" height="31.7921" filterUnits="userSpaceOnUse" color-interpolation-filters="sRGB">
<feFlood flood-opacity="0" result="BackgroundImageFix"/>
<feBlend mode="normal" in="SourceGraphic" in2="BackgroundImageFix" result="shape"/>
<feColorMatrix in="SourceAlpha" type="matrix" values="0 0 0 0 0 0 0 0 0 0 0 0 0 0 0 0 0 0 127 0" result="hardAlpha"/>
<feOffset dy="4"/>
<feGaussianBlur stdDeviation="7"/>
<feComposite in2="hardAlpha" operator="arithmetic" k2="-1" k3="1"/>
<feColorMatrix type="matrix" values="0 0 0 0 0.223529 0 0 0 0 0.243137 0 0 0 0 0.25098 0 0 0 0.3 0"/>
<feBlend mode="multiply" in2="shape" result="effect1_innerShadow_24_1319"/>
</filter>
<filter id="filter2_i_24_1319" x="38.3913" y="40.2174" width="73.913" height="82.1028" filterUnits="userSpaceOnUse" color-interpolation-filters="sRGB">
<feFlood flood-opacity="0" result="BackgroundImageFix"/>
<feBlend mode="normal" in="SourceGraphic" in2="BackgroundImageFix" result="shape"/>
<feColorMatrix in="SourceAlpha" type="matrix" values="0 0 0 0 0 0 0 0 0 0 0 0 0 0 0 0 0 0 127 0" result="hardAlpha"/>
<feOffset dy="4"/>
<feGaussianBlur stdDeviation="7"/>
<feComposite in2="hardAlpha" operator="arithmetic" k2="-1" k3="1"/>
<feColorMatrix type="matrix" values="0 0 0 0 0.223529 0 0 0 0 0.243137 0 0 0 0 0.25098 0 0 0 0.3 0"/>
<feBlend mode="multiply" in2="shape" result="effect1_innerShadow_24_1319"/>
</filter>
<linearGradient id="paint0_linear_24_1319" x1="112" y1="140.5" x2="75" y2="140.5" gradientUnits="userSpaceOnUse">
<stop stop-color="#393E40" stop-opacity="0.7"/>
<stop offset="0.0001" stop-color="#393E40" stop-opacity="0.6"/>
<stop offset="0.723958" stop-color="#393E40" stop-opacity="0"/>
</linearGradient>
<linearGradient id="paint1_linear_24_1319" x1="38" y1="140.5" x2="75" y2="140.5" gradientUnits="userSpaceOnUse">
<stop stop-color="#393E40" stop-opacity="0.7"/>
<stop offset="0.0001" stop-color="#393E40" stop-opacity="0.6"/>
<stop offset="0.723958" stop-color="#393E40" stop-opacity="0"/>
</linearGradient>
<linearGradient id="paint2_linear_24_1319" x1="66.1543" y1="76.1936" x2="66.2072" y2="62.6176" gradientUnits="userSpaceOnUse">
<stop stop-color="#242020"/>
<stop offset="1" stop-color="#7C5D5D"/>
</linearGradient>
<linearGradient id="paint3_linear_24_1319" x1="84.5413" y1="76.1936" x2="84.4884" y2="62.6176" gradientUnits="userSpaceOnUse">
<stop stop-color="#242020"/>
<stop offset="1" stop-color="#7C5D5D"/>
</linearGradient>
<linearGradient id="paint4_linear_24_1319" x1="77.8255" y1="91.8589" x2="76.6341" y2="84.9742" gradientUnits="userSpaceOnUse">
<stop stop-color="#242020"/>
<stop offset="1" stop-color="#7C5D5D"/>
</linearGradient>
</defs>
</svg>
