<svg width="150" height="150" viewBox="0 0 150 150" fill="none" xmlns="http://www.w3.org/2000/svg">
<g filter="url(#filter0_i_37_1649)">
<path d="M125.902 62.5647C119.732 73.418 105.85 72.9012 103.793 71.8675L103.279 90.9899C134.128 90.9899 145.44 69.2834 148.01 62.5647C153.142 49.1534 147.924 34.2912 137.213 36.3617C123.845 38.9458 132.072 51.7115 125.902 62.5647Z" fill="#A4827D"/>
<mask id="mask0_37_1649" style="mask-type:alpha" maskUnits="userSpaceOnUse" x="103" y="36" width="47" height="55">
<path d="M125.902 62.5647C119.732 73.418 105.85 72.9012 103.793 71.8675L103.279 90.9899C134.128 90.9899 145.44 69.2834 148.01 62.5647C153.142 49.1534 147.924 34.2912 137.213 36.3617C123.845 38.9458 132.072 51.7115 125.902 62.5647Z" fill="#FBDC6F"/>
</mask>
<g mask="url(#mask0_37_1649)">
<path fill-rule="evenodd" clip-rule="evenodd" d="M151.414 54.7925C138.018 56.4757 129.415 54.855 126.431 53.5699L128.457 48.8195C130.272 49.6017 137.848 51.2886 150.776 49.6642L151.414 54.7925Z" fill="#F8981D"/>
<path fill-rule="evenodd" clip-rule="evenodd" d="M125.802 61.8324C125.383 61.5968 125.033 61.3997 124.752 61.2583L127.051 56.6357C127.582 56.9022 128.092 57.1892 128.626 57.49C129.979 58.2506 131.487 59.0994 133.875 59.9284C137.103 61.0494 141.827 62.0479 149.039 62.0479V67.2161C141.339 67.2161 136.038 66.1474 132.196 64.8134C129.325 63.8163 127.188 62.6131 125.802 61.8324Z" fill="#F8981D"/>
<path fill-rule="evenodd" clip-rule="evenodd" d="M128.625 73.5127C125.305 70.6991 122.298 67.5767 121.105 65.7788L124.528 63.4854C125.392 64.7884 128.041 67.6094 131.276 70.3517C134.545 73.1222 137.973 75.4301 140.325 76.075L139.243 80.0639C135.94 79.1583 131.911 76.2979 128.625 73.5127Z" fill="#F8981D"/>
<path fill-rule="evenodd" clip-rule="evenodd" d="M118.949 78.9203C117.1 75.4689 115.735 72.0734 115.166 69.7848L119.156 68.782C119.615 70.6281 120.821 73.6928 122.571 76.9601C124.317 80.2203 126.52 83.5199 128.898 85.9104L125.99 88.834C123.226 86.0562 120.802 82.3788 118.949 78.9203Z" fill="#F8981D"/>
<path fill-rule="evenodd" clip-rule="evenodd" d="M109.862 82.1562C109.2 78.1613 108.934 74.042 108.934 71.3507H113.048C113.048 73.8276 113.296 77.7191 113.919 81.4765C114.231 83.3527 114.629 85.1568 115.12 86.7146C115.621 88.2989 116.178 89.5009 116.75 90.2664L113.459 92.7471C112.488 91.4453 111.76 89.7402 111.2 87.9651C110.631 86.1636 110.194 84.1561 109.862 82.1562Z" fill="#F8981D"/>
</g>
<path d="M24.0984 107.011C30.2683 96.1582 44.1505 96.675 46.2072 97.7086L46.7213 78.5863C15.8719 78.5863 4.5604 100.293 1.98961 107.011C-3.14202 120.423 2.07624 135.285 12.7869 133.215C26.155 130.63 17.9285 117.865 24.0984 107.011Z" fill="#A4827D"/>
<mask id="mask1_37_1649" style="mask-type:alpha" maskUnits="userSpaceOnUse" x="0" y="78" width="47" height="56">
<path d="M24.0984 107.011C30.2683 96.1582 44.1505 96.675 46.2072 97.7086L46.7213 78.5863C15.8719 78.5863 4.5604 100.293 1.98961 107.011C-3.14202 120.423 2.07624 135.285 12.7869 133.215C26.155 130.63 17.9285 117.865 24.0984 107.011Z" fill="#FBDC6F"/>
</mask>
<g mask="url(#mask1_37_1649)">
<path fill-rule="evenodd" clip-rule="evenodd" d="M-1.41424 114.784C11.9823 113.1 20.5854 114.721 23.5686 116.006L21.5432 120.757C19.7275 119.974 12.1519 118.288 -0.776501 119.912L-1.41424 114.784Z" fill="#FBDC6F"/>
<path fill-rule="evenodd" clip-rule="evenodd" d="M24.1983 107.744C24.6167 107.979 24.9667 108.176 25.2481 108.318L22.9487 112.94C22.4184 112.674 21.9082 112.387 21.3735 112.086C20.0214 111.326 18.5125 110.477 16.125 109.648C12.897 108.527 8.17257 107.528 0.961288 107.528V102.36C8.66058 102.36 13.9622 103.429 17.8039 104.763C20.6754 105.76 22.8119 106.963 24.1983 107.744Z" fill="#FBDC6F"/>
<path fill-rule="evenodd" clip-rule="evenodd" d="M21.3751 96.0635C24.6948 98.877 27.7021 101.999 28.8945 103.797L25.4721 106.091C24.6079 104.788 21.9594 101.967 18.7237 99.2245C15.4546 96.454 12.0275 94.1461 9.67497 93.5012L10.7572 89.5123C14.0604 90.4179 18.0886 93.2782 21.3751 96.0635Z" fill="#FBDC6F"/>
<path fill-rule="evenodd" clip-rule="evenodd" d="M31.0507 90.6559C32.8996 94.1073 34.2651 97.5029 34.8343 99.7914L30.8438 100.794C30.3847 98.9482 29.1794 95.8835 27.4291 92.6161C25.6827 89.356 23.4798 86.0563 21.1016 83.6659L24.0101 80.7423C26.7736 83.52 29.1981 87.1975 31.0507 90.6559Z" fill="#FBDC6F"/>
<path fill-rule="evenodd" clip-rule="evenodd" d="M40.1378 87.42C40.8002 91.4149 41.0656 95.5342 41.0656 98.2255H36.9523C36.9523 95.7485 36.7036 91.8571 36.0805 88.0997C35.7694 86.2235 35.3713 84.4194 34.8796 82.8616C34.3795 81.2773 33.8215 80.0753 33.2504 79.3098L36.541 76.8291C37.5124 78.1309 38.2398 79.836 38.8002 81.6111C39.3689 83.4126 39.8062 85.4201 40.1378 87.42Z" fill="#FBDC6F"/>
</g>
</g>
<path d="M35.9589 121.034C43.4227 150 43.4227 150 75 150C106.577 150 106.577 150 114.041 121.034H35.9589Z" fill="#5E3939"/>
<path style="mix-blend-mode:multiply" opacity="0.5" d="M114.041 121.034C106.577 150 106.577 150 75 150C43.4227 150 43.4227 150 35.9589 121.034H114.041Z" fill="url(#paint0_linear_37_1649)"/>
<path style="mix-blend-mode:multiply" opacity="0.5" d="M35.9589 121.034C43.4227 150 43.4227 150 75 150C106.577 150 106.577 150 114.041 121.034H35.9589Z" fill="url(#paint1_linear_37_1649)"/>
<g filter="url(#filter1_i_37_1649)">
<path fill-rule="evenodd" clip-rule="evenodd" d="M75 30C59.7703 30 35.809 41.4828 39.4641 87.4138C40.5551 101.124 36.6459 114.356 34.0291 123.213C32.7956 127.388 31.8493 130.591 31.8493 132.414C32.1061 133.983 36.6481 136.082 44.359 137.774L45.2054 124.138L46.0741 138.132C49.682 138.852 53.8934 139.478 58.6118 139.931L59.589 125.172L60.5779 140.107C64.4089 140.426 68.5474 140.63 72.946 140.678L73.9726 126.207L75 140.69C79.375 140.69 83.5086 140.536 87.3568 140.266L88.3561 125.172L89.3454 140.114C93.9913 139.73 98.1864 139.176 101.847 138.524L102.74 124.138L103.612 138.194C112.551 136.442 117.872 134.116 118.151 132.414C118.151 130.591 117.204 127.388 115.971 123.213C113.354 114.356 109.445 101.124 110.536 87.4138C114.191 41.4828 90.2296 30 75 30Z" fill="#A4827D"/>
</g>
<g style="mix-blend-mode:multiply">
<path d="M67.2935 62.5863C67.2947 65.7286 65.6864 68.2759 63.7015 68.2759C61.7165 68.2759 60.1065 65.7286 60.1054 62.5863C60.1042 59.444 61.7125 56.8966 63.6974 56.8966C65.6824 56.8966 67.2924 59.444 67.2935 62.5863Z" fill="url(#paint2_linear_37_1649)"/>
</g>
<path fill-rule="evenodd" clip-rule="evenodd" d="M67.5413 67.4425C66.7231 68.7385 65.403 69.8276 63.7012 69.8276C61.9995 69.8276 60.6786 68.7385 59.8595 67.4425C59.0287 66.1281 58.5649 64.4069 58.5642 62.5862C58.5636 60.7655 59.0261 59.0444 59.856 57.73C60.6742 56.4339 61.9943 55.3448 63.6961 55.3448C65.3978 55.3448 66.7187 56.4339 67.5378 57.73C68.3686 59.0444 68.8324 60.7655 68.8331 62.5862C68.8337 64.4069 68.3712 66.1281 67.5413 67.4425ZM63.7007 68.2759C65.6856 68.2759 67.2939 65.7285 67.2927 62.5862C67.2916 59.4439 65.6816 56.8966 63.6966 56.8966C61.7117 56.8966 60.1034 59.4439 60.1046 62.5862C60.1057 65.7285 61.7157 68.2759 63.7007 68.2759Z" fill="#F8981D"/>
<g style="mix-blend-mode:multiply">
<path d="M89.8962 62.5863C89.8973 65.7286 88.2891 68.2759 86.3041 68.2759C84.3191 68.2759 82.7091 65.7286 82.708 62.5863C82.7069 59.444 84.3151 56.8966 86.3001 56.8966C88.285 56.8966 89.8951 59.444 89.8962 62.5863Z" fill="url(#paint3_linear_37_1649)"/>
</g>
<path fill-rule="evenodd" clip-rule="evenodd" d="M90.1441 67.4425C89.3259 68.7385 88.0058 69.8276 86.304 69.8276C84.6022 69.8276 83.2814 68.7385 82.4623 67.4425C81.6315 66.1281 81.1677 64.4069 81.167 62.5862C81.1664 60.7655 81.6289 59.0444 82.4588 57.73C83.277 56.4339 84.5971 55.3448 86.2988 55.3448C88.0006 55.3448 89.3215 56.4339 90.1406 57.73C90.9714 59.0444 91.4352 60.7655 91.4358 62.5862C91.4365 64.4069 90.9739 66.1281 90.1441 67.4425ZM86.3035 68.2759C88.2884 68.2759 89.8966 65.7285 89.8955 62.5862C89.8944 59.4439 88.2844 56.8966 86.2994 56.8966C84.3144 56.8966 82.7062 59.4439 82.7073 62.5862C82.7085 65.7285 84.3185 68.2759 86.3035 68.2759Z" fill="#FBDC6F"/>
<g style="mix-blend-mode:multiply">
<path d="M72.6284 79.0641C70.731 76.5813 73.0172 75.5173 75 75.5173C76.9829 75.5173 79.269 76.5813 77.3717 79.0641C75 82.1675 77.9646 82.1675 77.9646 84.8276C77.9646 86.9557 77.9646 87.9311 75 87.9311C72.0355 87.9311 72.0355 86.9557 72.0355 84.8276C72.0355 82.1675 75 82.1675 72.6284 79.0641Z" fill="url(#paint4_linear_37_1649)"/>
</g>
<path d="M71.17 68.2786C71.8866 66.4082 73.9552 63.1676 75 63.1043C76.0448 63.1676 78.1133 66.4082 78.8299 68.2786C79.7043 70.5609 78.5554 73.4317 75 73.4482C71.4445 73.4317 70.2957 70.5609 71.17 68.2786Z" fill="#5E3939"/>
<g opacity="0.7">
<ellipse rx="4.62329" ry="3.62069" transform="matrix(1 0 0.000387129 -1 92.9836 72.9311)" fill="#FF9D9D"/>
<ellipse rx="4.62329" ry="3.62069" transform="matrix(1 0 0.000376806 -1 57.0219 72.9311)" fill="#FF9D9D"/>
</g>
<defs>
<filter id="filter0_i_37_1649" x="1.52588e-05" y="36.1674" width="150" height="101.241" filterUnits="userSpaceOnUse" color-interpolation-filters="sRGB">
<feFlood flood-opacity="0" result="BackgroundImageFix"/>
<feBlend mode="normal" in="SourceGraphic" in2="BackgroundImageFix" result="shape"/>
<feColorMatrix in="SourceAlpha" type="matrix" values="0 0 0 0 0 0 0 0 0 0 0 0 0 0 0 0 0 0 127 0" result="hardAlpha"/>
<feOffset dy="4"/>
<feGaussianBlur stdDeviation="8"/>
<feComposite in2="hardAlpha" operator="arithmetic" k2="-1" k3="1"/>
<feColorMatrix type="matrix" values="0 0 0 0 0.475 0 0 0 0 0.0855 0 0 0 0 0 0 0 0 0.3 0"/>
<feBlend mode="multiply" in2="shape" result="effect1_innerShadow_37_1649"/>
</filter>
<filter id="filter1_i_37_1649" x="31.8493" y="30" width="86.3014" height="114.69" filterUnits="userSpaceOnUse" color-interpolation-filters="sRGB">
<feFlood flood-opacity="0" result="BackgroundImageFix"/>
<feBlend mode="normal" in="SourceGraphic" in2="BackgroundImageFix" result="shape"/>
<feColorMatrix in="SourceAlpha" type="matrix" values="0 0 0 0 0 0 0 0 0 0 0 0 0 0 0 0 0 0 127 0" result="hardAlpha"/>
<feOffset dy="4"/>
<feGaussianBlur stdDeviation="8"/>
<feComposite in2="hardAlpha" operator="arithmetic" k2="-1" k3="1"/>
<feColorMatrix type="matrix" values="0 0 0 0 0.475 0 0 0 0 0.0855 0 0 0 0 0 0 0 0 0.3 0"/>
<feBlend mode="multiply" in2="shape" result="effect1_innerShadow_37_1649"/>
</filter>
<linearGradient id="paint0_linear_37_1649" x1="114.041" y1="135.517" x2="75" y2="135.517" gradientUnits="userSpaceOnUse">
<stop stop-color="#791600"/>
<stop offset="0.0001" stop-color="#791600" stop-opacity="0.7"/>
<stop offset="0.723958" stop-color="#791600" stop-opacity="0"/>
</linearGradient>
<linearGradient id="paint1_linear_37_1649" x1="35.9589" y1="135.517" x2="75" y2="135.517" gradientUnits="userSpaceOnUse">
<stop stop-color="#791600"/>
<stop offset="0.0001" stop-color="#791600" stop-opacity="0.7"/>
<stop offset="0.723958" stop-color="#791600" stop-opacity="0"/>
</linearGradient>
<linearGradient id="paint2_linear_37_1649" x1="63.7446" y1="68.369" x2="63.7872" y2="56.5251" gradientUnits="userSpaceOnUse">
<stop stop-color="#242020"/>
<stop offset="1" stop-color="#7C5D5D"/>
</linearGradient>
<linearGradient id="paint3_linear_37_1649" x1="86.3473" y1="68.369" x2="86.3899" y2="56.5251" gradientUnits="userSpaceOnUse">
<stop stop-color="#242020"/>
<stop offset="1" stop-color="#7C5D5D"/>
</linearGradient>
<linearGradient id="paint4_linear_37_1649" x1="75.037" y1="88.0326" x2="75.0961" y2="75.1121" gradientUnits="userSpaceOnUse">
<stop stop-color="#242020"/>
<stop offset="1" stop-color="#7C5D5D"/>
</linearGradient>
</defs>
</svg>
