<svg width="150" height="150" viewBox="0 0 150 150" fill="none" xmlns="http://www.w3.org/2000/svg">
<path d="M55.25 126.75C59.1213 150 59.1213 150 75.5 150C91.8787 150 91.8787 150 95.75 126.75H55.25Z" fill="#543E98"/>
<path style="mix-blend-mode:multiply" opacity="0.5" d="M55.25 126.75C59.1213 150 59.1213 150 75.5 150C91.8787 150 91.8787 150 95.75 126.75H55.25Z" fill="url(#paint0_linear_10_147)"/>
<path style="mix-blend-mode:multiply" opacity="0.5" d="M95.75 126.75C91.8787 150 91.8787 150 75.5 150C59.1213 150 59.1213 150 55.25 126.75H95.75Z" fill="url(#paint1_linear_10_147)"/>
<g filter="url(#filter0_i_10_147)">
<path d="M107.464 67.4956C94.7763 68.1195 90.8186 69.7085 88.6056 77.4539C80.2352 74.3878 78.0003 62.1546 94.1381 52.0048C94.1381 59.1969 102.524 58.8651 107.464 59.1823C112.404 59.4995 112.948 59.2634 112.948 63.0696C112.948 66.8758 113.914 67.1784 107.464 67.4956Z" fill="#2E3D88"/>
<path d="M43.5359 67.4956C56.2237 68.1195 60.1814 69.7085 62.3944 77.4539C70.7648 74.3878 72.9997 62.1546 56.8619 52.0048C56.8619 59.1969 48.4756 58.8651 43.5358 59.1823C38.5961 59.4995 38.0516 59.2634 38.0517 63.0696C38.0518 66.8758 37.0857 67.1784 43.5359 67.4956Z" fill="#2E3D88"/>
</g>
<g filter="url(#filter1_i_10_147)">
<path d="M58.7989 95.3745C61.9521 81.2435 58.5778 57.3217 54.779 47.1428H96.221C92.4222 57.3217 89.0479 81.2435 92.2011 95.3745C95.3093 109.304 98.9976 114.661 106.25 128.054C105.214 130.197 97.2571 137.679 75.5 138.214C53.7429 137.679 45.7861 130.197 44.75 128.054C52.0024 114.661 55.6907 109.304 58.7989 95.3745Z" fill="#8B6BAD"/>
</g>
<g opacity="0.4">
<g filter="url(#filter2_i_10_147)">
<path fill-rule="evenodd" clip-rule="evenodd" d="M55.7966 105.955C56.9007 102.895 57.8754 99.5129 58.7988 95.3745C61.952 81.2435 58.5778 57.3217 54.7789 47.1428H96.221C92.4221 57.3217 89.0479 81.2435 92.2011 95.3745C93.127 99.5241 94.1045 102.913 95.2123 105.98C89.8184 108.18 82.9777 109.496 75.5348 109.496C68.0639 109.496 61.1998 108.171 55.7966 105.955Z" fill="#2E3D88"/>
</g>
</g>
<g filter="url(#filter3_i_10_147)">
<path fill-rule="evenodd" clip-rule="evenodd" d="M60.0174 84.1824C60.3542 70.8281 57.6914 54.9466 54.7789 47.1428H96.221C93.2813 55.0197 90.5958 71.1261 90.9927 84.5567C86.6504 86.1041 81.5126 86.999 76.0063 86.999C70.0701 86.999 64.5621 85.9589 60.0174 84.1824Z" fill="#2E3D88"/>
</g>
<g filter="url(#filter4_i_10_147)">
<path d="M47.0525 27.4228C51.4605 11.6298 64.0181 3.87175 72.5027 0.87399C74.3415 0.224303 76.3385 0.224303 78.1773 0.87399C86.662 3.87175 99.2195 11.6298 103.628 27.4228C103.976 28.6706 104.048 29.9841 103.837 31.2622C101.122 47.6628 88.8385 57.061 77.7002 60.2656C76.1581 60.7092 74.5219 60.7092 72.9798 60.2656C61.8415 57.061 49.558 47.6628 46.8435 31.2622C46.632 29.9841 46.7042 28.6706 47.0525 27.4228Z" fill="#8B6BAD"/>
</g>
<path d="M72.0206 34.301H78.6595V38.0828C78.6595 39.6607 77.3803 40.9399 75.8023 40.9399H74.8777C73.2998 40.9399 72.0206 39.6607 72.0206 38.0828V34.301Z" fill="#478ECC"/>
<path d="M78.6595 34.301H72.0206V13.922C72.0206 12.344 73.2998 11.0648 74.8777 11.0648H75.8023C77.3803 11.0648 78.6595 12.344 78.6595 13.922V34.301Z" fill="#70B2E2"/>
<g style="mix-blend-mode:multiply">
<path d="M75.34 45.3659C77.1733 45.3659 78.6595 46.6622 78.6595 47.5789C78.6595 48.4955 77.1733 49.2386 75.34 49.2386C73.5067 49.2386 72.0206 48.4955 72.0206 47.5789C72.0206 46.6622 73.5067 45.3659 75.34 45.3659Z" fill="url(#paint2_linear_10_147)"/>
</g>
<g style="mix-blend-mode:multiply">
<path d="M92.0613 36.7616C90.6274 38.3428 88.4261 38.818 87.1446 37.8229C85.863 36.8278 85.9864 34.7392 87.4202 33.158C88.8541 31.5767 91.0553 31.1016 92.3369 32.0967C93.6185 33.0918 93.4951 35.1803 92.0613 36.7616Z" fill="url(#paint3_linear_10_147)"/>
</g>
<path fill-rule="evenodd" clip-rule="evenodd" d="M90.0046 40.0783C88.6492 40.3708 87.0834 40.2148 85.8465 39.2544C84.6096 38.294 84.1717 36.8942 84.2477 35.6082C84.3236 34.3229 84.9026 33.0272 85.8732 31.9568C86.8439 30.8863 88.1223 30.1337 89.4769 29.8413C90.8324 29.5487 92.3981 29.7047 93.635 30.6651C94.8719 31.6256 95.3098 33.0254 95.2338 34.3114C95.1579 35.5967 94.5789 36.8924 93.6083 37.9628C92.6376 39.0332 91.3592 39.7859 90.0046 40.0783ZM87.1446 37.8229C88.4262 38.818 90.6274 38.3428 92.0613 36.7616C93.4951 35.1804 93.6185 33.0918 92.3369 32.0967C91.0554 31.1016 88.8541 31.5767 87.4202 33.158C85.9864 34.7392 85.863 36.8278 87.1446 37.8229Z" fill="#C894C4"/>
<g style="mix-blend-mode:multiply">
<path d="M64.1542 34.3086C65.4904 36.4665 65.3228 38.8892 63.78 39.7198C62.2371 40.5504 59.9033 39.4743 58.5672 37.3164C57.231 35.1585 57.3986 32.7358 58.9414 31.9052C60.4842 31.0746 62.8181 32.1506 64.1542 34.3086Z" fill="url(#paint4_linear_10_147)"/>
</g>
<path fill-rule="evenodd" clip-rule="evenodd" d="M67.1927 37.641C67.0953 39.0502 66.4431 40.6015 64.8552 41.4563C63.2674 42.3112 61.5005 42.0622 60.1429 41.4363C58.7692 40.8029 57.5556 39.693 56.7048 38.319C55.8541 36.945 55.4301 35.41 55.5287 33.984C55.6262 32.5748 56.2784 31.0234 57.8662 30.1686C59.4541 29.3138 61.221 29.5628 62.5785 30.1887C63.9522 30.822 65.1659 31.932 66.0166 33.3059C66.8673 34.6799 67.2914 36.215 67.1927 37.641ZM63.78 39.7198C65.3228 38.8892 65.4904 36.4665 64.1543 34.3086C62.8181 32.1506 60.4843 31.0746 58.9414 31.9052C57.3986 32.7358 57.2311 35.1585 58.5672 37.3164C59.9033 39.4743 62.2372 40.5504 63.78 39.7198Z" fill="#C894C4"/>
<g opacity="0.7">
<ellipse rx="3.375" ry="2.625" transform="matrix(1 0 0.000389799 -1 93.8781 43.875)" fill="#FF9D9D"/>
<ellipse rx="3.375" ry="2.625" transform="matrix(1 0 0.000389799 -1 57.126 43.875)" fill="#FF9D9D"/>
</g>
<defs>
<filter id="filter0_i_10_147" x="38.0004" y="52.0048" width="74.9991" height="29.4492" filterUnits="userSpaceOnUse" color-interpolation-filters="sRGB">
<feFlood flood-opacity="0" result="BackgroundImageFix"/>
<feBlend mode="normal" in="SourceGraphic" in2="BackgroundImageFix" result="shape"/>
<feColorMatrix in="SourceAlpha" type="matrix" values="0 0 0 0 0 0 0 0 0 0 0 0 0 0 0 0 0 0 127 0" result="hardAlpha"/>
<feOffset dy="4"/>
<feGaussianBlur stdDeviation="7"/>
<feComposite in2="hardAlpha" operator="arithmetic" k2="-1" k3="1"/>
<feColorMatrix type="matrix" values="0 0 0 0 0 0 0 0 0 0.3895 0 0 0 0 0.475 0 0 0 0.3 0"/>
<feBlend mode="multiply" in2="shape" result="effect1_innerShadow_10_147"/>
</filter>
<filter id="filter1_i_10_147" x="44.75" y="47.1428" width="61.5" height="95.0714" filterUnits="userSpaceOnUse" color-interpolation-filters="sRGB">
<feFlood flood-opacity="0" result="BackgroundImageFix"/>
<feBlend mode="normal" in="SourceGraphic" in2="BackgroundImageFix" result="shape"/>
<feColorMatrix in="SourceAlpha" type="matrix" values="0 0 0 0 0 0 0 0 0 0 0 0 0 0 0 0 0 0 127 0" result="hardAlpha"/>
<feOffset dy="4"/>
<feGaussianBlur stdDeviation="7"/>
<feComposite in2="hardAlpha" operator="arithmetic" k2="-1" k3="1"/>
<feColorMatrix type="matrix" values="0 0 0 0 0 0 0 0 0 0.3895 0 0 0 0 0.475 0 0 0 0.3 0"/>
<feBlend mode="multiply" in2="shape" result="effect1_innerShadow_10_147"/>
</filter>
<filter id="filter2_i_10_147" x="54.7789" y="47.1428" width="41.442" height="66.3533" filterUnits="userSpaceOnUse" color-interpolation-filters="sRGB">
<feFlood flood-opacity="0" result="BackgroundImageFix"/>
<feBlend mode="normal" in="SourceGraphic" in2="BackgroundImageFix" result="shape"/>
<feColorMatrix in="SourceAlpha" type="matrix" values="0 0 0 0 0 0 0 0 0 0 0 0 0 0 0 0 0 0 127 0" result="hardAlpha"/>
<feOffset dy="4"/>
<feGaussianBlur stdDeviation="7"/>
<feComposite in2="hardAlpha" operator="arithmetic" k2="-1" k3="1"/>
<feColorMatrix type="matrix" values="0 0 0 0 0 0 0 0 0 0.3895 0 0 0 0 0.475 0 0 0 0.3 0"/>
<feBlend mode="multiply" in2="shape" result="effect1_innerShadow_10_147"/>
</filter>
<filter id="filter3_i_10_147" x="54.7789" y="47.1428" width="41.442" height="43.8561" filterUnits="userSpaceOnUse" color-interpolation-filters="sRGB">
<feFlood flood-opacity="0" result="BackgroundImageFix"/>
<feBlend mode="normal" in="SourceGraphic" in2="BackgroundImageFix" result="shape"/>
<feColorMatrix in="SourceAlpha" type="matrix" values="0 0 0 0 0 0 0 0 0 0 0 0 0 0 0 0 0 0 127 0" result="hardAlpha"/>
<feOffset dy="4"/>
<feGaussianBlur stdDeviation="7"/>
<feComposite in2="hardAlpha" operator="arithmetic" k2="-1" k3="1"/>
<feColorMatrix type="matrix" values="0 0 0 0 0 0 0 0 0 0.3895 0 0 0 0 0.475 0 0 0 0.3 0"/>
<feBlend mode="multiply" in2="shape" result="effect1_innerShadow_10_147"/>
</filter>
<filter id="filter4_i_10_147" x="46.7249" y="0.386719" width="57.2303" height="64.2116" filterUnits="userSpaceOnUse" color-interpolation-filters="sRGB">
<feFlood flood-opacity="0" result="BackgroundImageFix"/>
<feBlend mode="normal" in="SourceGraphic" in2="BackgroundImageFix" result="shape"/>
<feColorMatrix in="SourceAlpha" type="matrix" values="0 0 0 0 0 0 0 0 0 0 0 0 0 0 0 0 0 0 127 0" result="hardAlpha"/>
<feOffset dy="4"/>
<feGaussianBlur stdDeviation="7"/>
<feComposite in2="hardAlpha" operator="arithmetic" k2="-1" k3="1"/>
<feColorMatrix type="matrix" values="0 0 0 0 0 0 0 0 0 0.3895 0 0 0 0 0.475 0 0 0 0.3 0"/>
<feBlend mode="multiply" in2="shape" result="effect1_innerShadow_10_147"/>
</filter>
<linearGradient id="paint0_linear_10_147" x1="55.25" y1="138.375" x2="75.5" y2="138.375" gradientUnits="userSpaceOnUse">
<stop stop-color="#006379"/>
<stop offset="0.0001" stop-color="#006379" stop-opacity="0.7"/>
<stop offset="0.723958" stop-color="#006379" stop-opacity="0"/>
</linearGradient>
<linearGradient id="paint1_linear_10_147" x1="95.75" y1="138.375" x2="75.5" y2="138.375" gradientUnits="userSpaceOnUse">
<stop stop-color="#006379"/>
<stop offset="0.0001" stop-color="#006379" stop-opacity="0.7"/>
<stop offset="0.723958" stop-color="#006379" stop-opacity="0"/>
</linearGradient>
<linearGradient id="paint2_linear_10_147" x1="78.7138" y1="47.279" x2="71.8038" y2="47.2521" gradientUnits="userSpaceOnUse">
<stop stop-color="#242020"/>
<stop offset="1" stop-color="#7C5D5D"/>
</linearGradient>
<linearGradient id="paint3_linear_10_147" x1="87.13" y1="37.8913" x2="92.0699" y2="31.5683" gradientUnits="userSpaceOnUse">
<stop stop-color="#242020"/>
<stop offset="1" stop-color="#7C5D5D"/>
</linearGradient>
<linearGradient id="paint4_linear_10_147" x1="63.8531" y1="39.7656" x2="59.3551" y2="31.3444" gradientUnits="userSpaceOnUse">
<stop stop-color="#242020"/>
<stop offset="1" stop-color="#7C5D5D"/>
</linearGradient>
</defs>
</svg>
