<svg width="150" height="150" viewBox="0 0 150 150" fill="none" xmlns="http://www.w3.org/2000/svg">
<path d="M46.8029 135.211C52.2555 150 52.2555 150 75.3241 150C98.3926 150 98.3926 150 103.845 135.211H46.8029Z" fill="#88D2E2"/>
<path style="mix-blend-mode:multiply" opacity="0.3" d="M46.8029 135.211C52.2555 150 52.2555 150 75.3241 150C98.3926 150 98.3926 150 103.845 135.211H46.8029Z" fill="url(#paint0_linear_13_1189)"/>
<path style="mix-blend-mode:multiply" opacity="0.3" d="M103.845 135.211C98.3926 150 98.3926 150 75.3241 150C52.2555 150 52.2555 150 46.8029 135.211H103.845Z" fill="url(#paint1_linear_13_1189)"/>
<path d="M75.3241 143.134C93.9929 143.134 109.127 137.127 109.127 133.627L96.4508 117.254H54.1973L41.5212 133.627C41.5212 137.127 56.6553 143.134 75.3241 143.134Z" fill="#F09A9B"/>
<path d="M75.3239 122.535C86.9919 122.535 96.4507 120.246 96.4507 117.423V110.916C96.4507 112.199 86.9919 114.296 75.3239 114.296C63.6559 114.296 54.1971 112.199 54.1971 110.916V117.423C54.1971 120.246 63.6559 122.535 75.3239 122.535Z" fill="#F09A9B"/>
<g filter="url(#filter0_i_13_1189)">
<path d="M28.9877 59.683C31.127 30.5281 58.8293 26.4085 75.1294 26.4085C91.4294 26.4085 119.52 30.5281 121.66 59.683C124.334 96.1267 88.4413 82.9226 95.3941 110.387C95.7507 111.62 92.244 115.775 75.1294 116.197C58.0148 115.775 54.8967 111.62 55.2533 110.387C62.2061 82.9226 26.3135 96.1267 28.9877 59.683Z" fill="#88D2E2"/>
</g>
<path fill-rule="evenodd" clip-rule="evenodd" d="M114.669 97.0653C109.823 89.4794 103.658 83.3019 99.5432 79.9997L103.425 75.5281C108.085 79.2682 115.543 84.7283 120.875 93.0755C126.18 101.379 131.463 111.829 130.277 122.535H121.326C122.246 114.227 119.544 104.695 114.669 97.0653Z" fill="#88D2E2"/>
<ellipse cx="126.065" cy="121.479" rx="11.5831" ry="11.6197" fill="#F6A9C4"/>
<ellipse cx="126.065" cy="121.479" rx="7.37108" ry="7.39437" fill="#EA1A65"/>
<path fill-rule="evenodd" clip-rule="evenodd" d="M35.9785 97.0653C40.8249 89.4794 46.9899 83.3019 51.1047 79.9997L47.2228 75.5281C42.5625 79.2682 35.1053 84.7283 29.7726 93.0755C24.4679 101.379 19.1853 111.829 20.371 122.535H29.3216C28.4014 114.227 31.1041 104.695 35.9785 97.0653Z" fill="#88D2E2"/>
<ellipse rx="11.5831" ry="11.6197" transform="matrix(-1 0 0 1 24.5833 121.479)" fill="#F6A9C4"/>
<ellipse rx="7.37108" ry="7.39437" transform="matrix(-1 0 0 1 24.5832 121.479)" fill="#EA1A65"/>
<ellipse cx="75.3238" cy="21.1268" rx="13.7324" ry="4.22535" fill="#FFD8E6"/>
<path d="M75.3238 32.7464C82.908 32.7464 89.0562 30.4573 89.0562 27.6337V21.1266C89.0562 22.4101 82.908 24.5069 75.3238 24.5069C67.7396 24.5069 61.5914 22.4101 61.5914 21.1266V27.6337C61.5914 30.4573 67.7396 32.7464 75.3238 32.7464Z" fill="#F09A9B"/>
<path d="M73.479 4.40874C74.1641 2.77152 76.4838 2.77152 77.1689 4.40875L82.5165 17.1874C82.6293 17.4569 82.5094 17.7674 82.2447 17.8911C77.8587 19.9417 72.7892 19.9417 68.4032 17.8911C68.1385 17.7674 68.0186 17.4569 68.1314 17.1874L73.479 4.40874Z" fill="#88D2E2"/>
<path d="M54.1971 111.211C54.1971 110.464 54.7522 109.859 55.3073 109.859C55.3073 110.197 55.7112 110.691 55.8623 110.873C56.0134 111.055 57.0305 111.856 57.5285 112.161C58.5194 112.767 60.023 113.363 61.9674 113.884C65.8389 114.922 68.2192 115.606 74.2138 115.606H75.3239V118.31H74.2138C68.0998 118.31 65.554 117.614 61.4903 116.525C59.4671 115.983 57.7599 115.329 56.5319 114.577C55.9204 114.203 55.3718 113.772 54.9616 113.264C54.5511 112.756 54.1971 112.065 54.1971 111.211Z" fill="#FFD8E6"/>
<path d="M96.4507 111.211C96.4507 110.464 95.8956 109.859 95.3406 109.859C95.3406 110.197 94.9367 110.691 94.7855 110.873C94.6344 111.055 93.6173 111.856 93.1194 112.161C92.1285 112.767 90.6248 113.363 88.6804 113.884C84.809 114.922 82.4286 115.606 76.434 115.606H75.3239V118.31H76.434C82.5481 118.31 85.0938 117.614 89.1575 116.525C91.1808 115.983 92.8879 115.329 94.1159 114.577C94.7274 114.203 95.276 113.772 95.6862 113.264C96.0967 112.756 96.4507 112.065 96.4507 111.211Z" fill="#FFD8E6"/>
<path d="M70.5472 50.7044C70.5472 59.4535 59.4787 73.9438 75.3239 73.9438C91.1689 73.9438 80.1006 59.4535 80.1006 50.7044C91.7769 49.1604 99.2073 61.8375 102.392 55.147C103.89 51.9983 102.392 40.141 75.3239 40.141C48.256 40.141 46.7573 51.9983 48.256 55.147C51.4404 61.8375 58.8708 49.1604 70.5472 50.7044Z" fill="#FFD8E6"/>
<path fill-rule="evenodd" clip-rule="evenodd" d="M79.1241 122.462C77.4672 122.462 76.1241 123.805 76.1241 125.462V140.493C79.8544 140.407 83.4244 140.103 86.7452 139.647L83.174 124.762C82.8503 123.413 81.644 122.462 80.2568 122.462H79.1241Z" fill="#FFD8E6"/>
<path fill-rule="evenodd" clip-rule="evenodd" d="M87.0203 121.333C85.0639 121.333 83.631 123.176 84.1127 125.072L87.7776 139.499C91.3401 138.967 94.5953 138.262 97.4281 137.467L90.9969 123.107C90.5136 122.028 89.4414 121.333 88.2589 121.333H87.0203Z" fill="#FFD8E6"/>
<path fill-rule="evenodd" clip-rule="evenodd" d="M93.4793 119.503C91.9811 120.196 91.3506 121.989 92.0846 123.468L98.8296 137.056C98.909 137.032 98.988 137.008 99.0666 136.983C102.259 135.991 104.692 134.93 106.255 133.984C106.557 133.801 106.808 133.634 107.014 133.484L97.0459 120.388C96.2121 119.292 94.7286 118.924 93.4793 119.503Z" fill="#FFD8E6"/>
<path fill-rule="evenodd" clip-rule="evenodd" d="M71.5239 122.462C73.1808 122.462 74.5239 123.805 74.5239 125.462V140.493C70.7936 140.407 67.2236 140.103 63.9028 139.647L67.474 124.762C67.7977 123.413 69.004 122.462 70.3912 122.462H71.5239Z" fill="#FFD8E6"/>
<path fill-rule="evenodd" clip-rule="evenodd" d="M63.6275 121.333C65.5839 121.333 67.0169 123.176 66.5352 125.072L62.8702 139.499C59.3078 138.967 56.0526 138.262 53.2197 137.467L59.6509 123.107C60.1343 122.028 61.2064 121.333 62.3889 121.333H63.6275Z" fill="#FFD8E6"/>
<path fill-rule="evenodd" clip-rule="evenodd" d="M57.1688 119.503C58.6669 120.196 59.2975 121.989 58.5634 123.468L51.8184 137.056C51.739 137.032 51.66 137.008 51.5814 136.983C48.3887 135.991 45.9557 134.93 44.3927 133.984C44.0906 133.801 43.8397 133.634 43.6338 133.484L53.6021 120.388C54.436 119.292 55.9195 118.924 57.1688 119.503Z" fill="#FFD8E6"/>
<g style="mix-blend-mode:multiply">
<path d="M62.6478 62.8522C62.6478 64.8941 61.229 66.5494 59.4788 66.5494C57.7286 66.5494 56.3098 64.8941 56.3098 62.8522C56.3098 60.8103 57.7286 59.155 59.4788 59.155C61.229 59.155 62.6478 60.8103 62.6478 62.8522Z" fill="url(#paint2_linear_13_1189)"/>
</g>
<g style="mix-blend-mode:multiply">
<path d="M94.338 62.8522C94.338 64.8941 92.9192 66.5494 91.169 66.5494C89.4188 66.5494 88 64.8941 88 62.8522C88 60.8103 89.4188 59.155 91.169 59.155C92.9192 59.155 94.338 60.8103 94.338 62.8522Z" fill="url(#paint3_linear_13_1189)"/>
</g>
<g style="mix-blend-mode:multiply">
<path d="M70.0422 79.4894C70.0422 78.1768 71.1063 77.1127 72.4189 77.1127H78.2288C79.5414 77.1127 80.6056 78.1768 80.6056 79.4894C80.6056 79.927 80.2509 80.2817 79.8133 80.2817H70.8344C70.3969 80.2817 70.0422 79.927 70.0422 79.4894Z" fill="url(#paint4_linear_13_1189)"/>
</g>
<g opacity="0.7">
<ellipse rx="4.75352" ry="3.69718" transform="matrix(1 0 0.000389799 -1 101.209 69.1903)" fill="#F96F6F"/>
<ellipse rx="4.75352" ry="3.69718" transform="matrix(1 0 0.000389799 -1 49.4452 69.1903)" fill="#F96F6F"/>
</g>
<defs>
<filter id="filter0_i_13_1189" x="28.845" y="26.4085" width="92.9573" height="93.7888" filterUnits="userSpaceOnUse" color-interpolation-filters="sRGB">
<feFlood flood-opacity="0" result="BackgroundImageFix"/>
<feBlend mode="normal" in="SourceGraphic" in2="BackgroundImageFix" result="shape"/>
<feColorMatrix in="SourceAlpha" type="matrix" values="0 0 0 0 0 0 0 0 0 0 0 0 0 0 0 0 0 0 127 0" result="hardAlpha"/>
<feOffset dy="4"/>
<feGaussianBlur stdDeviation="7"/>
<feComposite in2="hardAlpha" operator="arithmetic" k2="-1" k3="1"/>
<feColorMatrix type="matrix" values="0 0 0 0 0 0 0 0 0 0.3895 0 0 0 0 0.475 0 0 0 0.3 0"/>
<feBlend mode="multiply" in2="shape" result="effect1_innerShadow_13_1189"/>
</filter>
<linearGradient id="paint0_linear_13_1189" x1="46.8029" y1="142.606" x2="75.3241" y2="142.606" gradientUnits="userSpaceOnUse">
<stop stop-color="#006379"/>
<stop offset="0.0001" stop-color="#006379" stop-opacity="0.7"/>
<stop offset="0.723958" stop-color="#006379" stop-opacity="0"/>
</linearGradient>
<linearGradient id="paint1_linear_13_1189" x1="103.845" y1="142.606" x2="75.3241" y2="142.606" gradientUnits="userSpaceOnUse">
<stop stop-color="#006379"/>
<stop offset="0.0001" stop-color="#006379" stop-opacity="0.7"/>
<stop offset="0.723958" stop-color="#006379" stop-opacity="0"/>
</linearGradient>
<linearGradient id="paint2_linear_13_1189" x1="59.5168" y1="66.6099" x2="59.5372" y2="58.9136" gradientUnits="userSpaceOnUse">
<stop stop-color="#242020"/>
<stop offset="1" stop-color="#7C5D5D"/>
</linearGradient>
<linearGradient id="paint3_linear_13_1189" x1="91.2071" y1="66.6099" x2="91.2275" y2="58.9136" gradientUnits="userSpaceOnUse">
<stop stop-color="#242020"/>
<stop offset="1" stop-color="#7C5D5D"/>
</linearGradient>
<linearGradient id="paint4_linear_13_1189" x1="75.3873" y1="80.3076" x2="75.3895" y2="77.0092" gradientUnits="userSpaceOnUse">
<stop stop-color="#242020"/>
<stop offset="1" stop-color="#7C5D5D"/>
</linearGradient>
</defs>
</svg>
