<svg width="150" height="150" viewBox="0 0 150 150" fill="none" xmlns="http://www.w3.org/2000/svg">
<g clip-path="url(#clip0_301_1352)">
<path d="M109.444 18.1034C109.733 17.8328 110.197 18.1005 110.107 18.4856L107.104 31.2955C107.043 31.5567 106.747 31.6849 106.514 31.551L99.9018 27.7412C99.6693 27.6072 99.6324 27.287 99.8285 27.1035L109.444 18.1034Z" fill="#FCD44F"/>
<path d="M93.7028 28.2394C91.5232 29.0927 97.9458 33.267 100.334 34.643C102.722 36.0189 109.556 39.4824 109.207 37.172C108.818 34.5983 107.248 32.435 107.644 29.7309C107.66 29.616 107.58 29.5086 107.464 29.4945C106.881 29.4232 106.305 29.265 104.16 28.0295C102.016 26.7939 101.59 26.3746 101.237 25.9063C101.167 25.8136 101.033 25.7978 100.942 25.8698C98.7929 27.5633 96.1308 27.2887 93.7028 28.2394Z" fill="#69A042"/>
<path d="M40.7693 18.1034C40.4803 17.8328 40.0156 18.1005 40.1059 18.4856L43.1088 31.2955C43.17 31.5567 43.4663 31.6849 43.6989 31.551L50.3112 27.7412C50.5438 27.6072 50.5806 27.287 50.3845 27.1035L40.7693 18.1034Z" fill="#FCD44F"/>
<path d="M56.5102 28.2394C58.6898 29.0927 52.2672 33.267 49.8791 34.643C47.4909 36.0189 40.6571 39.4824 41.0063 37.172C41.3954 34.5983 42.9647 32.435 42.5695 29.7309C42.5527 29.616 42.6331 29.5086 42.7486 29.4945C43.3316 29.4232 43.9084 29.265 46.0528 28.0295C48.1973 26.7939 48.6229 26.3746 48.9763 25.9063C49.0463 25.8136 49.1797 25.7978 49.271 25.8698C51.4201 27.5633 54.0822 27.2887 56.5102 28.2394Z" fill="#69A042"/>
<g filter="url(#filter0_i_301_1352)">
<path d="M134.347 65.5762C134.347 79.3349 135.084 76.3813 121.647 77.1585C112.838 77.668 115.66 89.0006 117.727 96.0015C123.712 96.0015 130.409 96.9863 138.675 95.2855C143.052 94.3847 149.115 91.8374 149.78 84.6771C150.378 78.2328 149.654 73.8395 148.849 66.6441C148.296 61.6996 148.381 59.6689 141.912 59.6689C135.442 59.6689 134.347 62.1746 134.347 65.5762Z" fill="#8AC44B"/>
</g>
<path fill-rule="evenodd" clip-rule="evenodd" d="M148.688 65.1795C146.976 65.5101 144.881 65.7551 142.33 65.8961C138.869 66.0873 136.279 65.9925 134.347 65.6797C134.347 65.6453 134.347 65.6108 134.347 65.5762C134.347 62.1746 135.442 59.6689 141.912 59.6689C147.701 59.6689 148.242 61.2949 148.688 65.1795Z" fill="#DCECC8"/>
<g filter="url(#filter1_i_301_1352)">
<path d="M15.6528 107.063C15.6528 93.3041 14.9164 96.2577 28.3535 95.4804C37.1617 94.9709 34.3395 83.6383 32.2731 76.6374C26.2881 76.6374 19.591 75.6526 11.3254 77.3534C6.9476 78.2542 0.885403 80.8015 0.220394 87.9618C-0.378109 94.4062 0.346325 98.7994 1.15079 105.995C1.70361 110.939 1.61856 112.97 8.08832 112.97C14.5581 112.97 15.6528 110.464 15.6528 107.063Z" fill="#8AC44B"/>
</g>
<path fill-rule="evenodd" clip-rule="evenodd" d="M1.31245 107.459C3.02404 107.129 5.11862 106.884 7.67002 106.743C11.1311 106.552 13.7209 106.646 15.6528 106.959C15.6528 106.994 15.6528 107.028 15.6528 107.063C15.6528 110.464 14.5581 112.97 8.08833 112.97C2.29912 112.97 1.75825 111.344 1.31245 107.459Z" fill="#DCECC8"/>
<path d="M113.675 142.818C113.675 144.764 101.069 150 75.1065 150C49.1442 150 36.5383 144.764 36.5383 142.818C36.5383 138.398 37.6402 130.664 37.0893 125.691H113.124C112.573 130.664 113.675 138.398 113.675 142.818Z" fill="#8AC44B"/>
<g style="mix-blend-mode:multiply">
<path d="M113.675 142.818C113.675 144.764 101.069 150 75.1065 150C49.1442 150 36.5383 144.764 36.5383 142.818C36.5383 138.398 37.6402 130.664 37.0893 125.691H113.124C112.573 130.664 113.675 138.398 113.675 142.818Z" fill="url(#paint0_linear_301_1352)"/>
</g>
<g style="mix-blend-mode:multiply">
<path d="M36.5383 142.818C36.5383 144.764 49.1442 150 75.1065 150C101.069 150 113.675 144.764 113.675 142.818C113.675 138.398 112.573 130.664 113.124 125.691H37.0893C37.6402 130.664 36.5383 138.398 36.5383 142.818Z" fill="url(#paint1_linear_301_1352)"/>
</g>
<g filter="url(#filter2_i_301_1352)">
<path d="M30.0169 50.8748C19.7692 76.8273 25.0639 103.458 33.0912 125.17L75.1065 127.717L117.122 125.17C125.149 103.458 130.444 76.8273 120.196 50.8748C113.969 35.1053 97.1389 22.8867 75.1065 22.8867C53.0741 22.8867 36.2436 35.1053 30.0169 50.8748Z" fill="#8AC44B"/>
</g>
<path d="M97.4355 63.4276C97.4355 68.1971 94.7659 73.0231 90.2991 73.0231C85.8323 73.0231 82.2112 69.9845 82.2112 63.4276C82.2112 58.6581 85.3565 55.2981 89.8233 55.2981C94.2901 55.2981 97.4355 58.6581 97.4355 63.4276Z" fill="#FCEDA0"/>
<rect x="85.141" y="62.2854" width="9.13458" height="3.03856" rx="1.51928" transform="rotate(-5 85.141 62.2854)" fill="url(#paint2_linear_301_1352)"/>
<path d="M52.7775 63.4276C52.7775 68.1971 55.4471 73.0231 59.9139 73.0231C64.3808 73.0231 68.0018 69.9845 68.0018 63.4276C68.0018 58.6581 64.8565 55.2981 60.3897 55.2981C55.9229 55.2981 52.7775 58.6581 52.7775 63.4276Z" fill="#FCEDA0"/>
<rect width="9.13458" height="3.03856" rx="1.51928" transform="matrix(-0.996195 -0.0871557 -0.0871557 0.996195 65.072 62.2854)" fill="url(#paint3_linear_301_1352)"/>
<path d="M75.1065 76.0615C58.291 76.0615 44.6594 79.5608 44.6594 103.447C44.6594 112.834 44.3852 119.114 51.3681 125.052C64.7854 128.051 65.8175 126.051 75.1065 126.051C84.3955 126.051 85.4276 128.051 98.8449 125.052C105.828 119.114 105.554 112.834 105.554 103.447C105.554 79.5608 91.922 76.0615 75.1065 76.0615Z" fill="#DCECC8"/>
<path d="M87.8316 78.4782C83.3124 77.6921 78.281 76.9918 75.1065 77.0745C71.932 76.9918 66.9006 77.6921 62.3814 78.4782C60.1201 78.8716 58.0215 79.4092 56.3291 80.1164C54.6001 80.8389 53.732 81.8108 53.1981 82.6452C52.7514 83.3434 51.5847 84.5091 50.2819 83.1517C49.3098 82.1388 49.8352 80.8113 50.2819 80.1131C51.3033 78.5167 53.3191 78.1004 55.2435 77.2962C57.2045 76.4767 59.5289 75.8938 61.9012 75.4811C66.6493 74.6552 71.8004 74.4563 75.1065 74.5424C78.4126 74.4563 83.5638 74.6552 88.3118 75.4811C90.6841 75.8938 93.0085 76.4767 94.9695 77.2962C96.8939 78.1004 98.9097 78.5167 99.9311 80.1131C100.378 80.8113 100.903 82.1388 99.9311 83.1517C98.6284 84.5091 97.4616 83.3434 97.0149 82.6452C96.481 81.8108 95.6129 80.8389 93.8839 80.1164C92.1915 79.4092 90.0929 78.8716 87.8316 78.4782Z" fill="url(#paint4_linear_301_1352)"/>
<g filter="url(#filter3_i_301_1352)">
<path d="M21.262 136.157C24.2707 126.727 25.4689 123.708 27.62 119.837L48.4591 123.899L75.8004 124.489L101.754 123.899L122.593 119.837C124.744 123.708 125.942 126.727 128.951 136.157C126.936 136.657 119.19 136.157 119.19 136.157C116.731 138.051 112.586 141.172 110.473 141.539C107.578 142.041 99.1391 140.663 95.0604 139.977C89.7526 141.514 80.1021 144.146 75.1065 144.146C70.1109 144.146 60.4604 141.514 55.1525 139.977C51.0738 140.663 42.6351 142.041 39.74 141.539C37.6271 141.172 33.4815 138.051 31.0232 136.157C31.0232 136.157 23.2772 136.657 21.262 136.157Z" fill="#FBDC6F"/>
</g>
<mask id="mask0_301_1352" style="mask-type:alpha" maskUnits="userSpaceOnUse" x="21" y="119" width="108" height="26">
<path d="M21.262 136.157C24.2707 126.727 25.4689 123.708 27.62 119.837L48.4591 123.899L75.8004 124.489L101.754 123.899L122.593 119.837C124.744 123.708 125.942 126.727 128.951 136.157C126.936 136.657 119.19 136.157 119.19 136.157C116.731 138.051 112.586 141.172 110.473 141.539C107.578 142.041 99.1391 140.663 95.0604 139.977C89.7526 141.514 80.1021 144.146 75.1065 144.146C70.1109 144.146 60.4604 141.514 55.1525 139.977C51.0738 140.663 42.6351 142.041 39.74 141.539C37.6271 141.172 33.4815 138.051 31.0232 136.157C31.0232 136.157 23.2772 136.657 21.262 136.157Z" fill="#FBDC6F"/>
</mask>
<g mask="url(#mask0_301_1352)">
<g style="mix-blend-mode:multiply" opacity="0.7">
<path d="M30.5613 137.949L35.446 119.15L29.562 137.662L30.5613 137.949Z" fill="#FCD44F"/>
</g>
<g style="mix-blend-mode:multiply" opacity="0.7">
<path d="M40.4996 141.742L43.3426 120.899L39.473 141.577L40.4996 141.742Z" fill="#FCD44F"/>
</g>
<g style="mix-blend-mode:multiply" opacity="0.7">
<path d="M55.0685 141.374L55.8725 120.354L54.0307 141.309L55.0685 141.374Z" fill="#FCD44F"/>
</g>
<g style="mix-blend-mode:multiply" opacity="0.7">
<path d="M119.695 137.949L114.81 119.15L120.694 137.662L119.695 137.949Z" fill="#FCD44F"/>
</g>
<g style="mix-blend-mode:multiply" opacity="0.7">
<path d="M109.757 141.742L106.914 120.899L110.783 141.577L109.757 141.742Z" fill="#FCD44F"/>
</g>
<g style="mix-blend-mode:multiply" opacity="0.7">
<path d="M95.1881 141.374L94.384 120.354L96.2259 141.309L95.1881 141.374Z" fill="#FCD44F"/>
</g>
<g style="mix-blend-mode:multiply" opacity="0.7">
<path d="M74.5865 144.328L75.1065 123.299L75.6264 144.328H74.5865Z" fill="#FCD44F"/>
</g>
</g>
<path d="M123.095 118.904C123.095 117.902 122.505 111.957 121.39 111.957C121.39 112.411 120.578 113.074 120.274 113.318C119.971 113.563 117.927 114.638 116.927 115.047C114.936 115.861 111.914 116.66 108.008 117.36C100.229 118.752 89.3818 118.985 77.337 118.985H72.876C60.8312 118.985 49.9844 118.752 42.2055 117.36C38.2988 116.66 35.2775 115.861 33.2866 115.047C32.2861 114.638 30.2425 113.563 29.9388 113.318C29.6351 113.074 28.8235 112.411 28.8235 111.957C27.7083 111.957 27.1184 117.902 27.1184 118.904C27.1184 120.05 27.3042 120.949 28.129 121.63C28.9533 122.312 30.0555 122.891 31.2842 123.393C33.7516 124.401 37.1817 125.279 41.2469 126.007C49.412 127.469 60.5912 127.717 72.876 127.717H77.337C89.6218 127.717 100.801 127.469 108.966 126.007C113.031 125.279 116.461 124.401 118.929 123.393C120.158 122.891 121.26 122.312 122.084 121.63C122.909 120.949 123.095 120.05 123.095 118.904Z" fill="#FCD44F"/>
<g opacity="0.2">
<path d="M27.1184 118.904C27.1184 117.902 27.7083 111.957 28.8235 111.957C28.8235 112.411 29.6351 113.074 29.9388 113.318C30.2425 113.563 32.2861 114.638 33.2866 115.047C35.2776 115.861 38.2988 116.66 42.2055 117.36C49.9844 118.752 60.8313 118.985 72.876 118.985H77.3371C89.3819 118.985 100.229 118.752 108.008 117.36C111.914 116.66 114.936 115.861 116.927 115.047C117.927 114.638 119.971 113.563 120.274 113.318C120.578 113.074 121.39 112.411 121.39 111.957C122.505 111.957 123.095 117.902 123.095 118.904C123.095 120.05 122.909 120.949 122.084 121.63C121.26 122.312 120.158 122.891 118.929 123.393C116.461 124.401 113.031 125.279 108.966 126.007C100.801 127.469 89.6218 127.717 77.3371 127.717H72.876C60.5913 127.717 49.412 127.469 41.247 126.007C37.1817 125.279 33.7516 124.401 31.2843 123.393C30.0556 122.891 28.9533 122.312 28.1291 121.63C27.3042 120.949 27.1184 120.05 27.1184 118.904Z" fill="url(#paint5_linear_301_1352)" style="mix-blend-mode:multiply"/>
</g>
<g opacity="0.2">
<path d="M123.095 118.904C123.095 117.902 122.505 111.957 121.39 111.957C121.39 112.411 120.578 113.074 120.274 113.318C119.971 113.563 117.927 114.638 116.927 115.047C114.936 115.861 111.914 116.66 108.008 117.36C100.229 118.752 89.3818 118.985 77.337 118.985H72.876C60.8312 118.985 49.9844 118.752 42.2055 117.36C38.2988 116.66 35.2775 115.861 33.2866 115.047C32.2861 114.638 30.2425 113.563 29.9388 113.318C29.6351 113.074 28.8235 112.411 28.8235 111.957C27.7083 111.957 27.1184 117.902 27.1184 118.904C27.1184 120.05 27.3042 120.949 28.129 121.63C28.9533 122.312 30.0555 122.891 31.2842 123.393C33.7516 124.401 37.1817 125.279 41.2469 126.007C49.412 127.469 60.5912 127.717 72.876 127.717H77.337C89.6218 127.717 100.801 127.469 108.966 126.007C113.031 125.279 116.461 124.401 118.929 123.393C120.158 122.891 121.26 122.312 122.084 121.63C122.909 120.949 123.095 120.05 123.095 118.904Z" fill="url(#paint6_linear_301_1352)" style="mix-blend-mode:multiply"/>
</g>
<path d="M74.7091 9.2626C74.8239 8.88401 75.3599 8.88401 75.4747 9.2626L79.2925 21.855C79.3704 22.1119 79.1781 22.3711 78.9097 22.3711H71.2742C71.0057 22.3711 70.8135 22.1119 70.8914 21.855L74.7091 9.2626Z" fill="#FCD44F"/>
<mask id="mask1_301_1352" style="mask-type:alpha" maskUnits="userSpaceOnUse" x="63" y="20" width="24" height="14">
<path d="M63.6222 30.3471C62.0953 32.7352 72.2226 33.2718 75.1065 33.2718C77.9904 33.2718 88.1177 32.7352 86.5908 30.3471C84.885 27.6792 80.2923 23.7231 79.1471 20.2687C79.1067 20.1467 78.9664 20.09 78.8526 20.1498C78.2911 20.4452 77.6744 20.6391 75.1065 20.6391C72.5386 20.6391 71.9219 20.4452 71.3604 20.1498C71.2466 20.09 71.1063 20.1467 71.0659 20.2687C69.9207 23.7231 65.3281 27.6792 63.6222 30.3471Z" fill="url(#paint7_linear_301_1352)"/>
</mask>
<g mask="url(#mask1_301_1352)">
<path d="M63.6222 30.3471C62.0953 32.7352 72.2226 33.2718 75.1065 33.2718C77.9904 33.2718 88.1177 32.7352 86.5908 30.3471C84.885 27.6792 80.2923 23.7231 79.1471 20.2687C79.1067 20.1467 78.9664 20.09 78.8526 20.1498C78.2911 20.4452 77.6744 20.6391 75.1065 20.6391C72.5386 20.6391 71.9219 20.4452 71.3604 20.1498C71.2466 20.09 71.1063 20.1467 71.0659 20.2687C69.9207 23.7231 65.3281 27.6792 63.6222 30.3471Z" fill="#8AC44B"/>
</g>
<ellipse rx="7.10467" ry="4.46002" transform="matrix(1 0 0.000695188 -1 42.6248 74.5241)" fill="#FFCDCD"/>
<ellipse rx="7.10467" ry="4.46002" transform="matrix(1 0 0.000705583 -1 107.588 74.5241)" fill="#FFCDCD"/>
</g>
<defs>
<filter id="filter0_i_301_1352" x="115.598" y="59.6689" width="34.4019" height="40.6162" filterUnits="userSpaceOnUse" color-interpolation-filters="sRGB">
<feFlood flood-opacity="0" result="BackgroundImageFix"/>
<feBlend mode="normal" in="SourceGraphic" in2="BackgroundImageFix" result="shape"/>
<feColorMatrix in="SourceAlpha" type="matrix" values="0 0 0 0 0 0 0 0 0 0 0 0 0 0 0 0 0 0 127 0" result="hardAlpha"/>
<feOffset dy="4"/>
<feGaussianBlur stdDeviation="7"/>
<feComposite in2="hardAlpha" operator="arithmetic" k2="-1" k3="1"/>
<feColorMatrix type="matrix" values="0 0 0 0 0 0 0 0 0 0.3895 0 0 0 0 0.475 0 0 0 0.3 0"/>
<feBlend mode="multiply" in2="shape" result="effect1_innerShadow_301_1352"/>
</filter>
<filter id="filter1_i_301_1352" x="-1.33514e-05" y="76.3538" width="34.4019" height="40.6162" filterUnits="userSpaceOnUse" color-interpolation-filters="sRGB">
<feFlood flood-opacity="0" result="BackgroundImageFix"/>
<feBlend mode="normal" in="SourceGraphic" in2="BackgroundImageFix" result="shape"/>
<feColorMatrix in="SourceAlpha" type="matrix" values="0 0 0 0 0 0 0 0 0 0 0 0 0 0 0 0 0 0 127 0" result="hardAlpha"/>
<feOffset dy="4"/>
<feGaussianBlur stdDeviation="7"/>
<feComposite in2="hardAlpha" operator="arithmetic" k2="-1" k3="1"/>
<feColorMatrix type="matrix" values="0 0 0 0 0 0 0 0 0 0.3895 0 0 0 0 0.475 0 0 0 0.3 0"/>
<feBlend mode="multiply" in2="shape" result="effect1_innerShadow_301_1352"/>
</filter>
<filter id="filter2_i_301_1352" x="24.3588" y="22.8867" width="101.495" height="108.83" filterUnits="userSpaceOnUse" color-interpolation-filters="sRGB">
<feFlood flood-opacity="0" result="BackgroundImageFix"/>
<feBlend mode="normal" in="SourceGraphic" in2="BackgroundImageFix" result="shape"/>
<feColorMatrix in="SourceAlpha" type="matrix" values="0 0 0 0 0 0 0 0 0 0 0 0 0 0 0 0 0 0 127 0" result="hardAlpha"/>
<feOffset dy="4"/>
<feGaussianBlur stdDeviation="7"/>
<feComposite in2="hardAlpha" operator="arithmetic" k2="-1" k3="1"/>
<feColorMatrix type="matrix" values="0 0 0 0 0 0 0 0 0 0.3895 0 0 0 0 0.475 0 0 0 0.3 0"/>
<feBlend mode="multiply" in2="shape" result="effect1_innerShadow_301_1352"/>
</filter>
<filter id="filter3_i_301_1352" x="21.262" y="119.837" width="107.689" height="28.3086" filterUnits="userSpaceOnUse" color-interpolation-filters="sRGB">
<feFlood flood-opacity="0" result="BackgroundImageFix"/>
<feBlend mode="normal" in="SourceGraphic" in2="BackgroundImageFix" result="shape"/>
<feColorMatrix in="SourceAlpha" type="matrix" values="0 0 0 0 0 0 0 0 0 0 0 0 0 0 0 0 0 0 127 0" result="hardAlpha"/>
<feOffset dy="4"/>
<feGaussianBlur stdDeviation="4"/>
<feComposite in2="hardAlpha" operator="arithmetic" k2="-1" k3="1"/>
<feColorMatrix type="matrix" values="0 0 0 0 0.475 0 0 0 0 0.0855 0 0 0 0 0 0 0 0 0.08 0"/>
<feBlend mode="multiply" in2="shape" result="effect1_innerShadow_301_1352"/>
</filter>
<linearGradient id="paint0_linear_301_1352" x1="36.5383" y1="137.846" x2="75.1065" y2="137.846" gradientUnits="userSpaceOnUse">
<stop stop-color="#69A042"/>
<stop offset="0.723958" stop-color="#8AC44B" stop-opacity="0"/>
</linearGradient>
<linearGradient id="paint1_linear_301_1352" x1="113.675" y1="137.846" x2="75.1065" y2="137.846" gradientUnits="userSpaceOnUse">
<stop stop-color="#69A042"/>
<stop offset="0.723958" stop-color="#8AC44B" stop-opacity="0"/>
</linearGradient>
<linearGradient id="paint2_linear_301_1352" x1="89.7631" y1="65.3488" x2="89.7655" y2="62.1862" gradientUnits="userSpaceOnUse">
<stop stop-color="#242020"/>
<stop offset="1" stop-color="#7C5D5D"/>
</linearGradient>
<linearGradient id="paint3_linear_301_1352" x1="4.62212" y1="3.06341" x2="4.62451" y2="-0.0992502" gradientUnits="userSpaceOnUse">
<stop stop-color="#242020"/>
<stop offset="1" stop-color="#7C5D5D"/>
</linearGradient>
<linearGradient id="paint4_linear_301_1352" x1="75.4111" y1="83.8545" x2="75.4151" y2="74.2216" gradientUnits="userSpaceOnUse">
<stop stop-color="#242020"/>
<stop offset="1" stop-color="#7C5D5D"/>
</linearGradient>
<linearGradient id="paint5_linear_301_1352" x1="123.095" y1="119.837" x2="75.1066" y2="119.837" gradientUnits="userSpaceOnUse">
<stop stop-color="#791600"/>
<stop offset="0.0001" stop-color="#791600" stop-opacity="0.7"/>
<stop offset="0.723958" stop-color="#791600" stop-opacity="0"/>
</linearGradient>
<linearGradient id="paint6_linear_301_1352" x1="27.1184" y1="119.837" x2="75.1065" y2="119.837" gradientUnits="userSpaceOnUse">
<stop stop-color="#791600"/>
<stop offset="0.0001" stop-color="#791600" stop-opacity="0.7"/>
<stop offset="0.723958" stop-color="#791600" stop-opacity="0"/>
</linearGradient>
<linearGradient id="paint7_linear_301_1352" x1="75.1065" y1="24.8083" x2="75.1065" y2="31.1144" gradientUnits="userSpaceOnUse">
<stop/>
<stop offset="1" stop-opacity="0"/>
</linearGradient>
<clipPath id="clip0_301_1352">
<rect width="150" height="150" fill="white"/>
</clipPath>
</defs>
</svg>
