<svg width="150" height="150" viewBox="0 0 150 150" fill="none" xmlns="http://www.w3.org/2000/svg">
<path d="M29 127C37.7941 150 37.7941 150 75 150C112.206 150 112.206 150 121 127H29Z" fill="#0C4E42"/>
<path style="mix-blend-mode:multiply" opacity="0.8" d="M29 127C37.7941 150 37.7941 150 75 150C112.206 150 112.206 150 121 127H29Z" fill="url(#paint0_linear_20_508)"/>
<path style="mix-blend-mode:multiply" opacity="0.8" d="M121 127C112.206 150 112.206 150 75 150C37.7941 150 37.7941 150 29 127H121Z" fill="url(#paint1_linear_20_508)"/>
<g filter="url(#filter0_i_20_508)">
<path d="M138.297 79.3669C127.124 79.3669 118.512 76.451 113.856 81.1165L127.24 91.6139C148.772 92.1971 149.936 89.2186 149.936 82.2829C149.936 78.2006 151.099 65.9536 143.534 65.9536C137.482 65.9536 137.521 74.7014 138.297 79.3669Z" fill="#48B8AC"/>
<path fill-rule="evenodd" clip-rule="evenodd" d="M149.985 77.0342H138.016C137.647 72.273 138.39 65.9536 143.534 65.9536C148.858 65.9536 149.859 72.0178 149.985 77.0342Z" fill="#783294"/>
<path d="M11.7029 91.0307C22.8759 91.0307 31.4884 93.9466 36.1438 89.2811L22.7595 78.7837C1.22829 78.2005 0.0644341 81.1789 0.0644341 88.1147C0.0644341 92.197 -1.09941 104.444 6.46561 104.444C12.5176 104.444 12.4788 95.6962 11.7029 91.0307Z" fill="#48B8AC"/>
<path fill-rule="evenodd" clip-rule="evenodd" d="M0.0152445 93.3634H11.9843C12.3533 98.1246 11.6095 104.444 6.4656 104.444C1.14227 104.444 0.141136 98.3798 0.0152445 93.3634Z" fill="#783294"/>
</g>
<g filter="url(#filter1_i_20_508)">
<path fill-rule="evenodd" clip-rule="evenodd" d="M73.7335 139.999C67.7901 139.978 61.9403 139.806 56.424 139.444L57.5118 127.57L54.4208 139.303C48.0388 138.823 42.1574 138.074 37.1656 136.993L39.9918 126.382L35.2348 136.548C30.5684 135.399 26.8102 133.922 24.3289 132.057C23.3375 131.311 23.4899 129.893 24.4561 129.116C28.1499 126.143 32.5732 121.614 32.5732 112.083C27.4306 108.365 17.8065 97.1335 20.4513 81.9605C23.7573 62.9941 34.2262 50.7218 51.8581 37.3338C69.49 23.9458 73.9 16.1362 67.85 10C81.1389 10 83.6286 14.8711 87.3129 22.0794C89.5643 26.4842 92.2617 31.7617 98.1419 37.3338C115.774 50.7218 126.243 62.9941 129.549 81.9605C132.193 97.1335 122.569 108.365 117.427 112.083C117.427 121.614 121.85 126.143 125.544 129.116C126.51 129.893 126.662 131.311 125.671 132.057C123.12 133.974 119.22 135.482 114.37 136.644L109.568 126.382L112.418 137.082C107.403 138.139 101.519 138.869 95.1477 139.335L92.0483 127.57L93.1388 139.472C87.6172 139.823 81.7701 139.986 75.8356 140L74.7845 127.383L73.7335 139.999Z" fill="#48B8AC"/>
</g>
<g style="mix-blend-mode:multiply">
<path d="M81.8025 84.174C81.8025 87.2867 78.5979 88.7853 74.6448 88.7853C70.6917 88.7853 67.4871 87.2867 67.4871 84.174C67.4871 81.0612 70.6917 78.5378 74.6448 78.5378C78.5979 78.5378 81.8025 81.0612 81.8025 84.174Z" fill="url(#paint2_linear_20_508)"/>
</g>
<g style="mix-blend-mode:multiply">
<path d="M47.0364 64.3924C45.3422 67.3332 45.9922 70.8879 48.4881 72.332C50.984 73.7762 54.3808 72.5629 56.075 69.6221C57.7692 66.6813 57.1192 63.1266 54.6233 61.6825C52.1274 60.2383 48.7306 61.4516 47.0364 64.3924Z" fill="url(#paint3_linear_20_508)"/>
</g>
<g style="mix-blend-mode:multiply">
<path d="M102.212 64.3924C103.906 67.3332 103.256 70.8879 100.76 72.332C98.2641 73.7762 94.8674 72.5629 93.1732 69.6221C91.479 66.6813 92.1289 63.1266 94.6249 61.6825C97.1208 60.2383 100.518 61.4516 102.212 64.3924Z" fill="url(#paint4_linear_20_508)"/>
</g>
<g style="mix-blend-mode:multiply">
<path fill-rule="evenodd" clip-rule="evenodd" d="M65.456 120.897L69.5461 96.3026L71.5633 96.6395L67.4732 121.233L65.456 120.897Z" fill="#CCCCCC"/>
<path fill-rule="evenodd" clip-rule="evenodd" d="M83.8337 120.897L79.7436 96.3026L77.7263 96.6395L81.8165 121.233L83.8337 120.897Z" fill="#CCCCCC"/>
<path fill-rule="evenodd" clip-rule="evenodd" d="M39.0395 59.1461C34.4598 67.0955 36.0966 77.2403 43.5379 81.5458C50.9791 85.8513 60.5641 82.1995 65.1437 74.2501C69.7234 66.3007 68.0866 56.1559 60.6454 51.8504C53.2042 47.5449 43.6192 51.1967 39.0395 59.1461ZM44.5604 79.7709C38.33 76.166 36.6512 67.3907 40.8106 60.1709C44.97 52.951 53.3925 50.0204 59.6228 53.6253C65.8532 57.2302 67.532 66.0054 63.3726 73.2253C59.2133 80.4452 50.7907 83.3758 44.5604 79.7709Z" fill="#CCCCCC"/>
<path fill-rule="evenodd" clip-rule="evenodd" d="M110.209 59.1461C114.788 67.0955 113.152 77.2403 105.71 81.5458C98.2692 85.8513 88.6842 82.1995 84.1045 74.2501C79.5249 66.3007 81.1617 56.1559 88.6029 51.8504C96.0441 47.5449 105.629 51.1967 110.209 59.1461ZM104.688 79.7709C110.918 76.166 112.597 67.3907 108.438 60.1709C104.278 52.951 95.8558 50.0204 89.6254 53.6253C83.3951 57.2302 81.7162 66.0054 85.8756 73.2253C90.035 80.4452 98.4575 83.3758 104.688 79.7709Z" fill="#CCCCCC"/>
<path fill-rule="evenodd" clip-rule="evenodd" d="M71.5637 55.3441C73.1184 59.5438 73.6223 64.9774 73.6223 72.3894H75.6674C75.6674 64.9425 75.1707 59.1956 73.4811 54.6313C71.7682 50.0041 68.8534 46.652 64.1802 43.948C58.5334 40.6808 52.2187 40.9268 46.4735 43.5231C40.7438 46.1123 35.539 51.048 31.9538 57.2712C28.3574 63.5139 27.2616 69.7631 28.5106 75.3003C29.7617 80.8464 33.3403 85.5628 38.8685 88.7614C46.2393 93.0262 54.527 92.6955 61.3926 88.2835L60.2887 86.5582C54.0591 90.5615 46.5916 90.8635 39.891 86.9865C34.8033 84.0427 31.6176 79.7792 30.5053 74.8483C29.391 69.9085 30.333 64.1837 33.7249 58.296C37.1281 52.3887 42.0301 47.7792 47.3141 45.3914C52.5826 43.0106 58.1885 42.8478 63.1576 45.723C67.4593 48.2119 70.0324 51.2073 71.5637 55.3441Z" fill="#CCCCCC"/>
<path fill-rule="evenodd" clip-rule="evenodd" d="M77.6845 55.3441C76.1299 59.5438 75.626 64.9774 75.626 72.3894H73.5809C73.5809 64.9425 74.0775 59.1956 75.7671 54.6313C77.48 50.0041 80.3949 46.652 85.0681 43.948C90.7148 40.6808 97.0295 40.9268 102.775 43.5231C108.504 46.1123 113.709 51.048 117.294 57.2712C120.891 63.5139 121.987 69.7631 120.738 75.3003C119.487 80.8464 115.908 85.5628 110.38 88.7614C103.009 93.0262 94.7213 92.6955 87.8557 88.2835L88.9596 86.5582C95.1891 90.5615 102.657 90.8635 109.357 86.9865C114.445 84.0427 117.631 79.7792 118.743 74.8483C119.857 69.9085 118.915 64.1837 115.523 58.296C112.12 52.3887 107.218 47.7792 101.934 45.3914C96.6656 43.0106 91.0597 42.8478 86.0906 45.723C81.789 48.2119 79.2159 51.2073 77.6845 55.3441Z" fill="#CCCCCC"/>
<path fill-rule="evenodd" clip-rule="evenodd" d="M74.6448 95.9587C82.3318 95.9587 87.9377 91.1601 87.9377 84.6864C87.9377 78.2127 82.3318 73.4142 74.6448 73.4142C66.9578 73.4142 61.3519 78.2127 61.3519 84.6864C61.3519 91.1601 66.9578 95.9587 74.6448 95.9587ZM74.6448 98.0082C83.1158 98.0082 89.9828 92.6098 89.9828 84.6864C89.9828 76.7631 83.1158 71.3647 74.6448 71.3647C66.1739 71.3647 59.3069 76.7631 59.3069 84.6864C59.3069 92.6098 66.1739 98.0082 74.6448 98.0082Z" fill="#CCCCCC"/>
</g>
<path d="M30.4714 117.341C30.4714 116.351 31.4869 112.371 32.5024 112.371C32.5024 112.82 33.2414 113.475 33.5179 113.717C33.7944 113.958 35.6552 115.021 36.5661 115.425C38.379 116.229 41.13 117.02 44.6872 117.711C51.7701 119.087 61.6466 119.995 72.6138 119.995H74.6448V126.759H72.6138C61.4281 126.759 51.2489 125.836 43.8144 124.391C40.1128 123.672 36.9896 122.804 34.743 121.807C33.6242 121.311 32.6206 120.738 31.87 120.065C31.119 119.391 30.4714 118.474 30.4714 117.341Z" fill="#783294"/>
<path d="M118.818 117.341C118.818 116.351 117.803 112.371 116.787 112.371C116.787 112.82 116.048 113.475 115.772 113.717C115.495 113.958 113.634 115.021 112.723 115.425C110.911 116.229 108.16 117.02 104.602 117.711C97.5195 119.087 87.643 119.995 76.6758 119.995H74.6448V126.759H76.6758C87.8615 126.759 98.0407 125.836 105.475 124.391C109.177 123.672 112.3 122.804 114.547 121.807C115.665 121.311 116.669 120.738 117.42 120.065C118.171 119.391 118.818 118.474 118.818 117.341Z" fill="#783294"/>
<g opacity="0.7">
<path d="M30.4714 117.341C30.4714 116.351 31.4869 112.371 32.5024 112.371C32.5024 112.82 33.2414 113.475 33.5179 113.717C33.7944 113.958 35.6552 115.021 36.5661 115.425C38.379 116.229 41.13 117.02 44.6872 117.711C51.7701 119.087 61.6466 119.995 72.6138 119.995H74.6448V126.759H72.6138C61.4281 126.759 51.2489 125.836 43.8144 124.391C40.1128 123.672 36.9896 122.804 34.743 121.807C33.6242 121.311 32.6206 120.738 31.87 120.065C31.119 119.391 30.4714 118.474 30.4714 117.341Z" fill="url(#paint5_linear_20_508)" style="mix-blend-mode:multiply"/>
<path d="M118.818 117.341C118.818 116.351 117.803 112.371 116.787 112.371C116.787 112.82 116.048 113.475 115.772 113.717C115.495 113.958 113.634 115.021 112.723 115.425C110.911 116.229 108.16 117.02 104.602 117.711C97.5195 119.087 87.643 119.995 76.6758 119.995H74.6448V126.759H76.6758C87.8615 126.759 98.0407 125.836 105.475 124.391C109.177 123.672 112.3 122.804 114.547 121.807C115.665 121.311 116.669 120.738 117.42 120.065C118.171 119.391 118.818 118.474 118.818 117.341Z" fill="url(#paint6_linear_20_508)" style="mix-blend-mode:multiply"/>
</g>
<g opacity="0.7">
<path d="M118.818 117.341C118.818 116.351 117.803 112.371 116.787 112.371C116.787 112.82 116.048 113.475 115.772 113.717C115.495 113.958 113.635 115.021 112.724 115.425C110.911 116.229 108.16 117.02 104.602 117.711C97.5196 119.087 87.643 119.995 76.6758 119.995H74.6449V126.759H76.6758C87.8616 126.759 98.0408 125.836 105.475 124.391C109.177 123.672 112.3 122.804 114.547 121.807C115.665 121.311 116.669 120.738 117.42 120.065C118.171 119.391 118.818 118.474 118.818 117.341Z" fill="url(#paint7_linear_20_508)" style="mix-blend-mode:multiply"/>
<path d="M30.4715 117.341C30.4715 116.351 31.487 112.371 32.5025 112.371C32.5025 112.82 33.2414 113.475 33.5179 113.717C33.7944 113.958 35.6552 115.021 36.5662 115.425C38.3791 116.229 41.13 117.02 44.6872 117.711C51.7702 119.087 61.6467 119.995 72.6139 119.995H74.6449V126.759H72.6139C61.4282 126.759 51.249 125.836 43.8144 124.391C40.1129 123.672 36.9896 122.804 34.743 121.807C33.6242 121.311 32.6206 120.738 31.8701 120.065C31.119 119.391 30.4715 118.474 30.4715 117.341Z" fill="url(#paint8_linear_20_508)" style="mix-blend-mode:multiply"/>
</g>
<defs>
<filter id="filter0_i_20_508" x="0" y="65.9536" width="150" height="42.4904" filterUnits="userSpaceOnUse" color-interpolation-filters="sRGB">
<feFlood flood-opacity="0" result="BackgroundImageFix"/>
<feBlend mode="normal" in="SourceGraphic" in2="BackgroundImageFix" result="shape"/>
<feColorMatrix in="SourceAlpha" type="matrix" values="0 0 0 0 0 0 0 0 0 0 0 0 0 0 0 0 0 0 127 0" result="hardAlpha"/>
<feOffset dy="4"/>
<feGaussianBlur stdDeviation="7"/>
<feComposite in2="hardAlpha" operator="arithmetic" k2="-1" k3="1"/>
<feColorMatrix type="matrix" values="0 0 0 0 0 0 0 0 0 0.3895 0 0 0 0 0.475 0 0 0 0.3 0"/>
<feBlend mode="multiply" in2="shape" result="effect1_innerShadow_20_508"/>
</filter>
<filter id="filter1_i_20_508" x="20" y="10" width="110" height="134" filterUnits="userSpaceOnUse" color-interpolation-filters="sRGB">
<feFlood flood-opacity="0" result="BackgroundImageFix"/>
<feBlend mode="normal" in="SourceGraphic" in2="BackgroundImageFix" result="shape"/>
<feColorMatrix in="SourceAlpha" type="matrix" values="0 0 0 0 0 0 0 0 0 0 0 0 0 0 0 0 0 0 127 0" result="hardAlpha"/>
<feOffset dy="4"/>
<feGaussianBlur stdDeviation="7"/>
<feComposite in2="hardAlpha" operator="arithmetic" k2="-1" k3="1"/>
<feColorMatrix type="matrix" values="0 0 0 0 0 0 0 0 0 0.3895 0 0 0 0 0.475 0 0 0 0.3 0"/>
<feBlend mode="multiply" in2="shape" result="effect1_innerShadow_20_508"/>
</filter>
<linearGradient id="paint0_linear_20_508" x1="29" y1="138.5" x2="75" y2="138.5" gradientUnits="userSpaceOnUse">
<stop stop-color="#006379"/>
<stop offset="0.0001" stop-color="#006379" stop-opacity="0.7"/>
<stop offset="0.723958" stop-color="#006379" stop-opacity="0"/>
</linearGradient>
<linearGradient id="paint1_linear_20_508" x1="121" y1="138.5" x2="75" y2="138.5" gradientUnits="userSpaceOnUse">
<stop stop-color="#006379"/>
<stop offset="0.0001" stop-color="#006379" stop-opacity="0.7"/>
<stop offset="0.723958" stop-color="#006379" stop-opacity="0"/>
</linearGradient>
<linearGradient id="paint2_linear_20_508" x1="74.7307" y1="88.8691" x2="74.748" y2="78.2031" gradientUnits="userSpaceOnUse">
<stop stop-color="#242020"/>
<stop offset="1" stop-color="#7C5D5D"/>
</linearGradient>
<linearGradient id="paint3_linear_20_508" x1="48.3837" y1="72.3877" x2="54.7606" y2="61.2982" gradientUnits="userSpaceOnUse">
<stop stop-color="#242020"/>
<stop offset="1" stop-color="#7C5D5D"/>
</linearGradient>
<linearGradient id="paint4_linear_20_508" x1="100.864" y1="72.3877" x2="94.4875" y2="61.2982" gradientUnits="userSpaceOnUse">
<stop stop-color="#242020"/>
<stop offset="1" stop-color="#7C5D5D"/>
</linearGradient>
<linearGradient id="paint5_linear_20_508" x1="30.4714" y1="119.565" x2="74.6448" y2="119.565" gradientUnits="userSpaceOnUse">
<stop stop-color="#006379"/>
<stop offset="0.0001" stop-color="#006379" stop-opacity="0.7"/>
<stop offset="0.723958" stop-color="#006379" stop-opacity="0"/>
</linearGradient>
<linearGradient id="paint6_linear_20_508" x1="30.4714" y1="119.565" x2="74.6448" y2="119.565" gradientUnits="userSpaceOnUse">
<stop stop-color="#006379"/>
<stop offset="0.0001" stop-color="#006379" stop-opacity="0.7"/>
<stop offset="0.723958" stop-color="#006379" stop-opacity="0"/>
</linearGradient>
<linearGradient id="paint7_linear_20_508" x1="118.818" y1="119.565" x2="74.6449" y2="119.565" gradientUnits="userSpaceOnUse">
<stop stop-color="#006379"/>
<stop offset="0.0001" stop-color="#006379" stop-opacity="0.7"/>
<stop offset="0.723958" stop-color="#006379" stop-opacity="0"/>
</linearGradient>
<linearGradient id="paint8_linear_20_508" x1="118.818" y1="119.565" x2="74.6449" y2="119.565" gradientUnits="userSpaceOnUse">
<stop stop-color="#006379"/>
<stop offset="0.0001" stop-color="#006379" stop-opacity="0.7"/>
<stop offset="0.723958" stop-color="#006379" stop-opacity="0"/>
</linearGradient>
</defs>
</svg>
