<svg width="119" height="78" viewBox="0 0 119 78" fill="none" xmlns="http://www.w3.org/2000/svg">
<path d="M4.46493 34.4645C2.51231 36.4171 2.51231 39.5829 4.46493 41.5355L36.2847 73.3553C38.2373 75.308 41.4032 75.308 43.3558 73.3553C45.3084 71.4027 45.3084 68.2369 43.3558 66.2843L15.0715 38L43.3558 9.71573C45.3084 7.76311 45.3084 4.59729 43.3558 2.64466C41.4032 0.692042 38.2374 0.692042 36.2847 2.64466L4.46493 34.4645ZM9.00293 33L8.00046 33L8.00046 43L9.00293 43L9.00293 33Z" fill="black"/>
<path d="M113.538 41.5355C115.491 39.5829 115.491 36.4171 113.538 34.4645L81.7182 2.64466C79.7656 0.692039 76.5998 0.692039 74.6471 2.64466C72.6945 4.59728 72.6945 7.76311 74.6471 9.71573L102.931 38L74.6471 66.2843C72.6945 68.2369 72.6945 71.4027 74.6471 73.3553C76.5998 75.308 79.7656 75.308 81.7182 73.3553L113.538 41.5355ZM109 43H110.002V33H109V43Z" fill="black"/>
</svg>
