<svg width="145" height="146" viewBox="0 0 145 146" fill="none" xmlns="http://www.w3.org/2000/svg">
<path d="M32.625 6.84375C33.2292 6.84375 33.8334 6.84375 34.4375 6.84375C37.5641 8.18208 38.2438 9.09458 38.2287 11.604C38.2136 13.4746 38.1532 15.3908 38.4703 17.2158C39.7844 24.8656 44.1042 33.7473 54.9641 34.2796C66.0657 34.8271 77.137 35.1313 88.2084 34.1731C91.4256 33.8994 94.7787 33.5952 97.3313 31.2075C102.557 26.2952 105.034 20.1358 104.914 12.9727C104.823 8.9425 105.11 8.28854 108.75 6.84375C109.354 6.84375 109.958 6.84375 110.563 6.84375C115.215 7.93875 117.616 11.1477 118.749 15.6038C118.885 16.1208 119.263 16.7292 119.716 16.9725C122.208 18.3413 123.371 20.5313 123.975 23.2079C124.126 23.8771 124.73 24.6375 125.35 24.9721C128.038 26.4473 129.654 28.6069 129.428 31.6942C129.292 33.5192 128.929 35.5115 128.038 37.0627C126.029 40.5758 123.658 43.876 121.362 47.2219C120.426 48.5906 119.308 49.8529 118.251 51.2217C123.31 55.6625 127.298 60.7421 130.047 66.7038C134.276 75.8592 135.439 85.6077 134.729 95.5387C133.959 106.321 128.28 113.682 118.205 117.576C112.315 119.857 106.213 121.226 99.9896 122.123C98.6 122.321 98.2526 122.838 98.5698 124.13C98.9323 125.606 99.2042 127.096 99.461 128.586C100.503 134.411 98.9172 137.27 93.5552 139.324C92.1052 139.324 90.6552 139.324 89.2052 139.324C88.9787 139.247 88.7521 139.126 88.5256 139.095C84.4021 138.578 80.5203 137.453 77.137 134.913C76.9558 134.776 76.699 134.594 76.5026 134.624C72.8323 135.263 68.8146 133.56 65.4615 136.419C64.7667 137.027 63.7698 137.362 62.8485 137.605C60.5375 138.244 58.1964 138.761 55.8552 139.324C54.4052 139.324 52.9552 139.324 51.5052 139.324C48.7261 138.472 46.2792 137.149 45.6901 134.016C45.373 132.328 45.4032 130.518 45.5844 128.799C45.7808 126.777 46.3094 124.784 46.7172 122.61C45.8261 122.442 45.1313 122.29 44.4365 122.184C38.1683 121.195 32.0058 119.857 26.1151 117.424C19.4844 114.686 14.2282 110.443 11.736 103.462C10.8297 100.923 10.437 98.185 9.81775 95.5387C9.81775 92.8621 9.81775 90.1854 9.81775 87.5088C9.93858 86.6115 10.1047 85.7294 10.1954 84.8169C10.9959 76.3306 12.7329 68.1029 17.4756 60.8942C19.6808 57.5331 22.3391 54.4763 24.8313 51.2369C22.6865 48.3777 20.2547 45.4425 18.1401 42.2792C16.5844 39.9371 15.1344 37.4125 14.1677 34.7815C12.5516 30.371 14.1073 27.0404 18.2157 24.7896C18.7141 24.5158 19.0917 23.725 19.2125 23.1167C19.6959 20.516 20.9193 18.5085 23.1698 17.0942C23.6985 16.7596 24.212 16.1056 24.3782 15.4973C25.511 11.0413 27.973 7.87792 32.625 6.84375Z" fill="#390000"/>
<path d="M130.08 79.8438C131.651 90.3223 132.741 103.235 123.011 110.473C112.717 118.132 88.0143 120.146 71.9589 120.146C55.9035 120.146 31.9859 118.132 21.6922 110.473C11.9622 103.235 13.0526 91.1284 14.6235 79.8438C18.214 54.0504 40.7272 39.5417 71.9589 39.5417C103.191 39.5417 126.455 55.6625 130.08 79.8438Z" fill="#5B4028"/>
<mask id="mask0_34_544" style="mask-type:alpha" maskUnits="userSpaceOnUse" x="13" y="39" width="119" height="82">
<path d="M130.08 79.8438C131.651 90.3223 132.741 103.235 123.011 110.473C112.717 118.132 88.0143 120.146 71.9589 120.146C55.9035 120.146 31.9859 118.132 21.6922 110.473C11.9622 103.235 13.0526 91.1284 14.6235 79.8438C18.214 54.0504 40.7272 39.5417 71.9589 39.5417C103.191 39.5417 126.455 55.6625 130.08 79.8438Z" fill="#5B4028"/>
</mask>
<g mask="url(#mask0_34_544)">
<path d="M127.287 84.68C128.778 95.1585 129.813 108.071 120.579 115.31C110.809 122.968 87.3649 124.982 72.1274 124.982C56.8899 124.982 34.1907 122.968 24.4214 115.31C15.187 108.071 16.2219 95.9646 17.7127 84.68C21.1204 58.8867 42.4867 44.3779 72.1274 44.3779C101.768 44.3779 123.847 60.4988 127.287 84.68Z" fill="#E8E896"/>
<ellipse rx="13.4692" ry="17.4701" transform="matrix(0.810953 -0.585112 0.565161 0.824981 28.1067 98.913)" fill="#DF6653"/>
<ellipse rx="13.4692" ry="17.4701" transform="matrix(-0.810953 -0.585112 -0.565161 0.824981 117.644 98.913)" fill="#DF6653"/>
</g>
<path d="M24.9454 79.3898C24.3412 64.1814 33.2527 54.803 37.7839 52.0148C57.4193 44.4106 69.5027 61.9002 58.9297 79.3898C48.3568 96.8793 25.7006 98.4002 24.9454 79.3898Z" fill="#BEB394"/>
<path d="M27.9906 77.6234C27.4854 64.6826 34.9371 56.7024 38.726 54.33C55.1449 47.8596 65.2488 62.7415 56.4079 77.6234C47.567 92.5053 28.6221 93.7994 27.9906 77.6234Z" fill="white"/>
<ellipse rx="5.73819" ry="7.69663" transform="matrix(0.96569 0.259696 -0.256385 0.966575 44.5141 68.2421)" fill="#3F260F"/>
<path d="M118.705 79.3898C119.309 64.1814 110.398 54.803 105.866 52.0148C86.2311 44.4106 74.1477 61.9002 84.7207 79.3898C95.2936 96.8793 117.95 98.4002 118.705 79.3898Z" fill="#BEB394"/>
<path d="M115.66 77.6234C116.165 64.6826 108.713 56.7024 104.924 54.33C88.5055 47.8596 78.4016 62.7415 87.2425 77.6234C96.0834 92.5053 115.028 93.7994 115.66 77.6234Z" fill="white"/>
<ellipse rx="5.73819" ry="7.69663" transform="matrix(-0.96569 0.259696 0.256385 0.966575 97.6258 68.2421)" fill="#3F260F"/>
<path fill-rule="evenodd" clip-rule="evenodd" d="M71.5396 38.4961C60.913 38.4958 48.1285 38.4597 43.5909 34.3084C38.1874 29.3652 33.6729 21.7455 34.4358 10.8576C33.9272 10.5784 32.4523 10.3551 30.6212 11.6952C28.3325 13.3702 27.5696 18.3953 27.5696 19.2329C27.5696 19.496 27.193 19.5938 26.6527 19.7341C25.4737 20.0402 23.5153 20.5487 22.9921 23.4205C22.3817 26.7706 22.7377 28.1665 22.9921 28.4457C21.7205 27.8873 18.8723 27.4407 17.6516 30.1208C16.1258 33.4709 20.7033 40.1711 30.6212 51.8965C37.4875 51.8965 50.1519 63.6728 61.138 79.0833H71.2604H71.8189H81.9413C92.9273 63.6728 105.592 51.8965 112.458 51.8965C122.376 40.1711 126.953 33.4709 125.428 30.1208C124.207 27.4407 121.359 27.8873 120.087 28.4457C120.342 28.1665 120.698 26.7706 120.087 23.4205C119.564 20.5487 117.606 20.0402 116.427 19.7341C115.886 19.5938 115.51 19.496 115.51 19.2329C115.51 18.3953 114.747 13.3702 112.458 11.6952C110.627 10.3551 109.152 10.5784 108.643 10.8576C109.406 21.7455 104.892 29.3652 99.4884 34.3084C94.9507 38.4597 82.1663 38.4958 71.5396 38.4961Z" fill="url(#paint0_linear_34_544)"/>
<ellipse cx="64.4193" cy="65.0848" rx="3.02084" ry="3.11079" fill="#B68C5D"/>
<ellipse rx="3.62582" ry="3.78983" transform="matrix(-0.339059 0.940765 -0.934102 -0.357007 55.595 57.4056)" fill="#B68C5D"/>
<ellipse rx="3.84711" ry="4.11286" transform="matrix(-0.432295 0.901732 -0.891418 -0.453183 45.393 49.5247)" fill="#B68C5D"/>
<ellipse rx="4.64992" ry="5.01708" transform="matrix(-0.582625 0.812741 -0.796087 -0.605182 34.6401 40.452)" fill="#B68C5D"/>
<ellipse rx="3.02084" ry="3.11079" transform="matrix(-1 0 0 1 81.034 65.4251)" fill="#B68C5D"/>
<ellipse rx="3.62582" ry="3.78983" transform="matrix(0.339059 0.940765 0.934102 -0.357008 89.8583 57.7459)" fill="#B68C5D"/>
<ellipse rx="3.84711" ry="4.11286" transform="matrix(0.432296 0.901732 0.891418 -0.453183 100.06 49.8649)" fill="#B68C5D"/>
<ellipse rx="4.64992" ry="5.01708" transform="matrix(0.582625 0.812741 0.796087 -0.605182 110.813 40.7922)" fill="#B68C5D"/>
<path d="M92.8849 94.2917C92.8849 105.211 83.7557 112.542 72.4943 112.542C61.2328 112.542 52.1036 105.211 52.1036 94.2917C52.1036 83.3725 61.2328 73 72.4943 73C83.7557 73 92.8849 83.3725 92.8849 94.2917Z" fill="url(#paint1_linear_34_544)"/>
<path d="M90.3446 92.5567C76.0934 98.0371 62.3478 95.6468 54.6722 92.7985C53.8308 92.4863 53.0667 93.6076 53.6852 94.2813C68.5478 110.47 83.6231 102.122 91.2423 93.8678C91.8423 93.2177 91.1551 92.245 90.3446 92.5567Z" fill="#583A15"/>
<mask id="mask1_34_544" style="mask-type:alpha" maskUnits="userSpaceOnUse" x="53" y="91" width="40" height="13">
<path d="M92.211 91.808C76.6373 98.5311 61.3535 95.5211 53.8182 92.4612C53.3205 92.2591 52.8495 92.8814 53.2031 93.2858C69.2898 111.684 85.4798 101.397 92.8022 92.5467C93.1333 92.1465 92.6878 91.6021 92.211 91.808Z" fill="#583A15"/>
</mask>
<g mask="url(#mask1_34_544)">
<ellipse rx="10.7802" ry="8.06008" transform="matrix(0.999921 -0.0125497 0.0123784 0.999923 72.4707 92.3716)" fill="#9A4F01"/>
</g>
<ellipse rx="1.11601" ry="2.92614" transform="matrix(0.662514 -0.749049 0.696071 0.717973 79.5359 78.9785)" fill="#DAAB07"/>
<ellipse rx="1.11601" ry="2.92614" transform="matrix(-0.662515 -0.749049 -0.696072 0.717972 65.4528 78.9785)" fill="#DAAB07"/>
<path d="M51.7222 113.015C54.4415 110.853 64.1859 116.619 68.7182 119.771V128.555C65.9988 131.933 62.5996 134.635 54.4415 135.311C46.2834 135.987 49.6826 128.555 50.3625 123.825C50.7925 120.834 48.3229 115.718 51.7222 113.015Z" fill="#1F6543"/>
<path d="M63.8364 121.195C61.0517 119.348 55.3528 116.252 54.8341 118.641C54.1858 121.627 68.0133 123.966 63.8364 121.195Z" fill="#308C60"/>
<path d="M63.894 124.944C60.6228 125.595 54.4042 127.415 55.6994 129.483C57.3183 132.069 68.8008 123.967 63.894 124.944Z" fill="#308C60"/>
<path d="M93.2663 113.015C90.5469 110.853 80.8025 116.619 76.2702 119.771V128.555C78.9896 131.933 82.3888 134.635 90.5469 135.311C98.705 135.987 95.3058 128.555 94.6259 123.825C94.196 120.834 96.6655 115.718 93.2663 113.015Z" fill="#1F6543"/>
<path d="M81.1522 121.195C83.9368 119.348 89.6357 116.252 90.1544 118.641C90.8027 121.627 76.9752 123.966 81.1522 121.195Z" fill="#308C60"/>
<path d="M81.0944 124.944C84.3656 125.595 90.5842 127.415 89.289 129.483C87.6701 132.069 76.1876 123.967 81.0944 124.944Z" fill="#308C60"/>
<rect x="67.2078" y="118.625" width="10.5729" height="12.1667" rx="2" fill="#277650"/>
<defs>
<linearGradient id="paint0_linear_34_544" x1="71.5396" y1="10.6458" x2="71.5396" y2="79.0833" gradientUnits="userSpaceOnUse">
<stop stop-color="#5B4028"/>
<stop offset="1" stop-color="#412C19"/>
</linearGradient>
<linearGradient id="paint1_linear_34_544" x1="72.4943" y1="73" x2="72.4943" y2="112.542" gradientUnits="userSpaceOnUse">
<stop stop-color="#F9E045"/>
<stop offset="1" stop-color="#CEB726"/>
</linearGradient>
</defs>
</svg>
