<svg width="146" height="146" viewBox="0 0 146 146" fill="none" xmlns="http://www.w3.org/2000/svg">
<g clip-path="url(#clip0_34_211)">
<path fill-rule="evenodd" clip-rule="evenodd" d="M86.446 27.1183L83.7811 29.8302L66.8977 13.2394C61.8853 8.31398 53.4459 10.3427 51.2197 17.0081L43.7212 39.4597C43.3206 40.6593 42.3497 41.5811 41.1311 41.9191L18.3213 48.2452C11.5496 50.1233 9.08674 58.4464 13.7461 63.7071L29.4405 81.4268C30.2791 82.3735 30.592 83.6752 30.2753 84.8996L26.5943 83.9477L10.8999 66.228C4.37681 58.8631 7.82478 47.2108 17.3052 44.5814L40.1149 38.2553L40.115 38.2553L47.6135 15.8037C50.7301 6.47208 62.5453 3.63193 69.5625 10.5276L86.446 27.1183ZM104.72 103.702L105.736 107.366L128.546 101.04C138.026 98.4106 141.474 86.7582 134.951 79.3934L119.256 61.6737L125.183 38.7568C127.646 29.2319 119.279 20.4197 109.639 22.3864L86.446 27.1183L83.7811 29.8302C84.6832 30.7166 85.9669 31.0965 87.2061 30.8436L110.399 26.1117C117.285 24.7069 123.261 31.0014 121.502 37.8049L115.575 60.7218C115.259 61.9462 115.572 63.2479 116.41 64.1946L132.105 81.9143C136.764 87.1749 134.301 95.4981 127.529 97.3762L104.72 103.702ZM104.72 103.702C103.501 104.04 102.53 104.962 102.13 106.162L94.6311 128.613C92.4049 135.279 83.9655 137.307 78.9531 132.382L62.0697 115.791C61.1676 114.905 59.8839 114.525 58.6447 114.778L35.4518 119.51C28.5663 120.914 22.5897 114.62 24.349 107.816L30.2753 84.8996L26.5943 83.9477L20.6681 106.865C18.2049 116.39 26.5722 125.202 36.2118 123.235L59.4048 118.503L76.2883 135.094C83.3055 141.989 95.1208 139.149 98.2374 129.818L105.736 107.366L104.72 103.702Z" fill="#EEB000"/>
<path d="M51.2197 17.0082C53.4459 10.3427 61.8853 8.31406 66.8977 13.2395L83.7811 29.8303C84.6832 30.7167 85.9669 31.0965 87.2061 30.8437L110.399 26.1118C117.285 24.707 123.261 31.0014 121.502 37.805L115.575 60.7218C115.259 61.9463 115.572 63.248 116.41 64.1947L132.105 81.9144C136.764 87.175 134.301 95.4981 127.529 97.3762L104.72 103.702C103.501 104.04 102.53 104.962 102.13 106.162L94.6311 128.613C92.4049 135.279 83.9655 137.307 78.9531 132.382L62.0697 115.791C61.1676 114.905 59.8839 114.525 58.6447 114.778L35.4518 119.51C28.5663 120.915 22.5896 114.62 24.349 107.817L30.2753 84.8997C30.592 83.6753 30.2791 82.3736 29.4405 81.4269L13.7461 63.7071C9.08674 58.4465 11.5496 50.1234 18.3213 48.2453L41.1311 41.9192C42.3497 41.5812 43.3206 40.6593 43.7212 39.4598L51.2197 17.0082Z" fill="url(#paint0_radial_34_211)"/>
<path d="M79.0227 34.0045L62.4755 48.7166C59.1418 51.6807 58.7431 56.8228 62.0074 59.8631C76.1764 73.0598 89.1851 72.5467 96.9962 69.2038C100.115 67.869 101.112 64.2114 100.042 60.9918L92.2548 37.5481C90.3975 31.9567 83.4258 30.0896 79.0227 34.0045Z" fill="url(#paint1_linear_34_211)"/>
<path d="M67.6258 110.583L84.3805 96.1071C87.756 93.1908 88.2278 88.0548 85.007 84.9684C71.0272 71.5716 58.0124 71.8997 50.1546 75.1312C47.0169 76.4215 45.9684 80.0645 46.992 83.299L54.4454 106.851C56.223 112.468 63.1675 114.434 67.6258 110.583Z" fill="url(#paint2_linear_34_211)"/>
</g>
<defs>
<radialGradient id="paint0_radial_34_211" cx="0" cy="0" r="1" gradientUnits="userSpaceOnUse" gradientTransform="translate(72.9254 72.8108) rotate(76.4838) scale(63.8006 56.5381)">
<stop offset="0.478692" stop-color="#FFF24F"/>
<stop offset="1" stop-color="#F6C103"/>
</radialGradient>
<linearGradient id="paint1_linear_34_211" x1="83.8707" y1="77.8791" x2="86.7196" y2="34.2981" gradientUnits="userSpaceOnUse">
<stop offset="0.421397" stop-color="#FFEE19" stop-opacity="0.5"/>
<stop offset="0.931844" stop-color="#F4BF00"/>
</linearGradient>
<linearGradient id="paint2_linear_34_211" x1="63.4021" y1="66.6433" x2="59.9338" y2="110.179" gradientUnits="userSpaceOnUse">
<stop offset="0.421397" stop-color="#FFEE19" stop-opacity="0.5"/>
<stop offset="0.931844" stop-color="#F4BF00"/>
</linearGradient>
<clipPath id="clip0_34_211">
<rect width="146" height="146" fill="white"/>
</clipPath>
</defs>
</svg>
