<svg width="145" height="146" viewBox="0 0 145 146" fill="none" xmlns="http://www.w3.org/2000/svg">
<path fill-rule="evenodd" clip-rule="evenodd" d="M135.059 108.092L135.05 108.11C129.968 118.33 110.853 132.954 73.7124 132.954C28.4714 132.954 11.9064 119.135 7.22778 107.875C6.05771 105.059 5.44285 101.217 5.3128 96.9512C5.18058 92.6144 5.542 87.571 6.50768 82.2084C8.25009 72.5323 11.9989 61.6073 18.5938 51.7965C16.4304 49.8296 14.4319 47.2959 13.0813 44.4176C11.023 40.0311 10.3624 34.5326 13.4028 29.2011C16.8134 23.2206 20.903 18.8912 25.9312 16.2019C30.9543 13.5154 36.5708 12.6494 42.7224 13.0019C48.6622 13.3423 52.4217 16.9923 54.57 20.9579C55.8049 23.2373 56.5818 25.7254 57.0428 28.0371C63.6331 26.7538 69.6153 26.4122 73.7872 26.5739C78.4151 26.5769 82.6745 26.8646 86.5858 27.3791C87.1033 25.0566 87.9487 22.5785 89.2706 20.337C91.4707 16.6066 95.1586 13.3233 100.767 13.0019C106.919 12.6494 112.535 13.5154 117.558 16.2019C122.587 18.8912 126.676 23.2206 130.087 29.2011C132.964 34.2459 132.53 39.4595 130.715 43.731C129.487 46.6221 127.599 49.178 125.528 51.2005C141.842 77.362 139.318 99.3053 135.067 108.075L135.059 108.092ZM120.536 50.4471C125.736 46.7803 131.131 38.667 126.812 31.0944C120.512 20.0471 112.322 16.148 100.982 16.7979C94.5472 17.1666 91.5355 22.7878 90.3282 27.9574C90.0219 29.2691 89.8317 30.5518 89.7313 31.7122C88.5261 31.4962 87.28 31.3032 85.9919 31.1354C82.2585 30.6492 78.1728 30.3759 73.7124 30.3759C69.786 30.2171 63.9797 30.5415 57.5541 31.8104C56.3295 32.0522 55.0824 32.3283 53.8215 32.6419C53.766 31.5027 53.6197 30.2008 53.3521 28.8436C52.2892 23.4516 49.3125 17.1878 42.5078 16.7979C31.1676 16.148 22.9775 20.0471 16.6774 31.0944C12.9005 37.7172 16.5531 44.7537 21.0073 48.8674C21.9242 49.7142 22.875 50.4372 23.802 51.0072C23.034 52.0243 22.3007 53.0584 21.6011 54.1065C8.559 73.6456 7.22851 98.0253 10.7113 106.408C14.4913 115.505 28.9816 129.152 73.7124 129.152C110.057 129.152 127.473 114.856 131.673 106.408C135.396 98.7276 138.264 76.9291 120.536 50.4471Z" fill="#6F3700"/>
<path d="M100.982 16.7979C91.9096 17.3177 89.6416 28.2784 89.6416 33.6938C102.746 33.6938 114.002 45.8242 117.992 51.8895C123.662 49.5067 131.852 39.9323 126.812 31.0944C120.512 20.0471 112.322 16.148 100.982 16.7979Z" fill="url(#paint0_linear_34_275)"/>
<path d="M99.2087 25.8957C96.1847 29.5348 95.8487 35.2101 96.0587 37.5929L110.549 45.391C121.889 42.1418 121.259 34.9935 118.739 31.0945C116.219 27.1954 102.989 21.3468 99.2087 25.8957Z" fill="#FC888E"/>
<g style="mix-blend-mode:multiply" opacity="0.2">
<mask id="mask0_34_275" style="mask-type:alpha" maskUnits="userSpaceOnUse" x="89" y="16" width="40" height="36">
<path d="M100.982 16.7979C91.9096 17.3177 89.6416 28.2784 89.6416 33.6938C102.746 33.6938 114.002 45.8242 117.992 51.8895C123.662 49.5067 131.852 39.9323 126.812 31.0944C120.512 20.0471 112.322 16.148 100.982 16.7979Z" fill="#9A4F01"/>
</mask>
<g mask="url(#mask0_34_275)">
<path d="M125.365 46.3854C117.483 36.2537 107.086 30.7052 93.6458 30.4167C90.5947 30.3512 85.0427 30.6081 83.0729 31.9375C92.0828 35.6075 114.816 47.7018 120.296 62.1555C124.216 58.3037 129.278 51.4153 125.365 46.3854Z" fill="#7D4000"/>
</g>
</g>
<path d="M42.5077 16.7979C51.5799 17.3177 53.8479 28.2784 53.8479 33.6938C40.7437 33.6938 29.4875 45.8242 25.4974 51.8895C19.8273 49.5067 11.6372 39.9323 16.6773 31.0944C22.9774 20.0471 31.1675 16.148 42.5077 16.7979Z" fill="url(#paint1_linear_34_275)"/>
<path d="M44.2808 25.8957C47.3048 29.5348 47.6408 35.2101 47.4308 37.5929L32.9406 45.391C21.6004 42.1418 22.2304 34.9935 24.7504 31.0945C27.2705 27.1954 40.5007 21.3468 44.2808 25.8957Z" fill="#FC888E"/>
<g style="mix-blend-mode:multiply" opacity="0.2">
<mask id="mask1_34_275" style="mask-type:alpha" maskUnits="userSpaceOnUse" x="15" y="16" width="39" height="36">
<path d="M42.5077 16.7979C51.5799 17.3177 53.8479 28.2784 53.8479 33.6938C40.7437 33.6938 29.4875 45.8242 25.4974 51.8895C19.8273 49.5067 11.6372 39.9323 16.6773 31.0944C22.9774 20.0471 31.1675 16.148 42.5077 16.7979Z" fill="#9A4F01"/>
</mask>
<g mask="url(#mask1_34_275)">
<path d="M17.3697 49.4271C24.0517 37.8858 40.179 30.7053 53.6197 30.4167C56.6709 30.3512 56.1812 31.3685 58.151 32.6979C49.1411 36.3679 28.6731 47.7018 23.193 62.1555C19.2731 58.3037 14.1739 54.9469 17.3697 49.4271Z" fill="#7D4000"/>
</g>
</g>
<path d="M25.2015 49.2214C38.3057 33.1053 63.0022 29.9427 73.7123 30.3759C103.953 30.3759 116.973 42.9396 119.703 49.2214C138.351 76.2549 135.453 98.6095 131.673 106.408C127.473 114.856 110.057 129.152 73.7123 129.152C28.9815 129.152 14.4913 115.505 10.7112 106.408C6.93116 97.3098 8.82119 69.3665 25.2015 49.2214Z" fill="url(#paint2_linear_34_275)"/>
<ellipse cx="71.0138" cy="107.057" rx="22.6804" ry="16.2461" fill="url(#paint3_radial_34_275)"/>
<ellipse cx="70.9897" cy="101.896" rx="6.04167" ry="3.04167" fill="#41170E"/>
<path d="M29.2356 56.3696C39.9458 45.3222 50.0259 42.7229 72.7064 42.7228C97.9068 42.7228 110.927 51.8207 114.287 56.3696C132.557 81.0636 124.367 103.158 107.357 103.158C90.3467 103.158 87.8266 88.8617 72.7064 88.8617C57.5861 88.8617 58.2161 100.559 36.1657 103.158C14.1153 105.758 12.8553 73.2655 29.2356 56.3696Z" fill="#4E2219"/>
<g style="mix-blend-mode:multiply" opacity="0.1">
<mask id="mask2_34_275" style="mask-type:alpha" maskUnits="userSpaceOnUse" x="9" y="30" width="126" height="100">
<path d="M25.2015 49.2214C38.3057 33.1053 63.0022 29.9427 73.7123 30.3759C103.953 30.3759 116.973 42.9396 119.703 49.2214C138.351 76.2549 135.453 98.6095 131.673 106.408C127.473 114.856 110.057 129.152 73.7123 129.152C28.9815 129.152 14.4913 115.505 10.7112 106.408C6.93116 97.3098 8.82119 69.3665 25.2015 49.2214Z" fill="#B66919"/>
</mask>
<g mask="url(#mask2_34_275)">
<path d="M84.8042 112.308C27.2584 116.951 -13.2036 91.8677 -26.2415 78.7458C-11.5186 115.355 14.4844 149.479 87.5585 143.583C146.018 138.867 172.302 87.4007 178.137 62.2572C171.004 77.0064 142.35 107.666 84.8042 112.308Z" fill="#9E560A"/>
</g>
</g>
<path d="M53.864 82.6996C53.4529 90.6682 46.6112 97.5285 39.4608 97.1545C32.3103 96.7804 27.5588 89.3137 27.97 81.3451C28.3811 73.3765 34.5109 67.2199 41.6614 67.5939C48.8119 67.9679 54.2752 74.7309 53.864 82.6996Z" fill="#34140E"/>
<path d="M88.5385 82.6996C88.9497 90.6682 95.7914 97.5285 102.942 97.1545C110.092 96.7804 114.844 89.3137 114.433 81.3451C114.022 73.3765 107.892 67.2199 100.741 67.5939C93.5907 67.9679 88.1274 74.7309 88.5385 82.6996Z" fill="#34140E"/>
<ellipse cx="41.2981" cy="77.1646" rx="12.6002" ry="16.2461" fill="white"/>
<ellipse cx="41.2982" cy="77.8144" rx="7.56013" ry="10.3975" fill="#214DBE"/>
<path d="M41.2981 60.9185C34.3392 60.9185 28.6979 68.1922 28.6979 77.1646C28.6979 78.7437 28.8726 80.2701 29.1985 81.7135L51.7388 68.0668C49.4735 63.7535 45.6426 60.9185 41.2981 60.9185Z" fill="url(#paint4_linear_34_275)"/>
<ellipse rx="12.6002" ry="16.2461" transform="matrix(-1 0 0 1 101.35 77.1646)" fill="white"/>
<ellipse rx="7.56013" ry="10.3975" transform="matrix(-1 0 0 1 101.35 77.8144)" fill="#214DBE"/>
<path d="M101.35 60.9185C108.309 60.9185 113.951 68.1922 113.951 77.1646C113.951 78.7437 113.776 80.2701 113.45 81.7135L90.9097 68.0668C93.1751 63.7535 97.006 60.9185 101.35 60.9185Z" fill="url(#paint5_linear_34_275)"/>
<defs>
<linearGradient id="paint0_linear_34_275" x1="109.013" y1="16.7292" x2="109.013" y2="51.8895" gradientUnits="userSpaceOnUse">
<stop stop-color="#C87927"/>
<stop offset="1" stop-color="#9A4F01"/>
</linearGradient>
<linearGradient id="paint1_linear_34_275" x1="34.476" y1="16.7292" x2="34.476" y2="51.8895" gradientUnits="userSpaceOnUse">
<stop stop-color="#C87927"/>
<stop offset="1" stop-color="#9A4F01"/>
</linearGradient>
<linearGradient id="paint2_linear_34_275" x1="72.5" y1="30.4167" x2="71.7551" y2="129.152" gradientUnits="userSpaceOnUse">
<stop stop-color="#DB8935"/>
<stop offset="0.885417" stop-color="#B66919"/>
</linearGradient>
<radialGradient id="paint3_radial_34_275" cx="0" cy="0" r="1" gradientUnits="userSpaceOnUse" gradientTransform="translate(71.0138 107.057) rotate(90) scale(13.6467 18.5853)">
<stop offset="0.598958" stop-color="#4E2219"/>
<stop offset="0.838542" stop-color="#4E2219" stop-opacity="0"/>
</radialGradient>
<linearGradient id="paint4_linear_34_275" x1="40.2183" y1="60.9185" x2="40.2183" y2="81.7135" gradientUnits="userSpaceOnUse">
<stop stop-color="#DB8935"/>
<stop offset="1" stop-color="#AF6217"/>
</linearGradient>
<linearGradient id="paint5_linear_34_275" x1="102.43" y1="60.9185" x2="102.43" y2="81.7135" gradientUnits="userSpaceOnUse">
<stop stop-color="#DB8935"/>
<stop offset="1" stop-color="#AF6217"/>
</linearGradient>
</defs>
</svg>
