<svg width="145" height="146" viewBox="0 0 145 146" fill="none" xmlns="http://www.w3.org/2000/svg">
<path fill-rule="evenodd" clip-rule="evenodd" d="M72.6676 14.3724C71.2075 12.8214 69.0331 11.4823 65.8651 10.7159C54.5869 7.98749 44.8928 13.0115 45.6937 16.4584C45.963 17.6173 49.3935 18.4302 53.827 19.0967C51.452 19.7338 48.9559 20.6947 46.498 22.0474C43.6431 23.6186 41.9133 25.3494 40.936 27.0346C39.0324 26.2821 36.5103 25.9279 33.2177 26.3468C21.4958 27.8383 13.7952 34.9378 15.6761 37.3999C16.6779 38.7113 25.0265 36.7731 32.7292 34.9848L32.89 34.9475C30.9768 37.7151 30.228 40.8999 30.5269 44.2714C16.4807 53.077 7.55206 66.2844 7.55206 81.0485C7.55206 103.812 28.7766 122.874 57.2582 127.809C53.6469 131.947 48.8114 133.473 46.8229 132.972C52.2568 137.016 64.5199 141.641 72.5 130.126C80.4802 141.641 92.7432 137.016 98.1771 132.972C96.1632 133.479 91.2292 131.908 87.6042 127.65C87.5923 127.636 87.5803 127.622 87.5683 127.608C115.486 122.373 136.157 103.513 136.157 81.0485C136.157 69.1778 130.385 58.3135 120.822 49.9343L120.843 49.8676C122.925 43.3517 120.379 36.3847 114.388 31.9996C121.372 32.9152 128.81 33.8676 129.553 32.5777C130.972 30.115 123.32 24.2578 112.67 23.9849C109.679 23.9082 107.46 24.4759 105.838 25.3546C104.782 23.8836 103.049 22.4418 100.325 21.2546C98.0871 20.2787 95.8558 19.6375 93.7494 19.2629C96.977 18.7594 99.285 18.1107 99.5409 17.1809C100.483 13.7575 91.0014 8.47607 79.6171 10.9004C76.4192 11.5813 74.1908 12.8613 72.6676 14.3724Z" fill="#E9E2DC"/>
<path fill-rule="evenodd" clip-rule="evenodd" d="M45.6937 16.4584C44.8928 13.0115 54.5869 7.98749 65.8651 10.7159C68.8378 11.4351 70.9357 12.6585 72.3895 14.0882C72.4849 14.1821 72.5776 14.2768 72.6676 14.3724C72.7629 14.2779 72.8609 14.1843 72.9617 14.0917C74.4733 12.7036 76.6192 11.5388 79.6171 10.9004C90.6809 8.54432 99.948 13.4662 99.5959 16.8876C99.5857 16.9867 99.5674 17.0846 99.5409 17.1809C99.285 18.1107 96.977 18.7595 93.7494 19.2629C95.8558 19.6375 98.0871 20.2787 100.325 21.2546C100.385 21.2807 100.445 21.3069 100.504 21.3332C103.124 22.5052 104.805 23.916 105.838 25.3546C107.46 24.4759 109.679 23.9082 112.67 23.9849C123.32 24.2578 130.972 30.115 129.553 32.5777C129.037 33.4737 125.291 33.2878 120.711 32.7839C118.697 32.5623 116.521 32.2793 114.388 31.9996C116.121 33.2678 117.565 34.7519 118.693 36.3786C121.465 40.3767 122.323 45.2361 120.843 49.8676L120.822 49.9343C130.385 58.3135 136.157 69.1778 136.157 81.0485C136.157 102.32 117.622 120.361 91.9514 126.66C90.547 127.005 89.1213 127.315 87.6761 127.587C87.6402 127.594 87.6043 127.601 87.5683 127.608L87.6042 127.65C88.6876 128.922 89.888 129.955 91.0924 130.764C91.6725 131.154 92.2535 131.491 92.8228 131.779C95.0264 132.892 97.055 133.255 98.1771 132.972C96.7784 134.013 94.9272 135.093 92.813 135.926C87.5351 138.004 80.6184 138.546 75.0114 133.113C74.1388 132.267 73.298 131.277 72.5 130.126C71.702 131.277 70.8612 132.267 69.9886 133.113C64.3816 138.546 57.4649 138.004 52.1871 135.926C50.0729 135.093 48.2216 134.013 46.8229 132.972C47.945 133.255 49.9736 132.892 52.1772 131.779C52.6416 131.544 53.1137 131.276 53.5868 130.974C54.8472 130.169 56.1141 129.12 57.2581 127.809C55.7378 127.546 54.2381 127.242 52.7612 126.9C26.5711 120.829 7.55204 102.597 7.55204 81.0485C7.55204 66.2844 16.4807 53.077 30.5269 44.2714C30.3751 42.5593 30.4935 40.8953 30.8974 39.3096C31.271 37.8427 31.8889 36.4428 32.7633 35.1339C32.805 35.0716 32.8472 35.0094 32.89 34.9475L32.7292 34.9848C31.1566 35.3499 29.557 35.7213 27.9986 36.0699C21.9238 37.4291 16.4733 38.4436 15.676 37.3999C13.7952 34.9378 21.4957 27.8383 33.2177 26.3468C36.5103 25.9279 39.0323 26.2821 40.9359 27.0346C41.9133 25.3494 43.6431 23.6186 46.498 22.0474C46.7492 21.9092 47.0007 21.7751 47.2525 21.6449C49.4647 20.5017 51.6947 19.6687 53.8269 19.0967C50.9191 18.6596 48.4426 18.1594 47.0067 17.54C46.2533 17.215 45.7863 16.8572 45.6937 16.4584ZM43.2602 19.5573C42.7421 19.0284 42.2434 18.2993 42.0169 17.3245L45.6115 16.4777L42.0169 17.3245C41.351 14.4587 43.0232 12.185 44.3463 10.9427C45.8047 9.57327 47.7924 8.47935 49.9769 7.69185C54.3898 6.10101 60.3815 5.47905 66.7472 7.01906C69.0948 7.58699 71.0857 8.44619 72.7436 9.53269C74.4403 8.49196 76.4633 7.68576 78.8357 7.18056C85.2543 5.81372 91.2196 6.59361 95.575 8.30611C97.73 9.15341 99.6817 10.3046 101.093 11.723C102.383 13.0181 103.962 15.3546 103.18 18.1965C103.163 18.2586 103.144 18.3196 103.125 18.3795C104.567 19.1174 105.804 19.9525 106.844 20.8711C108.577 20.37 110.548 20.1272 112.766 20.184C118.723 20.3367 123.922 22.045 127.544 24.1782C129.327 25.2288 130.926 26.4983 132.009 27.9228C132.916 29.1147 134.392 31.7554 132.819 34.4856L129.792 32.7176L132.819 34.4856C132.02 35.8733 130.718 36.3854 130.156 36.5718C129.469 36.7999 128.761 36.8985 128.171 36.9488C126.97 37.0515 125.523 37.0085 124.057 36.9093C123.826 36.8936 123.589 36.8761 123.348 36.8571C125.133 40.4866 125.782 44.564 125.035 48.6485C134.23 57.3861 139.933 68.6219 139.933 81.0485C139.933 103.521 121.564 121.799 96.9546 129.228C97.0757 129.246 97.1648 129.255 97.2213 129.261C97.3017 129.269 97.3158 129.27 97.2613 129.284C99.0098 128.844 100.823 129.709 101.592 131.35C102.361 132.992 101.871 134.951 100.422 136.03C97.2812 138.367 92.153 140.915 86.4689 141.182C81.7328 141.404 76.749 140.017 72.5 135.956C68.251 140.017 63.2672 141.404 58.5311 141.182C52.847 140.915 47.7188 138.367 44.5785 136.03C43.1291 134.951 42.6389 132.992 43.4077 131.35C44.008 130.069 45.2452 129.26 46.591 129.177C22.0522 121.712 3.776 103.471 3.776 81.0485C3.776 65.3075 12.8961 51.5341 26.6973 42.2357C26.7194 41.5544 26.778 40.8779 26.8743 40.2082C25.2673 40.5532 23.7215 40.8633 22.3234 41.1029C20.6859 41.3835 19.0926 41.5963 17.7707 41.6283C17.1212 41.644 16.366 41.622 15.6326 41.4728C15.0465 41.3535 13.6641 41.0024 12.683 39.718C10.6898 37.1087 11.924 34.2006 12.7703 32.8331C13.7659 31.2243 15.3411 29.7171 17.1512 28.4154C20.8286 25.7708 26.2788 23.3974 32.7443 22.5747C35.2535 22.2555 37.4932 22.3116 39.4748 22.6838C40.4967 21.5674 41.7541 20.5207 43.2602 19.5573Z" fill="#963C05"/>
<path d="M79.6171 10.9004C70.5097 12.8398 69.2653 19.638 69.7815 22.7947C69.8346 20.2184 98.5986 20.6044 99.541 17.1809C100.483 13.7575 91.0015 8.47608 79.6171 10.9004Z" fill="#004F29"/>
<path d="M65.8651 10.7159C74.8877 12.8987 75.8515 19.7266 75.2056 22.8676C75.2586 20.2913 46.4946 19.9052 45.6937 16.4584C44.8928 13.0115 54.5869 7.9875 65.8651 10.7159Z" fill="#046034"/>
<path d="M96.5562 35.919C96.0817 45.5693 86.1617 52.9171 74.3992 52.3308C62.6368 51.7444 53.486 43.4459 53.9605 33.7956C54.3223 26.4387 58.3287 20.722 66.3008 18.5366C67.4891 18.2109 70.5254 18.5637 71.7967 18.4165C73.1843 18.2559 75.8758 17.3718 77.3345 17.4445C89.097 18.0309 97.0307 26.2687 96.5562 35.919Z" fill="url(#paint0_radial_34_686)"/>
<path d="M70.7692 16.9376C73.4719 18.509 74.7196 17.8977 75.0056 17.3955C79.6221 13.8968 87.3889 14.7363 87.0089 18.693C86.6289 22.6498 80.2204 29.9526 73.8657 29.2657C67.511 28.5787 59.9721 25.3652 60.2761 22.1998C60.5801 19.0344 67.3908 14.9733 70.7692 16.9376Z" fill="#03361E"/>
<path d="M46.4981 22.0474C38.3674 26.5222 39.3621 32.291 40.8757 34.6161C40.0964 32.5652 67.8739 23.5727 67.6765 20.5656C67.4792 17.5584 56.6614 16.4539 46.4981 22.0474Z" fill="#277650"/>
<path d="M33.2177 26.3468C42.5953 25.1536 45.7224 30.2321 46.1137 32.9205C45.3344 30.8696 17.5569 39.862 15.6761 37.3999C13.7953 34.9377 21.4958 27.8383 33.2177 26.3468Z" fill="#308C60"/>
<path d="M69.0219 37.3115C71.233 45.917 64.5224 55.108 54.0335 57.8403C43.5445 60.5726 33.2492 55.8114 31.0381 47.2059C29.3525 40.6455 31.3142 34.5194 37.7199 30.3995C38.6747 29.7854 41.437 29.257 42.5134 28.7768C43.6882 28.2527 45.811 26.7333 47.1118 26.3944C57.6007 23.6621 66.8109 28.706 69.0219 37.3115Z" fill="url(#paint1_radial_34_686)"/>
<path d="M39.9375 27.0714C43.0423 27.3012 44.0448 26.7464 44.1579 26.4403C47.4685 23.7761 55.2059 22.6189 56.1158 24.652C57.0257 26.685 53.2182 31.5926 46.8876 32.5394C40.5569 33.4861 32.2736 33.4234 31.5457 31.797C30.8178 30.1705 36.0566 26.7842 39.9375 27.0714Z" fill="#066135"/>
<path d="M112.67 23.9849C104.151 23.7666 101.898 28.775 101.836 31.3065C102.313 29.3296 128.134 35.0404 129.553 32.5777C130.972 30.115 123.32 24.2578 112.67 23.9849Z" fill="#277650"/>
<path d="M100.325 21.2546C108.081 24.6358 107.81 30.0826 106.705 32.3833C107.182 30.4065 81.3613 24.6957 81.2153 21.8869C81.0693 19.0781 90.6309 17.028 100.325 21.2546Z" fill="#308C60"/>
<path d="M120.843 49.8676C118.14 58.3292 107.587 62.4803 97.2734 59.1393C86.9598 55.7982 80.7907 46.2303 83.4944 37.7686C85.5556 31.3179 90.4675 27.1985 98.0685 27.1678C99.2015 27.1632 101.816 28.2046 102.981 28.3787C104.252 28.5686 106.852 28.4282 108.131 28.8426C118.445 32.1836 123.547 41.4059 120.843 49.8676Z" fill="url(#paint2_radial_34_686)"/>
<path d="M103.701 25.1369C105.871 26.2144 107.096 26.0662 107.437 25.8574C112.175 24.7118 119.025 26.0326 118.023 27.8987C117.021 29.7648 110.036 32.5364 104.432 31.4557C98.8281 30.3751 92.5795 27.9346 93.3808 26.4417C94.1822 24.9488 100.988 23.7901 103.701 25.1369Z" fill="#066135"/>
<ellipse cx="71.8545" cy="81.0485" rx="64.3024" ry="48.0029" fill="#E09D40"/>
<ellipse cx="71.0506" cy="83.3714" rx="61.8911" ry="44.1317" fill="url(#paint3_linear_34_686)"/>
<path d="M23.4394 51.7703C24.4591 47.7154 38.3101 52.1927 45.1081 54.9383L29.1752 74.5794C26.8384 68.666 22.4197 55.8253 23.4394 51.7703Z" fill="#DC7131"/>
<mask id="mask0_34_686" style="mask-type:alpha" maskUnits="userSpaceOnUse" x="23" y="50" width="23" height="25">
<path d="M23.4394 51.7703C24.4591 47.7154 38.3101 52.1927 45.1081 54.9383L29.1752 74.5794C26.8384 68.666 22.4197 55.8253 23.4394 51.7703Z" fill="#DC7131"/>
</mask>
<g mask="url(#mask0_34_686)">
<path d="M26.626 54.9383C26.9508 53.5551 42.7449 57.9696 49.9142 60.3659L31.7136 71.9179C29.5155 67.8222 25.3513 60.366 26.626 54.9383Z" fill="#FFCC52"/>
<g style="mix-blend-mode:multiply" opacity="0.3">
<path d="M24.7141 72.2403C27.0254 64.0524 40.1229 55.1822 46.3827 51.7706L31.2147 78.3812L24.7141 72.2403Z" fill="#9A5A29"/>
</g>
</g>
<path d="M122.543 53.0162C121.912 48.8837 107.698 52.0427 100.67 54.1387L114.669 75.186C117.556 69.5179 123.173 57.1487 122.543 53.0162Z" fill="#DC7131"/>
<mask id="mask1_34_686" style="mask-type:alpha" maskUnits="userSpaceOnUse" x="100" y="50" width="23" height="26">
<path d="M122.543 53.0162C121.912 48.8837 107.698 52.0427 100.67 54.1387L114.669 75.186C117.556 69.5179 123.173 57.1487 122.543 53.0162Z" fill="#DC7131"/>
</mask>
<g mask="url(#mask1_34_686)">
<path d="M119.07 55.8713C118.878 54.4638 102.735 57.378 95.3706 59.0915L112.394 72.2984C114.971 68.4269 119.824 61.3944 119.07 55.8713Z" fill="#FFCC52"/>
<g style="mix-blend-mode:multiply" opacity="0.3">
<path d="M119.332 73.2751C117.808 64.9071 105.61 54.8485 99.7016 50.8653L112.278 78.7793L119.332 73.2751Z" fill="#9A5A29"/>
</g>
</g>
<path d="M57.3959 127.65C61.0209 123.391 67.4653 124.861 70.2344 125.368L74.0104 127.649C66.1563 142.249 52.6129 137.281 46.8229 132.972C48.8368 133.479 53.7709 131.908 57.3959 127.65Z" fill="#E9E2DC"/>
<path d="M87.6042 127.65C83.9792 123.391 77.5347 124.861 74.7656 125.368L70.9896 127.649C78.8438 142.249 92.3872 137.281 98.1771 132.972C96.1632 133.479 91.2292 131.908 87.6042 127.65Z" fill="#E9E2DC"/>
<path d="M119.984 68.1574C113.272 40.1296 84.1838 35.8175 51.8257 43.0041L115.853 114.152C120.443 111.277 127.252 98.5031 119.984 68.1574Z" fill="#E2DED9"/>
<path d="M24.9754 68.1574C34.508 35.8176 72.4798 37.2549 94.5108 42.2855L27.7293 114.152C23.1395 111.277 16.163 98.0539 24.9754 68.1574Z" fill="#EEEBE8"/>
<path d="M35.4943 62.5415C45.7123 49.2002 64.9694 46.5822 73.3206 46.9408C96.9007 46.9408 105.435 56.3484 109.115 62.0114C123.656 84.3903 121.463 103.426 118.516 109.881C115.241 116.875 101.66 128.71 73.3206 128.71C38.4418 128.71 27.143 117.413 24.1955 109.881C21.248 102.35 22.7218 79.218 35.4943 62.5415Z" fill="url(#paint4_linear_34_686)"/>
<mask id="mask2_34_686" style="mask-type:alpha" maskUnits="userSpaceOnUse" x="22" y="46" width="99" height="83">
<path d="M35.4943 62.5415C45.7123 49.2002 64.9694 46.5822 73.3206 46.9408C96.9007 46.9408 105.435 56.3484 109.115 62.0114C123.656 84.3903 121.463 103.426 118.516 109.881C115.241 116.875 101.66 128.71 73.3206 128.71C38.4418 128.71 27.143 117.413 24.1955 109.881C21.248 102.35 22.7218 79.218 35.4943 62.5415Z" fill="url(#paint5_linear_34_686)"/>
</mask>
<g mask="url(#mask2_34_686)">
<rect x="62.8412" y="42.7505" width="16.5233" height="33.2745" rx="3" fill="url(#paint6_linear_34_686)"/>
<path d="M82.1183 45.7505C82.1183 44.0937 83.4614 42.7505 85.1183 42.7505H89.7179C91.2039 42.7505 92.466 43.8384 92.6851 45.3081L96.7514 72.5826C97.0217 74.3956 95.6172 76.025 93.7842 76.025H85.1183C83.4614 76.025 82.1183 74.6818 82.1183 73.025V45.7505Z" fill="url(#paint7_linear_34_686)"/>
<path d="M49.5204 45.3082C49.7395 43.8385 51.0016 42.7506 52.4876 42.7506H57.0872C58.744 42.7506 60.0872 44.0937 60.0872 45.7506V73.0251C60.0872 74.6819 58.744 76.0251 57.0872 76.0251H48.4213C46.5883 76.0251 45.1838 74.3957 45.4541 72.5827L49.5204 45.3082Z" fill="url(#paint8_linear_34_686)"/>
<ellipse cx="25.9887" cy="109.702" rx="19.1194" ry="19.0076" fill="#EB553E"/>
<ellipse cx="117.762" cy="109.702" rx="19.1194" ry="19.0076" fill="#EB553E"/>
</g>
<path opacity="0.6" d="M57.3334 93.3553C62.728 89.3377 76.3389 83.7131 87.626 93.3553C83.1997 87.0778 70.9443 78.2895 57.3334 93.3553Z" fill="url(#paint9_linear_34_686)"/>
<rect width="9.33993" height="17.8503" rx="4" transform="matrix(0.996193 -0.0871794 0.0605951 0.998162 86.8788 82.3848)" fill="#341F0C"/>
<rect width="9.33993" height="17.8503" rx="4" transform="matrix(-0.996193 -0.0871794 -0.0605951 0.998162 58.081 82.3848)" fill="#341F0C"/>
<path d="M56.3857 93.7401C60.9164 88.0871 69.455 86.9777 73.1579 87.1297C83.6134 87.1297 87.3976 91.1159 89.0292 93.5155C95.4767 102.998 94.5044 111.064 93.1975 113.799C91.7453 116.763 85.7238 121.778 73.1579 121.778C57.6926 121.778 52.6827 116.991 51.3758 113.799C50.0689 110.608 50.7223 100.806 56.3857 93.7401Z" fill="#FFCC52"/>
<path d="M62.5884 114.075C69.534 114.075 70.6988 104.197 70.3772 97.895C70.325 96.8737 69.4484 96.081 68.4654 96.3631C60.774 98.5705 53.707 114.075 62.5884 114.075Z" fill="#604401"/>
<path d="M82.537 114.075C75.5913 114.075 74.4266 104.198 74.7482 97.8951C74.8003 96.8738 75.6769 96.0811 76.6599 96.3632C84.3514 98.5706 91.4184 114.075 82.537 114.075Z" fill="#604401"/>
<path d="M82.7292 132.312C75.0029 132.312 77.9818 121.686 81.3118 114.382C81.8728 113.151 83.5856 113.151 84.1466 114.382C87.4766 121.686 90.4554 132.312 82.7292 132.312Z" fill="url(#paint10_radial_34_686)"/>
<path d="M84.3153 126.263C84.3153 127.992 83.5179 127.704 81.9229 128.424C81.1254 128.664 79.8494 129.432 81.1254 130.584C82.7204 132.024 85.1128 131.304 85.9103 129.864C86.7078 128.424 86.7078 121.942 85.1128 121.942C83.5179 121.942 84.3153 124.103 84.3153 126.263Z" fill="white" fill-opacity="0.6"/>
<defs>
<radialGradient id="paint0_radial_34_686" cx="0" cy="0" r="1" gradientUnits="userSpaceOnUse" gradientTransform="translate(81.8536 24.7858) rotate(105.143) scale(28.5358 57.4118)">
<stop stop-color="#E9E9BA"/>
<stop offset="1" stop-color="#957E5A"/>
</radialGradient>
<radialGradient id="paint1_radial_34_686" cx="0" cy="0" r="1" gradientUnits="userSpaceOnUse" gradientTransform="translate(53.0792 31.5936) rotate(87.9178) scale(26.264 52.7922)">
<stop stop-color="#FFFFE0"/>
<stop offset="1" stop-color="#D0BA98"/>
</radialGradient>
<radialGradient id="paint2_radial_34_686" cx="0" cy="0" r="1" gradientUnits="userSpaceOnUse" gradientTransform="translate(110.411 36.4496) rotate(120.072) scale(26.2187 52.8834)">
<stop stop-color="#FFFFE0"/>
<stop offset="1" stop-color="#D0BA98"/>
</radialGradient>
<linearGradient id="paint3_linear_34_686" x1="71.0506" y1="39.2397" x2="71.0506" y2="127.503" gradientUnits="userSpaceOnUse">
<stop offset="0.442232" stop-color="#C68730"/>
<stop offset="1" stop-color="#A25E00"/>
</linearGradient>
<linearGradient id="paint4_linear_34_686" x1="72.3753" y1="46.9746" x2="71.7206" y2="128.709" gradientUnits="userSpaceOnUse">
<stop stop-color="#F69F44"/>
<stop offset="1" stop-color="#DA6E30"/>
</linearGradient>
<linearGradient id="paint5_linear_34_686" x1="72.3753" y1="46.9746" x2="71.7206" y2="128.709" gradientUnits="userSpaceOnUse">
<stop stop-color="#F69F44"/>
<stop offset="1" stop-color="#DA6E30"/>
</linearGradient>
<linearGradient id="paint6_linear_34_686" x1="71.1028" y1="42.7505" x2="71.1028" y2="76.025" gradientUnits="userSpaceOnUse">
<stop stop-color="#4E2219"/>
<stop offset="1" stop-color="#9A4F01"/>
</linearGradient>
<linearGradient id="paint7_linear_34_686" x1="89.6914" y1="42.7505" x2="89.6914" y2="76.025" gradientUnits="userSpaceOnUse">
<stop stop-color="#4E2219"/>
<stop offset="1" stop-color="#9A4F01"/>
</linearGradient>
<linearGradient id="paint8_linear_34_686" x1="52.514" y1="42.7506" x2="52.514" y2="76.0251" gradientUnits="userSpaceOnUse">
<stop stop-color="#4E2219"/>
<stop offset="1" stop-color="#9A4F01"/>
</linearGradient>
<linearGradient id="paint9_linear_34_686" x1="72.4797" y1="85.0367" x2="72.4797" y2="93.3553" gradientUnits="userSpaceOnUse">
<stop stop-color="#DCD8D4"/>
<stop offset="0.0001" stop-color="#DE6801"/>
<stop offset="0.791211" stop-color="#DE6801" stop-opacity="0"/>
</linearGradient>
<radialGradient id="paint10_radial_34_686" cx="0" cy="0" r="1" gradientUnits="userSpaceOnUse" gradientTransform="translate(83.7042 126.028) rotate(98.8188) scale(6.3597 11.1402)">
<stop stop-color="#D0EBFF"/>
<stop offset="1" stop-color="#93CCF5"/>
</radialGradient>
</defs>
</svg>
