<svg width="146" height="146" viewBox="0 0 146 146" fill="none" xmlns="http://www.w3.org/2000/svg">
<path fill-rule="evenodd" clip-rule="evenodd" d="M99.4672 43.3063C102.949 38.8467 109.552 24.4451 108.966 15.6568C108.765 15.1326 108.75 14.6789 108.956 14.3341C109.763 12.9842 113.641 13.8164 117.618 16.193C121.335 18.4139 123.823 21.1974 123.475 22.6543L123.517 22.6777C123.4 22.9014 123.271 23.1363 123.13 23.3815C122.937 23.719 122.722 24.0759 122.487 24.4502C122.196 24.9147 121.874 25.4058 121.526 25.9193C117.687 31.5851 110.615 39.9771 105.194 45.3986C104.217 46.3758 102.995 48.6235 105.927 49.7962C109.592 51.2621 132.312 60.7902 132.312 82.7781C132.312 96.7686 124.894 106.432 118.908 111.399C117.368 112.677 115.922 113.644 114.722 114.294C114.981 112.914 115.157 111.273 115.182 109.492C115.299 101.182 112.118 89.8401 98.5976 87.9086C78.0755 84.9769 71.4791 106.965 74.4109 114.294C75.9471 118.135 79.454 121.347 82.5834 123.517C84.2316 124.661 85.775 125.515 86.8707 126.021C85.5616 126.577 83.9086 127.135 81.9373 127.643C69.659 130.81 45.029 132.083 14.1792 119.455C13.0102 118.976 11.8323 118.478 10.6458 117.959C11.1931 117.047 11.8285 115.923 12.5176 114.627C16.4431 107.243 22.1081 94.2503 23.1057 82.7781C24.5715 65.9207 28.4533 34.583 60.4852 30.007C77.7897 27.535 89.8831 33.4009 94.1286 39.6952C94.918 40.8655 95.4361 42.0507 95.6659 43.1998C95.6603 43.1653 95.6562 43.169 95.6593 43.2009C95.6593 43.201 95.6593 43.201 95.6593 43.2011C95.6789 43.3984 95.9735 44.6657 97.8647 44.6657C98.2282 44.6657 98.7843 44.1788 99.4578 43.3183C99.4609 43.3143 99.4641 43.3103 99.4672 43.3063ZM97.9731 38.6847C98.9254 37.0641 100.001 34.9541 101.032 32.5822C103.492 26.9249 105.339 20.6097 105.193 16.3207C104.921 15.2646 104.84 13.8106 105.693 12.3838L108.956 14.3341L105.693 12.3838C106.733 10.6431 108.47 10.1069 109.569 9.95472C110.713 9.79628 111.879 9.93047 112.896 10.1487C114.969 10.5935 117.322 11.5867 119.569 12.9293C121.676 14.1883 123.544 15.6674 124.893 17.1627C125.562 17.904 126.201 18.756 126.651 19.6854C126.964 20.3315 127.318 21.2887 127.31 22.4022C127.36 23.0858 127.226 23.791 126.885 24.4419C125.35 27.3734 122.202 31.6597 118.774 35.8844C115.661 39.7197 112.139 43.7194 108.993 46.96C111.996 48.281 117.634 51.087 122.982 55.7168C129.633 61.4742 136.115 70.3165 136.115 82.7781C136.115 102.148 123.243 114.002 116.533 117.637C115.244 118.336 113.668 118.23 112.483 117.367C111.298 116.503 110.715 115.035 110.985 113.593C111.625 110.18 111.658 104.948 109.843 100.479C108.133 96.2667 104.786 92.6334 98.0599 91.6725C89.5114 90.4513 84.098 94.2956 80.9167 99.2948C79.2815 101.864 78.2611 104.729 77.8138 107.315C77.3492 110.002 77.5717 111.959 77.941 112.882C78.7813 114.983 80.5694 117.062 82.7597 118.883C84.9163 120.675 87.1607 121.967 88.464 122.569C89.8296 123.199 90.6953 124.575 90.6724 126.079C90.6494 127.583 89.7421 128.932 88.3579 129.52C77.4685 134.148 47.442 138.207 9.1219 121.442C8.12056 121.004 7.35618 120.156 7.02382 119.115C6.69145 118.074 6.82325 116.94 7.38559 116.003C10.945 110.07 18.2198 95.0772 19.3179 82.4487C20.0513 74.0146 21.4193 61.3247 26.9197 50.1125C32.5323 38.6715 42.4792 28.7386 59.9475 26.2432C70.8409 24.687 80.0132 26.2116 86.795 29.2942C91.7888 31.5642 95.84 34.8723 97.9731 38.6847ZM107.203 46.2036C107.203 46.2036 107.205 46.2045 107.208 46.2065C107.205 46.2046 107.203 46.2036 107.203 46.2036ZM107.799 48.1956C107.795 48.2023 107.794 48.2055 107.794 48.2051C107.794 48.2048 107.795 48.2022 107.798 48.1971C107.798 48.1966 107.798 48.1961 107.799 48.1956Z" fill="#00532B"/>
<path d="M108.859 14.8923L123.517 22.9546C120.83 28.0851 111.79 39.0791 105.194 45.6755C104.217 46.6527 102.995 48.9004 105.927 50.0731C109.592 51.5389 132.312 61.0671 132.312 83.055C132.312 100.645 120.586 111.395 114.722 114.571C116.188 106.753 115.015 90.5309 98.5976 88.1855C78.0755 85.2538 71.4792 107.242 74.4109 114.571C76.7563 120.435 83.6947 124.832 86.8708 126.298C77.0983 130.451 48.172 134.653 10.6458 118.236C14.3105 112.128 21.933 96.541 23.1057 83.055C24.5715 66.1976 28.4533 34.8599 60.4852 30.2839C80.9906 27.3546 94.1786 36.1331 95.6623 43.4588C95.6634 43.4628 95.6646 43.4687 95.6659 43.4767C95.6647 43.4707 95.6635 43.4648 95.6623 43.4588C95.6302 43.3381 95.7367 44.9426 97.8647 44.9426C100.182 44.9426 110.325 25.1534 108.859 14.8923Z" fill="url(#paint0_radial_34_135)"/>
<mask id="mask0_34_135" style="mask-type:alpha" maskUnits="userSpaceOnUse" x="10" y="14" width="123" height="117">
<path d="M108.859 14.8923L123.517 22.9546C120.83 28.0851 111.79 39.0791 105.194 45.6755C104.217 46.6527 102.995 48.9004 105.927 50.0731C109.592 51.5389 132.312 61.0671 132.312 83.055C132.312 100.645 120.586 111.395 114.722 114.571C116.188 106.753 115.015 90.5309 98.5976 88.1855C78.0755 85.2538 71.4792 107.242 74.4109 114.571C76.7563 120.435 83.6947 124.832 86.8708 126.298C77.0983 130.451 48.172 134.653 10.6458 118.236C14.3105 112.128 21.933 96.541 23.1057 83.055C24.5715 66.1976 28.4533 34.8599 60.4852 30.2839C80.9906 27.3546 94.1786 36.1331 95.6623 43.4588C95.6634 43.4628 95.6646 43.4687 95.6659 43.4767C95.6647 43.4707 95.6635 43.4648 95.6623 43.4588C95.6302 43.3381 95.7367 44.9426 97.8647 44.9426C100.182 44.9426 110.325 25.1534 108.859 14.8923Z" fill="url(#paint1_radial_34_135)"/>
</mask>
<g mask="url(#mask0_34_135)">
<path d="M105.194 42.0108C111.79 36.1474 114.553 26.3749 117.729 20.0229L126.524 24.4204L114.064 44.9425C128.723 47.1413 144.847 79.3903 136.052 97.7136C129.016 112.372 116.507 117.014 111.132 117.503L114.064 113.838C122.859 99.1795 125.791 68.3964 101.604 55.9365C77.4176 43.4767 80.3493 82.3221 78.1505 82.3221C75.9517 82.3221 76.6846 66.1976 74.4858 64.7317C72.7268 63.559 58.3614 76.4586 58.3614 82.3221C64.9578 95.5148 60.5601 113.105 60.5601 106.509C60.5601 99.9124 55.3547 90.3843 53.8888 88.1855C52.423 85.9867 29.777 111.639 28.3112 110.906C26.8453 110.173 47.3674 86.7197 47.3674 83.7879C47.3674 80.8562 33.4417 85.9867 31.9758 84.5209C30.8031 83.3482 44.68 78.6574 51.765 76.4586C59.0943 69.3736 72.2871 54.7638 66.4236 53.0048C59.0943 50.806 45.1686 55.2036 45.9015 52.2719C46.6345 49.3401 64.2248 49.3401 69.3554 49.3401C74.4859 49.3401 82.5481 49.3401 84.7469 40.5449C86.506 33.5088 67.8895 28.818 58.3614 27.3522C77.7108 23.2478 94.933 33.2156 97.1318 44.9425C98.109 45.4312 103.234 43.7529 105.194 42.0108Z" fill="url(#paint2_linear_34_135)" style="mix-blend-mode:multiply"/>
</g>
<ellipse cx="116.158" cy="18.9142" rx="8.38912" ry="2.84749" transform="rotate(30.8609 116.158 18.9142)" fill="#8FE273"/>
<defs>
<radialGradient id="paint0_radial_34_135" cx="0" cy="0" r="1" gradientUnits="userSpaceOnUse" gradientTransform="translate(57.5535 49.3401) rotate(80.2107) scale(81.9036 86.5321)">
<stop stop-color="#33CC26"/>
<stop offset="1" stop-color="#15953E"/>
</radialGradient>
<radialGradient id="paint1_radial_34_135" cx="0" cy="0" r="1" gradientUnits="userSpaceOnUse" gradientTransform="translate(57.5535 49.3401) rotate(80.2107) scale(81.9036 86.5321)">
<stop stop-color="#33CC26"/>
<stop offset="1" stop-color="#15953E"/>
</radialGradient>
<linearGradient id="paint2_linear_34_135" x1="68.5475" y1="32.4827" x2="108.126" y2="117.503" gradientUnits="userSpaceOnUse">
<stop stop-color="#0FE47E"/>
<stop offset="1" stop-color="#009F53"/>
</linearGradient>
</defs>
</svg>
