<svg width="145" height="146" viewBox="0 0 145 146" fill="none" xmlns="http://www.w3.org/2000/svg">
<path fill-rule="evenodd" clip-rule="evenodd" d="M107.583 22.0291C106.666 17.4164 102.525 8.08176 93.2915 7.63904C81.7484 7.08558 73.5033 13.1737 71.8543 22.0291C70.8819 27.251 71.0563 31.3182 71.3632 34.5711C71.4276 35.2544 71.4979 35.9017 71.5646 36.5163C71.6414 37.2232 71.7135 37.8867 71.7665 38.5116C71.4017 38.309 70.9507 38.3166 70.6145 38.5816C70.6007 38.5925 70.587 38.6034 70.5733 38.6143C67.6931 40.9077 66.9184 43.9253 66.8805 45.6901C66.8794 45.7405 66.8789 45.7899 66.879 45.8383C66.8792 45.9375 66.8959 46.0335 66.9268 46.1241C65.6657 46.2606 64.4152 46.4431 63.1771 46.6697C39.0318 51.088 19.6354 72.2471 19.6354 94.5327C19.6354 119.598 44.1714 139.917 72.4039 139.917C100.636 139.917 124.623 119.598 124.623 94.5327C124.623 85.9028 121.779 77.4419 116.898 70.0566C117.241 69.5595 117.291 68.8981 116.956 68.3577L120.157 66.342C120.756 67.3054 120.999 68.3601 120.954 69.3785C125.639 76.968 128.399 85.6205 128.399 94.5327C128.399 122.229 102.151 143.719 72.4039 143.719C42.7111 143.719 15.8594 122.276 15.8594 94.5327C15.8594 69.8111 37.3844 47.0425 63.5259 42.7518C64.1029 40.5895 65.3474 38.1318 67.7174 36.0605C67.3424 32.5106 66.9589 27.6868 68.1429 21.3284C70.2199 10.1747 80.5174 3.22017 93.4711 3.84126C99.473 4.12904 103.75 7.34833 106.531 10.9279C108.549 13.526 109.881 16.4244 110.661 18.8825C110.942 19.0102 111.217 19.1512 111.482 19.301C112.741 20.0119 114.039 21.0614 115.228 22.3997C117.63 25.1034 119.737 29.1544 120.143 34.4671C120.644 41.0246 116.938 45.4832 112.566 48.1854C109.93 49.8145 106.895 50.9312 103.949 51.6718C108.774 54.528 116.114 59.8314 120.157 66.342L116.956 68.3577C112.883 61.8004 104.713 56.3333 100.312 53.9758C100.035 53.8027 99.7565 53.632 99.4761 53.4636C99.5717 53.2222 99.638 52.9644 99.6699 52.694L99.766 51.8806C99.9144 50.625 99.2807 49.4571 98.2516 48.8717C99.6548 48.6978 101.143 48.4387 102.641 48.0795C109.705 46.3855 116.966 42.4655 116.378 34.7587C115.701 25.9052 109.417 21.6621 107.583 22.0291Z" fill="#963C05"/>
<path fill-rule="evenodd" clip-rule="evenodd" d="M107.583 22.0291C106.667 17.4169 102.526 8.08181 93.2915 7.63904C81.7483 7.08558 73.5033 13.1737 71.8542 22.0291C70.6776 28.3479 71.1801 32.9759 71.5646 36.5163C71.7189 37.9376 71.8542 39.1836 71.8542 40.2933C71.8542 42.0844 70.141 44.2082 68.1996 46.0025C41.7792 48.1954 19.6354 70.721 19.6354 94.5327C19.6354 119.598 44.1714 139.917 72.4039 139.917C100.636 139.917 124.623 119.598 124.623 94.5327C124.623 76.0098 111.523 58.2652 93.2915 50.2642V49.1487C100.62 49.3332 117.257 46.2707 116.378 34.7587C115.701 25.9033 109.415 21.6601 107.583 22.0291Z" fill="url(#paint0_radial_34_168)"/>
<mask id="mask0_34_168" style="mask-type:alpha" maskUnits="userSpaceOnUse" x="19" y="7" width="106" height="133">
<path fill-rule="evenodd" clip-rule="evenodd" d="M107.583 22.0291C106.667 17.4169 102.526 8.08181 93.2915 7.63904C81.7483 7.08558 73.5033 13.1737 71.8542 22.0291C70.6776 28.3479 71.1801 32.9759 71.5646 36.5163C71.7189 37.9376 71.8542 39.1836 71.8542 40.2933C71.8542 42.0844 70.141 44.2082 68.1996 46.0025C41.7792 48.1954 19.6354 70.721 19.6354 94.5327C19.6354 119.598 44.1714 139.917 72.4039 139.917C100.636 139.917 124.623 119.598 124.623 94.5327C124.623 76.0098 111.523 58.2652 93.2915 50.2642V49.1487C100.62 49.3332 117.257 46.2707 116.378 34.7587C115.701 25.9033 109.415 21.6601 107.583 22.0291Z" fill="url(#paint1_radial_34_168)"/>
</mask>
<g mask="url(#mask0_34_168)">
<path d="M97.1392 24.2429C100.437 15.3875 99.7043 10.9598 97.1392 7.63903L113.629 15.3875L122.974 27.0102V48.0418L91.6424 51.3626L70.7549 40.2933V29.2241C76.8013 45.828 97.1156 38.4496 100.437 33.0983C105.934 24.2429 100.437 24.2429 97.1392 24.2429Z" fill="#DEA35F"/>
<path d="M72.8281 63.5822L77.0076 81.8707L96.418 90.2299C97.5644 90.8931 97.4562 92.6392 96.2375 93.1416L79.231 104.755L77.0076 125.324C76.8646 126.693 75.2424 127.258 74.3299 126.257L59.5477 112.962C59.1995 112.58 58.6942 112.398 58.1931 112.473L42.6726 114.801C41.5744 114.966 40.6662 113.919 40.9395 112.803L45.7505 93.6531C45.8321 93.32 45.8091 92.9685 45.6848 92.6497L36.4497 76.9408C36.005 75.7993 36.9041 74.5833 38.0813 74.7339L56.4388 76.5422L70.4436 62.5719C71.3583 61.9414 72.5986 62.467 72.8281 63.5822Z" fill="#9A4F01"/>
<g style="mix-blend-mode:multiply" opacity="0.15">
<path d="M74.6361 111.661C33.0409 110.709 26.9749 69.5894 29.1413 49.1487C17.9153 59.2698 -12.2175 126.545 58.0925 141.429C114.341 153.336 134.311 103.525 137.265 77.1306C133.72 89.0378 116.231 112.614 74.6361 111.661Z" fill="#9D7E5E"/>
</g>
</g>
<ellipse opacity="0.3" rx="22.1497" ry="14.5929" transform="matrix(0.950736 -0.310003 0.30617 0.951977 56.1552 67.6935)" fill="#FFFBD0"/>
<ellipse opacity="0.3" rx="9.91374" ry="6.53148" transform="matrix(0.950736 -0.310003 0.30617 0.951977 85.1691 17.8654)" fill="#FFFBD0"/>
<path d="M95.6337 48.5614C85.0123 47.6131 75.8407 41.8838 71.9479 38.6361C71.5619 38.3141 71.0092 38.2705 70.6145 38.5816C67.6176 40.9443 66.8758 44.0904 66.879 45.8383C66.8796 46.1817 67.0792 46.4876 67.3729 46.6622C78.7763 53.4412 91.2625 53.9005 97.1221 53.1861C97.7363 53.1112 98.1436 52.5158 97.948 51.9248C97.4943 50.5534 96.7965 49.4857 96.3116 48.8986C96.1439 48.6955 95.8951 48.5848 95.6337 48.5614Z" fill="#C53434"/>
<path d="M98.2385 53.023C97.7988 50.8091 96.5895 49.1487 96.0399 48.5952C89.5531 48.0928 83.5854 45.7851 79 43.3094C76.8013 44.4754 71.3046 46.488 66.9072 45.2107C66.8874 45.4348 66.8786 45.6448 66.879 45.8378C66.8796 46.1812 67.0792 46.4875 67.3729 46.6621C79.5636 53.9093 92.9919 53.9338 98.2385 53.023Z" fill="#A51919"/>
<path d="M116.956 68.3577C112.633 61.3968 103.692 55.6646 99.5444 53.5764H94.0477C92 63.0607 94.561 73.9212 96.4025 79.0939C96.6301 79.733 97.2382 80.1426 97.9125 80.1426H106.424C107.433 80.1426 108.206 79.2403 107.983 78.2501C106.069 69.7208 99.8635 59.5265 96.7961 55.2368C103.364 59.5158 108.715 67.2409 111.285 71.8064C111.781 72.6885 112.928 72.9789 113.753 72.3974L116.49 70.4678C117.172 69.9874 117.397 69.068 116.956 68.3577Z" fill="#8A0E0E"/>
<mask id="mask1_34_168" style="mask-type:alpha" maskUnits="userSpaceOnUse" x="93" y="53" width="25" height="28">
<path d="M116.956 68.3577C112.633 61.3968 103.692 55.6646 99.5444 53.5764H94.0477C92 63.0607 94.561 73.9212 96.4025 79.0939C96.6301 79.733 97.2382 80.1426 97.9125 80.1426H106.424C107.433 80.1426 108.206 79.2403 107.983 78.2501C106.069 69.7208 99.8635 59.5265 96.7961 55.2368C103.364 59.5158 108.715 67.2409 111.285 71.8064C111.781 72.6885 112.928 72.9789 113.753 72.3974L116.49 70.4678C117.172 69.9874 117.397 69.068 116.956 68.3577Z" fill="#8A0E0E"/>
</mask>
<g mask="url(#mask1_34_168)">
<path d="M95.4902 54.6834C95.8566 62.4318 97.5789 75.6043 103.735 75.1615C107.549 74.8872 108.958 74.7403 109.217 74.4051C109.037 74.077 108.856 73.7729 108.682 73.5011C109.101 73.9223 109.376 74.1992 109.217 74.4051C110.748 77.1949 112.223 81.7215 108.682 82.91C104.725 84.2383 95.6734 81.9875 91.6425 80.6961V64.6457L91.0928 55.7903L95.4902 54.6834Z" fill="#770000"/>
<path d="M107.033 67.9665C106.594 66.6382 99.7043 58.5576 96.5895 54.6834L97.1392 53.2305C103.186 57.4507 111.98 67.0809 114.179 67.9665C116.378 68.852 117.294 67.5975 117.477 66.3061L119.676 69.6269L112.53 75.1615C110.881 73.3166 107.473 69.2948 107.033 67.9665Z" fill="#770000"/>
</g>
<rect width="6.88033" height="6.9018" rx="2" transform="matrix(0.992899 0.118957 -0.117356 0.99309 93.2915 48.0418)" fill="#8A0E0E"/>
<defs>
<radialGradient id="paint0_radial_34_168" cx="0" cy="0" r="1" gradientUnits="userSpaceOnUse" gradientTransform="translate(59.7615 65.1992) rotate(78.2451) scale(118.717 94.2536)">
<stop offset="0.0231558" stop-color="#FFC981"/>
<stop offset="1" stop-color="#D8954F"/>
</radialGradient>
<radialGradient id="paint1_radial_34_168" cx="0" cy="0" r="1" gradientUnits="userSpaceOnUse" gradientTransform="translate(59.7615 65.1992) rotate(78.2451) scale(118.717 94.2536)">
<stop offset="0.0231558" stop-color="#FFC981"/>
<stop offset="1" stop-color="#D8954F"/>
</radialGradient>
</defs>
</svg>
