<svg width="145" height="146" viewBox="0 0 145 146" fill="none" xmlns="http://www.w3.org/2000/svg">
<path fill-rule="evenodd" clip-rule="evenodd" d="M123.854 62.3542C123.854 73.6385 119.066 86.7104 111.535 97.9011L110.91 107.891C110.159 119.91 100.259 129.271 88.2987 129.271H56.7013C44.7412 129.271 34.841 119.91 34.0898 107.891L33.5518 99.2841C25.1371 87.7982 19.6354 74.1067 19.6354 62.3542C19.6354 61.9197 19.6429 61.4875 19.6579 61.0576C15.0245 62.3716 11.0094 62.2778 9.12492 59.6689C3.08326 51.3043 15.9218 22.4085 22.7187 20.1272C27.8765 18.3961 37.519 23.3701 42.3647 26.4824C51.3482 21.2182 62.0182 18.25 72.5 18.25C82.8081 18.25 93.0582 21.1207 101.659 26.2226C106.62 23.1026 115.879 18.4435 120.896 20.1272C127.693 22.4085 140.531 51.3043 134.49 59.6689C132.588 62.3012 128.518 62.373 123.832 61.0219C123.847 61.4636 123.854 61.9077 123.854 62.3542Z" fill="url(#paint0_linear_36_71)"/>
<path fill-rule="evenodd" clip-rule="evenodd" d="M115.239 99.1625L114.679 108.13C113.802 122.152 102.252 133.073 88.2987 133.073H56.7013C42.7478 133.073 31.1977 122.152 30.3212 108.13L29.8522 100.627C22.2149 89.913 16.8525 77.2527 15.9835 65.6214C14.9639 65.7102 13.9563 65.7165 12.9804 65.6171C10.4594 65.3602 7.83384 64.3456 6.07111 61.9051C3.67628 58.5895 3.51137 53.9514 3.99437 49.8362C4.50328 45.5004 5.86115 40.71 7.58807 36.2387C9.31902 31.757 11.4877 27.4232 13.7231 24.002C14.8388 22.2944 16.0206 20.7378 17.2283 19.4875C18.3723 18.3029 19.8247 17.0908 21.5246 16.5202C23.6162 15.8182 25.8637 15.8769 27.8727 16.1968C29.924 16.5235 32.0314 17.1729 34.0129 17.9393C37.0701 19.1219 40.0622 20.6754 42.4504 22.0819C51.5632 17.1842 62.1014 14.4479 72.5 14.4479C82.7076 14.4479 92.8518 17.0848 101.601 21.8268C103.995 20.4421 106.939 18.9426 109.931 17.8133C111.865 17.0834 113.916 16.4712 115.913 16.1703C117.871 15.8752 120.053 15.8366 122.09 16.5202C123.79 17.0908 125.242 18.3029 126.386 19.4875C127.594 20.7378 128.776 22.2944 129.891 24.002C132.127 27.4232 134.295 31.757 136.026 36.2387C137.753 40.71 139.111 45.5004 139.62 49.8362C140.103 53.9514 139.938 58.5895 137.543 61.9051C135.764 64.3684 133.108 65.3779 130.566 65.6238C129.574 65.7198 128.55 65.7074 127.513 65.6107C126.729 76.7024 122.06 88.7563 115.239 99.1625ZM123.773 64.9433C123.114 75.6048 118.496 87.5566 111.535 97.9011L110.91 107.891C110.159 119.91 100.259 129.271 88.2987 129.271H56.7013C44.7412 129.271 34.8411 119.91 34.0898 107.891L33.5518 99.2841C25.755 88.6417 20.4592 76.1057 19.7234 64.9731C19.6651 64.0907 19.6354 63.2172 19.6354 62.3542C19.6354 61.9197 19.643 61.4875 19.6579 61.0576C18.3303 61.4341 17.0534 61.695 15.8629 61.8143C12.8985 62.1113 10.4694 61.5303 9.12494 59.6689C3.08327 51.3043 15.9218 22.4085 22.7187 20.1272C27.8765 18.3961 37.519 23.3701 42.3648 26.4824C51.3482 21.2182 62.0182 18.25 72.5 18.25C82.8081 18.25 93.0582 21.1207 101.659 26.2226C106.62 23.1026 115.879 18.4435 120.896 20.1272C127.693 22.4085 140.531 51.3043 134.49 59.6689C133.126 61.5563 130.648 62.1274 127.627 61.8013C126.435 61.6726 125.158 61.4042 123.832 61.0219C123.847 61.4636 123.854 61.9077 123.854 62.3542C123.854 63.2075 123.827 64.0711 123.773 64.9433Z" fill="#8C8C87"/>
<path d="M22.7187 20.1272C28.1562 18.3022 38.5781 23.9293 43.1093 26.971V43.7001C43.1093 50.5439 15.1666 68.0334 9.12492 59.6689C3.08326 51.3043 15.9218 22.4085 22.7187 20.1272Z" fill="#EEEBE8"/>
<mask id="mask0_36_71" style="mask-type:alpha" maskUnits="userSpaceOnUse" x="7" y="19" width="37" height="43">
<path d="M22.7187 20.1272C28.1562 18.3022 38.5781 23.9293 43.1093 26.971V43.7001C43.1093 50.5439 15.1666 68.0334 9.12492 59.6689C3.08326 51.3043 15.9218 22.4085 22.7187 20.1272Z" fill="#EEEBE8"/>
</mask>
<g mask="url(#mask0_36_71)">
<g style="mix-blend-mode:multiply">
<path d="M27.5183 26.1115C31.6759 24.7935 39.6446 28.8574 43.1093 31.0541V43.1358C43.1093 48.0783 21.7439 60.7092 17.1244 54.6683C12.5049 48.6275 22.3214 27.759 27.5183 26.1115Z" fill="url(#paint1_linear_36_71)"/>
</g>
<path style="mix-blend-mode:multiply" opacity="0.5" d="M15.1666 64.6354C15.1666 38.4771 33.7951 27.375 43.1093 25.0938L38.5781 63.1146L15.1666 64.6354Z" fill="#C4C4C4" fill-opacity="0.3"/>
</g>
<path d="M120.896 20.1272C115.458 18.3022 105.036 23.9293 100.505 26.971V43.7001C100.505 50.5439 128.448 68.0334 134.489 59.6689C140.531 51.3043 127.693 22.4085 120.896 20.1272Z" fill="#EEEBE8"/>
<mask id="mask1_36_71" style="mask-type:alpha" maskUnits="userSpaceOnUse" x="100" y="19" width="37" height="43">
<path d="M120.896 20.1272C115.458 18.3022 105.036 23.9293 100.505 26.971V43.7001C100.505 50.5439 128.448 68.0334 134.489 59.6689C140.531 51.3043 127.693 22.4085 120.896 20.1272Z" fill="#EEEBE8"/>
</mask>
<g mask="url(#mask1_36_71)">
<g style="mix-blend-mode:multiply">
<path d="M116.096 26.1115C111.938 24.7935 103.97 28.8574 100.505 31.0541V43.1358C100.505 48.0783 121.87 60.7092 126.49 54.6683C131.11 48.6275 121.293 27.759 116.096 26.1115Z" fill="url(#paint2_linear_36_71)"/>
</g>
<path style="mix-blend-mode:multiply" opacity="0.5" d="M128.448 64.6354C128.448 38.4771 109.819 27.375 100.505 25.0938L105.036 63.1146L128.448 64.6354Z" fill="#C4C4C4" fill-opacity="0.3"/>
</g>
<path fill-rule="evenodd" clip-rule="evenodd" d="M111.339 98.1911C118.983 86.9367 123.854 73.7361 123.854 62.3542C123.854 36.3162 98.3596 18.25 72.5 18.25C46.6404 18.25 19.6354 36.3162 19.6354 62.3542C19.6354 74.1429 25.1711 87.8827 33.6298 99.3903C33.6254 100.077 33.6446 100.769 33.6881 101.465C34.6651 117.094 47.6263 129.271 63.2866 129.271H81.7134C97.3737 129.271 110.335 117.094 111.312 101.465C111.381 100.361 111.389 99.2692 111.339 98.1911Z" fill="url(#paint3_linear_36_71)"/>
<path fill-rule="evenodd" clip-rule="evenodd" d="M41.438 75.3088C37.886 75.1607 34.1488 75.4522 30.5801 76.493C30.3053 76.5731 30.091 76.2746 30.2991 76.0916C35.0242 71.9355 45.5514 67.4973 56.2001 77.8141C56.406 78.0136 56.163 78.3344 55.8863 78.229C54.6021 77.74 52.9977 77.2219 51.1688 76.7584C52.2891 77.9706 52.9648 79.5393 52.9648 81.2528C52.9648 85.0942 49.5687 88.2083 45.3795 88.2083C41.1902 88.2083 37.7941 85.0942 37.7941 81.2528C37.7941 78.735 39.253 76.5296 41.438 75.3088Z" fill="url(#paint4_linear_36_71)"/>
<path d="M39.0649 50.2279C47.7629 49.354 55.937 62.8656 59.4741 70.8568C59.6596 71.2756 59.0966 71.6429 58.6536 71.4032C45.7183 64.4046 32.8099 66.2643 27.0596 68.3842C26.6755 68.5257 26.2441 68.277 26.2838 67.9213C26.9537 61.921 30.2687 51.1117 39.0649 50.2279Z" fill="url(#paint5_linear_36_71)"/>
<path fill-rule="evenodd" clip-rule="evenodd" d="M102.099 75.3088C105.651 75.1607 109.389 75.4522 112.957 76.493C113.232 76.5731 113.446 76.2746 113.238 76.0916C108.513 71.9355 97.986 67.4973 87.3373 77.8141C87.1314 78.0136 87.3744 78.3344 87.6511 78.229C88.9354 77.74 90.5397 77.2219 92.3687 76.7584C91.2483 77.9706 90.5726 79.5393 90.5726 81.2528C90.5726 85.0942 93.9687 88.2083 98.158 88.2083C102.347 88.2083 105.743 85.0942 105.743 81.2528C105.743 78.735 104.284 76.5296 102.099 75.3088Z" fill="url(#paint6_linear_36_71)"/>
<path d="M104.704 50.2279C96.4011 49.354 88.5985 62.8656 85.2222 70.8568C85.0452 71.2756 85.5826 71.6429 86.0054 71.4032C98.3528 64.4046 110.674 66.2643 116.163 68.3842C116.53 68.5257 116.942 68.277 116.904 67.9213C116.264 61.921 113.1 51.1117 104.704 50.2279Z" fill="url(#paint7_linear_36_71)"/>
<path opacity="0.6" d="M34.7396 101.896C48.1885 96.0198 82.1212 87.7934 110.26 101.896C99.2254 92.7146 68.6722 79.8608 34.7396 101.896Z" fill="url(#paint8_linear_36_71)"/>
<path fill-rule="evenodd" clip-rule="evenodd" d="M52.6136 115.68C57.346 116.817 66.5185 117.651 69.9913 112.84C70.0123 112.811 70.0249 112.776 70.0278 112.74L70.9102 102.079C70.9188 101.976 71.0054 101.896 71.1095 101.896H72.0274H72.5295H73.4474C73.5514 101.896 73.6381 101.976 73.6467 102.079L74.529 112.74C74.532 112.776 74.5446 112.811 74.5656 112.84C78.0384 117.651 87.2109 116.817 91.9432 115.68C92.1351 115.634 92.267 115.859 92.127 115.998C87.2325 120.863 77.784 119.023 72.7705 118.046C72.6013 118.014 72.4372 117.982 72.2784 117.951C72.1197 117.982 71.9556 118.014 71.7864 118.046C66.7729 119.023 57.3244 120.863 52.4299 115.998C52.2899 115.859 52.4217 115.634 52.6136 115.68Z" fill="#8C8C87"/>
<path d="M60.7232 93.9119C67.8162 89.1899 79.8584 91.7578 83.5135 93.9275C83.629 93.9961 83.703 94.1092 83.7266 94.2451C84.4567 98.4495 83.4968 106.458 72.1948 106.458C60.9021 106.458 60.0373 98.4626 60.5152 94.2555C60.5314 94.1135 60.6072 93.9891 60.7232 93.9119Z" fill="url(#paint9_linear_36_71)"/>
<path opacity="0.3" d="M68.0457 94.4121C70.8233 93.3867 73.9283 93.8435 76.1303 94.5438C77.1707 94.8747 77.5036 96.1129 76.8984 97.027C76.562 97.5351 75.9957 97.8402 75.3892 97.8402H69.0235C68.3645 97.8402 67.7492 97.5087 67.3837 96.9566C66.78 96.0448 67.0238 94.7893 68.0457 94.4121Z" fill="white"/>
<defs>
<linearGradient id="paint0_linear_36_71" x1="71.7448" y1="18.25" x2="71.7448" y2="129.271" gradientUnits="userSpaceOnUse">
<stop stop-color="#F8F9F7"/>
<stop offset="1" stop-color="#E9E9E1"/>
</linearGradient>
<linearGradient id="paint1_linear_36_71" x1="24.9843" y1="27.375" x2="37.9678" y2="54.6811" gradientUnits="userSpaceOnUse">
<stop stop-color="#DCD8D4"/>
<stop offset="0.589865" stop-color="#EEEBE8" stop-opacity="0"/>
</linearGradient>
<linearGradient id="paint2_linear_36_71" x1="118.63" y1="27.375" x2="105.647" y2="54.6811" gradientUnits="userSpaceOnUse">
<stop stop-color="#DCD8D4"/>
<stop offset="0.589865" stop-color="#EEEBE8" stop-opacity="0"/>
</linearGradient>
<linearGradient id="paint3_linear_36_71" x1="71.7448" y1="18.25" x2="71.7448" y2="129.271" gradientUnits="userSpaceOnUse">
<stop stop-color="#F8F9F7"/>
<stop offset="1" stop-color="#E9E9E1"/>
</linearGradient>
<linearGradient id="paint4_linear_36_71" x1="43.2463" y1="71.4792" x2="43.2463" y2="88.2083" gradientUnits="userSpaceOnUse">
<stop offset="0.312016" stop-color="#2B2D31"/>
<stop offset="1"/>
</linearGradient>
<linearGradient id="paint5_linear_36_71" x1="42.8959" y1="50.1875" x2="42.8959" y2="71.4792" gradientUnits="userSpaceOnUse">
<stop offset="0.312016" stop-color="#2B2D31"/>
<stop offset="1"/>
</linearGradient>
<linearGradient id="paint6_linear_36_71" x1="100.291" y1="71.4792" x2="100.291" y2="88.2083" gradientUnits="userSpaceOnUse">
<stop offset="0.312016" stop-color="#2B2D31"/>
<stop offset="1"/>
</linearGradient>
<linearGradient id="paint7_linear_36_71" x1="101.047" y1="50.1875" x2="101.047" y2="71.4792" gradientUnits="userSpaceOnUse">
<stop offset="0.312016" stop-color="#2B2D31"/>
<stop offset="1"/>
</linearGradient>
<linearGradient id="paint8_linear_36_71" x1="72.5" y1="89.7292" x2="72.5" y2="101.896" gradientUnits="userSpaceOnUse">
<stop stop-color="#DCD8D4"/>
<stop offset="0.791211" stop-color="#C4C4C4" stop-opacity="0"/>
</linearGradient>
<linearGradient id="paint9_linear_36_71" x1="72.1644" y1="91.25" x2="72.1644" y2="106.458" gradientUnits="userSpaceOnUse">
<stop offset="0.312016" stop-color="#2B2D31"/>
<stop offset="1"/>
</linearGradient>
</defs>
</svg>
