<svg width="146" height="146" viewBox="0 0 146 146" fill="none" xmlns="http://www.w3.org/2000/svg">
<path fill-rule="evenodd" clip-rule="evenodd" d="M89.3285 23.6167C87.5255 20.2034 84.5699 16.0615 80.4863 12.582C75.4168 8.26252 68.4382 4.83596 59.7406 5.37956C49.256 6.03485 41.9784 10.9175 38.7366 18.2346C35.5803 25.359 36.6322 33.9479 40.8768 41.4575C41.3822 42.3516 41.9523 43.1668 42.5763 43.9083C40.1859 44.9666 37.9286 46.3325 35.9648 48.0896C31.4363 52.1414 28.8193 58.0806 27.3018 63.8296C21.6797 69.3268 15.5081 76.6004 11.1456 84.6678C6.60038 93.0733 3.77258 102.813 6.22935 112.417C8.05803 119.565 11.2696 124.346 15.7119 126.791C19.0939 128.652 22.698 128.889 26.0048 128.331C29.2327 132.936 34.4336 136.425 42.1217 138.007C62.1822 142.138 68.8892 142.179 74.4313 142.18C79.29 142.278 86.7333 141.976 93.7077 141.284C97.2105 140.936 100.655 140.484 103.634 139.92C106.515 139.375 109.298 138.666 111.262 137.684C114.809 135.911 118.242 133.237 120.441 128.521C123.507 128.8 126.759 128.328 129.793 126.49C133.975 123.956 137 119.275 138.755 112.417C141.225 102.761 138.353 92.9681 133.764 84.5295C129.357 76.4278 123.134 69.133 117.492 63.6437C115.968 57.9568 113.36 52.0995 108.878 48.0896C107.221 46.6065 105.358 45.406 103.393 44.4354C104.378 40.606 104.374 36.3192 102.729 32.5226C100.602 27.6153 96.0659 24.2635 89.3285 23.6167ZM102.115 48.0496C101.005 47.475 99.8332 46.9784 98.6195 46.5512C99.0917 45.5347 99.474 44.4519 99.7504 43.338C101.572 35.9972 98.7956 27.3047 86.881 27.3047C84.1517 20.8713 74.95 8.23848 59.9777 9.17424C41.2624 10.3439 36.5836 26.135 44.1867 39.5866C44.8145 40.6973 45.5765 41.6556 46.4476 42.4777C47.7243 43.6823 49.2354 44.5944 50.9026 45.2649C49.1106 45.6373 47.3537 46.1237 45.6838 46.7468C42.991 47.7516 40.5242 49.1119 38.5 50.923C34.5261 54.4786 32.1183 60.0365 30.7227 65.8101C19.4261 76.6244 5.66891 94.8844 9.91282 111.474C13.2666 124.584 20.9416 126.155 27.8239 123.986C30.2205 128.719 34.7828 132.615 42.8884 134.284C62.7734 138.378 69.2068 138.378 74.4705 138.378C83.8282 138.572 103.713 137.208 109.562 134.284C113.138 132.495 116.382 129.774 117.995 124.229C124.654 126.01 131.853 124.057 135.071 111.474C139.338 94.7943 125.408 76.4259 114.078 65.6345C112.676 59.924 110.277 54.4426 106.343 50.9231C105.087 49.7992 103.661 48.849 102.115 48.0496Z" fill="#C18F00"/>
<path d="M59.9778 9.17424C74.95 8.23848 84.1517 20.8713 86.881 27.3047C106.181 27.3047 101.502 50.114 92.1447 53.0383C84.6586 55.3777 79.2779 47.7746 77.5234 43.6806C68.9455 46.7998 50.2692 50.3479 44.1867 39.5866C36.5836 26.135 41.2625 10.344 59.9778 9.17424Z" fill="url(#paint0_linear_34_386)"/>
<mask id="mask0_34_386" style="mask-type:alpha" maskUnits="userSpaceOnUse" x="40" y="9" width="61" height="45">
<path d="M59.9778 9.17424C74.95 8.23848 84.1517 20.8713 86.881 27.3047C106.181 27.3047 101.502 50.114 92.1447 53.0383C84.6586 55.3777 79.2779 47.7746 77.5234 43.6806C68.9455 46.7998 50.2692 50.3479 44.1867 39.5866C36.5836 26.135 41.2625 10.344 59.9778 9.17424Z" fill="#F8BE1A"/>
</mask>
<g mask="url(#mask0_34_386)">
<path d="M48.5889 38.1271C47.0125 40.2516 42.6775 39.0123 40.7071 38.1271C44.2101 42.7743 55.5512 52.7326 72.8912 55.3881C94.5662 58.7075 105.075 46.7576 103.762 42.1104C102.448 37.4632 97.8503 41.4465 93.2526 42.1104C88.6548 42.7743 91.2821 36.7994 86.0276 31.4883C80.773 26.1772 78.8026 32.816 72.8912 34.8077C66.9798 36.7994 65.6662 28.1689 56.4707 26.8411C47.2753 25.5133 50.5594 35.4716 48.5889 38.1271Z" fill="#F6E75A"/>
</g>
<ellipse cx="72.874" cy="45.9708" rx="16.9607" ry="7.60309" fill="#FE425B"/>
<path d="M37.4009 118.493C30.3827 124.536 15.0595 131.593 9.91282 111.474C4.77211 91.3788 26.0441 68.8326 37.3614 60.038L37.4009 118.493Z" fill="#F8BE1A"/>
<mask id="mask1_34_386" style="mask-type:alpha" maskUnits="userSpaceOnUse" x="9" y="60" width="29" height="65">
<path d="M37.4009 118.493C30.3827 124.536 15.0595 131.593 9.91282 111.474C4.77211 91.3788 26.0441 68.8326 37.3614 60.038L37.4009 118.493Z" fill="#F8BE1A"/>
</mask>
<g mask="url(#mask1_34_386)">
<g style="mix-blend-mode:multiply">
<path d="M26.8736 86.9105C25.0021 84.5711 27.6534 72.2892 29.213 66.4407L35.6464 64.1013L37.401 120.832C35.2565 124.926 28.8621 131.71 20.4402 126.096C9.91287 119.077 29.213 89.8348 26.8736 86.9105Z" fill="#F9E8B9"/>
</g>
</g>
<path d="M107.583 118.493C114.602 124.536 129.925 131.593 135.071 111.474C140.212 91.3789 118.94 68.8327 107.623 60.038L107.583 118.493Z" fill="#F8BE1A"/>
<mask id="mask2_34_386" style="mask-type:alpha" maskUnits="userSpaceOnUse" x="107" y="60" width="29" height="65">
<path d="M107.583 118.493C114.602 124.536 129.925 131.593 135.071 111.474C140.212 91.3789 118.94 68.8327 107.623 60.038L107.583 118.493Z" fill="#F8BE1A"/>
</mask>
<g mask="url(#mask2_34_386)">
<g style="mix-blend-mode:multiply">
<path d="M118.111 86.9106C119.982 84.5712 117.331 72.2893 115.771 66.4407L109.338 64.1013L107.583 120.832C109.728 124.926 116.122 131.71 124.544 126.096C135.071 119.078 115.771 89.8349 118.111 86.9106Z" fill="#F9E8B9"/>
</g>
</g>
<path d="M35.8702 63.5163L74.4705 48.3101L111.316 63.5163C111.316 71.0024 114.399 85.3508 115.568 92.759C123.171 122.586 117.106 130.511 109.562 134.284C103.713 137.208 83.8282 138.572 74.4705 138.378C69.2069 138.378 62.7735 138.378 42.8885 134.284C16.4819 128.847 27.6823 99.7772 28.852 95.0984C29.7878 91.3553 33.9207 72.4841 35.8702 63.5163Z" fill="url(#paint1_linear_34_386)"/>
<ellipse cx="41.8768" cy="102.702" rx="4.67883" ry="2.33942" fill="#E6AE11"/>
<ellipse cx="102.701" cy="102.702" rx="4.67882" ry="2.33941" fill="#E6AE11"/>
<path fill-rule="evenodd" clip-rule="evenodd" d="M72.874 96.853C82.7618 96.853 91.0121 101.065 92.9255 106.666C99.8067 107.709 105.041 112.974 105.041 119.311C105.041 126.399 98.4947 132.145 90.4196 132.145C88.2678 132.145 86.2247 131.737 84.385 131.004C81.7083 133.001 77.5472 134.284 72.874 134.284C68.2008 134.284 64.0397 133.001 61.363 131.004C59.5233 131.737 57.4802 132.145 55.3284 132.145C47.2533 132.145 40.7071 126.399 40.7071 119.311C40.7071 112.974 45.9413 107.709 52.8225 106.666C54.7358 101.065 62.9862 96.853 72.874 96.853Z" fill="#FDF6B3"/>
<path d="M72.5859 115.876C64.3866 115.876 58.3974 112.683 55.2884 110.169C54.8138 109.785 54.0172 110.241 54.2016 110.823C56.4154 117.805 62.2677 128.435 72.5859 128.435C82.9488 128.435 89.1177 117.712 91.5117 110.732C91.7081 110.16 90.9484 109.693 90.4696 110.064C87.2002 112.592 80.9002 115.876 72.5859 115.876Z" fill="#DF6653"/>
<mask id="mask3_34_386" style="mask-type:alpha" maskUnits="userSpaceOnUse" x="54" y="109" width="38" height="20">
<path d="M72.5859 115.876C64.1466 115.876 58.0485 112.493 55.0227 109.95C54.6233 109.614 53.9477 109.999 54.1003 110.498C56.2333 117.469 62.1062 128.435 72.5859 128.435C83.1056 128.435 89.3034 117.385 91.6178 110.418C91.7809 109.927 91.1328 109.536 90.7288 109.86C87.5402 112.412 81.1255 115.876 72.5859 115.876Z" fill="#DF6653"/>
</mask>
<g mask="url(#mask3_34_386)">
<ellipse cx="72.8741" cy="128.435" rx="11.1122" ry="7.01824" fill="#E39A93"/>
<path d="M72.2892 117.908C66.8751 117.908 67.6486 115.568 67.6485 114.399H76.9298C76.9298 115.568 77.7032 117.908 72.2892 117.908Z" fill="white"/>
</g>
<ellipse cx="72.2891" cy="103.871" rx="7.01824" ry="3.50912" fill="#3F260F"/>
<path fill-rule="evenodd" clip-rule="evenodd" d="M54.4669 84.8083C55.429 84.9045 56.2704 85.0813 56.8029 85.2334C57.3649 85.2334 57.3649 79.0519 50.6213 81.2997C43.8778 83.5475 43.8778 89.7291 44.4398 89.7291C44.6437 89.7291 45.0697 89.285 45.664 88.6654C46.0361 88.2775 46.4742 87.8208 46.9651 87.3612C46.6441 88.2473 46.4641 89.2412 46.4641 90.2912C46.4641 94.0155 48.7285 97.0347 51.5218 97.0347C54.315 97.0347 56.5794 94.0155 56.5794 90.2912C56.5794 88.0318 55.7461 86.032 54.4669 84.8083Z" fill="#3F260F"/>
<ellipse cx="52.0585" cy="88.6046" rx="1.40484" ry="2.80967" transform="rotate(2.56514 52.0585 88.6046)" fill="white"/>
<path fill-rule="evenodd" clip-rule="evenodd" d="M91.2813 84.8083C90.3191 84.9045 89.4776 85.0813 88.9451 85.2335C88.3832 85.2335 88.3832 79.0519 95.1267 81.2997C101.87 83.5476 101.87 89.7291 101.308 89.7291C101.104 89.7291 100.678 89.285 100.084 88.6655C99.7119 88.2776 99.2739 87.821 98.7831 87.3615C99.1041 88.2474 99.2841 89.2413 99.2841 90.2912C99.2841 94.0155 97.0197 97.0347 94.2264 97.0347C91.4331 97.0347 89.1687 94.0155 89.1687 90.2912C89.1687 88.0318 90.0021 86.032 91.2813 84.8083Z" fill="#3F260F"/>
<ellipse rx="1.40484" ry="2.80967" transform="matrix(-0.998998 0.0447552 0.0447551 0.998998 93.6896 88.6046)" fill="white"/>
<g style="mix-blend-mode:multiply">
<mask id="mask4_34_386" style="mask-type:alpha" maskUnits="userSpaceOnUse" x="25" y="48" width="95" height="91">
<path d="M35.8702 63.5163L74.4705 48.3101L111.316 63.5163C111.316 71.0024 114.399 85.3508 115.568 92.759C123.171 122.586 117.106 130.511 109.562 134.284C103.713 137.208 83.8282 138.572 74.4705 138.378C69.2069 138.378 62.7735 138.378 42.8885 134.284C16.4819 128.847 27.6823 99.7772 28.852 95.0984C29.7878 91.3553 33.9207 72.4841 35.8702 63.5163Z" fill="url(#paint2_linear_34_386)"/>
</mask>
<g mask="url(#mask4_34_386)">
<g style="mix-blend-mode:multiply" opacity="0.3">
<path fill-rule="evenodd" clip-rule="evenodd" d="M29.01 87.4953C29.7898 87.6903 31.9343 87.8462 34.2737 86.9105C34.6636 87.3004 36.1452 87.9632 38.9525 87.4953C39.2938 87.4384 39.8896 87.376 40.6871 87.2925C47.6168 86.5665 69.7784 84.2448 72.5816 70.0915C75.3847 84.2448 97.5463 86.5665 104.476 87.2925C105.274 87.376 105.869 87.4384 106.211 87.4953C109.018 87.9632 110.5 87.3004 110.889 86.9105C113.229 87.8462 115.373 87.6903 116.153 87.4953C116.153 73.6436 87.6751 68.1454 72.8739 67.0663C72.874 67.0527 72.874 67.0391 72.874 67.0255C72.7772 67.0319 72.6797 67.0386 72.5816 67.0454C72.4835 67.0386 72.386 67.0319 72.2891 67.0255C72.2891 67.0391 72.2892 67.0527 72.2892 67.0663C57.488 68.1454 29.01 73.6436 29.01 87.4953Z" fill="#CB8807"/>
</g>
</g>
</g>
<path fill-rule="evenodd" clip-rule="evenodd" d="M72.4215 45.0813C64.8184 43.7058 47.3898 42.9591 38.5 50.9762C29.6102 58.9933 28.5575 77.1103 29.1424 85.1667C30.9587 84.7442 34.7376 83.2317 38.6276 80.1519C36.9513 82.0167 35.5758 83.9383 35.5758 85.1667C45.9082 84.1842 67.7427 79.3896 72.4215 68.0714V45.0813ZM72.4215 45.0813C80.0246 43.7058 97.4533 42.9591 106.343 50.9762C115.233 58.9933 116.286 77.1103 115.701 85.1667C113.884 84.7442 110.105 83.2317 106.215 80.1519C107.892 82.0167 109.267 83.9383 109.267 85.1667C98.9349 84.1842 77.1004 79.3896 72.4215 68.0714V45.0813Z" fill="url(#paint3_linear_34_386)"/>
<defs>
<linearGradient id="paint0_linear_34_386" x1="70.4839" y1="9.125" x2="70.4839" y2="53.4761" gradientUnits="userSpaceOnUse">
<stop stop-color="#FFD04B"/>
<stop offset="1" stop-color="#F8BE1A"/>
</linearGradient>
<linearGradient id="paint1_linear_34_386" x1="72.2848" y1="48.3101" x2="72.2848" y2="138.396" gradientUnits="userSpaceOnUse">
<stop stop-color="#FBEE74"/>
<stop offset="1" stop-color="#EDDD44"/>
</linearGradient>
<linearGradient id="paint2_linear_34_386" x1="72.2848" y1="48.3101" x2="72.2848" y2="138.396" gradientUnits="userSpaceOnUse">
<stop stop-color="#FBEE74"/>
<stop offset="1" stop-color="#EDDD44"/>
</linearGradient>
<linearGradient id="paint3_linear_34_386" x1="72.4215" y1="44.2161" x2="72.4215" y2="85.1667" gradientUnits="userSpaceOnUse">
<stop stop-color="#FFF272"/>
<stop offset="1" stop-color="#EEDE46"/>
</linearGradient>
</defs>
</svg>
