<svg width="20" height="20" viewBox="0 0 20 20" fill="none" xmlns="http://www.w3.org/2000/svg">
<g clip-path="url(#clip0_243_478)">
<path fill-rule="evenodd" clip-rule="evenodd" d="M10.0001 0.416748C7.62614 0.41798 5.33001 1.2588 3.52229 2.78885C1.71457 4.3189 0.513151 6.43842 0.132852 8.76841C-0.247447 11.0984 0.218171 13.4869 1.44646 15.5069C2.67474 17.5269 4.5856 19.0466 6.83734 19.7942C7.33411 19.8864 7.52123 19.5785 7.52123 19.3167C7.52123 19.055 7.51129 18.2959 7.50798 17.4661C4.72606 18.0671 4.13822 16.2922 4.13822 16.2922C3.6845 15.1396 3.02876 14.8367 3.02876 14.8367C2.12133 14.2209 3.09666 14.2324 3.09666 14.2324C4.10179 14.3032 4.63003 15.2582 4.63003 15.2582C5.5209 16.7779 6.96981 16.3383 7.53944 16.0814C7.62886 15.4376 7.88884 14.9997 8.17531 14.751C5.95309 14.5008 3.61826 13.6479 3.61826 9.83793C3.60449 8.84984 3.97325 7.89429 4.64824 7.16898C4.54557 6.91872 4.2028 5.90778 4.74593 4.53461C4.74593 4.53461 5.58548 4.26788 7.4964 5.55378C9.13546 5.1081 10.8648 5.1081 12.5038 5.55378C14.4131 4.26788 15.251 4.53461 15.251 4.53461C15.7958 5.90448 15.453 6.91542 15.3503 7.16898C16.0275 7.89441 16.397 8.85162 16.382 9.84123C16.382 13.6594 14.0422 14.5008 11.8166 14.7461C12.1743 15.0556 12.4939 15.6599 12.4939 16.5885C12.4939 17.9189 12.4823 18.9891 12.4823 19.3167C12.4823 19.5818 12.6628 19.8914 13.1695 19.7942C15.4215 19.0465 17.3326 17.5265 18.5608 15.5062C19.7891 13.4859 20.2545 11.097 19.8737 8.76679C19.493 6.43658 18.291 4.31704 16.4827 2.78725C14.6744 1.25746 12.3777 0.417199 10.0034 0.416748H10.0001Z" fill="black"/>
<path d="M3.78705 14.6935C3.76552 14.7429 3.68604 14.7577 3.62146 14.7232C3.55688 14.6886 3.50886 14.6244 3.53205 14.5733C3.55523 14.5223 3.63306 14.5091 3.69764 14.5437C3.76222 14.5783 3.81189 14.6441 3.78705 14.6935Z" fill="black"/>
<path d="M4.19285 15.1428C4.15856 15.16 4.11933 15.1648 4.08187 15.1563C4.04441 15.1479 4.01106 15.1268 3.98752 15.0967C3.92294 15.0275 3.90969 14.932 3.95937 14.8892C4.00904 14.8464 4.09847 14.8662 4.16305 14.9353C4.22763 15.0045 4.24253 15.1 4.19285 15.1428Z" fill="black"/>
<path d="M4.58697 15.7143C4.5257 15.7571 4.42138 15.7143 4.36342 15.6287C4.34739 15.6133 4.33465 15.5949 4.32594 15.5746C4.31724 15.5542 4.31274 15.5323 4.31274 15.5102C4.31274 15.488 4.31724 15.4661 4.32594 15.4457C4.33465 15.4254 4.34739 15.407 4.36342 15.3916C4.42469 15.3504 4.52902 15.3916 4.58697 15.4756C4.64493 15.5595 4.64658 15.6715 4.58697 15.7143Z" fill="black"/>
<path d="M5.12168 16.2674C5.06704 16.3283 4.95609 16.3118 4.86502 16.2295C4.77394 16.1472 4.75241 16.0352 4.80706 15.9759C4.8617 15.9167 4.97265 15.9331 5.06703 16.0138C5.16142 16.0945 5.17964 16.2081 5.12168 16.2674Z" fill="black"/>
<path d="M5.87173 16.5903C5.84689 16.6677 5.73429 16.7023 5.62169 16.6694C5.50909 16.6364 5.43457 16.5442 5.4561 16.4652C5.47762 16.3862 5.59188 16.3499 5.70614 16.3862C5.8204 16.4224 5.89326 16.5096 5.87173 16.5903Z" fill="black"/>
<path d="M6.68986 16.6459C6.68986 16.7266 6.59713 16.7957 6.47791 16.7974C6.35868 16.799 6.26099 16.7332 6.26099 16.6525C6.26099 16.5718 6.35371 16.5027 6.47294 16.501C6.59216 16.4994 6.68986 16.5636 6.68986 16.6459Z" fill="black"/>
<path d="M7.45166 16.5194C7.46656 16.6001 7.38377 16.6841 7.26454 16.7038C7.14532 16.7236 7.041 16.6758 7.02609 16.5968C7.01119 16.5178 7.0973 16.4322 7.21321 16.4108C7.32912 16.3894 7.43676 16.4387 7.45166 16.5194Z" fill="black"/>
</g>
<defs>
<clipPath id="clip0_243_478">
<rect width="20" height="20" fill="white"/>
</clipPath>
</defs>
</svg>
