<svg width="28" height="26" viewBox="0 0 28 26" fill="none" xmlns="http://www.w3.org/2000/svg">
<path d="M2.75 10.25V23.375H25.25V10.25H2.75ZM1.8125 8.375H26.1875C26.4613 8.375 26.6859 8.46281 26.8616 8.63844C27.0372 8.81406 27.125 9.03875 27.125 9.3125V24.3125C27.125 24.5863 27.0372 24.8109 26.8616 24.9866C26.6859 25.1622 26.4613 25.25 26.1875 25.25H1.8125C1.53875 25.25 1.31406 25.1622 1.13844 24.9866C0.962812 24.8109 0.875 24.5863 0.875 24.3125V9.3125C0.875 9.03875 0.962812 8.81406 1.13844 8.63844C1.31406 8.46281 1.53875 8.375 1.8125 8.375ZM3.6875 4.625H24.3125V6.5H3.6875V4.625ZM6.5 0.875H21.5V2.75H6.5V0.875Z" fill="#08080A" fill-opacity="0.96"/>
</svg>
