<svg width="300" height="200" viewBox="0 0 300 200" fill="none" xmlns="http://www.w3.org/2000/svg">
<rect x="251" y="1" width="10.2941" height="10.2941" rx="2.5" stroke="white" stroke-width="1.5"/>
<rect x="251" y="15.7059" width="10.2941" height="10.2941" rx="2.5" stroke="white" stroke-width="1.5"/>
<rect x="265.706" y="1" width="10.2941" height="10.2941" rx="2.5" stroke="white" stroke-width="1.5"/>
<rect x="265.706" y="15.7059" width="10.2941" height="10.2941" rx="2.5" stroke="white" stroke-width="1.5"/>
<path d="M213.5 2.39681V23.4883M213.5 2.39681L214.875 1.88076C218.005 0.706415 221.495 0.706414 224.625 1.88076C225.455 2.19244 226 2.94711 226 3.78634V21.0997C226 22.252 224.759 23.04 223.619 22.612C221.135 21.68 218.365 21.68 215.881 22.612L213.517 23.4991C213.509 23.5022 213.5 23.4966 213.5 23.4883M213.5 2.39681L212.125 1.88076C208.995 0.706415 205.505 0.706414 202.375 1.88076C201.545 2.19244 201 2.94711 201 3.78634V21.0997C201 22.252 202.241 23.04 203.381 22.612C205.865 21.68 208.635 21.68 211.119 22.612L213.483 23.4991C213.491 23.5022 213.5 23.4966 213.5 23.4883" stroke="white" stroke-width="1.5"/>
<path d="M151.093 24.0246L151.8 24.2745L151.8 24.2745L151.093 24.0246ZM152.624 25.5559L152.874 26.263L152.874 26.263L152.624 25.5559ZM156.455 24.2022L156.705 24.9093L156.455 24.2022ZM157.319 24.2868L157.689 23.6343L157.319 24.2868ZM152.491 20.0683L153.198 20.3182L152.491 20.0683ZM151.75 13.4491C151.75 6.98785 156.988 1.75 163.449 1.75V0.25C156.159 0.25 150.25 6.15942 150.25 13.4491H151.75ZM153.086 18.8844C152.233 17.2612 151.75 15.4126 151.75 13.4491H150.25C150.25 15.6616 150.795 17.749 151.759 19.5823L153.086 18.8844ZM151.8 24.2745L153.198 20.3182L151.783 19.8184L150.385 23.7748L151.8 24.2745ZM152.374 24.8487C152.017 24.9748 151.674 24.6312 151.8 24.2745L150.385 23.7748C149.839 25.3203 151.328 26.8092 152.874 26.263L152.374 24.8487ZM156.205 23.495L152.374 24.8487L152.874 26.263L156.705 24.9093L156.205 23.495ZM163.449 25.1481C161.353 25.1481 159.389 24.5978 157.689 23.6343L156.949 24.9393C158.869 26.0272 161.087 26.6481 163.449 26.6481V25.1481ZM175.148 13.4491C175.148 19.9103 169.91 25.1481 163.449 25.1481V26.6481C170.739 26.6481 176.648 20.7387 176.648 13.4491H175.148ZM163.449 1.75C169.91 1.75 175.148 6.98785 175.148 13.4491H176.648C176.648 6.15942 170.739 0.25 163.449 0.25V1.75ZM156.705 24.9093C156.771 24.8858 156.861 24.8892 156.949 24.9393L157.689 23.6343C157.25 23.3856 156.71 23.3166 156.205 23.495L156.705 24.9093ZM151.759 19.5823C151.804 19.6686 151.806 19.7543 151.783 19.8184L153.198 20.3182C153.369 19.8328 153.312 19.3139 153.086 18.8844L151.759 19.5823Z" fill="white"/>
<circle cx="157.287" cy="13.5111" r="1.55613" fill="white"/>
<circle cx="163.511" cy="13.5111" r="1.55613" fill="white"/>
<circle cx="169.736" cy="13.5111" r="1.55613" fill="white"/>
<path d="M118.105 19.4211V23.3158C118.105 25.5249 116.314 27.3158 114.105 27.3158H105C102.791 27.3158 101 25.5249 101 23.3158V5C101 2.79086 102.791 1 105 1H114.105C116.314 1 118.105 2.79086 118.105 5V8.89474" stroke="white" stroke-width="1.5" stroke-linecap="round"/>
<path d="M122.053 18.1053L125.293 14.865C125.683 14.4745 125.683 13.8413 125.293 13.4508L122.053 10.2105" stroke="white" stroke-width="1.5" stroke-linecap="round"/>
<path d="M124.684 14.1579L108.895 14.1579" stroke="white" stroke-width="1.5" stroke-linecap="round"/>
<rect x="51" y="7.25" width="25" height="17.5" rx="5" stroke="white" stroke-width="1.5"/>
<path d="M62.75 6.625C62.75 7.03921 63.0858 7.375 63.5 7.375C63.9142 7.375 64.25 7.03921 64.25 6.625H62.75ZM60.5 1C60.5 0.585786 60.1642 0.25 59.75 0.25C59.3358 0.25 59 0.585786 59 1H60.5ZM64.25 6.625V6H62.75V6.625H64.25ZM60.5 2.25V1H59V2.25H60.5ZM61.625 3.375C61.0037 3.375 60.5 2.87132 60.5 2.25H59C59 3.69975 60.1753 4.875 61.625 4.875V3.375ZM64.25 6C64.25 4.55025 63.0747 3.375 61.625 3.375V4.875C62.2463 4.875 62.75 5.37868 62.75 6H64.25Z" fill="white"/>
<circle cx="71" cy="14.125" r="1.25" fill="white"/>
<circle cx="68.5" cy="17.875" r="1.25" fill="white"/>
<path d="M58.5 18.5L58.5 13.5" stroke="white" stroke-width="1.5" stroke-linecap="round" stroke-linejoin="round"/>
<path d="M56 16H61" stroke="white" stroke-width="1.5" stroke-linecap="round" stroke-linejoin="round"/>
<circle cx="11.8108" cy="11.8108" r="10.8108" stroke="white" stroke-width="1.5" stroke-linecap="round" stroke-linejoin="round"/>
<path d="M19.2433 19.8621L26 26.6189" stroke="white" stroke-width="1.5" stroke-linecap="round" stroke-linejoin="round"/>
</svg>
