<svg width="253" height="28" viewBox="0 0 253 28" fill="none" xmlns="http://www.w3.org/2000/svg">
<path d="M119 17V10C119 5.02944 114.971 1 110 1V1C105.029 1 101 5.02944 101 10V17" stroke="#62AE00" stroke-width="1.5" stroke-linecap="round"/>
<path d="M114 13C114 11.8954 114.895 11 116 11H117C118.105 11 119 11.8954 119 13V17C119 18.1046 118.105 19 117 19H116C114.895 19 114 18.1046 114 17V13Z" stroke="#62AE00" stroke-width="1.5"/>
<path d="M106 13C106 11.8954 105.105 11 104 11H103C101.895 11 101 11.8954 101 13V17C101 18.1046 101.895 19 103 19H104C105.105 19 106 18.1046 106 17V13Z" stroke="#62AE00" stroke-width="1.5"/>
<path d="M69.0483 17V10.0241C69.0483 5.04024 65.008 1 60.0241 1V1C55.0402 1 51 5.04024 51 10.0241V17" stroke="#0026EB" stroke-width="1.5" stroke-linecap="round"/>
<path d="M64.0349 13C64.0349 11.8954 64.9303 11 66.0349 11H67.0483C68.1528 11 69.0483 11.8954 69.0483 13V17C69.0483 18.1046 68.1528 19 67.0483 19H66.0348C64.9303 19 64.0349 18.1046 64.0349 17V13Z" stroke="#0026EB" stroke-width="1.5"/>
<path d="M56.0134 13C56.0134 11.8954 55.118 11 54.0134 11H53C51.8954 11 51 11.8954 51 13V17C51 18.1046 51.8954 19 53 19H54.0134C55.118 19 56.0134 18.1046 56.0134 17V13Z" stroke="#0026EB" stroke-width="1.5"/>
<path d="M202.25 8.6601L206.347 12.9655C207.529 14.2084 209.511 14.2084 210.694 12.9655L214.79 8.6601C216.457 6.90774 216.457 4.06662 214.79 2.31426C213.123 0.561911 210.42 0.561912 208.752 2.31427V2.31427C208.626 2.44705 208.414 2.44705 208.288 2.31427V2.31427C206.621 0.561912 203.918 0.561912 202.25 2.31427C200.583 4.06662 200.583 6.90774 202.25 8.6601Z" fill="#FFDB7E" stroke="#FF7E7E"/>
<path d="M152.247 8.6601L156.324 12.9565C157.507 14.2032 159.493 14.2032 160.676 12.9565L164.753 8.6601C166.416 6.90774 166.416 4.06662 164.753 2.31426C163.09 0.561911 160.394 0.561912 158.732 2.31427V2.31427C158.606 2.44694 158.394 2.44694 158.268 2.31427V2.31427C156.606 0.561912 153.91 0.561912 152.247 2.31427C150.584 4.06662 150.584 6.90774 152.247 8.6601Z" fill="#FF7E7E" stroke="#FF7E7E"/>
<path d="M19 17V10C19 5.02944 14.9706 1 10 1V1C5.02944 1 1 5.02944 1 10V17" stroke="#D20000" stroke-width="1.5" stroke-linecap="round"/>
<path d="M14 13C14 11.8954 14.8954 11 16 11H17C18.1046 11 19 11.8954 19 13V17C19 18.1046 18.1046 19 17 19H16C14.8954 19 14 18.1046 14 17V13Z" stroke="#D20000" stroke-width="1.5"/>
<path d="M6 13C6 11.8954 5.10457 11 4 11H3C1.89543 11 1 11.8954 1 13V17C1 18.1046 1.89543 19 3 19H4C5.10457 19 6 18.1046 6 17V13Z" stroke="#D20000" stroke-width="1.5"/>
</svg>
