<svg width="200" height="32" viewBox="0 0 200 32" fill="none" xmlns="http://www.w3.org/2000/svg">
<rect x="151" y="18.2" width="22" height="3.3" rx="1" stroke="black" stroke-width="1.5"/>
<rect x="152.1" y="5" width="19.8" height="13.2" rx="1" stroke="black" stroke-width="1.5"/>
<path d="M164.2 5.54999L159.8 5.54999" stroke="black" stroke-width="2.5" stroke-linecap="round"/>
<path d="M117.354 13.3636L119.716 14.6411L120.21 14.9188C121.263 15.5105 121.263 17.0361 120.21 17.6278L113.503 21.3962C111.947 22.2702 110.053 22.2702 108.497 21.3962L101.79 17.6278C100.737 17.0361 100.737 15.5105 101.79 14.9188L102.284 14.6411L104.515 13.3636M117.868 19.0512L120.014 20.1317C121.121 20.6889 121.157 22.2664 120.076 22.8736L113.503 26.5667C111.947 27.4407 110.053 27.4407 108.497 26.5667L102.02 22.9275C100.92 22.3098 100.981 20.6975 102.124 20.1652L104.515 19.0512M113.503 15.9013L120.21 12.1329C121.263 11.5412 121.263 10.0156 120.21 9.42388L113.503 5.65548C111.947 4.78151 110.053 4.78151 108.497 5.65548L101.79 9.42388C100.737 10.0156 100.737 11.5412 101.79 12.1329L108.497 15.9013C110.053 16.7753 111.947 16.7753 113.503 15.9013Z" stroke="black" stroke-width="1.5"/>
<path d="M70.0314 17.0394L69.4815 16.5294L70.0314 17.0394ZM61.9502 8.95819L62.4602 9.50809L61.9502 8.95819ZM73.8684 7.28332L74.6121 7.38058L73.8684 7.28332ZM71.7063 5.1212L71.8036 5.86486L71.8036 5.86486L71.7063 5.1212ZM56.5352 16.8585L57.2087 17.1887L57.2087 17.1887L56.5352 16.8585ZM62.1311 22.4544L61.801 21.781L61.801 21.781L62.1311 22.4544ZM58.44 14.0847C58.1471 13.7918 57.6722 13.7918 57.3793 14.0847C57.0864 14.3776 57.0864 14.8524 57.3793 15.1453L58.44 14.0847ZM63.8443 21.6103C64.1372 21.9032 64.612 21.9032 64.9049 21.6103C65.1978 21.3174 65.1978 20.8425 64.9049 20.5496L63.8443 21.6103ZM56.4197 23.6306C56.7126 23.3377 56.7126 22.8628 56.4197 22.57C56.1268 22.2771 55.6519 22.2771 55.359 22.57L56.4197 23.6306ZM52.1265 25.8024C51.8336 26.0953 51.8336 26.5702 52.1265 26.8631C52.4194 27.156 52.8943 27.156 53.1872 26.8631L52.1265 25.8024ZM53.9953 21.2062C54.2882 20.9134 54.2882 20.4385 53.9953 20.1456C53.7024 19.8527 53.2275 19.8527 52.9346 20.1456L53.9953 21.2062ZM51.3184 21.7618C51.0255 22.0547 51.0255 22.5296 51.3184 22.8225C51.6113 23.1154 52.0862 23.1154 52.379 22.8225L51.3184 21.7618ZM58.844 26.055C59.1369 25.7621 59.1369 25.2872 58.844 24.9943C58.5511 24.7014 58.0763 24.7014 57.7834 24.9943L58.844 26.055ZM56.1671 26.6106C55.8742 26.9035 55.8742 27.3783 56.1671 27.6712C56.46 27.9641 56.9349 27.9641 57.2278 27.6712L56.1671 26.6106ZM61.2229 26.4944L61.9654 26.3883L61.9654 26.3883L61.2229 26.4944ZM67.1222 22.5346L67.8647 22.4285L67.8647 22.4285L67.1222 22.5346ZM52.4952 17.7667L52.6013 17.0242L52.6013 17.0242L52.4952 17.7667ZM56.455 11.8674L56.3489 12.6099L56.3489 12.6099L56.455 11.8674ZM60.1805 21.4821L57.5075 18.8091L56.4468 19.8698L59.1198 22.5428L60.1805 21.4821ZM69.4815 16.5294C67.3029 18.8784 63.7732 20.8141 61.801 21.781L62.4613 23.1278C64.449 22.1533 68.1997 20.1174 70.5813 17.5494L69.4815 16.5294ZM57.2087 17.1887C58.1755 15.2165 60.1112 11.6868 62.4602 9.50809L61.4402 8.4083C58.8723 10.79 56.8363 14.5406 55.8618 16.5284L57.2087 17.1887ZM73.1248 7.18606C72.7771 9.84386 71.8516 13.9739 69.4815 16.5294L70.5813 17.5494C73.2945 14.624 74.2598 10.074 74.6121 7.38058L73.1248 7.18606ZM62.4602 9.50809C65.0157 7.13797 69.1458 6.21247 71.8036 5.86486L71.609 4.37753C68.9156 4.7298 64.3656 5.69508 61.4402 8.4083L62.4602 9.50809ZM74.6121 7.38058C74.8442 5.60594 73.3837 4.14543 71.609 4.37753L71.8036 5.86486C72.6013 5.76053 73.2291 6.38833 73.1248 7.18606L74.6121 7.38058ZM57.5075 18.8091C57.0621 18.3638 56.9492 17.718 57.2087 17.1887L55.8618 16.5284C55.3024 17.6694 55.5768 18.9998 56.4468 19.8698L57.5075 18.8091ZM59.1198 22.5428C59.9898 23.4128 61.3203 23.6872 62.4613 23.1278L61.801 21.781C61.2716 22.0405 60.6259 21.9275 60.1805 21.4821L59.1198 22.5428ZM57.3793 15.1453L63.8443 21.6103L64.9049 20.5496L58.44 14.0847L57.3793 15.1453ZM55.359 22.57L52.1265 25.8024L53.1872 26.8631L56.4197 23.6306L55.359 22.57ZM52.9346 20.1456L51.3184 21.7618L52.379 22.8225L53.9953 21.2062L52.9346 20.1456ZM57.7834 24.9943L56.1671 26.6106L57.2278 27.6712L58.844 26.055L57.7834 24.9943ZM64.2483 10.4481C63.0628 11.6336 63.0628 13.5557 64.2483 14.7413L65.309 13.6806C64.7093 13.0809 64.7093 12.1085 65.309 11.5088L64.2483 10.4481ZM64.2483 14.7413C65.4339 15.9268 67.356 15.9268 68.5415 14.7413L67.4808 13.6806C66.8811 14.2803 65.9087 14.2803 65.309 13.6806L64.2483 14.7413ZM68.5415 14.7413C69.727 13.5558 69.727 11.6336 68.5415 10.4481L67.4808 11.5088C68.0806 12.1085 68.0806 13.0809 67.4808 13.6806L68.5415 14.7413ZM68.5415 10.4481C67.356 9.2626 65.4339 9.2626 64.2483 10.4481L65.309 11.5088C65.9087 10.909 66.8811 10.909 67.4808 11.5088L68.5415 10.4481ZM66.2686 22.974L62.6321 26.6106L63.6928 27.6712L67.3293 24.0347L66.2686 22.974ZM61.9654 26.3883L61.4805 22.9942L59.9956 23.2063L60.4805 26.6005L61.9654 26.3883ZM66.0565 20.3779L66.3798 22.6407L67.8647 22.4285L67.5414 20.1658L66.0565 20.3779ZM62.6321 26.6106C62.4032 26.8395 62.0112 26.7088 61.9654 26.3883L60.4805 26.6005C60.7011 28.1446 62.5898 28.7742 63.6928 27.6712L62.6321 26.6106ZM67.3293 24.0347C67.7506 23.6134 67.9489 23.0183 67.8647 22.4285L66.3798 22.6407C66.3973 22.7631 66.3561 22.8866 66.2686 22.974L67.3293 24.0347ZM54.9549 11.6603L51.3184 15.2969L52.379 16.3575L56.0156 12.721L54.9549 11.6603ZM52.3891 18.5092L55.7832 18.994L55.9954 17.5091L52.6013 17.0242L52.3891 18.5092ZM58.8238 11.4482L56.5611 11.1249L56.3489 12.6099L58.6117 12.9331L58.8238 11.4482ZM51.3184 15.2969C50.2154 16.3998 50.845 18.2886 52.3891 18.5092L52.6013 17.0242C52.2808 16.9785 52.1501 16.5865 52.379 16.3575L51.3184 15.2969ZM56.0156 12.721C56.103 12.6336 56.2265 12.5924 56.3489 12.6099L56.5611 11.1249C55.9713 11.0407 55.3762 11.239 54.9549 11.6603L56.0156 12.721Z" fill="black"/>
<path d="M1.17925 25.0689L0.472103 24.8191L0.472103 24.8191L1.17925 25.0689ZM2.7105 26.6002L2.96037 27.3073L2.96037 27.3073L2.7105 26.6002ZM5.76733 25.52L5.51746 24.8129L5.76733 25.52ZM6.63212 25.6036L6.26559 26.2579L6.63212 25.6036ZM2.29933 21.8991L1.59218 21.6493L2.29933 21.8991ZM1.75 16C1.75 10.3391 6.33908 5.75 12 5.75V4.25C5.51065 4.25 0.25 9.51065 0.25 16H1.75ZM2.89778 20.7179C2.16463 19.3065 1.75 17.7028 1.75 16H0.25C0.25 17.9491 0.72518 19.7895 1.56666 21.4094L2.89778 20.7179ZM1.8864 25.3188L3.00648 22.149L1.59218 21.6493L0.472103 24.8191L1.8864 25.3188ZM2.46062 25.893C2.10394 26.0191 1.76037 25.6755 1.8864 25.3188L0.472103 24.8191C-0.0740435 26.3647 1.41478 27.8535 2.96037 27.3073L2.46062 25.893ZM5.51746 24.8129L2.46062 25.893L2.96037 27.3073L6.01721 26.2272L5.51746 24.8129ZM12 26.25C10.1824 26.25 8.47731 25.7775 6.99864 24.9493L6.26559 26.2579C7.96242 27.2084 9.91909 27.75 12 27.75V26.25ZM22.25 16C22.25 21.6609 17.6609 26.25 12 26.25V27.75C18.4893 27.75 23.75 22.4893 23.75 16H22.25ZM12 5.75C17.6609 5.75 22.25 10.3391 22.25 16H23.75C23.75 9.51065 18.4893 4.25 12 4.25V5.75ZM6.01721 26.2272C6.08321 26.2039 6.17399 26.2066 6.26559 26.2579L6.99864 24.9493C6.56151 24.7044 6.02286 24.6343 5.51746 24.8129L6.01721 26.2272ZM1.56666 21.4094C1.61311 21.4988 1.61462 21.5857 1.59218 21.6493L3.00648 22.149C3.17818 21.6631 3.11996 21.1456 2.89778 20.7179L1.56666 21.4094Z" fill="black"/>
<circle cx="6.55493" cy="16.0548" r="1.375" fill="black"/>
<circle cx="12.0549" cy="16.0548" r="1.375" fill="black"/>
<circle cx="17.5549" cy="16.0548" r="1.375" fill="black"/>
</svg>
