<svg width="30" height="30" viewBox="0 0 30 30" fill="none" xmlns="http://www.w3.org/2000/svg">
<path d="M15.0013 17.8168C16.5558 17.8168 17.8159 16.5566 17.8159 15.0022C17.8159 13.4477 16.5558 12.1876 15.0013 12.1876C13.4469 12.1876 12.1868 13.4477 12.1868 15.0022C12.1868 16.5566 13.4469 17.8168 15.0013 17.8168Z" fill="white"/>
<path d="M24.376 17.8168C25.9304 17.8168 27.1905 16.5566 27.1905 15.0022C27.1905 13.4477 25.9304 12.1876 24.376 12.1876C22.8215 12.1876 21.5614 13.4477 21.5614 15.0022C21.5614 16.5566 22.8215 17.8168 24.376 17.8168Z" fill="white"/>
<path d="M5.62585 17.8168C7.18029 17.8168 8.44042 16.5566 8.44042 15.0022C8.44042 13.4477 7.18029 12.1876 5.62585 12.1876C4.0714 12.1876 2.81128 13.4477 2.81128 15.0022C2.81128 16.5566 4.0714 17.8168 5.62585 17.8168Z" fill="white"/>
</svg>
