<svg width="25" height="25" viewBox="0 0 25 25" fill="none" xmlns="http://www.w3.org/2000/svg">
<path d="M1.95151 8.69348L8.99057 8.99231C9.21567 9.00989 10.1576 9.05188 10.1576 10.256C10.1576 11.4181 9.22202 11.4928 8.97885 11.5197L1.95151 11.8185C1.33286 11.8121 0.782562 11.1134 0.782562 10.256C0.782562 9.39856 1.33286 8.69983 1.95151 8.69348ZM8.85825 15.1222L3.64633 15.5294C3.02866 15.5294 2.34506 14.7145 2.34506 13.8751V13.859C2.34506 13.0616 2.88901 12.4122 3.55991 12.4044L8.85532 12.4884C10.1576 12.6486 10.1576 13.4376 10.1576 13.7775C10.1576 14.8947 9.09311 15.1027 8.85825 15.1222ZM4.40317 1.56458L8.76694 2.00061C9.96225 2.04602 10.1576 2.8429 10.1576 3.34192C10.1576 4.23987 9.50278 4.54309 8.85532 4.54309L4.41196 4.68958C3.70151 4.67883 3.12631 3.98206 3.12631 3.12708C3.12631 2.27209 3.69663 1.58118 4.40317 1.56458ZM2.72543 5.05579L8.89731 5.3595C9.35581 5.39026 10.1576 5.50598 10.1576 6.64661C10.1576 7.23254 9.94516 7.89758 8.93686 7.99085L2.72543 8.18079C2.08383 8.17346 1.56381 7.52161 1.56381 6.64661C1.56381 5.77161 2.08383 5.06311 2.72543 5.05579Z" fill="#666666"/>
<path d="M18.1983 13.6386L18.1481 13.7391C18.2208 13.585 18.3397 13.4575 18.4883 13.3743C18.3718 13.4379 18.2724 13.5285 18.1983 13.6386V13.6386Z" fill="#666666"/>
<path d="M9.56709 22.4319C10.0275 23.0808 10.7907 23.4387 11.7185 23.4387C11.8636 23.4387 12.0058 23.3982 12.1292 23.3219C12.2526 23.2456 12.3523 23.1364 12.4172 23.0066C12.5637 22.7107 13.1618 21.8347 13.7937 20.9119C14.6726 19.6262 15.7639 18.0271 16.4904 16.7708L16.4968 16.76C17.4968 15.0271 17.9787 14.0774 18.1481 13.7327L18.197 13.635C18.2694 13.5285 18.3664 13.4409 18.4797 13.3796C18.5923 13.3173 18.7187 13.2839 18.8474 13.2825H20.0837C21.1804 13.2822 22.2321 12.8464 23.0075 12.0708C23.7829 11.2952 24.2185 10.2434 24.2185 9.14673V7.26196C24.2185 6.16518 23.7828 5.11331 23.0073 4.33772C22.2318 3.56214 21.18 3.12635 20.0832 3.12622H17.7009C17.5345 3.12583 17.3719 3.07678 17.2331 2.98511C16.113 2.25366 13.9968 1.56372 11.7185 1.56372C11.3547 1.56372 11.0256 1.57056 10.7287 1.58228C10.658 1.58479 10.5893 1.60648 10.5299 1.64501C10.4705 1.68355 10.4228 1.73749 10.3917 1.80107C10.3606 1.86465 10.3474 1.93547 10.3534 2.00599C10.3594 2.0765 10.3845 2.14405 10.426 2.20142L10.4309 2.20825C10.8493 2.81323 10.9372 3.46802 10.9372 3.90747C10.938 4.32389 10.8517 4.73586 10.6838 5.11694C10.636 5.22506 10.6113 5.34198 10.6113 5.46021C10.6113 5.57843 10.636 5.69535 10.6838 5.80347C10.8508 6.1921 10.9369 6.61068 10.9369 7.03369C10.9369 7.4567 10.8508 7.87528 10.6838 8.26392C10.6362 8.37159 10.6116 8.488 10.6116 8.60571C10.6116 8.72342 10.6362 8.83984 10.6838 8.94751C10.85 9.32942 10.9357 9.74146 10.9357 10.158C10.9357 10.5745 10.85 10.9865 10.6838 11.3684C10.6338 11.4813 10.608 11.6034 10.608 11.7268C10.608 11.8503 10.6338 11.9723 10.6838 12.0852C10.8578 12.4772 10.9443 12.9024 10.9372 13.3313C10.9372 13.7317 10.8395 14.3713 10.5466 14.8538C10.4874 14.9534 10.4517 15.0651 10.442 15.1806C10.4324 15.2961 10.4491 15.4122 10.4909 15.5203C10.5095 15.5691 10.528 15.6208 10.5461 15.675C10.6046 15.8574 10.619 16.051 10.5881 16.24C10.4416 17.1848 10.1159 18.0125 9.7707 18.8845C9.62031 19.2644 9.46455 19.657 9.3205 20.0696C9.0207 20.927 9.11054 21.7883 9.56709 22.4319Z" fill="#666666"/>
</svg>
