<svg width="25" height="25" viewBox="0 0 25 25" fill="none" xmlns="http://www.w3.org/2000/svg">
<path d="M24.2181 5.34522C23.3389 5.72723 22.4087 5.97891 21.4569 6.09229C22.4572 5.50654 23.2095 4.57597 23.5726 3.47511C22.6268 4.02813 21.5938 4.41616 20.5179 4.62257C20.0648 4.14773 19.5199 3.76998 18.9163 3.51229C18.3127 3.25459 17.663 3.12233 17.0067 3.12354C14.3494 3.12354 12.199 5.24268 12.199 7.85499C12.1972 8.21835 12.2388 8.58063 12.3231 8.93409C10.4176 8.84477 8.55184 8.35869 6.84503 7.50697C5.13822 6.65525 3.62799 5.45663 2.41096 3.9878C1.98399 4.70759 1.75819 5.52884 1.75715 6.36573C1.75715 8.00636 2.61311 9.45655 3.90559 10.3062C3.13983 10.288 2.38976 10.0853 1.71906 9.71534V9.77393C1.71906 12.0689 3.37922 13.978 5.57649 14.4126C5.16329 14.5228 4.7375 14.5786 4.30988 14.5786C4.00645 14.5792 3.70372 14.5497 3.40607 14.4907C4.01691 16.3706 5.79475 17.7378 7.9007 17.7769C6.18946 19.0957 4.08851 19.8085 1.92805 19.8032C1.54456 19.8027 1.16143 19.7798 0.780586 19.7349C2.97843 21.1383 5.53325 21.8806 8.14094 21.8735C16.9964 21.8735 21.8343 14.6616 21.8343 8.40675C21.8343 8.20167 21.8289 7.99659 21.8192 7.7964C22.7582 7.12846 23.5705 6.2984 24.2181 5.34522V5.34522Z" fill="#666666"/>
</svg>
