<svg width="24" height="28" viewBox="0 0 24 28" fill="none" xmlns="http://www.w3.org/2000/svg">
<path d="M12 14C13.6019 13.9606 14.93 13.4137 15.9844 12.3594C17.0387 11.305 17.5856 9.97688 17.625 8.375C17.5856 6.77313 17.0387 5.445 15.9844 4.39062C14.93 3.33625 13.6019 2.78937 12 2.75C10.3981 2.78937 9.07 3.33625 8.01562 4.39062C6.96125 5.445 6.41437 6.77313 6.375 8.375C6.41437 9.97688 6.96125 11.305 8.01562 12.3594C9.07 13.4137 10.3981 13.9606 12 14ZM12 15.875C9.87125 15.8162 8.10375 15.0837 6.6975 13.6775C5.29125 12.2712 4.55875 10.5037 4.5 8.375C4.55875 6.24625 5.29125 4.47875 6.6975 3.0725C8.10375 1.66625 9.87125 0.93375 12 0.875C14.1287 0.93375 15.8962 1.66625 17.3025 3.0725C18.7087 4.47875 19.4412 6.24625 19.5 8.375C19.4412 10.5037 18.7087 12.2712 17.3025 13.6775C15.8962 15.0837 14.1287 15.8162 12 15.875ZM12 14C12.2738 14 12.4984 14.0878 12.6741 14.2634C12.8497 14.4391 12.9375 14.6637 12.9375 14.9375V22.4375C12.9375 22.7113 12.8497 22.9359 12.6741 23.1116C12.4984 23.2872 12.2738 23.375 12 23.375C11.7262 23.375 11.5016 23.2872 11.3259 23.1116C11.1503 22.9359 11.0625 22.7113 11.0625 22.4375V14.9375C11.0625 14.6637 11.1503 14.4391 11.3259 14.2634C11.5016 14.0878 11.7262 14 12 14ZM8.25 18.0134V19.9175C6.55062 20.2106 5.19313 20.5962 4.1775 21.0744C3.16188 21.5525 2.64437 22.0066 2.625 22.4366C2.68375 23.0422 3.58719 23.6525 5.33531 24.2675C7.08344 24.8825 9.305 25.2097 12 25.2491C14.6956 25.2097 16.9172 24.8825 18.6647 24.2675C20.4122 23.6525 21.3156 23.0422 21.375 22.4366C21.3556 22.0066 20.8381 21.5525 19.8225 21.0744C18.8069 20.5962 17.4494 20.2106 15.75 19.9175V18.0134C17.9769 18.3453 19.7738 18.9069 21.1406 19.6981C22.5075 20.4894 23.2106 21.4025 23.25 22.4375C23.1719 23.7656 22.0731 24.8691 19.9537 25.7478C17.8344 26.6266 15.1831 27.0856 12 27.125C8.81625 27.0856 6.165 26.6266 4.04625 25.7478C1.9275 24.8691 0.82875 23.7656 0.75 22.4375C0.789375 21.4025 1.4925 20.4894 2.85938 19.6981C4.22625 18.9069 6.02313 18.3453 8.25 18.0134Z" fill="#08080A" fill-opacity="0.96"/>
</svg>
